<?xml version="1.0" standalone="no"?>
<!DOCTYPE svg PUBLIC "-//W3C//DTD SVG 20010904//EN"
 "http://www.w3.org/TR/2001/REC-SVG-20010904/DTD/svg10.dtd">
<svg version="1.0" xmlns="http://www.w3.org/2000/svg"
 width="640.000000pt" height="1280.000000pt" viewBox="0 0 640.000000 1280.000000"
 preserveAspectRatio="xMidYMid meet">
<metadata>
Created by potrace 1.15, written by Peter Selinger 2001-2017
</metadata>
<g transform="translate(0.000000,1280.000000) scale(0.100000,-0.100000)"
fill="#000000" stroke="none">
<path d="M2487 12790 c-81 -14 -187 -50 -259 -86 -70 -35 -148 -97 -148 -118
0 -6 9 -29 19 -51 26 -52 111 -436 111 -497 0 -44 -2 -47 -32 -57 -18 -6 -87
-15 -153 -21 -66 -6 -124 -16 -130 -21 -6 -6 -3 -32 8 -73 19 -71 23 -166 7
-166 -13 0 -32 43 -62 140 -19 59 -28 76 -44 78 -31 4 -35 -28 -12 -79 34 -77
8 -91 -52 -27 -21 23 -42 39 -46 36 -3 -4 -9 -49 -13 -100 -8 -92 -24 -141
-56 -168 -31 -26 -45 -68 -45 -137 0 -84 -15 -146 -79 -338 -102 -309 -126
-440 -118 -644 6 -161 16 -196 52 -187 18 5 30 1 42 -15 58 -71 80 -91 126
-118 86 -49 154 -71 250 -81 51 -6 121 -19 155 -30 35 -11 88 -20 118 -20 30
0 54 -4 54 -9 0 -12 18 -18 119 -40 48 -11 108 -31 135 -45 27 -14 65 -26 85
-26 20 0 53 -5 73 -10 46 -13 50 -26 72 -227 10 -86 24 -163 37 -195 11 -29
24 -85 29 -126 6 -53 15 -83 34 -110 14 -21 30 -59 35 -86 5 -26 18 -61 30
-77 12 -15 21 -32 21 -36 0 -4 -17 -24 -37 -45 l-37 -38 22 -20 c32 -30 28
-59 -8 -71 -16 -6 -31 -12 -31 -12 -1 -1 -4 -65 -8 -142 -9 -172 -15 -186
-107 -237 -147 -82 -215 -107 -243 -89 -28 18 -4 41 43 41 45 0 56 10 56 49 0
10 11 30 25 46 30 31 28 51 -4 48 -21 -3 -22 0 -15 42 6 45 6 45 -30 60 -28
12 -36 21 -36 42 l0 26 -85 -7 c-47 -3 -85 -4 -85 -2 0 11 110 77 119 72 10
-7 28 40 19 50 -3 2 -30 -11 -62 -30 -55 -33 -122 -54 -135 -41 -8 9 29 35 49
35 9 0 42 18 73 40 89 64 104 112 19 60 -46 -28 -135 -51 -196 -49 -23 0 -10
8 54 30 126 45 123 52 -16 44 -111 -7 -123 -6 -132 10 -5 10 -25 23 -43 29
-19 6 -34 18 -34 26 0 12 13 14 72 12 78 -4 93 6 93 62 0 30 -7 32 -34 11 -12
-9 -41 -15 -70 -15 -65 0 -112 27 -121 69 -5 26 -11 31 -35 31 -19 0 -31 6
-34 18 -4 10 -10 88 -15 173 -10 169 -18 199 -93 341 -41 76 -41 76 -77 71
-70 -9 -81 -13 -81 -31 0 -28 21 -42 60 -42 34 0 60 -14 60 -32 0 -4 -13 -5
-30 -2 -63 13 -118 -87 -105 -193 5 -45 4 -53 -10 -53 -19 0 -60 24 -96 57
-15 13 -53 31 -85 38 -74 18 -71 18 -78 -1 -9 -24 20 -64 46 -64 21 0 21 -1 5
-17 -10 -10 -31 -17 -53 -16 -43 1 -64 17 -46 35 17 17 15 28 -6 28 -41 0 -43
-22 -5 -72 19 -27 33 -52 29 -55 -19 -20 -187 113 -202 160 -4 12 -24 42 -45
66 -23 25 -41 58 -45 80 -7 37 -20 61 -34 61 -17 0 -72 -54 -82 -79 -35 -92
-26 -225 21 -319 38 -74 96 -141 138 -159 39 -16 37 -22 -22 -93 -43 -51 -60
-83 -70 -128 -4 -18 -45 -96 -92 -173 -83 -138 -105 -187 -118 -261 -4 -27
-17 -47 -45 -71 -22 -19 -40 -39 -40 -45 0 -6 18 -16 40 -22 22 -6 51 -23 65
-38 57 -61 98 -241 116 -502 24 -356 -15 -596 -114 -698 l-32 -33 0 -122 c0
-155 15 -192 91 -221 77 -29 79 -31 82 -70 2 -21 10 -40 18 -43 8 -3 14 -16
14 -30 0 -69 88 -152 187 -177 36 -9 51 -19 62 -40 13 -27 16 -28 65 -23 61 6
161 42 186 67 14 14 19 42 24 141 4 68 12 143 18 167 17 68 118 158 118 106 0
-26 -20 -54 -39 -54 -25 0 -30 -24 -19 -101 11 -86 15 -97 44 -115 33 -23 46
-80 45 -207 -1 -83 3 -114 15 -133 9 -13 19 -52 21 -87 5 -56 2 -71 -27 -132
-42 -91 -125 -340 -145 -438 -9 -47 -18 -161 -22 -295 -3 -119 -9 -224 -14
-233 -5 -9 -21 -19 -37 -22 -16 -3 -58 -31 -93 -62 -61 -53 -107 -75 -157 -75
-28 0 -96 -34 -123 -61 -20 -20 -20 -21 -3 -40 16 -18 16 -21 2 -36 -26 -25
-3 -58 77 -112 90 -60 206 -109 304 -127 42 -8 86 -17 99 -20 13 -3 43 -23 66
-44 24 -22 46 -40 50 -40 3 0 6 20 6 44 0 51 8 78 21 70 14 -8 11 -77 -11
-232 -17 -119 -20 -195 -20 -451 1 -245 -2 -324 -15 -385 -24 -118 -103 -354
-140 -421 -64 -115 -115 -245 -130 -332 -20 -112 -20 -295 0 -359 17 -57 19
-97 5 -173 -5 -31 -14 -99 -19 -151 -13 -117 -51 -253 -80 -284 -29 -31 -27
-48 14 -85 19 -17 35 -35 35 -40 0 -5 -20 -12 -45 -15 -24 -4 -54 -15 -66 -25
-21 -17 -22 -22 -12 -72 17 -85 2 -209 -30 -259 -20 -29 -27 -52 -27 -88 0
-37 -5 -53 -22 -68 -34 -30 -75 -133 -87 -217 -6 -42 -22 -103 -35 -134 -13
-32 -36 -85 -50 -118 -14 -33 -26 -77 -26 -98 0 -48 22 -102 48 -116 11 -6
108 -16 215 -22 351 -21 401 6 414 218 6 115 -10 263 -38 342 -14 40 -20 81
-19 141 0 92 13 151 53 245 36 86 45 150 57 415 10 217 32 478 46 539 4 14 31
72 60 128 34 63 57 120 60 150 4 26 18 67 31 90 21 37 24 51 19 100 -3 32 -6
71 -6 87 -1 39 45 177 81 246 16 30 36 82 44 114 17 65 113 321 152 404 14 29
47 81 74 114 27 34 50 66 50 72 1 6 2 24 3 40 0 16 7 31 15 34 10 3 12 -1 8
-17 -16 -63 65 15 106 102 36 75 93 137 126 137 27 0 229 -97 282 -136 72 -52
99 -99 99 -168 0 -152 -111 -541 -179 -628 -39 -50 -54 -99 -53 -183 1 -167
57 -316 145 -385 114 -89 216 -250 225 -353 3 -40 0 -56 -12 -66 -10 -9 -73
-16 -193 -22 -194 -9 -239 -15 -248 -30 -4 -6 32 -7 102 -3 96 6 299 -7 337
-22 8 -3 15 -27 18 -60 4 -42 11 -61 31 -82 49 -52 41 -55 -158 -67 -95 -6
-114 -10 -104 -19 2 -2 207 -9 454 -15 248 -6 460 -13 473 -17 26 -8 30 11 5
24 -10 5 -39 13 -65 16 -26 4 -50 11 -53 16 -7 11 26 17 170 31 138 13 145 15
173 49 l22 29 -42 5 c-24 3 -59 2 -78 -2 l-35 -8 37 -8 c21 -4 40 -12 44 -18
9 -14 -142 -6 -157 9 -10 10 34 62 55 64 216 17 296 58 114 59 -64 0 -75 12
-25 27 l32 9 -44 15 c-25 8 -46 20 -48 26 -5 15 75 27 130 21 47 -6 89 2 94
19 6 16 -25 20 -92 13 -41 -5 -73 -3 -100 6 -22 8 -50 14 -63 14 -21 0 -22 -1
-8 -16 20 -19 20 -23 -2 -57 -16 -23 -78 -77 -89 -77 -2 0 -1 15 2 33 5 24 2
37 -9 46 -9 8 -16 29 -16 49 0 31 -9 45 -68 103 -54 53 -80 70 -127 85 -32 11
-60 24 -62 31 -8 24 47 26 110 5 33 -12 63 -20 65 -17 11 10 -10 36 -45 54
-34 18 -36 20 -13 20 40 1 130 -57 196 -127 64 -67 86 -69 60 -8 -22 52 -73
112 -125 146 -76 51 -182 35 -268 -40 -42 -37 -69 -39 -77 -5 -6 23 -10 25
-70 25 -58 0 -67 3 -85 26 -25 32 -27 81 -6 181 8 40 22 186 29 325 17 286 19
296 130 604 80 224 109 296 190 477 35 79 76 182 91 230 23 75 29 87 58 100
67 32 126 40 230 32 56 -4 140 -9 187 -9 117 -3 130 -11 130 -85 0 -47 4 -61
23 -78 38 -36 141 -93 166 -93 30 0 104 37 131 65 42 44 52 261 20 414 -30
139 -24 281 10 281 29 0 84 -207 100 -381 9 -95 -2 -522 -16 -608 -5 -33 -12
-41 -44 -54 -32 -12 -41 -23 -60 -73 -13 -35 -23 -84 -24 -119 -1 -56 1 -60
21 -60 13 0 23 -3 23 -7 0 -5 0 -12 0 -18 0 -5 -6 -10 -14 -10 -15 0 -26 -30
-26 -73 0 -39 -23 -30 -32 14 -4 19 -10 125 -14 236 -7 192 -13 237 -31 219
-13 -13 -6 -302 11 -453 13 -112 14 -156 6 -210 -23 -142 -57 -243 -83 -243
-7 0 -29 16 -47 36 l-35 35 43 -7 c38 -6 42 -5 42 14 0 19 -7 21 -67 24 -76 3
-72 -3 -57 88 6 35 6 35 -15 16 -20 -18 -21 -18 -21 -1 0 15 28 150 61 295 5
25 19 69 30 98 11 31 19 78 19 114 0 60 0 61 -20 43 -18 -17 -20 -17 -26 -1
-12 31 3 135 25 172 27 45 27 62 0 66 -24 3 -35 18 -44 61 -10 51 -23 27 -29
-55 -3 -46 -10 -209 -15 -363 -7 -191 -16 -301 -27 -345 -22 -91 -15 -159 22
-205 16 -20 38 -47 48 -61 29 -36 14 -38 -29 -4 -36 29 -75 40 -75 21 0 -17
74 -74 127 -98 85 -39 103 -36 134 21 32 58 58 163 74 295 l11 96 22 -58 c28
-74 28 -83 -7 -208 -67 -236 -154 -454 -209 -523 -17 -21 -34 -52 -36 -70 -2
-17 -10 -69 -16 -115 -15 -107 -53 -214 -96 -270 -19 -24 -34 -54 -34 -67 0
-33 -46 -165 -101 -289 -62 -139 -65 -188 -16 -240 41 -44 93 -53 357 -62
l195 -6 -25 21 c-40 33 -15 37 50 8 95 -43 129 -13 36 32 -47 23 -48 24 -42
60 4 20 9 79 12 130 7 107 14 116 107 137 l52 12 -60 6 c-68 7 -95 29 -95 78
0 40 24 49 132 49 94 0 137 10 102 24 -10 4 -64 10 -119 13 -67 4 -106 11
-117 21 -24 20 -50 105 -51 165 -1 42 3 53 26 71 14 12 39 50 56 86 52 116 88
136 238 133 62 -1 115 2 118 7 10 16 -85 23 -211 16 l-123 -6 -5 32 c-3 18 -7
75 -10 126 l-5 93 27 -5 c15 -3 61 -8 103 -11 96 -8 129 5 209 81 67 64 80 95
80 192 0 96 -15 141 -70 205 -59 69 -64 84 -49 139 6 24 12 81 14 128 2 75 7
94 39 160 41 84 45 121 17 149 -30 30 -41 56 -41 98 0 61 17 109 92 258 39 77
79 164 90 194 33 99 47 314 17 284 -5 -5 -16 -62 -24 -126 -17 -125 -27 -161
-52 -189 -23 -25 -31 -22 -35 12 l-3 30 -38 -51 c-21 -28 -37 -52 -35 -53 2
-2 18 -7 37 -12 50 -14 48 -29 -6 -42 -27 -6 -58 -14 -71 -18 -21 -6 -22 -4
-17 19 4 14 2 28 -5 32 -18 11 -39 -14 -46 -54 -3 -20 -14 -48 -25 -63 -19
-28 -26 -68 -11 -68 5 0 44 25 87 55 84 58 113 70 77 32 -30 -32 -71 -125 -98
-226 -24 -87 -33 -191 -14 -161 5 8 10 27 10 42 0 57 45 42 56 -19 9 -46 -11
-109 -43 -139 -25 -24 -26 -26 -20 -122 3 -62 1 -110 -6 -132 -11 -32 -15 -35
-52 -35 -56 0 -67 24 -63 147 4 102 10 122 31 95 10 -14 12 3 13 95 0 95 5
126 28 196 31 95 32 134 1 89 -10 -16 -27 -52 -37 -80 l-18 -52 5 130 c6 171
48 410 90 509 16 37 -16 5 -56 -57 l-39 -60 0 166 c0 91 -4 168 -9 171 -12 8
-21 -18 -21 -62 0 -48 -14 -72 -31 -55 -10 10 -10 37 -1 130 16 148 29 200 55
218 15 10 48 15 103 15 91 0 86 -4 173 115 33 44 77 82 85 74 10 -10 -8 -59
-21 -59 -9 0 -12 -6 -8 -19 3 -11 -1 -24 -12 -32 -20 -17 -91 -165 -100 -211
-6 -31 -5 -32 13 -19 45 34 207 198 220 224 12 22 13 32 3 43 -10 12 -7 13 18
8 27 -5 32 -3 42 27 16 47 14 51 -19 44 -36 -8 -38 2 -9 65 23 51 58 92 70 84
5 -3 6 -24 3 -47 l-7 -42 30 28 c16 15 39 27 50 27 12 0 24 4 28 9 15 25 26
130 40 393 10 177 23 329 35 395 27 144 27 237 0 260 -11 10 -20 28 -20 40 0
20 4 22 25 17 21 -5 25 -3 25 17 -1 55 -30 180 -55 240 -15 35 -40 96 -55 136
-48 119 -67 149 -150 238 -44 47 -85 97 -90 111 -7 17 -15 24 -25 20 -11 -4
-15 2 -15 25 0 39 -24 85 -67 130 l-35 36 29 8 28 7 -30 15 c-64 34 -142 37
-130 5 3 -8 0 -21 -6 -28 -9 -11 -5 -16 16 -24 14 -5 33 -10 41 -10 26 0 74
-30 74 -46 0 -11 -6 -14 -22 -8 -57 17 -240 83 -245 88 -3 2 2 15 11 28 21 30
20 35 -9 42 -18 5 -27 15 -32 36 -7 37 -18 37 -67 0 -69 -52 -87 -34 -36 34
17 22 30 49 30 61 0 31 25 60 93 109 85 60 142 88 207 101 48 10 57 16 72 45
23 44 16 49 -22 16 -36 -30 -47 -31 -113 -11 -43 13 -52 13 -77 0 -16 -8 -40
-15 -54 -15 -17 0 -49 -21 -93 -59 -83 -71 -195 -188 -212 -219 -9 -17 -18
-21 -35 -16 -19 5 -27 0 -38 -23 -9 -20 -21 -28 -38 -28 -21 0 -25 4 -22 26 2
14 -4 77 -12 140 -19 152 -12 190 43 211 31 11 71 2 71 -16 0 -7 -9 -25 -20
-39 -38 -47 -1 -41 43 8 23 26 65 58 92 72 28 14 83 48 122 76 57 38 76 47 87
38 10 -9 23 -3 57 24 52 41 162 86 272 110 102 23 261 18 301 -9 35 -23 61
-15 46 14 -14 25 -54 46 -105 52 -22 3 -98 31 -170 61 -71 31 -191 72 -265 92
-178 47 -242 66 -238 70 5 5 247 -14 383 -30 66 -7 122 -12 124 -9 8 8 -46 44
-77 50 -18 3 -60 3 -93 0 -34 -4 -59 -3 -59 2 0 11 40 28 87 37 39 8 47 18 39
51 -10 37 -56 52 -201 64 -219 17 -522 10 -606 -16 -9 -2 -24 2 -32 10 -18 19
-42 174 -33 219 13 67 104 127 223 147 159 26 255 69 317 141 48 56 60 121 53
274 -7 150 -32 235 -86 296 -45 51 -107 171 -147 283 -22 63 -25 82 -16 97 26
41 14 90 -50 203 l-61 109 -82 38 c-75 34 -107 45 -188 63 -15 4 -57 33 -93
66 -36 33 -70 60 -75 60 -15 0 -36 52 -50 119 -14 74 -57 143 -151 246 -87 95
-137 125 -207 125 -83 0 -86 5 -54 81 26 60 28 72 26 203 -1 132 -3 141 -32
200 -60 123 -202 226 -310 226 -20 0 -62 7 -92 16 -101 30 -337 1 -414 -52
-21 -14 -50 -24 -71 -24 -19 0 -48 -7 -63 -15 -40 -20 -130 -122 -136 -153
-15 -72 -30 -109 -61 -155 -44 -64 -44 -89 2 -124 85 -65 114 -96 126 -135 6
-22 25 -53 40 -69 22 -21 31 -44 39 -90 11 -72 20 -90 88 -189 28 -40 51 -81
51 -90 0 -10 14 -43 30 -74 35 -65 32 -78 -27 -119 -42 -29 -73 -35 -73 -13 0
14 -99 53 -158 63 -39 6 -67 -15 -89 -66 l-14 -33 -87 8 c-96 10 -191 11 -237
4 -23 -4 -30 -1 -33 15 -7 33 -33 55 -87 70 -88 26 -90 29 -90 142 0 88 5 114
48 253 26 85 53 192 61 237 15 87 27 108 89 163 47 41 67 78 67 125 0 102 111
202 358 322 139 67 203 81 572 123 151 17 286 37 300 43 34 16 39 61 10 92
-28 30 -117 69 -205 91 -166 40 -175 44 -185 69 -5 13 -20 41 -34 62 -14 21
-48 98 -75 172 -58 154 -111 254 -148 278 -29 20 -160 27 -236 13z m218 -41
c0 -7 -8 -15 -17 -17 -18 -3 -25 18 -11 32 10 10 28 1 28 -15z m-195 -17 c0
-10 12 -22 30 -29 37 -14 40 -44 5 -67 -39 -25 -21 -39 39 -31 l51 6 -32 -33
c-57 -59 -47 -69 89 -79 54 -4 102 -11 108 -14 24 -15 -6 -25 -74 -25 -48 0
-79 -5 -92 -15 -28 -22 -3 -35 71 -35 83 -1 137 -12 143 -29 4 -12 -11 -13
-92 -7 l-96 6 6 -24 c3 -13 1 -27 -5 -30 -18 -12 -12 -36 9 -36 16 0 20 -7 20
-30 0 -40 18 -38 55 6 26 30 34 35 58 29 28 -8 37 -25 12 -25 -8 0 -30 -16
-49 -35 -24 -23 -45 -35 -63 -35 -64 0 -293 -79 -293 -101 0 -5 -11 -9 -25 -9
-14 0 -25 4 -25 9 0 5 21 33 46 63 73 85 78 123 16 130 -27 3 -27 3 -24 79 l2
76 -30 6 c-32 7 -41 33 -15 43 35 14 -2 120 -50 142 -14 7 -23 17 -20 22 12
19 91 59 145 74 72 19 80 19 80 -2z m120 8 c0 -5 -7 -10 -15 -10 -8 0 -15 5
-15 10 0 6 7 10 15 10 8 0 15 -4 15 -10z m94 -66 c24 -9 19 -34 -7 -34 -23 0
-47 17 -47 32 0 9 32 11 54 2z m46 -94 c0 -5 -7 -10 -15 -10 -8 0 -15 5 -15
10 0 6 7 10 15 10 8 0 15 -4 15 -10z m-520 -204 c0 -11 -19 -15 -25 -6 -3 5 1
10 9 10 9 0 16 -2 16 -4z m110 -76 c0 -5 -4 -10 -10 -10 -5 0 -10 5 -10 10 0
6 5 10 10 10 6 0 10 -4 10 -10z m-120 -32 c0 -16 -3 -19 -11 -11 -6 6 -8 16
-5 22 11 17 16 13 16 -11z m824 -103 c22 -11 38 -24 38 -29 -1 -6 -61 -9 -145
-7 -96 1 -171 -3 -232 -14 -132 -23 -340 -116 -451 -202 -45 -34 -64 -41 -64
-23 0 38 100 120 218 179 76 38 222 88 311 106 99 21 276 15 325 -10z m195
-59 c14 -15 10 -16 -41 -16 -56 0 -76 10 -62 31 9 16 83 5 103 -15z m-469 -36
c0 -5 -7 -10 -15 -10 -8 0 -15 5 -15 10 0 6 7 10 15 10 8 0 15 -4 15 -10z
m550 -9 c0 -13 -24 -31 -42 -31 -22 0 -23 13 -3 34 15 14 45 12 45 -3z m-1055
-11 c3 -5 -3 -10 -14 -10 -12 0 -21 5 -21 10 0 6 6 10 14 10 8 0 18 -4 21 -10z
m465 -70 c0 -5 -4 -10 -10 -10 -5 0 -10 5 -10 10 0 6 5 10 10 10 6 0 10 -4 10
-10z m-590 -45 c0 -21 -69 -95 -70 -75 0 14 55 90 66 90 2 0 4 -7 4 -15z
m-105 -64 c-10 -56 -52 -141 -69 -141 -19 0 -22 73 -6 132 22 76 89 84 75 9z
m185 -116 c-7 -8 -16 -15 -21 -15 -13 0 -11 24 3 38 18 18 35 -3 18 -23z m720
-25 c0 -15 -37 -12 -43 4 -3 8 -3 17 0 20 8 7 43 -12 43 -24z m-824 -49 c-34
-49 -84 -96 -92 -88 -9 8 34 72 77 116 41 41 51 24 15 -28z m643 -4 c16 -20 3
-27 -48 -27 l-46 1 24 19 c27 23 54 26 70 7z m111 3 c0 -5 -4 -10 -10 -10 -5
0 -10 5 -10 10 0 6 5 10 10 10 6 0 10 -4 10 -10z m390 0 c0 -5 -4 -10 -10 -10
-5 0 -10 5 -10 10 0 6 5 10 10 10 6 0 10 -4 10 -10z m-1487 -67 c23 -89 22
-98 -10 -123 -39 -30 -77 -24 -81 14 -8 70 28 176 61 176 7 0 20 -28 30 -67z
m1397 38 c0 -15 -78 -80 -105 -87 -30 -7 -58 2 -53 18 2 6 23 17 45 23 23 7
54 22 69 34 28 22 44 27 44 12z m-1206 -36 c24 -25 40 -94 27 -122 -17 -37
-53 -49 -92 -29 -41 20 -49 20 -65 -1 -17 -25 -27 -11 -19 28 7 32 101 139
122 139 7 0 19 -7 27 -15z m651 6 c3 -5 1 -12 -5 -16 -5 -3 -10 1 -10 9 0 18
6 21 15 7z m266 -18 c8 -9 34 -25 58 -36 l43 -19 -7 -127 c-7 -135 2 -199 33
-235 15 -16 26 -17 80 -12 35 4 67 4 71 1 5 -3 5 -22 0 -42 -16 -74 32 -65 52
9 l10 40 50 -4 c27 -3 52 -1 55 3 9 15 -36 49 -64 49 -37 0 -46 10 -24 26 36
28 90 5 118 -48 19 -38 7 -54 -49 -65 -51 -10 -59 -30 -18 -46 39 -14 39 -21
1 -37 -33 -14 -38 -31 -15 -50 22 -18 51 0 98 61 21 27 42 49 45 49 4 -1 18
-24 32 -53 17 -36 32 -53 47 -55 67 -10 42 -55 -75 -133 -163 -108 -207 -148
-148 -133 31 7 45 -14 21 -33 -11 -7 -32 -13 -49 -13 -16 0 -38 -7 -48 -17
-21 -19 -24 -63 -5 -63 23 0 95 57 208 166 59 57 115 104 124 104 55 0 13
-134 -117 -370 -82 -148 -89 -153 -163 -146 -61 6 -93 -3 -81 -23 4 -6 22 -11
39 -11 76 0 97 -27 61 -78 -22 -31 -52 -45 -109 -52 -49 -5 -50 -5 -53 -42 -4
-42 -1 -44 28 -26 15 10 22 10 32 0 15 -15 -1 -51 -84 -185 l-61 -97 -29 27
c-56 53 -71 88 -63 146 l6 52 -24 -30 c-31 -36 -44 -28 -23 13 20 39 52 61 77
55 30 -8 24 31 -17 104 -19 35 -41 94 -49 131 -10 46 -21 71 -35 81 -13 9 -20
24 -20 48 0 27 -6 37 -30 51 -16 9 -30 20 -30 24 0 12 35 27 89 39 76 16 241
122 241 154 0 24 -16 18 -67 -27 -59 -51 -113 -75 -185 -84 -50 -6 -57 -4 -72
17 -19 28 -21 79 -3 79 7 0 26 13 42 30 l28 29 -36 -6 c-52 -8 -48 13 8 37 43
19 59 43 33 53 -7 3 -44 2 -83 0 -58 -5 -68 -3 -57 8 6 7 12 23 12 36 0 13 -6
23 -12 24 -7 0 -31 1 -53 2 l-40 2 -6 93 c-5 86 -8 96 -32 115 -35 29 -57 95
-57 171 0 58 2 64 36 97 20 18 51 65 70 102 35 68 56 88 79 71 7 -5 25 -18 40
-29 l28 -19 25 32 c27 35 52 41 73 15z m413 -64 c-3 -5 -10 -7 -15 -3 -5 3 -7
10 -3 15 3 5 10 7 15 3 5 -3 7 -10 3 -15z m-1234 -4 c0 -8 -4 -15 -10 -15 -5
0 -10 7 -10 15 0 8 5 15 10 15 6 0 10 -7 10 -15z m518 3 c23 -23 14 -48 -17
-48 -39 0 -57 22 -36 44 19 19 37 20 53 4z m582 3 c0 -5 -16 -23 -35 -40 -41
-35 -75 -41 -75 -12 0 12 15 25 48 39 53 24 62 26 62 13z m-1522 -118 c-2 -10
-13 -19 -26 -21 -24 -4 -29 7 -10 26 18 18 40 15 36 -5z m1532 7 c0 -5 -4 -10
-10 -10 -5 0 -10 5 -10 10 0 6 5 10 10 10 6 0 10 -4 10 -10z m140 0 c0 -5 -4
-10 -10 -10 -5 0 -10 5 -10 10 0 6 5 10 10 10 6 0 10 -4 10 -10z m-1533 -27
c6 -18 -47 -37 -61 -23 -8 8 -6 15 9 26 22 17 46 15 52 -3z m193 7 c0 -5 -4
-10 -10 -10 -5 0 -10 5 -10 10 0 6 5 10 10 10 6 0 10 -4 10 -10z m1340 -44 c0
-3 -4 -8 -10 -11 -5 -3 -10 -1 -10 4 0 6 5 11 10 11 6 0 10 -2 10 -4z m-115
-63 c-11 -7 -26 -13 -34 -13 -12 1 -10 6 8 20 12 11 28 17 34 13 6 -4 3 -11
-8 -20z m-1725 -537 c0 -3 -4 -8 -10 -11 -5 -3 -10 -1 -10 4 0 6 5 11 10 11 6
0 10 -2 10 -4z m2453 -249 c3 -8 1 -20 -4 -28 -6 -10 -9 -7 -9 14 0 29 5 35
13 14z m-2503 -47 c0 -5 -4 -10 -10 -10 -5 0 -10 5 -10 10 0 6 5 10 10 10 6 0
10 -4 10 -10z m1166 -41 c8 -14 -21 -43 -35 -35 -19 12 -13 46 8 46 11 0 23
-5 27 -11z m-636 -9 c0 -5 -4 -10 -10 -10 -5 0 -10 5 -10 10 0 6 5 10 10 10 6
0 10 -4 10 -10z m2357 -20 c66 -33 88 -53 78 -70 -9 -15 -35 -12 -42 5 -3 9
-32 29 -64 46 -56 28 -75 49 -46 49 8 0 41 -14 74 -30z m-2088 1 c14 -26 -10
-48 -29 -26 -13 16 -7 45 9 45 6 0 15 -9 20 -19z m1256 -6 c38 -37 33 -55 -11
-45 -20 5 -44 16 -53 25 -15 15 -14 17 3 31 27 19 33 18 61 -11z m-1418 -32
c-3 -10 -5 -4 -5 12 0 17 2 24 5 18 2 -7 2 -21 0 -30z m2028 28 c3 -5 1 -12
-5 -16 -5 -3 -10 1 -10 9 0 18 6 21 15 7z m-85 -36 c-14 -16 -40 -20 -40 -6 0
5 7 17 16 26 22 21 44 4 24 -20z m257 -2 c46 -22 41 -33 -14 -33 -56 0 -96 18
-101 44 -4 17 0 18 39 12 23 -4 58 -14 76 -23z m-2406 -46 c-8 -8 -11 -3 -11
19 1 25 2 27 11 11 8 -14 8 -22 0 -30z m139 -48 c0 -35 -25 -40 -34 -6 -8 30
-8 82 1 90 10 10 33 -50 33 -84z m1430 37 c0 -7 -7 -20 -16 -27 -22 -18 -13
-84 16 -114 12 -12 20 -31 18 -41 -2 -15 6 -20 50 -26 64 -10 92 -23 92 -45 0
-11 -6 -14 -22 -9 -13 4 -46 10 -73 14 -64 10 -71 15 -78 51 -9 41 -49 65
-110 66 -31 0 -52 5 -54 13 -3 7 5 12 20 12 30 0 78 38 107 85 22 35 50 47 50
21z m-1203 -78 c-2 -18 -4 -6 -4 27 0 33 2 48 4 33 2 -15 2 -42 0 -60z m1885
40 c-9 -9 -12 -7 -12 12 0 19 3 21 12 12 9 -9 9 -15 0 -24z m-1787 -7 c3 -11
3 -32 -1 -47 l-7 -27 -13 24 c-18 32 -18 69 0 69 8 0 17 -9 21 -19z m1170 9
c3 -5 -3 -10 -15 -10 -12 0 -18 5 -15 10 3 6 10 10 15 10 5 0 12 -4 15 -10z
m-1925 -20 c0 -5 -4 -10 -10 -10 -5 0 -10 5 -10 10 0 6 5 10 10 10 6 0 10 -4
10 -10z m1121 -12 c41 -46 92 -134 91 -156 -3 -38 -21 -64 -41 -57 -13 4 -20
-1 -24 -15 -4 -15 -13 -20 -41 -20 -39 0 -42 7 -30 69 6 30 9 32 43 29 l36 -3
-2 39 c-3 40 -30 97 -50 103 -7 3 -13 -10 -15 -34 l-3 -38 -90 0 c-83 0 -90 1
-90 20 0 16 7 20 35 21 61 1 66 3 105 34 45 36 50 36 76 8z m1574 12 c-3 -5
-12 -10 -18 -10 -27 0 -119 -51 -160 -89 -24 -23 -47 -41 -51 -41 -14 0 -4 31
20 60 33 39 74 61 144 76 71 16 72 16 65 4z m-695 -15 c0 -8 -4 -15 -10 -15
-5 0 -10 7 -10 15 0 8 5 15 10 15 6 0 10 -7 10 -15z m340 -44 c-22 -56 -26
-101 -10 -101 13 0 13 -36 0 -61 -16 -30 -40 -23 -56 18 -13 29 -14 44 -5 74
11 36 79 134 87 126 3 -2 -4 -28 -16 -56z m-2200 35 c0 -3 -4 -8 -10 -11 -5
-3 -10 -1 -10 4 0 6 5 11 10 11 6 0 10 -2 10 -4z m160 0 c0 -3 -4 -8 -10 -11
-5 -3 -10 -1 -10 4 0 6 5 11 10 11 6 0 10 -2 10 -4z m250 -6 c0 -5 -4 -10 -10
-10 -5 0 -10 5 -10 10 0 6 5 10 10 10 6 0 10 -4 10 -10z m820 1 c0 -5 -6 -14
-14 -20 -16 -13 -32 2 -21 19 8 12 35 13 35 1z m540 -8 c29 -20 59 -54 60 -67
0 -14 -54 4 -77 26 -22 21 -32 58 -15 58 4 0 19 -8 32 -17z m800 -13 c0 -5 -4
-10 -10 -10 -5 0 -10 5 -10 10 0 6 5 10 10 10 6 0 10 -4 10 -10z m202 -22 c-9
-9 -12 -7 -12 12 0 19 3 21 12 12 9 -9 9 -15 0 -24z m-662 8 c0 -16 -28 -42
-36 -33 -3 3 -3 15 1 26 7 23 35 29 35 7z m-1680 -21 c0 -8 -4 -15 -10 -15 -5
0 -10 7 -10 15 0 8 5 15 10 15 6 0 10 -7 10 -15z m2233 -13 c26 -23 21 -33
-10 -20 -38 16 -46 24 -38 37 7 12 19 8 48 -17z m-2093 -7 c0 -8 -4 -15 -10
-15 -5 0 -10 7 -10 15 0 8 5 15 10 15 6 0 10 -7 10 -15z m1944 -15 c-25 -25
-99 -40 -92 -19 6 19 47 39 83 39 l29 0 -20 -20z m-839 -10 c0 -9 -11 -16 -27
-18 -27 -3 -38 14 -21 32 12 12 48 2 48 -14z m-808 -16 c7 -18 -17 -38 -31
-24 -11 11 -1 40 14 40 6 0 13 -7 17 -16z m713 6 c0 -5 -4 -10 -10 -10 -5 0
-10 5 -10 10 0 6 5 10 10 10 6 0 10 -4 10 -10z m475 0 c4 -6 -5 -10 -20 -10
-15 0 -24 4 -20 10 3 6 12 10 20 10 8 0 17 -4 20 -10z m-1670 -20 c3 -5 1 -10
-4 -10 -6 0 -11 5 -11 10 0 6 2 10 4 10 3 0 8 -4 11 -10z m2209 -9 c10 -15
-19 -31 -67 -37 -56 -8 -105 2 -89 18 21 21 146 36 156 19z m-2094 -21 c0 -5
-4 -10 -10 -10 -5 0 -10 5 -10 10 0 6 5 10 10 10 6 0 10 -4 10 -10z m1210 -45
c45 -30 87 -55 92 -55 5 0 6 10 3 21 -5 15 -3 20 6 17 22 -7 23 -77 3 -99 -26
-29 -65 -23 -153 22 -53 27 -98 42 -135 46 -69 7 -75 -9 -13 -37 23 -11 62
-31 86 -45 26 -15 60 -25 83 -25 32 0 39 -3 36 -17 -2 -9 -16 -20 -31 -24 -15
-4 -46 -24 -67 -43 -44 -39 -83 -46 -116 -21 -24 19 -34 19 -34 0 0 -8 12 -22
26 -32 25 -16 25 -17 8 -30 -27 -20 -109 -16 -155 8 -23 11 -39 22 -37 24 2 2
31 -2 66 -9 34 -8 62 -11 62 -7 0 7 -24 96 -35 130 -7 23 -6 24 33 17 27 -4
43 -2 48 5 9 16 -23 39 -54 39 -22 0 -23 2 -17 43 4 23 10 46 12 51 3 4 32 5
64 2 51 -6 59 -5 59 10 0 12 7 15 30 12 21 -3 27 -1 20 6 -17 17 -12 46 9 46
10 0 56 -25 101 -55z m610 25 c15 -36 7 -63 -17 -58 -11 2 -18 12 -18 27 0 52
-25 31 -64 -54 -41 -87 -69 -109 -49 -37 34 122 119 193 148 122z m410 -15 c0
-8 -4 -15 -10 -15 -5 0 -10 7 -10 15 0 8 5 15 10 15 6 0 10 -7 10 -15z m-748
-22 c22 -20 23 -33 3 -33 -12 0 -35 28 -35 44 0 11 13 6 32 -11z m100 -35 c-9
-9 -12 -7 -12 12 0 19 3 21 12 12 9 -9 9 -15 0 -24z m698 22 c0 -5 -4 -10 -10
-10 -5 0 -10 5 -10 10 0 6 5 10 10 10 6 0 10 -4 10 -10z m-1690 -20 c0 -13
-49 -60 -61 -60 -18 0 -8 29 17 49 29 23 44 27 44 11z m1360 4 c0 -4 -8 -13
-17 -21 -17 -14 -17 -14 2 -8 127 41 265 23 265 -35 0 -24 -9 -25 -36 -5 -27
21 -45 18 -84 -10 l-34 -25 71 0 c116 0 112 -42 -5 -48 -73 -4 -128 10 -116
30 4 6 -9 1 -30 -11 -28 -17 -40 -21 -49 -12 -8 8 -4 17 13 36 31 32 10 32
-28 0 -17 -14 -33 -22 -35 -18 -8 13 20 84 44 109 22 23 39 31 39 18z m-1263
-34 c3 -15 -115 -115 -125 -106 -6 7 19 45 59 91 32 36 62 43 66 15z m1177
-21 c-3 -5 -10 -7 -15 -3 -5 3 -7 10 -3 15 3 5 10 7 15 3 5 -3 7 -10 3 -15z
m-79 -26 c-9 -48 -23 -75 -36 -68 -20 13 4 105 28 105 12 0 14 -7 8 -37z
m-1005 -18 c0 -28 -50 -140 -76 -170 -23 -28 -25 -28 -21 -7 4 15 0 25 -9 29
-20 7 -18 15 16 58 17 21 30 50 30 65 0 33 7 40 37 40 14 0 23 -6 23 -15z
m740 5 c0 -5 -4 -10 -10 -10 -5 0 -10 5 -10 10 0 6 5 10 10 10 6 0 10 -4 10
-10z m-130 -41 c-12 -21 -30 -17 -30 6 0 14 20 25 33 18 4 -2 2 -13 -3 -24z
m-728 -31 c-9 -9 -12 -7 -12 12 0 19 3 21 12 12 9 -9 9 -15 0 -24z m1691 1
c42 -22 51 -59 15 -59 -25 0 -88 35 -88 48 0 24 37 29 73 11z m-1466 -26 c6
-17 -36 -38 -50 -24 -7 7 -6 15 3 26 15 18 41 17 47 -2z m1222 -12 c11 -7 -5
-19 -62 -47 -42 -21 -79 -35 -83 -31 -12 12 37 56 80 71 51 18 48 18 65 7z
m-749 -11 c0 -5 -4 -10 -10 -10 -5 0 -10 5 -10 10 0 6 5 10 10 10 6 0 10 -4
10 -10z m510 6 c0 -11 -19 -15 -25 -6 -3 5 1 10 9 10 9 0 16 -2 16 -4z m-560
-25 c0 -12 -29 -35 -36 -28 -11 10 5 37 21 37 8 0 15 -4 15 -9z m638 -3 c-6
-20 -72 -50 -77 -36 -2 6 6 20 19 30 25 21 64 24 58 6z m-223 -18 c3 -5 1 -10
-4 -10 -6 0 -11 5 -11 10 0 6 2 10 4 10 3 0 8 -4 11 -10z m-1165 -45 c-9 -11
-16 -13 -23 -6 -7 7 -6 15 3 26 9 11 16 13 23 6 7 -7 6 -15 -3 -26z m1796 11
c28 -13 55 -29 58 -35 13 -20 -21 -23 -60 -6 -63 28 -137 22 -254 -20 -129
-45 -154 -48 -158 -19 -4 26 30 41 173 79 117 31 176 31 241 1z m-1167 -62
c-12 -33 -24 -53 -26 -47 -5 15 15 82 30 101 19 24 18 4 -4 -54z m281 40 c0
-14 -4 -23 -10 -19 -5 3 -10 15 -10 26 0 10 5 19 10 19 6 0 10 -12 10 -26z
m-2756 -3 c10 -16 -5 -41 -25 -41 -21 0 -25 20 -7 38 14 14 25 15 32 3z m2066
-20 c0 -21 -38 -54 -52 -45 -13 8 -9 23 12 44 25 25 40 25 40 1z m108 7 c16
-16 15 -48 -2 -48 -22 0 -60 35 -52 48 9 15 39 15 54 0z m332 -127 c-29 -72
-56 -131 -61 -131 -10 0 28 131 58 200 22 49 42 75 51 65 2 -2 -20 -62 -48
-134z m-1687 91 c27 -29 47 -88 47 -137 0 -25 -4 -45 -9 -45 -9 0 -71 162 -71
186 0 19 14 18 33 -4z m2849 -62 c42 -43 58 -66 56 -81 -4 -29 -29 -43 -61
-35 -32 8 -36 32 -7 41 28 9 26 16 -21 60 -51 51 -66 75 -44 75 9 0 44 -27 77
-60z m135 29 c13 -25 16 -152 5 -182 -7 -15 -19 32 -48 179 -8 41 23 44 43 3z
m-3059 -42 c30 -115 52 -213 52 -229 0 -39 -39 -7 -64 52 -20 49 -40 183 -32
215 9 36 30 19 44 -38z m1852 43 c0 -5 -4 -10 -10 -10 -5 0 -10 5 -10 10 0 6
5 10 10 10 6 0 10 -4 10 -10z m50 0 c0 -5 -4 -10 -10 -10 -5 0 -10 5 -10 10 0
6 5 10 10 10 6 0 10 -4 10 -10z m180 -13 c0 -35 -89 -267 -102 -267 -12 0 -10
15 13 92 32 105 13 174 -44 161 -15 -4 -19 -2 -12 5 23 23 145 31 145 9z m664
-6 c46 -29 157 -184 142 -199 -12 -11 -39 13 -85 72 -24 32 -54 61 -66 66 -23
9 -35 29 -35 61 0 24 5 24 44 0z m-3431 -18 c30 -32 61 -99 52 -113 -10 -17
-23 -11 -31 13 -4 12 -20 41 -35 64 -44 64 -36 87 14 36z m2047 18 c0 -11 -77
-81 -90 -81 -18 0 -11 26 13 47 39 35 77 52 77 34z m-2158 -53 c-9 -9 -12 -7
-12 12 0 19 3 21 12 12 9 -9 9 -15 0 -24z m2418 22 c0 -5 -2 -10 -4 -10 -3 0
-8 5 -11 10 -3 6 -1 10 4 10 6 0 11 -4 11 -10z m500 -98 c-23 -83 -52 -142
-71 -142 -21 0 -3 75 41 166 50 103 62 93 30 -24z m-570 64 c0 -7 -7 -19 -15
-26 -16 -13 -20 -3 -9 24 8 20 24 21 24 2z m1042 -13 c32 -3 58 -10 58 -14 0
-5 -14 -16 -30 -24 -29 -15 -33 -15 -64 5 -19 11 -40 28 -47 37 -12 15 -12 16
5 10 11 -4 46 -10 78 -14z m-926 -1 c-2 -4 -19 -61 -36 -127 -33 -124 -50
-169 -57 -148 -11 33 68 283 89 283 5 0 7 -3 4 -8z m551 -312 c56 -83 69 -150
29 -150 -8 0 -16 9 -19 20 -8 32 -60 27 -77 -7 l-13 -28 -7 30 -6 30 -18 -27
c-10 -16 -24 -28 -30 -28 -7 0 -25 27 -40 60 -36 77 -94 128 -119 103 -4 -3 4
-25 18 -49 14 -23 25 -47 25 -54 0 -19 -82 -100 -102 -100 -25 0 -69 23 -92
49 -12 13 -31 21 -52 21 -20 0 -44 10 -63 26 -36 30 -84 30 -89 0 -3 -15 0
-18 19 -13 49 13 76 -28 43 -65 -16 -16 -14 -22 24 -85 23 -37 39 -70 35 -73
-3 -3 -50 42 -104 99 -120 126 -153 151 -196 151 -90 0 8 44 187 83 103 23
163 32 363 52 31 4 57 11 57 16 0 6 15 7 35 3 20 -3 48 -1 64 6 25 10 30 19
35 63 4 29 15 79 24 112 l17 60 5 -121 5 -121 42 -63z m-2457 270 c0 -5 -4
-10 -10 -10 -5 0 -10 5 -10 10 0 6 5 10 10 10 6 0 10 -4 10 -10z m1686 -63
c-18 -62 -46 -96 -46 -56 0 27 53 136 58 120 2 -6 -4 -35 -12 -64z m454 63 c0
-5 -4 -10 -10 -10 -5 0 -10 5 -10 10 0 6 5 10 10 10 6 0 10 -4 10 -10z m567
-25 c-6 -35 -6 -35 18 -19 39 26 98 -5 131 -68 29 -56 12 -63 -39 -18 -19 17
-38 30 -41 30 -4 0 12 -27 34 -60 53 -79 66 -114 51 -146 -17 -38 -41 -31 -41
13 0 40 -30 111 -58 136 -16 15 -17 12 -14 -36 2 -29 -3 -83 -10 -122 l-13
-69 -29 74 c-29 75 -46 105 -46 82 0 -7 -6 -12 -14 -12 -19 0 -108 119 -104
139 4 21 33 26 68 11 22 -9 30 -20 32 -43 l4 -32 8 29 c6 20 4 38 -9 64 -17
36 -17 37 10 59 14 13 35 23 47 23 18 0 20 -4 15 -35z m298 -21 c36 -24 77
-97 73 -131 -3 -26 -5 -25 -31 24 -14 28 -31 54 -37 58 -14 8 -13 -41 1 -67
19 -36 28 -77 18 -84 -5 -3 -24 10 -41 30 -34 38 -48 38 -48 0 0 -38 -17 -28
-23 14 -3 20 -8 45 -13 56 -6 15 -4 17 14 12 l21 -7 -20 46 c-27 60 -20 79 25
72 19 -3 46 -13 61 -23z m-2975 -19 c-9 -11 -16 -13 -23 -6 -7 7 -6 15 3 26 9
11 16 13 23 6 7 -7 6 -15 -3 -26z m1712 -27 c-9 -9 -12 -4 -11 23 0 32 1 33
11 11 8 -17 8 -26 0 -34z m1483 21 c18 -33 17 -80 -1 -86 -14 -5 -24 29 -24
80 0 45 5 46 25 6z m-3507 -27 c-2 -11 8 -19 35 -25 20 -5 37 -14 37 -20 0
-14 -90 -107 -104 -107 -9 0 0 155 10 172 8 13 25 -2 22 -20z m222 -86 c-6
-16 -15 -24 -21 -20 -15 9 -5 100 13 122 11 13 13 9 16 -29 2 -25 -2 -58 -8
-73z m2220 84 c0 -13 -7 -20 -20 -20 -19 0 -27 20 -13 33 13 14 33 6 33 -13z
m298 -3 c2 -12 -3 -17 -17 -17 -15 0 -21 6 -21 21 0 25 33 22 38 -4z m-2918
-7 c0 -5 -4 -10 -10 -10 -5 0 -10 5 -10 10 0 6 5 10 10 10 6 0 10 -4 10 -10z
m90 -15 c0 -8 -4 -15 -10 -15 -5 0 -10 7 -10 15 0 8 5 15 10 15 6 0 10 -7 10
-15z m2276 -53 c-15 -15 -16 -15 -16 4 0 28 24 52 28 28 2 -9 -3 -24 -12 -32z
m-2312 6 c8 -13 7 -21 -1 -29 -16 -16 -43 5 -43 33 0 24 28 21 44 -4z m2909
-8 c33 -39 77 -133 84 -179 5 -32 4 -34 -9 -21 -18 17 -128 209 -128 221 0 19
30 7 53 -21z m807 -5 c0 -14 -4 -25 -10 -25 -5 0 -10 11 -10 25 0 14 5 25 10
25 6 0 10 -11 10 -25z m-3450 -20 c0 -14 -4 -25 -10 -25 -11 0 -14 33 -3 43
11 11 13 8 13 -18z m-50 -9 c0 -19 -27 -46 -46 -46 -22 0 -17 27 8 44 28 20
38 20 38 2z m367 -23 c47 -32 57 -35 74 -25 11 7 24 10 29 7 15 -9 12 -41 -5
-55 -8 -7 -15 -16 -15 -20 0 -14 214 -203 218 -192 1 5 -11 35 -27 64 -30 53
-42 128 -21 128 5 0 34 -49 64 -108 30 -59 70 -127 90 -151 20 -23 65 -95 101
-159 36 -64 100 -164 141 -222 94 -130 102 -147 115 -218 15 -82 17 -87 54
-133 40 -47 60 -105 51 -146 -4 -17 -39 -59 -88 -106 -84 -81 -130 -112 -154
-103 -9 3 -14 -1 -14 -13 0 -10 -9 -30 -20 -44 -21 -26 -26 -47 -12 -47 16 0
87 57 187 150 98 90 139 120 151 107 16 -16 -14 -62 -112 -172 -147 -166 -170
-195 -187 -237 -11 -27 -24 -39 -44 -44 -47 -11 -102 -56 -124 -101 -23 -47
-43 -55 -52 -22 -9 33 -31 17 -46 -32 -34 -110 -46 -133 -93 -184 -51 -56
-188 -155 -214 -155 -13 0 -12 4 0 29 19 35 22 109 11 212 -7 65 -5 87 14 150
43 141 68 185 125 219 28 17 66 40 84 51 30 20 34 20 51 5 16 -15 18 -13 30
34 15 58 10 70 -30 70 -21 0 -43 -12 -74 -41 -39 -36 -46 -39 -51 -24 -4 10 9
86 29 169 20 83 53 237 73 341 32 169 35 200 29 280 -4 50 -9 141 -11 203 -2
106 -4 117 -31 155 -36 51 -161 157 -236 199 -33 18 -71 43 -85 55 l-27 21 29
11 28 11 -46 43 c-45 42 -53 57 -39 70 12 13 26 7 80 -30z m3010 -20 c-3 -10
-5 -2 -5 17 0 19 2 27 5 18 2 -10 2 -26 0 -35z m-3125 5 c-9 -9 -12 -7 -12 12
0 19 3 21 12 12 9 -9 9 -15 0 -24z m-224 -44 c26 -7 29 -30 5 -43 -10 -5 -45
-14 -78 -21 -33 -7 -87 -23 -119 -36 -72 -29 -80 -30 -66 -4 35 65 181 124
258 104z m550 -46 c-3 -50 -4 -53 -28 -50 -58 6 -76 66 -27 90 49 24 58 16 55
-40z m-298 11 c0 -24 -23 -21 -28 4 -2 10 3 17 12 17 10 0 16 -9 16 -21z
m2830 -5 c0 -8 -4 -14 -10 -14 -5 0 -10 9 -10 21 0 11 5 17 10 14 6 -3 10 -13
10 -21z m156 14 c4 -6 -3 -19 -16 -30 -21 -17 -25 -17 -38 -4 -13 12 -13 18
-2 30 15 19 46 21 56 4z m-406 -42 c0 -3 -4 -8 -10 -11 -5 -3 -10 -1 -10 4 0
6 5 11 10 11 6 0 10 -2 10 -4z m-2626 -31 c6 -17 -2 -45 -14 -45 -9 0 -20 25
-20 46 0 19 26 18 34 -1z m2826 5 c0 -13 -45 -24 -66 -16 -8 3 -12 10 -9 16 8
13 75 13 75 0z m-2982 -30 l19 -21 6 21 c7 28 35 25 43 -5 8 -33 119 -134 155
-142 21 -4 37 -19 60 -57 37 -60 88 -116 106 -116 22 0 15 19 -22 64 -19 24
-40 58 -47 77 -6 19 -28 59 -50 89 -40 59 -45 70 -27 70 25 0 141 -65 160 -89
11 -14 30 -28 42 -31 51 -13 97 -129 97 -246 0 -103 -1 -104 -75 -104 -59 0
-65 -2 -87 -30 -61 -80 -71 -90 -85 -90 -12 0 -14 7 -9 31 7 36 -7 59 -36 59
-51 0 -19 -95 48 -141 24 -16 56 -48 71 -72 23 -34 35 -43 63 -45 23 -3 38 2
46 13 16 22 47 12 69 -21 14 -23 15 -34 5 -97 -26 -160 -93 -405 -130 -477
-10 -19 -38 -53 -62 -75 -24 -23 -63 -78 -88 -124 -25 -45 -69 -124 -99 -174
-71 -120 -80 -146 -81 -244 0 -132 -14 -144 -60 -54 -16 33 -34 62 -39 66 -6
3 -39 -2 -75 -11 -93 -23 -98 -20 -90 66 4 38 4 70 1 70 -10 0 -47 -123 -47
-157 0 -35 21 -53 63 -53 13 0 26 -3 29 -6 9 -9 -51 -137 -74 -156 -24 -22
-86 -24 -94 -4 -3 8 8 36 25 62 16 27 28 50 26 52 -2 2 -34 -21 -71 -53 -113
-96 -150 -97 -191 -8 -29 63 -24 72 37 73 l35 1 -39 35 c-22 19 -54 38 -70 43
-27 7 -31 12 -30 40 1 20 14 45 36 70 60 65 124 227 153 384 41 226 46 660 8
698 -8 8 -16 -4 -28 -40 -9 -28 -21 -49 -26 -45 -17 10 -9 75 17 124 31 59 28
88 -10 110 -24 13 -32 26 -41 72 -12 63 -27 85 -58 90 -16 2 -23 11 -25 32
-10 85 62 161 209 221 70 28 94 47 116 88 24 47 6 43 -52 -12 -60 -57 -88 -63
-93 -19 -6 54 130 169 242 204 62 19 102 17 124 -6z m1870 -105 c40 -49 85
-110 100 -134 l26 -44 -34 -29 c-40 -32 -80 -36 -140 -12 -45 18 -47 24 -23
65 21 35 13 46 -19 26 -23 -15 -46 -20 -80 -18 -27 2 -22 37 13 100 l31 56
-57 -55 c-32 -30 -63 -69 -71 -87 -17 -39 -33 -50 -45 -32 -14 21 -3 77 26
132 14 27 25 51 25 54 0 3 -22 2 -49 -2 -39 -5 -49 -3 -54 9 -9 22 18 44 61
51 20 4 42 8 47 10 6 2 46 3 90 2 l79 -2 74 -90z m197 50 c24 -23 34 -69 17
-79 -10 -6 -54 38 -70 70 -21 41 16 47 53 9z m293 -3 c3 -9 -2 -13 -14 -10 -9
1 -19 9 -22 16 -3 9 2 13 14 10 9 -1 19 -9 22 -16z m-178 -22 c0 -5 -4 -10
-10 -10 -5 0 -10 5 -10 10 0 6 5 10 10 10 6 0 10 -4 10 -10z m-1950 -24 c0
-11 -19 -15 -25 -6 -3 5 1 10 9 10 9 0 16 -2 16 -4z m2410 -166 c0 -5 -4 -10
-10 -10 -5 0 -10 5 -10 10 0 6 5 10 10 10 6 0 10 -4 10 -10z m-1100 -20 c0 -5
-4 -10 -10 -10 -5 0 -10 5 -10 10 0 6 5 10 10 10 6 0 10 -4 10 -10z m148 -22
c14 -14 16 -44 3 -53 -14 -8 -65 40 -57 53 9 15 39 15 54 0z m536 -19 c-3 -5
-10 -7 -15 -3 -5 3 -7 10 -3 15 3 5 10 7 15 3 5 -3 7 -10 3 -15z m460 0 c-3
-5 -10 -7 -15 -3 -5 3 -7 10 -3 15 3 5 10 7 15 3 5 -3 7 -10 3 -15z m-1740
-14 c66 -16 82 -25 42 -25 -44 0 -114 21 -128 38 -11 14 -10 15 7 8 11 -4 46
-14 79 -21z m846 -15 c0 -5 -4 -10 -10 -10 -5 0 -10 5 -10 10 0 6 5 10 10 10
6 0 10 -4 10 -10z m550 0 c0 -5 -4 -10 -10 -10 -5 0 -10 5 -10 10 0 6 5 10 10
10 6 0 10 -4 10 -10z m-480 -20 c0 -5 -4 -10 -10 -10 -5 0 -10 5 -10 10 0 6 5
10 10 10 6 0 10 -4 10 -10z m226 -64 c-7 -29 -33 -35 -43 -10 -3 8 0 27 6 41
11 24 13 25 28 10 10 -10 13 -24 9 -41z m44 38 c0 -8 -5 -12 -10 -9 -6 4 -8
11 -5 16 9 14 15 11 15 -7z m-1050 -9 c0 -16 -27 -32 -37 -22 -3 4 -3 13 0 22
8 20 37 20 37 0z m1237 0 c19 -8 49 -15 65 -15 60 0 94 -43 44 -56 -27 -6
-137 12 -183 31 -39 16 -42 32 -10 45 32 13 43 12 84 -5z m183 5 c0 -5 -2 -10
-4 -10 -3 0 -8 5 -11 10 -3 6 -1 10 4 10 6 0 11 -4 11 -10z m750 1 c-13 -8
-170 -31 -207 -31 -26 0 -12 20 20 29 41 12 207 14 187 2z m143 2 c-13 -2 -33
-2 -45 0 -13 2 -3 4 22 4 25 0 35 -2 23 -4z m205 0 c-10 -2 -28 -2 -40 0 -13
2 -5 4 17 4 22 1 32 -1 23 -4z m-1994 -28 c6 -17 -13 -65 -26 -65 -14 0 -21
28 -14 55 7 28 31 34 40 10z m234 -2 c5 -17 -26 -29 -40 -15 -6 6 -7 15 -3 22
9 14 37 9 43 -7z m1015 -24 c-15 -15 -112 -39 -162 -39 -57 0 -45 14 29 34 66
18 149 21 133 5z m-264 -13 c17 -20 -21 -40 -57 -31 l-27 7 24 19 c28 23 44
24 60 5z m-1439 -4 c0 -20 -40 -42 -86 -47 l-49 -6 60 30 c66 32 75 35 75 23z
m850 -16 c0 -3 -4 -8 -10 -11 -5 -3 -10 -1 -10 4 0 6 5 11 10 11 6 0 10 -2 10
-4z m1517 -3 c-20 -2 -52 -2 -70 0 -17 2 0 4 38 4 39 0 53 -2 32 -4z m-1787
-22 c0 -21 -208 -193 -303 -250 -44 -27 -61 -21 -29 9 17 16 22 32 22 68 0 73
17 119 54 147 42 32 51 32 66 -5 15 -35 43 -54 69 -45 10 3 32 23 50 45 29 36
71 54 71 31z m450 -1 c0 -5 -4 -10 -10 -10 -5 0 -10 5 -10 10 0 6 5 10 10 10
6 0 10 -4 10 -10z m-1780 -49 c0 -5 -7 -14 -15 -21 -13 -10 -15 -9 -15 9 0 12
6 21 15 21 8 0 15 -4 15 -9z m2818 -3 c20 -20 14 -28 -23 -28 -22 0 -35 5 -35
13 0 28 36 37 58 15z m-478 -22 c54 -8 75 -16 75 -26 0 -8 17 -23 38 -33 l37
-19 -19 -24 c-11 -14 -17 -33 -14 -45 5 -19 3 -21 -28 -14 -36 8 -117 34 -184
58 -47 18 -201 34 -415 43 -181 8 -208 16 -130 38 91 25 159 29 223 12 55 -14
336 -33 310 -20 -26 12 -10 42 22 42 6 0 44 -5 85 -12z m-1380 -20 c0 -7 -23
-35 -51 -61 -39 -36 -53 -45 -62 -36 -9 9 0 24 40 62 52 50 73 60 73 35z
m2192 -17 c119 -24 155 -36 141 -50 -11 -11 -329 51 -359 71 -27 16 91 5 218
-21z m-2935 -23 c-8 -19 -37 -21 -37 -3 0 7 5 18 12 25 15 15 33 -1 25 -22z
m1388 -12 l80 -39 250 0 c169 -1 259 -5 278 -13 51 -22 28 -42 -48 -42 -52 0
-119 -13 -235 -47 -60 -17 -97 -22 -125 -17 -75 12 -270 82 -329 118 -32 19
-74 40 -92 46 -43 14 -43 27 -1 33 76 11 141 -1 222 -39z m-133 -93 c57 -22
128 -46 158 -55 30 -9 62 -21 70 -26 26 -16 -9 -39 -78 -51 -74 -13 -202 2
-269 31 -37 16 -43 23 -43 49 0 16 -4 33 -10 36 -12 7 -13 48 -3 59 12 11 63
-1 175 -43z m-2312 3 c0 -27 -12 -31 -30 -9 -10 12 -10 18 0 30 16 19 30 10
30 -21z m2011 9 c-19 -34 -129 -135 -142 -131 -9 4 11 30 57 77 68 68 107 93
85 54z m1939 -3 c0 -5 -9 -10 -21 -10 -11 0 -17 5 -14 10 3 6 13 10 21 10 8 0
14 -4 14 -10z m185 -10 c0 -10 -12 -16 -37 -18 -28 -2 -38 1 -38 12 0 18 17
25 50 23 15 -1 25 -8 25 -17z m103 3 c-2 -10 -13 -19 -26 -21 -24 -4 -29 7
-10 26 18 18 40 15 36 -5z m-1082 -33 c29 0 12 -30 -28 -51 -78 -40 -319 -37
-306 3 3 7 27 18 54 25 55 14 231 32 252 27 8 -2 20 -4 28 -4z m690 -25 c-3
-8 -10 -15 -16 -15 -14 0 -12 37 3 43 15 5 21 -8 13 -28z m-544 13 c-9 -9 -15
-9 -24 0 -9 9 -7 12 12 12 19 0 21 -3 12 -12z m708 -16 c0 -11 -46 -32 -70
-32 -24 0 -37 20 -19 31 18 11 89 12 89 1z m-1765 -109 c60 -20 183 -13 273
16 73 24 170 27 287 10 l77 -12 -124 -66 c-67 -36 -156 -89 -197 -116 -89 -60
-216 -176 -210 -193 2 -7 45 19 104 62 95 72 161 113 362 232 115 67 142 69
210 16 45 -36 63 -60 77 -104 6 -21 28 -22 111 -5 56 12 61 15 80 54 11 23 23
45 27 49 4 3 24 -8 44 -25 62 -55 56 -35 -30 100 -33 53 -7 44 57 -18 72 -70
93 -83 139 -83 18 0 39 -4 46 -9 16 -10 -30 -21 -88 -21 -69 0 -86 -44 -102
-255 -12 -160 -4 -329 15 -322 6 2 15 21 22 42 6 25 20 44 35 52 46 23 236
-10 324 -56 32 -17 67 -31 77 -31 115 0 398 -208 484 -356 32 -54 41 -64 43
-46 2 12 7 22 11 22 13 0 44 -78 37 -95 -3 -10 14 -54 42 -107 l47 -91 -1
-186 c-1 -142 -6 -213 -22 -301 -12 -63 -26 -155 -32 -205 -14 -109 -58 -316
-71 -329 -5 -6 -19 -1 -34 14 -23 22 -27 22 -41 8 -14 -14 -12 -17 14 -40 49
-41 55 -61 42 -135 -23 -133 -79 -243 -124 -243 -22 0 -34 -8 -150 -98 -59
-46 -76 -48 -68 -7 3 20 0 25 -16 25 -11 0 -22 6 -24 12 -3 8 -14 2 -31 -17
-20 -24 -28 -27 -38 -18 -10 10 -8 21 8 55 45 91 158 509 207 765 14 73 33
147 42 164 12 25 15 47 11 89 -9 80 -39 210 -49 210 -4 0 -8 -22 -8 -49 0 -67
-15 -107 -35 -91 -7 6 -15 21 -17 33 -3 23 -38 38 -38 16 0 -7 12 -36 26 -66
23 -45 27 -71 32 -167 4 -96 2 -123 -17 -182 -14 -46 -19 -81 -15 -102 5 -22
2 -38 -8 -50 -9 -9 -18 -35 -22 -58 -8 -56 -73 -210 -162 -385 -78 -152 -187
-329 -203 -329 -11 0 -17 31 -36 208 -8 78 -22 206 -30 285 -18 157 -59 421
-75 479 -8 29 -17 39 -38 44 -15 3 -38 7 -50 10 -18 4 -32 23 -58 79 -36 79
-67 182 -58 196 11 18 46 -14 71 -67 30 -60 43 -68 43 -26 0 16 9 37 20 47 11
10 20 24 20 31 0 14 -11 17 -82 29 -54 8 -284 8 -298 0 -24 -15 16 -25 102
-25 l87 0 11 -42 c69 -260 82 -288 139 -288 32 0 48 -33 89 -185 22 -82 39
-151 38 -152 -1 -2 -77 2 -169 8 -198 12 -226 7 -297 -56 -28 -25 -56 -45 -62
-45 -14 0 -3 87 13 107 9 10 7 19 -9 36 -25 27 -42 71 -72 193 -12 49 -34 116
-48 149 -14 33 -28 73 -31 90 -9 42 -39 46 -47 6 -4 -17 -9 -31 -13 -31 -9 0
-63 84 -95 148 -54 106 -109 240 -155 373 -57 163 -78 201 -168 299 -145 160
-161 185 -193 310 -24 95 -41 131 -81 178 -36 41 -37 62 -4 62 34 0 76 -60 99
-141 10 -35 25 -84 32 -109 27 -89 137 -250 171 -250 11 0 8 8 -11 30 -14 17
-40 58 -57 91 -18 33 -40 64 -50 70 -22 11 -39 68 -39 127 0 54 13 54 65 1 21
-22 55 -49 75 -59 72 -37 107 -108 120 -243 10 -101 29 -173 56 -215 l18 -27
7 28 c10 37 -8 216 -27 273 -30 87 5 94 49 10 40 -78 29 -10 -17 108 -51 129
-54 146 -27 146 29 0 143 -80 168 -119 23 -33 23 -33 23 -8 0 52 -145 190
-273 259 -97 52 -115 74 -93 116 31 61 125 118 175 107 18 -4 48 6 105 34 43
22 111 48 151 57 73 17 104 15 205 -12 25 -7 25 -7 7 14 -29 33 -130 55 -233
51 l-90 -4 -205 -101 c-112 -56 -228 -118 -258 -138 -50 -34 -55 -36 -77 -22
-54 36 -198 236 -175 244 11 4 117 -63 127 -79 3 -5 11 -9 19 -9 23 0 -6 67
-79 181 -36 57 -66 106 -66 110 0 4 7 20 15 35 8 16 15 48 15 72 l0 42 64 -40
c35 -22 85 -48 111 -57z m-228 1 c-5 -72 -18 -94 -55 -94 -22 0 -24 -3 -19
-34 8 -52 66 -181 109 -247 22 -33 38 -63 34 -66 -12 -12 -86 50 -120 100 -39
60 -51 95 -65 192 -5 39 -12 77 -15 86 -14 32 99 149 127 132 5 -3 7 -34 4
-69z m1743 56 c0 -5 -4 -10 -9 -10 -6 0 -13 5 -16 10 -3 6 1 10 9 10 9 0 16
-4 16 -10z m120 -10 c0 -12 -43 -30 -68 -30 -14 1 -12 4 7 20 25 21 61 27 61
10z m-2130 -39 c-6 -12 -20 -21 -32 -21 -21 0 -20 2 7 30 31 32 45 27 25 -9z
m-100 10 c0 -12 -29 -35 -36 -28 -11 10 5 37 21 37 8 0 15 -4 15 -9z m1592
-18 c24 -21 25 -98 2 -107 -18 -7 -34 1 -52 26 -7 10 -26 18 -42 18 -31 0 -90
43 -90 65 0 21 20 25 94 20 45 -4 77 -11 88 -22z m243 17 c3 -5 -3 -10 -15
-10 -12 0 -18 5 -15 10 3 6 10 10 15 10 5 0 12 -4 15 -10z m-1650 -20 c3 -5 1
-10 -4 -10 -6 0 -11 5 -11 10 0 6 2 10 4 10 3 0 8 -4 11 -10z m1902 -1 c14
-14 6 -39 -12 -39 -18 0 -28 17 -21 35 6 18 18 19 33 4z m-82 -69 c3 -5 -1
-10 -10 -10 -9 0 -13 5 -10 10 3 6 8 10 10 10 2 0 7 -4 10 -10z m-3617 -52
c-14 -21 -30 -26 -36 -10 -4 14 28 43 39 36 6 -4 5 -13 -3 -26z m1657 -18 c3
-5 -3 -10 -15 -10 -12 0 -18 5 -15 10 3 6 10 10 15 10 5 0 12 -4 15 -10z m305
0 c0 -5 -4 -10 -10 -10 -5 0 -10 5 -10 10 0 6 5 10 10 10 6 0 10 -4 10 -10z
m1880 -120 c0 -5 -2 -10 -4 -10 -3 0 -8 5 -11 10 -3 6 -1 10 4 10 6 0 11 -4
11 -10z m-2177 -49 c19 -22 67 -86 105 -143 84 -126 153 -190 249 -234 90 -41
125 -85 148 -187 21 -94 75 -176 188 -289 99 -99 136 -165 161 -283 28 -137
174 -459 241 -534 55 -61 60 -82 130 -538 l26 -172 -46 -90 c-48 -92 -68 -109
-79 -68 -6 21 -7 21 -17 3 -7 -12 -9 -43 -5 -85 3 -37 1 -82 -4 -101 -6 -19
-15 -66 -20 -104 -4 -38 -13 -73 -19 -79 -16 -16 -14 126 2 190 12 45 12 54
-1 67 -13 13 -13 24 1 98 9 46 19 110 22 143 3 33 8 76 11 95 l5 35 -29 -35
c-35 -41 -88 -187 -101 -280 -5 -36 -19 -83 -30 -105 -14 -25 -21 -58 -21 -91
0 -46 3 -53 22 -56 14 -2 25 -13 30 -33 10 -34 2 -158 -14 -222 -9 -37 -8 -43
12 -63 21 -21 22 -28 15 -103 -12 -143 -91 -396 -115 -371 -5 5 -14 50 -20 99
-14 108 -32 168 -65 217 -29 43 -106 84 -131 70 -13 -7 -11 -11 14 -21 48 -20
95 -59 114 -92 15 -28 15 -34 2 -54 -14 -21 -13 -28 12 -77 24 -45 28 -65 28
-133 -1 -74 -6 -92 -64 -240 -168 -428 -245 -660 -256 -771 -9 -88 -33 -122
-102 -144 -65 -21 -91 -45 -131 -120 -37 -70 -52 -82 -88 -78 -23 2 -27 7 -25
26 3 17 -2 22 -17 22 -24 0 -28 25 -9 65 13 30 28 33 28 6 0 -11 5 -23 10 -26
17 -11 11 27 -17 107 -25 69 -26 79 -13 105 l14 28 4 -35 c2 -19 7 -39 12 -44
11 -11 42 56 66 142 23 79 54 152 67 152 6 0 7 16 3 41 -5 34 -4 40 8 36 20
-8 31 8 50 76 9 31 21 57 26 57 12 0 14 -34 10 -237 -2 -116 1 -163 9 -163 6
0 11 3 11 8 3 70 22 149 43 180 14 20 37 80 50 133 20 80 31 104 69 151 51 62
108 143 108 153 0 4 -12 5 -27 3 -30 -3 -38 8 -68 95 -17 48 -37 58 -43 20 -2
-11 -20 -36 -42 -57 -21 -20 -44 -53 -50 -74 -38 -125 -60 -155 -60 -83 0 21
-7 58 -16 82 -10 29 -19 104 -24 221 -5 97 -12 193 -16 212 -11 59 -27 45 -52
-44 l-10 -35 -13 35 c-30 77 -112 234 -116 223 -5 -13 5 -49 36 -136 12 -32
19 -62 16 -68 -12 -18 -35 -8 -41 19 -19 88 -101 254 -111 225 -3 -7 10 -45
28 -83 37 -80 41 -121 14 -150 -18 -20 -18 -21 8 -48 15 -16 27 -31 27 -35 0
-18 -40 -4 -72 26 -19 17 -48 39 -65 48 -18 10 -33 28 -37 45 -4 16 -12 34
-18 41 -17 20 -27 5 -18 -26 9 -31 -1 -57 -18 -47 -6 3 -14 21 -18 39 -3 17
-18 55 -31 84 -47 98 -74 90 -31 -9 l21 -50 -21 -17 c-11 -9 -24 -33 -27 -53
-8 -45 -22 -47 -65 -12 -34 29 -74 34 -97 12 -13 -13 -11 -18 17 -41 17 -15
50 -32 73 -38 23 -6 48 -13 55 -15 21 -6 9 -39 -14 -42 -43 -6 -137 39 -186
90 -57 58 -78 58 -78 0 0 -67 111 -192 170 -192 25 0 30 -4 30 -24 0 -22 -4
-24 -71 -28 -86 -5 -99 -17 -99 -95 0 -61 -15 -102 -57 -161 -31 -42 -54 -107
-73 -205 -12 -59 -29 -72 -40 -28 -3 12 -9 22 -15 22 -13 0 -35 -84 -40 -155
-4 -63 -14 -82 -39 -73 -22 9 -20 53 5 198 20 116 23 209 5 164 -28 -71 -31
-73 -34 -17 -4 64 21 156 48 180 18 15 27 42 15 42 -37 0 -131 -92 -150 -146
-17 -51 -7 -65 21 -29 20 26 24 27 30 11 11 -27 -25 -141 -52 -167 -13 -12
-24 -30 -24 -40 0 -19 -24 -42 -33 -32 -22 21 6 118 39 136 21 12 17 37 -6 37
-30 0 -33 39 -26 372 8 385 10 415 25 461 l13 37 24 -19 c13 -10 38 -22 56
-25 55 -11 74 -36 125 -161 l48 -120 -2 -115 c-2 -101 0 -112 11 -90 19 34 33
116 42 235 11 145 10 151 -35 252 -50 114 -71 185 -79 270 -10 94 -27 91 -48
-6 -9 -44 -21 -86 -26 -93 -15 -24 -28 14 -22 62 8 58 -15 116 -50 130 -30 11
-44 38 -81 150 -38 117 -73 190 -92 190 -18 0 -14 -44 8 -97 14 -34 7 -55 -12
-36 -20 20 -49 146 -49 213 0 36 9 97 20 135 11 38 20 90 20 115 0 37 4 47 22
55 21 9 46 70 34 82 -3 3 -19 -9 -36 -27 -23 -24 -34 -30 -42 -22 -8 8 -4 31
16 84 18 49 33 125 47 233 21 167 36 241 47 231 3 -4 7 -66 7 -139 2 -190 19
-202 77 -51 17 46 35 84 40 84 11 0 11 -5 -12 -115 -25 -122 -25 -153 0 -180
11 -11 47 -72 81 -135 59 -111 93 -160 111 -160 24 0 41 80 46 220 4 135 3
149 -17 187 -34 69 -51 158 -60 321 -5 87 -13 158 -19 164 -8 8 -12 7 -15 -3
-17 -59 -25 -74 -40 -77 -16 -3 -17 7 -15 136 3 143 -5 178 -38 165 -20 -7
-18 23 6 75 21 45 15 50 -30 27 -17 -9 -31 -12 -31 -8 -1 5 -1 51 1 103 1 72
-2 100 -14 115 -15 20 -15 20 -16 -5 0 -14 -5 -32 -10 -40 -9 -13 -11 -13 -20
0 -14 22 -12 41 10 83 11 20 20 47 20 59 0 39 39 103 109 179 76 83 142 127
159 106 5 -6 11 -21 13 -32 4 -21 66 -58 81 -49 4 3 8 23 8 44 0 28 -7 47 -25
66 -14 15 -23 34 -20 42 3 7 5 18 5 23 0 5 46 60 103 122 232 252 332 377 351
440 8 27 31 20 69 -22z m191 -31 c35 -38 43 -59 30 -73 -4 -3 -19 7 -34 23
-16 17 -38 30 -52 30 -14 0 -28 3 -31 7 -7 7 31 53 44 53 3 0 23 -18 43 -40z
m-814 -45 c0 -8 -4 -15 -10 -15 -5 0 -10 7 -10 15 0 8 5 15 10 15 6 0 10 -7
10 -15z m920 -90 c0 -8 -4 -15 -10 -15 -5 0 -10 7 -10 15 0 8 5 15 10 15 6 0
10 -7 10 -15z m60 -33 c0 -5 -11 -14 -25 -20 -28 -13 -35 1 -7 17 21 13 32 14
32 3z m300 -2 c0 -5 -7 -10 -15 -10 -8 0 -15 5 -15 10 0 6 7 10 15 10 8 0 15
-4 15 -10z m1285 -20 c3 -5 -1 -10 -9 -10 -9 0 -16 5 -16 10 0 6 4 10 9 10 6
0 13 -4 16 -10z m-2854 -118 c-22 -71 -36 -100 -45 -91 -7 6 17 92 42 154 25
62 27 16 3 -63z m1269 48 c0 -5 -7 -10 -15 -10 -8 0 -15 5 -15 10 0 6 7 10 15
10 8 0 15 -4 15 -10z m1775 -20 c3 -5 1 -10 -4 -10 -6 0 -11 5 -11 10 0 6 2
10 4 10 3 0 8 -4 11 -10z m-1425 -65 c0 -8 -4 -15 -10 -15 -5 0 -10 7 -10 15
0 8 5 15 10 15 6 0 10 -7 10 -15z m-1736 -210 c-20 -43 -51 -64 -60 -41 -4 9
9 33 33 60 42 49 55 40 27 -19z m450 34 c-3 -5 -10 -7 -15 -3 -5 3 -7 10 -3
15 3 5 10 7 15 3 5 -3 7 -10 3 -15z m1446 -4 c0 -8 -4 -15 -10 -15 -5 0 -10 7
-10 15 0 8 5 15 10 15 6 0 10 -7 10 -15z m-1380 -117 c0 -16 -3 -19 -11 -11
-6 6 -8 16 -5 22 11 17 16 13 16 -11z m-620 -43 c0 -8 -4 -15 -10 -15 -5 0
-10 7 -10 15 0 8 5 15 10 15 6 0 10 -7 10 -15z m99 -16 c15 -44 14 -102 -1
-97 -18 6 -61 95 -54 113 10 27 43 17 55 -16z m-9 -139 c0 -5 -7 -10 -15 -10
-8 0 -15 5 -15 10 0 6 7 10 15 10 8 0 15 -4 15 -10z m140 0 c0 -5 -2 -10 -4
-10 -3 0 -8 5 -11 10 -3 6 -1 10 4 10 6 0 11 -4 11 -10z m-300 -32 c0 -16 -3
-19 -11 -11 -6 6 -8 16 -5 22 11 17 16 13 16 -11z m30 -203 c-7 -44 -18 -99
-26 -123 -8 -23 -12 -51 -9 -61 4 -15 1 -17 -20 -14 -14 3 -41 -2 -61 -12 -45
-21 -54 -13 -30 28 48 80 87 166 118 260 l33 102 3 -50 c2 -27 -2 -86 -8 -130z
m-174 89 c-9 -22 9 -24 40 -3 63 41 68 22 23 -91 -40 -102 -71 -138 -125 -146
-38 -6 -45 -3 -83 31 -61 55 -81 155 -31 155 11 0 42 -24 71 -52 l51 -53 -6
66 c-7 76 -2 97 28 109 25 9 39 3 32 -16z m-246 -50 c16 -40 13 -104 -5 -104
-19 0 -35 31 -35 69 0 61 23 81 40 35z m580 -45 c0 -5 -4 -9 -10 -9 -5 0 -10
7 -10 16 0 8 5 12 10 9 6 -3 10 -10 10 -16z m110 -174 c0 -18 -5 -25 -20 -25
-20 0 -28 28 -13 43 15 16 33 6 33 -18z m120 -95 c0 -13 -7 -20 -20 -20 -23 0
-26 10 -8 28 18 18 28 15 28 -8z m20 -146 c0 -8 -4 -14 -10 -14 -5 0 -10 9
-10 21 0 11 5 17 10 14 6 -3 10 -13 10 -21z m3610 -58 c0 -8 -4 -18 -10 -21
-5 -3 -10 3 -10 14 0 12 5 21 10 21 6 0 10 -6 10 -14z m-3560 -86 c0 -5 -4
-10 -10 -10 -5 0 -10 5 -10 10 0 6 5 10 10 10 6 0 10 -4 10 -10z m-103 -57
c-3 -10 -5 -4 -5 12 0 17 2 24 5 18 2 -7 2 -21 0 -30z m-27 -93 c-6 -11 -15
-20 -20 -20 -6 0 -10 9 -10 20 0 13 7 20 20 20 18 0 19 -3 10 -20z m3648 -117
c-2 -54 1 -106 6 -115 7 -15 4 -18 -15 -18 -44 0 -55 14 -41 54 7 19 15 59 19
88 5 50 18 88 29 88 2 0 3 -44 2 -97z m-3826 -55 c-9 -9 -12 -7 -12 12 0 19 3
21 12 12 9 -9 9 -15 0 -24z m3868 -3 c0 -14 -4 -25 -10 -25 -5 0 -10 11 -10
25 0 14 5 25 10 25 6 0 10 -11 10 -25z m-3551 -37 c0 -62 -18 -120 -38 -126
-12 -4 -13 7 -8 59 11 115 48 168 46 67z m-317 -50 c-9 -9 -12 -7 -12 12 0 19
3 21 12 12 9 -9 9 -15 0 -24z m2327 -78 c7 -52 26 -170 43 -262 17 -92 28
-174 25 -182 -9 -24 -44 -19 -62 7 -9 14 -19 66 -25 123 -12 125 -13 431 -1
419 5 -6 14 -53 20 -105z m-1954 80 c3 -5 1 -10 -4 -10 -6 0 -11 5 -11 10 0 6
2 10 4 10 3 0 8 -4 11 -10z m2379 -50 c35 -13 54 -55 38 -81 -15 -23 -16 -74
-2 -100 10 -17 13 -18 34 -4 20 13 24 14 29 2 3 -8 -2 -25 -11 -38 -9 -13 -19
-49 -23 -80 -8 -67 -34 -109 -90 -145 -21 -13 -39 -28 -39 -32 0 -4 34 -50 76
-102 42 -52 85 -113 95 -135 9 -22 25 -89 34 -150 8 -60 19 -127 24 -147 6
-24 5 -40 -2 -47 -16 -16 -53 -13 -68 5 -11 14 -9 19 11 34 19 14 22 22 14 30
-9 9 -21 4 -47 -19 -50 -45 -57 -41 -55 32 3 83 -3 91 -63 83 -40 -5 -59 -2
-105 19 -30 14 -102 42 -159 61 -57 20 -112 43 -122 51 -16 13 -10 14 52 7 39
-4 104 -8 145 -8 l75 -1 -3 43 c-2 33 1 42 13 42 33 0 83 -78 99 -152 4 -16
13 -28 21 -28 11 0 15 13 15 55 0 61 10 68 47 33 31 -29 30 -9 -2 61 -30 63
-101 155 -179 229 -31 29 -56 57 -56 62 0 5 9 12 20 15 20 6 24 15 21 47 -3
28 20 33 39 8 17 -23 19 -23 44 -7 14 10 26 24 26 32 0 17 -30 50 -51 57 -12
4 -11 10 3 35 9 16 14 33 10 39 -4 6 -33 27 -64 48 -63 41 -76 63 -30 51 15
-5 38 -9 52 -9 21 -1 25 4 28 32 5 49 -9 60 -68 54 -53 -5 -65 3 -27 18 30 12
170 12 201 0z m-2337 -72 c-2 -13 -4 -3 -4 22 0 25 2 35 4 23 2 -13 2 -33 0
-45z m3403 40 c0 -26 -60 -158 -71 -158 -18 0 -8 52 20 115 30 65 51 83 51 43z
m-3470 -64 c0 -14 -4 -23 -10 -19 -5 3 -10 15 -10 26 0 10 5 19 10 19 6 0 10
-12 10 -26z m2140 -9 c0 -8 -4 -15 -10 -15 -5 0 -10 7 -10 15 0 8 5 15 10 15
6 0 10 -7 10 -15z m-2550 -105 c0 -5 -4 -10 -10 -10 -5 0 -10 5 -10 10 0 6 5
10 10 10 6 0 10 -4 10 -10z m2606 -4 c31 -23 12 -26 -31 -6 -36 16 -37 18 -14
19 14 1 34 -5 45 -13z m-2126 -16 c0 -5 -4 -10 -10 -10 -5 0 -10 5 -10 10 0 6
5 10 10 10 6 0 10 -4 10 -10z m-430 -64 c0 -3 -4 -8 -10 -11 -5 -3 -10 -1 -10
4 0 6 5 11 10 11 6 0 10 -2 10 -4z m2937 -16 c2 -8 -2 -22 -7 -30 -9 -13 -11
-13 -20 0 -16 25 -12 52 7 48 10 -2 19 -10 20 -18z m-872 -71 c-23 -64 -37
-81 -30 -35 9 54 23 88 34 81 6 -3 4 -21 -4 -46z m413 7 c-4 -25 -33 -33 -42
-11 -3 9 -1 25 5 36 8 17 13 18 25 8 8 -7 14 -22 12 -33z m-193 14 c4 -12 4
-38 0 -59 -5 -28 -2 -41 9 -51 23 -18 20 -32 -6 -28 -37 5 -52 50 -38 109 13
52 25 62 35 29z m585 -65 c0 -8 -4 -15 -10 -15 -5 0 -10 7 -10 15 0 8 5 15 10
15 6 0 10 -7 10 -15z m-345 -15 c11 -17 -5 -32 -21 -19 -8 6 -14 15 -14 20 0
12 27 11 35 -1z m665 -20 c0 -5 -4 -10 -10 -10 -5 0 -10 5 -10 10 0 6 5 10 10
10 6 0 10 -4 10 -10z m140 0 c0 -5 -4 -10 -10 -10 -5 0 -10 5 -10 10 0 6 5 10
10 10 6 0 10 -4 10 -10z m-50 -46 c0 -8 -5 -12 -10 -9 -6 4 -8 11 -5 16 9 14
15 11 15 -7z m91 6 c21 -12 26 -40 6 -40 -17 0 -37 20 -37 37 0 16 5 16 31 3z
m193 -62 c-33 -46 -80 -85 -91 -75 -4 4 20 34 52 67 32 33 61 57 64 55 2 -3
-9 -24 -25 -47z m-991 4 c9 -8 17 -24 17 -36 0 -17 -6 -14 -40 19 -22 21 -40
43 -40 47 0 10 37 -8 63 -30z m247 28 c0 -5 -2 -10 -4 -10 -3 0 -8 5 -11 10
-3 6 -1 10 4 10 6 0 11 -4 11 -10z m340 1 c0 -27 -25 -71 -43 -77 -12 -3 -30
-13 -39 -22 -17 -14 -18 -13 -18 6 0 25 65 102 86 102 8 0 14 -4 14 -9z m-785
-65 c-9 -59 9 -70 44 -27 33 40 56 42 46 4 -11 -49 -38 -67 -108 -71 -47 -3
-66 0 -75 10 -10 12 -8 19 8 33 11 10 20 29 20 41 0 15 10 29 28 38 40 23 44
20 37 -28z m-119 -18 c-10 -63 -49 -126 -78 -128 -15 0 -8 65 11 105 37 82 78
96 67 23z m650 34 c13 -8 34 -46 34 -61 0 -20 -36 -11 -60 13 -32 35 -12 74
26 48z m-876 -31 c0 -12 -39 -25 -48 -16 -7 7 17 25 36 25 6 0 12 -4 12 -9z
m668 -43 c16 -16 15 -29 -2 -22 -16 6 -30 34 -18 34 5 0 13 -5 20 -12z m-2780
-20 c16 -16 15 -60 0 -80 -16 -19 -128 -42 -141 -29 -15 15 2 47 43 85 41 37
77 45 98 24z m3154 -40 c-9 -9 -12 -7 -12 12 0 19 3 21 12 12 9 -9 9 -15 0
-24z m-2982 -68 c0 -5 -4 -10 -10 -10 -5 0 -10 5 -10 10 0 6 5 10 10 10 6 0
10 -4 10 -10z m-470 -35 c15 -18 6 -45 -13 -45 -20 0 -40 27 -33 45 7 19 30
19 46 0z m260 -15 c0 -5 -4 -10 -10 -10 -5 0 -10 5 -10 10 0 6 5 10 10 10 6 0
10 -4 10 -10z m98 -15 c7 -14 12 -40 12 -57 l0 -31 -25 27 c-14 15 -35 26 -50
26 -31 0 -31 7 -3 37 28 30 52 29 66 -2z m2062 15 c0 -5 -4 -10 -10 -10 -5 0
-10 5 -10 10 0 6 5 10 10 10 6 0 10 -4 10 -10z m-1910 -20 c0 -5 -7 -10 -15
-10 -8 0 -15 5 -15 10 0 6 7 10 15 10 8 0 15 -4 15 -10z m2015 -7 c-13 -36
-17 -110 -6 -130 15 -28 -23 -80 -45 -62 -17 14 -18 51 -2 67 9 9 7 16 -6 31
-15 16 -16 23 -6 43 26 50 82 93 65 51z m392 -42 c28 -13 59 -31 68 -41 16
-17 15 -19 -4 -29 -11 -6 -28 -11 -38 -11 -10 0 -69 -25 -131 -56 -62 -30
-120 -54 -130 -52 -12 2 -18 15 -20 43 -4 44 -43 95 -74 95 -11 0 -18 7 -18
20 0 13 7 20 20 20 11 0 28 9 38 21 16 19 25 20 127 17 87 -3 121 -9 162 -27z
m-2888 -36 c59 -31 120 -67 136 -81 l30 -25 -43 4 c-44 5 -168 75 -227 129
-46 42 -13 34 104 -27z m498 -22 c-3 -10 -5 -4 -5 12 0 17 2 24 5 18 2 -7 2
-21 0 -30z m-337 17 c0 -5 -4 -10 -10 -10 -5 0 -10 5 -10 10 0 6 5 10 10 10 6
0 10 -4 10 -10z m70 -20 c0 -5 -5 -10 -11 -10 -5 0 -7 5 -4 10 3 6 8 10 11 10
2 0 4 -4 4 -10z m2805 -29 c18 -30 -262 -168 -288 -142 -10 10 27 33 168 105
94 47 110 52 120 37z m-2740 -21 c3 -5 -3 -10 -15 -10 -12 0 -18 5 -15 10 3 6
10 10 15 10 5 0 12 -4 15 -10z m275 0 c0 -10 -58 -50 -72 -50 -17 0 -7 30 14
44 25 18 58 21 58 6z m-161 -24 c9 -10 8 -16 -4 -26 -19 -16 -41 1 -32 24 8
20 21 20 36 2z m3131 -33 c0 -10 -9 -29 -20 -43 l-20 -25 0 36 c0 20 3 39 7
42 13 13 33 7 33 -10z m-424 -14 c19 -11 34 -25 34 -29 0 -13 -127 -50 -148
-44 -49 16 -72 27 -72 35 0 14 93 58 124 59 16 0 44 -9 62 -21z m-2553 -53
c11 -46 1 -58 -24 -27 -19 24 -25 52 -12 65 14 13 28 -1 36 -38z m1889 2 c-9
-9 -15 -9 -24 0 -9 9 -7 12 12 12 19 0 21 -3 12 -12z m-1762 -38 c0 -5 -4 -10
-10 -10 -5 0 -10 5 -10 10 0 6 5 10 10 10 6 0 10 -4 10 -10z m2460 -11 c0 -25
-102 -100 -117 -86 -8 9 33 54 72 78 34 22 45 24 45 8z m381 -109 c-18 -97
-34 -111 -28 -25 6 78 27 145 35 110 2 -11 -1 -49 -7 -85z m-271 58 c0 -16 -3
-19 -11 -11 -6 6 -8 16 -5 22 11 17 16 13 16 -11z m-2620 -8 c0 -5 -5 -10 -11
-10 -5 0 -7 5 -4 10 3 6 8 10 11 10 2 0 4 -4 4 -10z m2560 -62 c47 -64 38 -88
-31 -88 -29 0 -69 30 -69 51 0 7 -11 8 -30 4 -17 -4 -30 -2 -30 3 0 14 90 72
112 72 10 0 31 -19 48 -42z m-2434 -73 c7 -29 1 -41 -15 -30 -14 8 -14 55 -1
55 5 0 12 -11 16 -25z m294 -115 c0 -5 -4 -10 -10 -10 -5 0 -10 5 -10 10 0 6
5 10 10 10 6 0 10 -4 10 -10z m551 -41 c43 -30 59 -69 59 -141 0 -57 -1 -61
-16 -47 -8 9 -18 36 -20 60 -8 73 -13 86 -40 118 -30 36 -24 40 17 10z m-588
-65 c44 -29 46 -57 5 -62 -20 -2 -37 7 -67 37 -23 23 -41 46 -41 52 0 18 59 2
103 -27z m517 -18 c0 -16 -18 -31 -27 -22 -8 8 5 36 17 36 5 0 10 -6 10 -14z
m-405 -36 c4 -6 1 -18 -6 -26 -11 -13 -14 -13 -27 0 -8 8 -11 19 -8 25 9 14
33 14 41 1z m2311 -145 c8 -19 -13 -45 -31 -39 -16 7 -27 32 -19 45 9 15 44
10 50 -6z m-381 -54 c-3 -17 -11 -33 -16 -36 -10 -7 -13 68 -2 79 14 13 25
-13 18 -43z m-2075 9 c0 -5 -4 -10 -10 -10 -5 0 -10 5 -10 10 0 6 5 10 10 10
6 0 10 -4 10 -10z m960 -32 c0 -16 -3 -19 -11 -11 -6 6 -8 16 -5 22 11 17 16
13 16 -11z m-40 -38 c0 -5 -4 -10 -10 -10 -5 0 -10 5 -10 10 0 6 5 10 10 10 6
0 10 -4 10 -10z m1513 -15 c-7 -21 -13 -19 -13 6 0 11 4 18 10 14 5 -3 7 -12
3 -20z m-1553 -52 c0 -22 -49 -84 -50 -63 0 16 36 80 45 80 3 0 5 -8 5 -17z
m1620 -84 c12 -43 4 -125 -12 -135 -17 -11 -28 18 -28 76 0 101 21 132 40 59z
m-35 -341 c-41 -134 -63 -184 -93 -209 -22 -19 -56 -103 -67 -166 -9 -56 10
-57 25 -2 17 61 32 89 48 89 17 0 13 -79 -8 -152 -12 -39 -12 -58 -1 -111 9
-47 10 -75 2 -102 -18 -66 -71 -103 -71 -50 0 33 -22 41 -53 21 -22 -15 -25
-15 -37 -1 -23 28 -38 106 -28 149 12 52 114 261 169 346 50 78 64 116 72 198
6 53 11 66 39 91 18 16 34 28 36 26 2 -2 -13 -59 -33 -127z m263 90 c32 -35
72 -129 72 -170 0 -65 -31 -56 -44 12 -4 19 -24 64 -46 99 -21 36 -37 68 -34
73 9 14 30 9 52 -14z m-3248 -133 c-42 -155 -56 -185 -75 -156 -11 19 87 292
101 278 3 -3 -9 -58 -26 -122z m3080 60 c-7 -8 -16 -15 -21 -15 -14 0 -11 38
4 43 20 7 31 -11 17 -28z m146 -57 c30 -60 32 -144 4 -205 -21 -47 -27 -51
-45 -27 -11 15 -15 15 -43 -6 -17 -12 -37 -20 -46 -17 -13 5 -11 14 11 64 24
52 27 69 25 158 -1 116 8 138 45 103 14 -13 36 -44 49 -70z m-296 46 c0 -22
-39 -84 -52 -84 -13 0 -3 66 13 86 16 19 39 18 39 -2z m162 -75 c8 -37 1 -103
-13 -131 -22 -41 -119 -66 -119 -30 1 28 58 153 82 179 28 30 41 25 50 -18z
m-3052 -31 c-1 -54 -53 -178 -68 -164 -7 8 50 176 60 176 4 0 8 -6 8 -12z
m130 -25 c0 -21 -3 -24 -9 -14 -5 8 -7 20 -4 28 8 21 13 15 13 -14z m1153
-159 c9 -10 -4 -34 -19 -34 -8 0 -14 6 -14 13 0 22 19 35 33 21z m-1403 -10
c0 -15 -65 -112 -98 -146 -31 -33 -72 -51 -72 -32 0 4 18 26 40 50 22 24 40
51 40 60 0 19 56 74 76 74 8 0 14 -3 14 -6z m3100 -14 c0 -5 -12 -10 -26 -10
-14 0 -23 4 -19 10 3 6 15 10 26 10 10 0 19 -4 19 -10z m-2962 -26 c34 -24 55
-70 42 -94 -9 -17 -8 -20 11 -20 19 0 21 -4 15 -32 -9 -47 -38 -68 -91 -66
-36 2 -50 -3 -72 -24 -36 -33 -66 -48 -97 -48 -23 0 -26 4 -26 34 0 42 46 192
62 202 6 4 15 -1 20 -10 14 -25 37 -19 49 11 12 33 38 63 53 63 6 0 22 -7 34
-16z m1240 -31 c-2 -10 -10 -18 -18 -18 -8 0 -16 8 -18 18 -2 12 3 17 18 17
15 0 20 -5 18 -17z m-43 -93 c0 -9 -11 -16 -27 -18 -27 -3 -38 14 -21 32 12
12 48 2 48 -14z m-1225 -150 c0 -5 -12 -10 -26 -10 -14 0 -23 4 -19 10 3 6 15
10 26 10 10 0 19 -4 19 -10z m2621 -104 c-6 -15 -15 -24 -21 -21 -15 9 -12 42
7 78 l18 32 3 -31 c2 -16 -2 -43 -7 -58z m-2801 34 c0 -5 -4 -10 -10 -10 -5 0
-10 5 -10 10 0 6 5 10 10 10 6 0 10 -4 10 -10z m70 -40 c0 -5 -5 -10 -11 -10
-5 0 -7 5 -4 10 3 6 8 10 11 10 2 0 4 -4 4 -10z m2810 -24 c0 -3 -4 -8 -10
-11 -5 -3 -10 -1 -10 4 0 6 5 11 10 11 6 0 10 -2 10 -4z m20 -61 c0 -8 -4 -15
-10 -15 -5 0 -10 7 -10 15 0 8 5 15 10 15 6 0 10 -7 10 -15z m-1240 -9 c0 -3
-4 -8 -10 -11 -5 -3 -10 -1 -10 4 0 6 5 11 10 11 6 0 10 -2 10 -4z m1141 -42
c11 -14 10 -15 -11 -12 -13 1 -25 9 -28 16 -5 17 23 15 39 -4z m-1034 -10 c8
-21 -13 -42 -28 -27 -13 13 -5 43 11 43 6 0 13 -7 17 -16z m167 2 c18 -7 49
-28 70 -46 67 -59 81 -116 35 -141 -17 -9 -22 -6 -31 19 -14 36 -45 55 -118
72 -75 17 -90 27 -90 55 0 16 9 29 28 39 34 19 64 20 106 2z m1036 4 c0 -5 -4
-10 -10 -10 -5 0 -10 5 -10 10 0 6 5 10 10 10 6 0 10 -4 10 -10z m-100 -50 c0
-5 -7 -10 -15 -10 -8 0 -15 5 -15 10 0 6 7 10 15 10 8 0 15 -4 15 -10z m-60
-27 c-1 -14 -30 -47 -36 -41 -8 8 14 48 26 48 6 0 10 -3 10 -7z m160 -34 c0
-5 -4 -9 -10 -9 -5 0 -10 7 -10 16 0 8 5 12 10 9 6 -3 10 -10 10 -16z m-1032
-69 c61 -36 64 -50 22 -108 -40 -56 -60 -55 -60 1 0 32 -6 49 -21 63 -33 29
-43 55 -28 65 21 13 30 11 87 -21z m892 5 c0 -8 -4 -15 -10 -15 -5 0 -10 7
-10 15 0 8 5 15 10 15 6 0 10 -7 10 -15z m148 -17 c18 -18 15 -48 -6 -48 -23
0 -42 19 -42 42 0 21 30 24 48 6z m-908 -92 c0 -8 -4 -18 -10 -21 -5 -3 -10 3
-10 14 0 12 5 21 10 21 6 0 10 -6 10 -14z m685 -16 c4 -6 -5 -10 -20 -10 -15
0 -24 4 -20 10 3 6 12 10 20 10 8 0 17 -4 20 -10z m110 -20 c3 -5 -1 -10 -10
-10 -9 0 -13 5 -10 10 3 6 8 10 10 10 2 0 7 -4 10 -10z m75 -16 c0 -8 -5 -12
-10 -9 -6 4 -8 11 -5 16 9 14 15 11 15 -7z m-19 -73 c21 -17 24 -27 23 -81 -1
-53 -5 -66 -28 -88 -26 -26 -29 -27 -132 -24 -84 2 -111 -1 -131 -13 -16 -11
-41 -15 -76 -13 l-52 3 2 54 c4 74 38 141 83 163 28 14 61 18 161 18 110 0
130 -3 150 -19z m-2891 -35 c0 -29 -20 -66 -35 -66 -19 0 -19 1 2 45 17 36 33
46 33 21z m1920 -16 c0 -14 -43 -30 -54 -20 -4 5 -5 13 -2 19 9 14 56 14 56 1z
m-2040 -70 c0 -5 -4 -10 -10 -10 -5 0 -10 5 -10 10 0 6 5 10 10 10 6 0 10 -4
10 -10z m27 -65 c5 -16 -14 -38 -26 -31 -18 12 -13 48 6 44 9 -2 18 -7 20 -13z
m59 -72 c-4 -13 -18 -33 -31 -45 -29 -25 -34 -78 -10 -98 21 -18 41 1 50 48
l7 37 16 -30 c19 -37 21 -160 4 -192 -11 -19 -21 -23 -61 -23 -57 0 -75 16
-65 56 7 26 6 27 -28 21 -34 -5 -34 -5 -30 26 3 18 18 47 33 65 16 18 29 40
29 50 0 38 21 89 52 127 l33 40 3 -29 c2 -16 1 -39 -2 -53z m2484 -3 c0 -5 -7
-10 -15 -10 -8 0 -15 5 -15 10 0 6 7 10 15 10 8 0 15 -4 15 -10z m100 0 c0 -5
-4 -10 -10 -10 -5 0 -10 5 -10 10 0 6 5 10 10 10 6 0 10 -4 10 -10z m208 -13
c15 -16 12 -17 -48 -17 -69 0 -97 10 -85 30 11 18 112 8 133 -13z m-2986 -644
c23 -21 23 -33 -1 -33 -27 0 -34 -28 -16 -57 13 -20 23 -24 53 -21 34 3 37 6
40 36 2 20 8 32 15 29 18 -6 20 -66 3 -92 -15 -23 -14 -26 23 -69 22 -25 44
-60 50 -78 18 -55 31 -180 20 -200 -16 -30 -93 -20 -102 13 -7 28 -27 23 -27
-7 0 -46 17 -64 61 -64 70 0 33 -17 -53 -25 -46 -4 -94 -7 -108 -7 -63 2 -328
29 -338 36 -16 10 -15 38 2 61 12 17 14 17 37 2 13 -10 26 -17 29 -17 3 0 4
35 2 78 -3 59 1 91 17 136 11 33 25 64 30 69 6 6 52 11 103 11 64 1 102 7 122
17 l29 16 -37 7 c-45 9 -57 32 -27 52 15 11 21 26 21 54 0 69 16 86 52 53z
m-77 -2 c3 -5 1 -12 -5 -16 -5 -3 -10 1 -10 9 0 18 6 21 15 7z m160 0 c3 -5 1
-12 -5 -16 -5 -3 -10 1 -10 9 0 18 6 21 15 7z m-255 -51 c0 -5 -7 -10 -15 -10
-8 0 -15 5 -15 10 0 6 7 10 15 10 8 0 15 -4 15 -10z m34 -72 c-14 -26 -19 -29
-22 -15 -4 20 29 78 35 60 2 -6 -4 -27 -13 -45z m-197 -479 c17 -17 5 -43 -13
-28 -15 12 -19 39 -6 39 4 0 13 -5 19 -11z m120 -5 c9 -23 -13 -40 -32 -24
-12 10 -13 16 -4 26 15 18 28 18 36 -2z"/>
<path d="M2725 11271 l-40 -18 39 -12 c37 -13 38 -14 33 -53 -5 -39 -5 -39 26
-36 28 3 32 0 35 -24 2 -16 10 -28 17 -28 37 0 63 101 30 114 -13 4 -13 9 -4
24 7 11 9 27 6 36 -9 22 -90 21 -142 -3z"/>
<path d="M3333 10951 c-79 -38 -102 -56 -89 -69 16 -15 196 76 196 99 0 16
-25 9 -107 -30z"/>
<path d="M3293 10540 c-71 -33 -80 -45 -25 -35 37 6 102 43 102 58 0 11 -11 8
-77 -23z"/>
<path d="M3375 9980 c4 -6 11 -8 16 -5 14 9 11 15 -7 15 -8 0 -12 -5 -9 -10z"/>
<path d="M3445 9940 c-3 -5 -1 -10 4 -10 6 0 11 5 11 10 0 6 -2 10 -4 10 -3 0
-8 -4 -11 -10z"/>
<path d="M3290 9820 c0 -5 7 -10 15 -10 8 0 15 5 15 10 0 6 -7 10 -15 10 -8 0
-15 -4 -15 -10z"/>
<path d="M3260 9780 c0 -5 5 -10 10 -10 6 0 10 5 10 10 0 6 -4 10 -10 10 -5 0
-10 -4 -10 -10z"/>
<path d="M4255 9940 c-3 -5 3 -10 15 -10 12 0 18 5 15 10 -3 6 -10 10 -15 10
-5 0 -12 -4 -15 -10z"/>
<path d="M3720 9160 c0 -5 5 -10 10 -10 6 0 10 5 10 10 0 6 -4 10 -10 10 -5 0
-10 -4 -10 -10z"/>
<path d="M3420 9132 c0 -16 74 -125 78 -114 6 20 -46 122 -62 122 -9 0 -16 -4
-16 -8z"/>
<path d="M3810 9095 c0 -8 5 -15 10 -15 6 0 10 7 10 15 0 8 -4 15 -10 15 -5 0
-10 -7 -10 -15z"/>
<path d="M2180 8396 c0 -14 5 -26 10 -26 6 0 10 9 10 19 0 11 -4 23 -10 26 -6
4 -10 -5 -10 -19z"/>
<path d="M2007 8254 c-3 -10 -9 -62 -12 -114 -4 -52 -13 -142 -22 -200 -21
-147 -21 -145 2 -145 39 0 69 156 63 329 -3 110 -19 173 -31 130z"/>
<path d="M2224 8259 c-3 -6 -1 -16 5 -22 8 -8 11 -5 11 11 0 24 -5 28 -16 11z"/>
<path d="M2251 8095 c0 -22 6 -53 13 -70 12 -25 15 -27 21 -12 9 22 -1 78 -20
103 -13 18 -14 16 -14 -21z"/>
<path d="M2094 8006 c-9 -23 0 -51 16 -51 10 0 15 10 15 29 0 32 -21 47 -31
22z"/>
<path d="M2117 7893 c-13 -12 -7 -44 8 -49 20 -8 45 13 45 37 0 13 -7 19 -23
19 -13 0 -27 -3 -30 -7z"/>
<path d="M2320 7880 c0 -19 3 -21 12 -12 9 9 9 15 0 24 -9 9 -12 7 -12 -12z"/>
<path d="M2092 7793 c-6 -10 -13 -34 -17 -53 l-7 -35 18 25 c9 14 28 37 42 53
l26 27 -27 0 c-15 0 -30 -8 -35 -17z"/>
<path d="M1995 7620 c-3 -5 1 -10 10 -10 9 0 13 5 10 10 -3 6 -8 10 -10 10 -2
0 -7 -4 -10 -10z"/>
<path d="M2095 7574 c-22 -20 -59 -44 -81 -55 -27 -12 -46 -29 -54 -49 -7 -17
-62 -78 -123 -136 -127 -122 -152 -150 -138 -159 20 -12 404 354 445 423 13
22 -8 12 -49 -24z"/>
<path d="M1942 7558 c7 -20 48 -23 48 -4 0 11 -9 16 -26 16 -16 0 -24 -5 -22
-12z"/>
<path d="M1314 8839 c-6 -11 13 -39 27 -39 5 0 9 9 9 19 0 21 -26 36 -36 20z"/>
<path d="M1740 8775 c0 -8 5 -15 10 -15 6 0 10 7 10 15 0 8 -4 15 -10 15 -5 0
-10 -7 -10 -15z"/>
<path d="M1370 8761 c0 -11 78 -31 119 -31 53 0 34 17 -32 29 -77 13 -87 14
-87 2z"/>
<path d="M1280 8705 c0 -8 5 -15 10 -15 6 0 10 7 10 15 0 8 -4 15 -10 15 -5 0
-10 -7 -10 -15z"/>
<path d="M1212 8671 c-25 -16 -10 -46 23 -46 25 0 30 4 30 25 0 27 -28 38 -53
21z"/>
<path d="M1310 8630 c0 -5 5 -10 11 -10 5 0 7 5 4 10 -3 6 -8 10 -11 10 -2 0
-4 -4 -4 -10z"/>
<path d="M1170 8500 c0 -19 3 -21 12 -12 9 9 9 15 0 24 -9 9 -12 7 -12 -12z"/>
<path d="M1171 8391 c-1 -27 2 -32 11 -23 8 8 8 17 0 34 -10 22 -11 21 -11
-11z"/>
<path d="M1835 8149 c-2 -8 -18 -65 -36 -127 -34 -123 -35 -170 -1 -81 23 63
55 209 48 217 -3 3 -8 -1 -11 -9z"/>
<path d="M1740 7835 c0 -8 5 -15 10 -15 6 0 10 7 10 15 0 8 -4 15 -10 15 -5 0
-10 -7 -10 -15z"/>
<path d="M1530 7802 c0 -9 59 -32 82 -32 17 0 31 24 21 34 -9 9 -103 7 -103
-2z"/>
<path d="M1706 7765 c-9 -25 -7 -67 3 -61 5 3 12 18 15 32 8 30 -8 55 -18 29z"/>
<path d="M1444 7709 c-3 -6 0 -17 8 -25 13 -13 16 -13 27 0 7 8 10 20 6 26 -8
13 -32 13 -41 -1z"/>
<path d="M1591 7681 c-23 -32 -39 -91 -25 -91 13 0 52 60 59 93 9 36 -8 35
-34 -2z"/>
<path d="M1413 7585 c-3 -9 -3 -18 0 -21 9 -9 27 6 27 22 0 19 -19 18 -27 -1z"/>
<path d="M1260 7215 c0 -14 5 -25 10 -25 6 0 10 11 10 25 0 14 -4 25 -10 25
-5 0 -10 -11 -10 -25z"/>
<path d="M874 7144 c-9 -21 -19 -60 -22 -86 -4 -39 -2 -48 11 -48 12 0 15 11
15 45 0 24 6 61 12 80 17 50 4 57 -16 9z"/>
<path d="M3200 8730 c-6 -11 -7 -20 -2 -20 10 0 32 21 32 32 0 16 -19 8 -30
-12z"/>
<path d="M3080 8210 c0 -5 7 -10 15 -10 8 0 15 5 15 10 0 6 -7 10 -15 10 -8 0
-15 -4 -15 -10z"/>
<path d="M3420 7590 c0 -5 5 -10 10 -10 6 0 10 5 10 10 0 6 -4 10 -10 10 -5 0
-10 -4 -10 -10z"/>
<path d="M4206 7334 c-3 -9 -6 -35 -6 -58 0 -44 -21 -114 -61 -201 -12 -27
-37 -88 -54 -135 -20 -56 -36 -86 -47 -88 -23 -4 -35 42 -17 64 34 41 -96 63
-142 24 l-24 -20 47 7 c44 5 48 4 56 -18 11 -29 -2 -70 -29 -95 -25 -22 -25
-38 0 -24 26 13 87 13 114 -1 35 -18 67 -51 67 -68 0 -9 18 -38 40 -65 22 -26
40 -52 40 -56 0 -14 -30 -20 -56 -10 -31 12 -77 13 -89 1 -6 -4 -44 -18 -85
-31 -41 -12 -105 -35 -142 -51 -108 -47 -138 -36 -138 50 0 46 -5 49 -33 24
-18 -17 -19 -17 -16 12 3 24 0 30 -21 35 -17 4 -34 23 -55 60 -24 44 -30 51
-33 33 -4 -29 46 -127 109 -209 59 -78 71 -104 89 -191 7 -35 18 -71 25 -80
12 -16 15 -16 51 0 64 29 91 54 77 68 -10 10 -19 8 -44 -10 -24 -18 -33 -20
-45 -11 -21 18 -17 33 14 62 77 71 213 118 365 127 l107 6 -31 65 c-17 36 -53
102 -81 148 -57 92 -70 151 -48 218 7 22 41 101 77 177 35 76 67 153 70 170 6
29 5 31 -10 18 -15 -12 -17 -10 -17 28 0 41 -13 55 -24 25z m-27 -793 c23 -15
-17 -29 -118 -42 -66 -9 -94 -10 -102 -2 -30 30 177 71 220 44z m-261 -58 c-4
-21 -134 -112 -160 -113 -21 0 -31 15 -24 38 16 49 193 121 184 75z"/>
<path d="M4510 7176 c0 -9 7 -19 15 -23 25 -9 27 2 5 22 -18 17 -20 17 -20 1z"/>
<path d="M5084 6978 c38 -83 59 -151 77 -255 14 -84 33 -100 23 -20 -18 147
-59 283 -101 329 -32 35 -31 17 1 -54z"/>
<path d="M4855 6770 c-4 -6 3 -10 14 -10 25 0 27 6 6 13 -8 4 -17 2 -20 -3z"/>
<path d="M3997 6744 c-11 -11 13 -34 35 -34 13 0 18 6 16 18 -3 17 -38 29 -51
16z"/>
<path d="M5296 6628 c-15 -34 -36 -138 -29 -138 6 0 49 100 57 132 9 40 -12
45 -28 6z"/>
<path d="M4895 6540 c-3 -5 -1 -10 4 -10 6 0 11 5 11 10 0 6 -2 10 -4 10 -3 0
-8 -4 -11 -10z"/>
<path d="M4890 6470 c0 -5 5 -10 10 -10 6 0 10 5 10 10 0 6 -4 10 -10 10 -5 0
-10 -4 -10 -10z"/>
<path d="M5278 6387 c-71 -161 -80 -192 -48 -172 32 20 110 229 92 247 -4 4
-24 -30 -44 -75z"/>
<path d="M5190 6350 c0 -5 5 -10 10 -10 6 0 10 5 10 10 0 6 -4 10 -10 10 -5 0
-10 -4 -10 -10z"/>
<path d="M5170 6260 c0 -5 5 -10 10 -10 6 0 10 5 10 10 0 6 -4 10 -10 10 -5 0
-10 -4 -10 -10z"/>
<path d="M4359 6218 c0 -24 -4 -52 -8 -63 -11 -27 -3 -45 19 -45 35 0 42 47
20 115 -16 48 -30 44 -31 -7z"/>
<path d="M3860 6214 c0 -8 5 -12 10 -9 6 4 8 11 5 16 -9 14 -15 11 -15 -7z"/>
<path d="M5190 6170 c0 -5 5 -10 10 -10 6 0 10 5 10 10 0 6 -4 10 -10 10 -5 0
-10 -4 -10 -10z"/>
<path d="M5267 6138 c-35 -46 -67 -113 -67 -139 0 -18 2 -20 16 -8 26 21 91
165 80 176 -2 2 -15 -11 -29 -29z"/>
<path d="M5299 6013 c-22 -25 -39 -58 -39 -77 0 -29 18 -16 40 29 24 50 23 77
-1 48z"/>
<path d="M5080 5710 c0 -5 5 -10 10 -10 6 0 10 5 10 10 0 6 -4 10 -10 10 -5 0
-10 -4 -10 -10z"/>
<path d="M5010 5690 c0 -5 5 -10 11 -10 5 0 7 5 4 10 -3 6 -8 10 -11 10 -2 0
-4 -4 -4 -10z"/>
<path d="M5145 5690 c-3 -5 1 -10 10 -10 9 0 13 5 10 10 -3 6 -8 10 -10 10 -2
0 -7 -4 -10 -10z"/>
<path d="M4973 5585 c-3 -9 -3 -19 1 -22 8 -9 37 18 30 28 -8 14 -24 11 -31
-6z"/>
<path d="M5060 5570 c0 -5 7 -10 15 -10 8 0 15 5 15 10 0 6 -7 10 -15 10 -8 0
-15 -4 -15 -10z"/>
<path d="M5170 5570 c0 -5 5 -10 10 -10 6 0 10 5 10 10 0 6 -4 10 -10 10 -5 0
-10 -4 -10 -10z"/>
<path d="M5146 5531 c-4 -5 -2 -12 3 -15 5 -4 12 -2 15 3 4 5 2 12 -3 15 -5 4
-12 2 -15 -3z"/>
<path d="M2850 8064 c0 -8 5 -12 10 -9 6 4 8 11 5 16 -9 14 -15 11 -15 -7z"/>
<path d="M2090 7199 c0 -5 5 -7 10 -4 6 3 10 8 10 11 0 2 -4 4 -10 4 -5 0 -10
-5 -10 -11z"/>
<path d="M2040 6950 c0 -5 5 -10 10 -10 6 0 10 5 10 10 0 6 -4 10 -10 10 -5 0
-10 -4 -10 -10z"/>
<path d="M2077 6895 c-31 -47 -39 -90 -17 -90 16 0 53 88 48 114 -3 11 -12 3
-31 -24z"/>
<path d="M2616 6901 c-4 -5 -2 -12 3 -15 5 -4 12 -2 15 3 4 5 2 12 -3 15 -5 4
-12 2 -15 -3z"/>
<path d="M2160 6870 c0 -19 3 -21 12 -12 9 9 9 15 0 24 -9 9 -12 7 -12 -12z"/>
<path d="M2547 6833 c-4 -3 -7 -19 -7 -33 0 -15 -7 -33 -15 -40 -23 -19 -19
-60 6 -60 26 0 64 80 55 116 -6 23 -25 31 -39 17z"/>
<path d="M2120 6781 c0 -10 -9 -25 -21 -32 -23 -16 -37 -70 -29 -118 l5 -34
20 58 c10 32 32 71 48 87 24 23 27 31 17 43 -17 21 -40 19 -40 -4z"/>
<path d="M2181 6673 c-14 -9 -19 -19 -14 -24 12 -12 40 -2 47 16 8 22 -8 26
-33 8z"/>
<path d="M2480 6630 c0 -5 5 -10 10 -10 6 0 10 5 10 10 0 6 -4 10 -10 10 -5 0
-10 -4 -10 -10z"/>
<path d="M2146 6611 c-4 -5 -2 -12 3 -15 5 -4 12 -2 15 3 4 5 2 12 -3 15 -5 4
-12 2 -15 -3z"/>
<path d="M2154 6524 c-13 -20 -14 -28 -5 -37 10 -9 16 -8 27 7 16 23 19 56 4
56 -5 0 -17 -11 -26 -26z"/>
<path d="M2481 6467 c-1 -49 4 -97 9 -108 11 -20 50 -27 50 -9 0 6 -4 10 -9
10 -13 0 -21 27 -36 119 l-13 76 -1 -88z"/>
<path d="M2525 6540 c-3 -5 1 -10 10 -10 9 0 13 5 10 10 -3 6 -8 10 -10 10 -2
0 -7 -4 -10 -10z"/>
<path d="M2076 6498 c17 -54 38 -92 41 -76 7 29 -17 98 -33 98 -11 0 -13 -6
-8 -22z"/>
<path d="M2640 6500 c0 -19 3 -21 12 -12 9 9 9 15 0 24 -9 9 -12 7 -12 -12z"/>
<path d="M2090 6340 c0 -19 3 -21 12 -12 9 9 9 15 0 24 -9 9 -12 7 -12 -12z"/>
<path d="M2160 6341 c0 -25 6 -27 13 -6 4 8 2 17 -3 20 -6 4 -10 -3 -10 -14z"/>
<path d="M2127 6283 c-13 -12 -7 -33 8 -33 8 0 15 9 15 20 0 20 -11 26 -23 13z"/>
<path d="M2530 6261 c0 -17 29 -32 57 -29 l28 3 -32 18 c-35 19 -53 22 -53 8z"/>
<path d="M2230 6240 c0 -5 5 -10 11 -10 5 0 7 5 4 10 -3 6 -8 10 -11 10 -2 0
-4 -4 -4 -10z"/>
<path d="M2635 6216 c-20 -47 -35 -116 -25 -116 10 0 36 66 45 113 9 46 -2 48
-20 3z"/>
<path d="M2194 6138 c-13 -20 -18 -198 -6 -198 13 0 20 31 28 121 4 50 3 78
-4 83 -6 3 -14 1 -18 -6z"/>
<path d="M2570 6045 c0 -8 5 -15 10 -15 6 0 10 7 10 15 0 8 -4 15 -10 15 -5 0
-10 -7 -10 -15z"/>
<path d="M3240 5873 c0 -28 3 -58 6 -67 8 -22 31 -20 44 3 8 15 7 22 -5 29 -9
4 -22 26 -30 48 l-14 39 -1 -52z"/>
<path d="M2225 5850 c-3 -5 1 -10 10 -10 9 0 13 5 10 10 -3 6 -8 10 -10 10 -2
0 -7 -4 -10 -10z"/>
<path d="M2390 5850 c0 -5 5 -10 11 -10 5 0 7 5 4 10 -3 6 -8 10 -11 10 -2 0
-4 -4 -4 -10z"/>
<path d="M2360 5781 c0 -11 5 -23 10 -26 6 -4 10 5 10 19 0 14 -4 26 -10 26
-5 0 -10 -9 -10 -19z"/>
<path d="M3473 5754 c-8 -21 13 -42 28 -27 13 13 5 43 -11 43 -6 0 -13 -7 -17
-16z"/>
<path d="M3280 5745 c0 -8 5 -15 10 -15 6 0 10 7 10 15 0 8 -4 15 -10 15 -5 0
-10 -7 -10 -15z"/>
<path d="M3386 5732 c-8 -13 23 -52 40 -52 18 0 18 10 -2 38 -16 23 -29 28
-38 14z"/>
<path d="M2340 5695 c0 -8 5 -15 10 -15 6 0 10 7 10 15 0 8 -4 15 -10 15 -5 0
-10 -7 -10 -15z"/>
<path d="M2246 5648 c-30 -47 -51 -192 -38 -261 6 -32 11 -12 33 123 14 88 24
160 22 160 -1 0 -9 -10 -17 -22z"/>
<path d="M3604 5639 c-3 -6 -1 -16 5 -22 8 -8 11 -5 11 11 0 24 -5 28 -16 11z"/>
<path d="M3240 5514 c0 -8 5 -12 10 -9 6 4 8 11 5 16 -9 14 -15 11 -15 -7z"/>
<path d="M3310 5480 c0 -5 5 -10 10 -10 6 0 10 5 10 10 0 6 -4 10 -10 10 -5 0
-10 -4 -10 -10z"/>
<path d="M3400 5444 c0 -8 5 -12 10 -9 6 4 8 11 5 16 -9 14 -15 11 -15 -7z"/>
<path d="M3276 5351 c-9 -39 -16 -80 -16 -93 1 -21 2 -21 17 6 15 29 32 156
20 156 -3 0 -13 -31 -21 -69z"/>
<path d="M3121 5355 c-8 -27 -29 -79 -47 -115 -25 -48 -36 -88 -44 -150 -12
-104 -13 -210 -1 -210 10 0 21 49 21 100 0 22 8 48 19 62 19 24 19 24 0 36
-26 17 -24 31 9 43 15 5 32 17 39 26 11 14 14 13 24 -11 11 -24 29 -35 29 -18
0 4 9 57 19 117 11 61 18 111 16 113 -2 2 -16 -23 -31 -55 l-29 -58 -5 85 -5
85 -14 -50z"/>
<path d="M2307 5310 c-27 -84 -57 -266 -57 -339 1 -100 21 -51 30 73 4 56 18
136 30 179 12 42 20 92 18 110 -3 30 -4 29 -21 -23z"/>
<path d="M3720 5305 c0 -8 5 -15 10 -15 6 0 10 7 10 15 0 8 -4 15 -10 15 -5 0
-10 -7 -10 -15z"/>
<path d="M3306 5190 c-59 -190 -92 -272 -146 -354 -59 -90 -83 -136 -76 -143
12 -12 132 140 171 217 25 50 98 349 93 383 -2 12 -20 -34 -42 -103z"/>
<path d="M3030 5285 c0 -8 5 -15 10 -15 6 0 10 7 10 15 0 8 -4 15 -10 15 -5 0
-10 -7 -10 -15z"/>
<path d="M1950 5260 c0 -19 3 -21 12 -12 9 9 9 15 0 24 -9 9 -12 7 -12 -12z"/>
<path d="M3241 5170 c0 -29 1 -32 10 -17 7 11 7 23 0 35 -9 14 -10 11 -10 -18z"/>
<path d="M2966 5167 c-7 -29 -7 -145 0 -174 13 -48 24 -8 24 87 0 95 -11 135
-24 87z"/>
<path d="M2345 5127 c-3 -12 -2 -34 4 -47 9 -22 10 -19 10 23 1 51 -5 61 -14
24z"/>
<path d="M1560 5126 c0 -9 5 -16 10 -16 6 0 10 4 10 9 0 6 -4 13 -10 16 -5 3
-10 -1 -10 -9z"/>
<path d="M2390 5100 c0 -19 3 -21 12 -12 9 9 9 15 0 24 -9 9 -12 7 -12 -12z"/>
<path d="M3426 5104 c-3 -9 -6 -28 -6 -44 0 -16 -7 -35 -15 -44 -19 -18 -19
-56 -1 -82 20 -26 29 -13 37 54 4 31 10 74 14 95 6 29 4 37 -8 37 -8 0 -18 -7
-21 -16z"/>
<path d="M2072 5065 c0 -16 2 -22 5 -12 2 9 2 23 0 30 -3 6 -5 -1 -5 -18z"/>
<path d="M2455 5061 c-3 -5 -1 -12 5 -16 5 -3 10 1 10 9 0 18 -6 21 -15 7z"/>
<path d="M3100 5020 c0 -5 5 -10 10 -10 6 0 10 5 10 10 0 6 -4 10 -10 10 -5 0
-10 -4 -10 -10z"/>
<path d="M2430 4996 c0 -15 24 -66 31 -66 12 0 11 14 -3 45 -9 20 -28 35 -28
21z"/>
<path d="M2618 4969 c-7 -22 3 -49 18 -49 18 0 18 21 0 45 -10 15 -14 15 -18
4z"/>
<path d="M2330 4925 c0 -8 9 -19 20 -25 16 -9 22 -8 26 4 3 8 3 20 -1 26 -9
15 -45 12 -45 -5z"/>
<path d="M3292 4885 c-25 -93 -109 -191 -231 -269 -49 -32 -81 -61 -102 -94
-32 -50 -59 -130 -59 -171 0 -21 7 -14 33 34 48 89 80 127 155 183 37 27 82
71 101 96 20 27 47 50 66 56 17 6 45 24 60 40 33 34 43 37 60 13 14 -19 45
-11 45 12 0 9 -18 32 -39 52 -22 19 -45 48 -51 64 -7 16 -15 29 -19 29 -4 0
-12 -20 -19 -45z m32 -66 c-3 -5 -10 -7 -15 -3 -5 3 -7 10 -3 15 3 5 10 7 15
3 5 -3 7 -10 3 -15z"/>
<path d="M2506 4868 c-9 -32 -38 -60 -57 -56 -26 6 -14 -26 12 -33 15 -3 37
-17 49 -29 16 -16 28 -20 48 -15 50 12 55 45 7 45 -30 0 -38 13 -45 70 -6 41
-7 43 -14 18z"/>
<path d="M2743 4830 c0 -36 2 -50 4 -32 2 17 2 47 0 65 -2 17 -4 3 -4 -33z"/>
<path d="M2609 4822 c11 -21 27 -44 35 -51 14 -12 16 -9 16 22 0 53 -9 67 -41
67 l-29 0 19 -38z"/>
<path d="M1930 4790 c0 -5 5 -10 10 -10 6 0 10 5 10 10 0 6 -4 10 -10 10 -5 0
-10 -4 -10 -10z"/>
<path d="M3462 4788 c-14 -14 -16 -28 -3 -28 9 0 24 30 18 36 -2 2 -9 -2 -15
-8z"/>
<path d="M3398 4668 c-18 -35 -41 -64 -51 -66 -15 -3 -17 2 -11 37 6 40 6 41
-22 41 -16 0 -35 -4 -43 -9 -16 -10 -6 -31 15 -31 11 0 14 -9 12 -32 -2 -28 1
-34 19 -36 13 -2 40 -24 62 -50 47 -54 48 -52 55 68 2 47 7 97 11 113 13 48
-12 30 -47 -35z"/>
<path d="M2700 4700 c0 -12 101 -62 109 -55 8 9 -24 38 -56 52 -39 16 -53 17
-53 3z"/>
<path d="M3470 4649 c0 -5 5 -7 10 -4 6 3 10 8 10 11 0 2 -4 4 -10 4 -5 0 -10
-5 -10 -11z"/>
<path d="M3491 4601 c-14 -25 -14 -78 -1 -86 15 -9 12 -34 -5 -51 -8 -9 -15
-23 -15 -31 0 -14 3 -14 20 2 27 24 42 79 38 134 -3 49 -21 63 -37 32z"/>
<path d="M2233 4546 c1 -45 6 -71 15 -74 17 -5 16 67 -3 109 -15 34 -15 34
-12 -35z"/>
<path d="M2853 4525 c0 -22 2 -30 4 -17 2 12 2 30 0 40 -3 9 -5 -1 -4 -23z"/>
<path d="M3295 4380 c-3 -5 1 -10 10 -10 9 0 13 5 10 10 -3 6 -8 10 -10 10 -2
0 -7 -4 -10 -10z"/>
<path d="M2305 4316 c-29 -29 -31 -48 -9 -70 20 -21 37 -20 58 3 13 15 15 26
9 52 -11 42 -26 46 -58 15z"/>
<path d="M3272 4248 c-7 -7 -12 -27 -12 -45 0 -23 -8 -41 -25 -57 -30 -28 -30
-36 -8 -107 l16 -54 9 48 c12 67 30 90 93 123 l54 29 -36 37 c-38 39 -69 48
-91 26z m51 -68 c-3 -11 -9 -20 -14 -20 -12 0 -22 46 -13 61 11 18 33 -17 27
-41z"/>
<path d="M3308 3943 c-17 -20 -38 -58 -38 -69 0 -13 29 18 49 52 21 36 15 46
-11 17z"/>
<path d="M1905 3831 c-3 -5 -1 -12 5 -16 5 -3 10 1 10 9 0 18 -6 21 -15 7z"/>
<path d="M1790 3745 c0 -8 5 -15 10 -15 6 0 10 7 10 15 0 8 -4 15 -10 15 -5 0
-10 -7 -10 -15z"/>
<path d="M1975 3730 c3 -5 8 -10 11 -10 2 0 4 5 4 10 0 6 -5 10 -11 10 -5 0
-7 -4 -4 -10z"/>
<path d="M2780 2840 c0 -5 5 -10 11 -10 5 0 7 5 4 10 -3 6 -8 10 -11 10 -2 0
-4 -4 -4 -10z"/>
<path d="M3670 4630 c0 -5 5 -10 10 -10 6 0 10 5 10 10 0 6 -4 10 -10 10 -5 0
-10 -4 -10 -10z"/>
<path d="M3950 4720 c0 -5 5 -10 10 -10 6 0 10 5 10 10 0 6 -4 10 -10 10 -5 0
-10 -4 -10 -10z"/>
<path d="M3955 4650 c3 -5 13 -10 21 -10 8 0 14 5 14 10 0 6 -9 10 -21 10 -11
0 -17 -4 -14 -10z"/>
<path d="M3880 4610 c0 -5 5 -10 10 -10 6 0 10 5 10 10 0 6 -4 10 -10 10 -5 0
-10 -4 -10 -10z"/>
<path d="M4226 4521 c-4 -5 -2 -12 3 -15 5 -4 12 -2 15 3 4 5 2 12 -3 15 -5 4
-12 2 -15 -3z"/>
<path d="M1583 2774 c-7 -19 4 -31 38 -39 34 -8 46 10 23 36 -21 23 -52 25
-61 3z"/>
<path d="M4125 1850 c-4 -6 5 -10 19 -10 14 0 26 5 26 10 0 6 -9 10 -19 10
-11 0 -23 -4 -26 -10z"/>
<path d="M4260 1840 c11 -21 65 -50 93 -50 19 0 53 27 45 36 -4 4 -30 11 -58
15 -28 4 -60 11 -71 14 -19 6 -20 5 -9 -15z"/>
<path d="M1470 1440 c0 -5 5 -10 11 -10 5 0 7 5 4 10 -3 6 -8 10 -11 10 -2 0
-4 -4 -4 -10z"/>
<path d="M1116 612 c-9 -18 -15 -39 -13 -45 6 -18 39 40 35 60 -3 14 -8 11
-22 -15z"/>
<path d="M1440 595 c0 -8 5 -15 10 -15 6 0 10 7 10 15 0 8 -4 15 -10 15 -5 0
-10 -7 -10 -15z"/>
<path d="M1245 590 c-4 -7 -3 -16 3 -22 14 -14 47 -6 47 12 0 18 -40 26 -50
10z"/>
<path d="M5150 8560 c0 -5 5 -10 11 -10 5 0 7 5 4 10 -3 6 -8 10 -11 10 -2 0
-4 -4 -4 -10z"/>
<path d="M5200 8541 c0 -5 11 -16 25 -25 29 -19 32 -42 9 -74 -21 -30 -16 -34
31 -21 36 10 40 9 67 -20 20 -21 38 -31 59 -31 16 0 30 -4 30 -10 1 -5 2 -15
3 -21 0 -7 19 -17 41 -24 44 -13 128 -54 160 -79 27 -20 13 -34 -67 -66 -80
-32 -90 -55 -22 -47 55 6 205 66 211 83 2 6 -9 14 -24 17 -15 3 -57 28 -93 55
-36 26 -113 81 -172 120 -59 40 -122 85 -140 100 -18 16 -43 34 -55 41 -26 13
-63 15 -63 2z"/>
<path d="M5118 7818 c-8 -13 -18 -32 -24 -43 -16 -30 -58 -46 -135 -54 l-68
-6 34 -47 c48 -65 74 -80 161 -88 48 -5 81 -14 93 -24 28 -26 38 0 11 29 -17
18 -20 30 -15 59 6 31 5 36 -12 36 -11 0 -28 -9 -38 -20 -24 -26 -59 -22 -63
7 -4 25 40 53 81 53 30 0 62 23 53 38 -4 7 -16 12 -28 12 -17 0 -20 5 -16 35
5 41 -14 48 -34 13z"/>
<path d="M5055 7820 c3 -5 8 -10 11 -10 2 0 4 5 4 10 0 6 -5 10 -11 10 -5 0
-7 -4 -4 -10z"/>
<path d="M4915 7796 c-18 -13 -18 -15 -3 -21 28 -11 83 -1 83 15 0 21 -55 25
-80 6z"/>
<path d="M4365 7780 c-3 -5 -1 -10 4 -10 6 0 11 5 11 10 0 6 -2 10 -4 10 -3 0
-8 -4 -11 -10z"/>
<path d="M4750 7695 c0 -8 5 -15 10 -15 6 0 10 7 10 15 0 8 -4 15 -10 15 -5 0
-10 -7 -10 -15z"/>
<path d="M4991 7551 c-20 -13 -5 -29 39 -41 27 -7 61 -31 106 -75 55 -54 72
-65 100 -65 42 0 42 7 4 43 -16 16 -30 37 -30 47 0 26 -50 59 -122 81 -67 21
-77 22 -97 10z"/>
<path d="M5375 5320 c-3 -5 -1 -10 4 -10 6 0 11 5 11 10 0 6 -2 10 -4 10 -3 0
-8 -4 -11 -10z"/>
<path d="M5313 5257 c-5 -6 -20 -39 -33 -72 -40 -105 -51 -123 -80 -135 -40
-17 -167 -151 -186 -197 -9 -21 -23 -46 -32 -55 -14 -17 -13 -18 7 -18 12 0
36 15 54 34 18 19 42 37 54 41 44 13 169 172 219 278 24 52 32 121 15 131 -5
3 -13 0 -18 -7z"/>
<path d="M4780 5020 c0 -5 5 -10 10 -10 6 0 10 5 10 10 0 6 -4 10 -10 10 -5 0
-10 -4 -10 -10z"/>
<path d="M4750 4958 c0 -7 5 -20 10 -28 8 -12 10 -9 10 13 0 15 -4 27 -10 27
-5 0 -10 -6 -10 -12z"/>
<path d="M4896 4954 c-15 -40 4 -48 22 -9 9 20 9 25 -2 25 -8 0 -17 -7 -20
-16z"/>
<path d="M4915 4610 c-3 -5 1 -10 10 -10 9 0 13 5 10 10 -3 6 -8 10 -10 10 -2
0 -7 -4 -10 -10z"/>
<path d="M4891 4533 c-14 -30 -28 -143 -18 -143 8 0 87 104 87 115 0 4 -9 0
-19 -9 -28 -25 -44 -11 -36 30 7 41 3 43 -14 7z"/>
<path d="M4432 4114 c3 -40 16 -47 33 -20 11 18 -2 47 -24 54 -9 3 -11 -7 -9
-34z"/>
<path d="M4320 3940 c0 -5 5 -10 10 -10 6 0 10 5 10 10 0 6 -4 10 -10 10 -5 0
-10 -4 -10 -10z"/>
<path d="M4250 3410 c0 -5 5 -10 10 -10 6 0 10 5 10 10 0 6 -4 10 -10 10 -5 0
-10 -4 -10 -10z"/>
<path d="M3945 2715 c-38 -7 -86 -20 -105 -29 -27 -12 -29 -15 -10 -12 14 3
95 14 180 26 85 12 157 24 159 26 10 9 -159 1 -224 -11z"/>
<path d="M3960 2626 c0 -15 21 -26 51 -26 22 0 24 11 7 28 -17 17 -58 15 -58
-2z"/>
<path d="M4110 2630 c0 -5 5 -10 10 -10 6 0 10 5 10 10 0 6 -4 10 -10 10 -5 0
-10 -4 -10 -10z"/>
<path d="M3820 2610 c-11 -7 -3 -10 30 -10 33 0 41 3 30 10 -8 5 -22 10 -30
10 -8 0 -22 -5 -30 -10z"/>
<path d="M3728 2578 c9 -9 15 -9 24 0 9 9 7 12 -12 12 -19 0 -21 -3 -12 -12z"/>
<path d="M4110 2560 c0 -5 5 -10 10 -10 6 0 10 5 10 10 0 6 -4 10 -10 10 -5 0
-10 -4 -10 -10z"/>
<path d="M4860 2560 c0 -5 9 -10 19 -10 11 0 23 5 26 10 4 6 -5 10 -19 10 -14
0 -26 -4 -26 -10z"/>
<path d="M3798 2513 c18 -2 45 -2 60 0 15 2 0 4 -33 4 -33 0 -45 -2 -27 -4z"/>
<path d="M4770 2504 c110 -16 152 -15 107 4 -16 7 -67 12 -115 11 l-87 -1 95
-14z"/>
<path d="M3980 2470 c0 -5 7 -10 15 -10 8 0 15 5 15 10 0 6 -7 10 -15 10 -8 0
-15 -4 -15 -10z"/>
<path d="M4090 2470 c0 -5 5 -10 10 -10 6 0 10 5 10 10 0 6 -4 10 -10 10 -5 0
-10 -4 -10 -10z"/>
<path d="M4825 2453 c-15 -4 -9 -9 25 -19 52 -16 100 -18 100 -5 0 17 -89 34
-125 24z"/>
<path d="M3880 2380 c-11 -7 1 -10 40 -10 39 0 51 3 40 10 -8 5 -26 10 -40 10
-14 0 -32 -5 -40 -10z"/>
<path d="M4050 2380 c0 -5 7 -10 16 -10 8 0 12 5 9 10 -3 6 -10 10 -16 10 -5
0 -9 -4 -9 -10z"/>
<path d="M4730 2384 c0 -10 111 -34 157 -34 25 0 26 1 12 16 -18 17 -169 33
-169 18z"/>
<path d="M4870 2290 c0 -5 5 -10 11 -10 5 0 7 5 4 10 -3 6 -8 10 -11 10 -2 0
-4 -4 -4 -10z"/>
<path d="M4728 2283 c12 -2 30 -2 40 0 9 3 -1 5 -23 4 -22 0 -30 -2 -17 -4z"/>
<path d="M4760 2233 c-54 -8 -110 -26 -110 -35 0 -10 97 -6 244 8 54 6 58 8
41 20 -18 13 -112 17 -175 7z"/>
<path d="M3975 2131 c-3 -5 -1 -12 5 -16 5 -3 10 1 10 9 0 18 -6 21 -15 7z"/>
<path d="M4666 2062 c-43 -10 -43 -30 -1 -38 68 -12 178 10 146 31 -17 10
-112 15 -145 7z"/>
<path d="M2925 1990 c-3 -5 1 -10 9 -10 9 0 16 5 16 10 0 6 -4 10 -9 10 -6 0
-13 -4 -16 -10z"/>
<path d="M2515 1980 c-11 -19 6 -30 46 -30 42 0 51 13 20 30 -25 13 -58 13
-66 0z"/>
<path d="M2776 1974 c-17 -17 -13 -34 8 -34 7 0 23 11 36 25 l23 25 -26 0
c-14 0 -33 -7 -41 -16z"/>
<path d="M2970 1940 c0 -5 7 -10 15 -10 8 0 15 5 15 10 0 6 -7 10 -15 10 -8 0
-15 -4 -15 -10z"/>
<path d="M2305 1916 c-51 -24 -122 -87 -80 -72 11 4 45 12 75 18 107 20 135
31 138 56 3 20 -1 22 -40 22 -24 0 -65 -10 -93 -24z"/>
<path d="M4660 1870 c0 -5 5 -10 10 -10 6 0 10 5 10 10 0 6 -4 10 -10 10 -5 0
-10 -4 -10 -10z"/>
<path d="M2580 1845 c0 -24 36 -37 51 -19 10 13 10 17 -2 25 -22 14 -49 11
-49 -6z"/>
<path d="M2363 1830 c-18 -4 -45 -16 -60 -26 -25 -16 -26 -19 -9 -22 23 -5
134 16 160 30 15 8 16 12 5 19 -16 10 -51 10 -96 -1z"/>
<path d="M4625 1830 c-4 -6 3 -10 14 -10 25 0 27 6 6 13 -8 4 -17 2 -20 -3z"/>
<path d="M2500 1815 c0 -8 5 -15 10 -15 6 0 10 7 10 15 0 8 -4 15 -10 15 -5 0
-10 -7 -10 -15z"/>
<path d="M1825 1801 l-20 -9 20 -8 c25 -11 350 -12 361 -1 4 4 4 10 0 15 -11
10 -337 13 -361 3z"/>
<path d="M3080 1800 c0 -5 7 -10 15 -10 8 0 15 5 15 10 0 6 -7 10 -15 10 -8 0
-15 -4 -15 -10z"/>
<path d="M3580 1779 c88 -29 130 -36 130 -20 0 12 -50 28 -130 41 -95 15 -95
11 0 -21z"/>
<path d="M3158 1785 c-13 -13 11 -43 44 -54 17 -6 63 -14 102 -18 68 -6 70 -5
56 12 -30 37 -181 81 -202 60z"/>
<path d="M2960 1744 c-19 -7 -79 -13 -132 -13 -99 -1 -129 -14 -62 -27 68 -13
254 16 254 39 0 12 -29 13 -60 1z"/>
<path d="M2456 1741 c-4 -5 -2 -12 3 -15 5 -4 12 -2 15 3 4 5 2 12 -3 15 -5 4
-12 2 -15 -3z"/>
<path d="M2378 1728 c6 -7 25 -21 42 -32 32 -18 32 -18 21 3 -12 21 -41 41
-62 41 -8 0 -8 -4 -1 -12z"/>
<path d="M3073 1733 c9 -2 23 -2 30 0 6 3 -1 5 -18 5 -16 0 -22 -2 -12 -5z"/>
<path d="M3488 1729 c55 -11 62 -15 62 -45 0 -23 2 -24 73 -23 l72 0 -46 13
c-26 7 -61 24 -79 39 -25 21 -41 27 -78 26 l-47 -1 43 -9z"/>
<path d="M4648 1728 c9 -9 15 -9 24 0 9 9 7 12 -12 12 -19 0 -21 -3 -12 -12z"/>
<path d="M2180 1721 c0 -12 37 -21 92 -21 51 0 72 14 35 24 -34 9 -127 7 -127
-3z"/>
<path d="M1848 1706 c-69 -12 -100 -26 -57 -26 39 0 151 20 168 30 22 13 -26
11 -111 -4z"/>
<path d="M2045 1710 c-9 -15 4 -30 25 -30 29 0 50 11 50 26 0 16 -65 20 -75 4z"/>
<path d="M2530 1690 c-11 -7 -3 -10 28 -10 26 0 41 4 37 10 -8 13 -45 13 -65
0z"/>
<path d="M3173 1665 c-7 -21 12 -35 50 -35 45 0 35 14 -36 48 -4 2 -10 -4 -14
-13z"/>
<path d="M3421 1671 c-12 -8 -12 -12 -2 -25 8 -9 19 -16 26 -16 7 0 18 7 26
16 10 13 10 17 -2 25 -8 5 -18 9 -24 9 -5 0 -16 -4 -24 -9z"/>
<path d="M3003 1663 c9 -2 25 -2 35 0 9 3 1 5 -18 5 -19 0 -27 -2 -17 -5z"/>
<path d="M2252 1653 c-129 -25 -418 -95 -426 -103 -14 -14 24 -9 277 41 179
35 237 51 237 64 0 6 -55 4 -88 -2z"/>
<path d="M2680 1643 c-148 -16 -493 -83 -508 -98 -16 -16 19 -16 96 -2 48 9
101 13 117 11 17 -3 88 6 158 20 71 14 154 29 185 32 89 9 162 25 162 35 0 9
-136 10 -210 2z"/>
<path d="M2720 1550 c0 -5 14 -10 30 -10 17 0 30 5 30 10 0 6 -13 10 -30 10
-16 0 -30 -4 -30 -10z"/>
<path d="M3000 1550 c0 -5 14 -10 30 -10 17 0 30 5 30 10 0 6 -13 10 -30 10
-16 0 -30 -4 -30 -10z"/>
<path d="M2060 1525 c-10 -12 -10 -19 -1 -28 14 -14 46 2 46 24 0 20 -30 23
-45 4z"/>
<path d="M1902 1463 c-24 -15 -38 -29 -32 -31 16 -6 96 26 110 44 22 25 -32
17 -78 -13z"/>
<path d="M2645 1483 c-16 -2 -54 -9 -84 -14 l-55 -11 32 -14 c18 -7 32 -18 32
-23 0 -12 68 -26 78 -16 4 3 -1 12 -10 19 -24 18 -12 26 35 26 57 0 167 20
167 31 0 9 -133 10 -195 2z"/>
<path d="M2905 1480 c-4 -6 5 -10 19 -10 14 0 26 5 26 10 0 6 -9 10 -19 10
-11 0 -23 -4 -26 -10z"/>
<path d="M3025 1480 c3 -5 17 -10 31 -10 13 0 24 5 24 10 0 6 -14 10 -31 10
-17 0 -28 -4 -24 -10z"/>
<path d="M4360 1478 c-37 -10 -68 -33 -58 -43 3 -4 23 -2 44 4 22 6 90 13 152
17 109 7 136 15 90 28 -35 9 -189 5 -228 -6z"/>
<path d="M2045 1440 c-3 -5 -1 -10 4 -10 6 0 11 5 11 10 0 6 -2 10 -4 10 -3 0
-8 -4 -11 -10z"/>
<path d="M2110 1440 c0 -5 5 -10 10 -10 6 0 10 5 10 10 0 6 -4 10 -10 10 -5 0
-10 -4 -10 -10z"/>
<path d="M2389 1435 c-15 -8 -29 -21 -33 -30 -4 -12 2 -15 27 -15 41 0 72 21
64 44 -8 19 -23 20 -58 1z"/>
<path d="M1950 1410 c0 -5 5 -10 10 -10 6 0 10 5 10 10 0 6 -4 10 -10 10 -5 0
-10 -4 -10 -10z"/>
<path d="M2860 1410 c0 -5 9 -10 19 -10 11 0 23 5 26 10 4 6 -5 10 -19 10 -14
0 -26 -4 -26 -10z"/>
<path d="M2170 1380 l-55 -18 53 -1 c53 -1 92 11 92 29 0 14 -27 11 -90 -10z"/>
<path d="M4455 1391 c3 -6 14 -11 24 -11 21 0 47 -27 37 -38 -4 -4 -89 -9
-189 -12 -100 -3 -174 -8 -164 -12 35 -15 147 -20 253 -13 101 7 110 9 137 36
41 41 31 53 -42 57 -42 2 -61 0 -56 -7z"/>
<path d="M4340 1370 c0 -5 5 -10 10 -10 6 0 10 5 10 10 0 6 -4 10 -10 10 -5 0
-10 -4 -10 -10z"/>
<path d="M2028 1338 c9 -9 15 -9 24 0 9 9 7 12 -12 12 -19 0 -21 -3 -12 -12z"/>
<path d="M2893 1343 c9 -2 25 -2 35 0 9 3 1 5 -18 5 -19 0 -27 -2 -17 -5z"/>
<path d="M1893 1318 c-34 -17 -28 -28 16 -28 49 0 71 8 71 26 0 17 -54 18 -87
2z"/>
<path d="M2480 1320 c0 -5 5 -10 10 -10 6 0 10 5 10 10 0 6 -4 10 -10 10 -5 0
-10 -4 -10 -10z"/>
<path d="M2600 1320 c0 -5 7 -10 15 -10 8 0 15 5 15 10 0 6 -7 10 -15 10 -8 0
-15 -4 -15 -10z"/>
<path d="M2330 1309 c-50 -10 -95 -38 -95 -60 0 -11 16 -14 64 -14 58 0 65 3
87 30 43 54 33 61 -56 44z"/>
<path d="M2085 1300 c-4 -6 16 -10 52 -10 41 0 54 3 43 10 -20 13 -87 13 -95
0z"/>
<path d="M2503 1273 c15 -2 37 -2 50 0 12 2 0 4 -28 4 -27 0 -38 -2 -22 -4z"/>
<path d="M2823 1273 c9 -2 23 -2 30 0 6 3 -1 5 -18 5 -16 0 -22 -2 -12 -5z"/>
<path d="M2075 1225 c-22 -8 -41 -15 -42 -15 -12 -1 1 -22 18 -31 28 -15 82 1
124 35 l30 25 -45 0 c-25 0 -63 -6 -85 -14z"/>
<path d="M1845 1214 c-82 -17 -146 -39 -161 -55 -15 -17 -15 -19 -1 -19 9 0
28 5 43 11 16 5 75 17 132 25 58 8 109 17 115 21 26 16 -71 28 -128 17z"/>
<path d="M2692 1197 c-18 -7 -37 -18 -41 -26 -5 -7 -43 -23 -86 -35 -77 -21
-102 -40 -71 -52 9 -3 63 8 120 26 58 17 136 35 173 39 l68 8 -33 13 c-30 11
-31 13 -15 26 16 12 12 13 -32 13 -27 0 -65 -6 -83 -12z"/>
<path d="M2523 1183 c15 -2 37 -2 50 0 12 2 0 4 -28 4 -27 0 -38 -2 -22 -4z"/>
<path d="M1930 1142 c0 -16 81 -45 93 -33 17 17 -4 32 -52 38 -25 3 -41 2 -41
-5z"/>
<path d="M1735 1090 c-4 -6 5 -10 19 -10 14 0 26 5 26 10 0 6 -9 10 -19 10
-11 0 -23 -4 -26 -10z"/>
<path d="M2810 1090 c0 -5 7 -10 15 -10 8 0 15 5 15 10 0 6 -7 10 -15 10 -8 0
-15 -4 -15 -10z"/>
<path d="M2650 1070 c-11 -7 -1 -10 35 -10 36 0 46 3 35 10 -8 5 -24 10 -35
10 -11 0 -27 -5 -35 -10z"/>
<path d="M2780 1044 c0 -8 5 -12 10 -9 6 4 8 11 5 16 -9 14 -15 11 -15 -7z"/>
<path d="M1857 1043 c18 -2 50 -2 70 0 21 2 7 4 -32 4 -38 0 -55 -2 -38 -4z"/>
<path d="M2440 1039 c-71 -12 -120 -28 -120 -40 0 -5 6 -9 13 -9 12 0 202 47
222 54 18 8 -59 4 -115 -5z"/>
<path d="M2821 1011 c-29 -23 -64 -44 -77 -47 -13 -3 -24 -10 -24 -15 0 -16
44 -10 83 11 52 28 142 36 187 17 l35 -14 -25 -11 c-14 -6 -45 -13 -70 -17
-53 -6 -158 -53 -123 -54 26 -1 202 40 343 80 121 34 160 48 160 59 0 4 -71
10 -157 14 -87 3 -185 8 -218 12 -58 5 -61 4 -114 -35z"/>
<path d="M3373 1043 c9 -2 23 -2 30 0 6 3 -1 5 -18 5 -16 0 -22 -2 -12 -5z"/>
<path d="M3723 1043 c9 -2 25 -2 35 0 9 3 1 5 -18 5 -19 0 -27 -2 -17 -5z"/>
<path d="M1930 1000 c0 -5 5 -10 10 -10 6 0 10 5 10 10 0 6 -4 10 -10 10 -5 0
-10 -4 -10 -10z"/>
<path d="M3544 999 c-10 -16 15 -29 58 -29 39 0 59 17 37 31 -20 12 -87 11
-95 -2z"/>
<path d="M3390 971 c-7 -13 -7 -22 0 -26 13 -8 30 3 30 20 0 23 -18 27 -30 6z"/>
<path d="M1680 943 c-54 -25 -9 -28 70 -4 l65 19 -50 1 c-27 0 -66 -7 -85 -16z"/>
<path d="M2590 930 c0 -5 5 -10 10 -10 6 0 10 5 10 10 0 6 -4 10 -10 10 -5 0
-10 -4 -10 -10z"/>
<path d="M3303 922 c16 -18 12 -19 -106 -30 -207 -20 -494 -88 -505 -120 -6
-18 18 -15 105 13 92 29 119 31 127 9 6 -15 9 -14 30 5 19 18 46 25 137 37
187 24 295 65 248 95 -8 5 -23 9 -33 9 -18 0 -18 -1 -3 -18z"/>
<path d="M1797 915 c-43 -7 -81 -16 -85 -19 -19 -20 232 6 253 25 13 13 -75 9
-168 -6z"/>
<path d="M2455 910 c-18 -8 -17 -9 8 -9 16 -1 26 3 22 9 -3 6 -7 10 -8 9 -1 0
-11 -4 -22 -9z"/>
<path d="M3420 910 c0 -5 5 -10 10 -10 6 0 10 5 10 10 0 6 -4 10 -10 10 -5 0
-10 -4 -10 -10z"/>
<path d="M1930 849 c0 -15 5 -20 22 -17 34 5 37 38 4 38 -20 0 -26 -5 -26 -21z"/>
<path d="M2660 847 l-25 -11 29 -4 c17 -2 35 3 44 12 15 15 15 16 -3 15 -11 0
-31 -5 -45 -12z"/>
<path d="M2465 840 c-3 -5 1 -10 9 -10 9 0 16 5 16 10 0 6 -4 10 -9 10 -6 0
-13 -4 -16 -10z"/>
<path d="M1693 817 c-50 -14 -66 -27 -32 -27 29 0 138 25 146 34 10 10 -69 5
-114 -7z"/>
<path d="M3240 784 c-104 -32 -154 -54 -123 -54 18 0 253 69 271 80 37 21 -35
8 -148 -26z"/>
<path d="M3405 776 c-87 -27 -308 -121 -293 -124 9 -2 38 3 65 11 46 14 304
115 312 123 9 9 -46 2 -84 -10z"/>
<path d="M1723 771 c-28 -4 -55 -10 -60 -15 -11 -12 259 2 271 14 11 11 -123
12 -211 1z"/>
<path d="M3527 750 c-102 -35 -177 -71 -160 -77 25 -9 253 80 253 98 0 11 9
13 -93 -21z"/>
<path d="M1851 716 c-14 -16 -4 -26 26 -26 28 0 30 15 4 29 -14 8 -22 7 -30
-3z"/>
<path d="M3640 706 c-36 -13 -81 -31 -100 -40 l-35 -16 50 4 c57 5 211 52 220
66 11 18 -68 9 -135 -14z"/>
<path d="M1775 663 c-11 -2 -30 -6 -43 -9 -43 -9 -12 -26 37 -20 118 16 127
18 106 27 -21 8 -67 9 -100 2z"/>
<path d="M3268 648 c9 -9 15 -9 24 0 9 9 7 12 -12 12 -19 0 -21 -3 -12 -12z"/>
<path d="M3560 629 c-58 -15 -121 -28 -141 -29 -44 0 -79 -23 -63 -40 16 -16
96 1 229 47 167 58 153 70 -25 22z"/>
<path d="M3200 630 c0 -5 7 -10 15 -10 8 0 15 5 15 10 0 6 -7 10 -15 10 -8 0
-15 -4 -15 -10z"/>
<path d="M3420 630 c0 -5 5 -10 10 -10 6 0 10 5 10 10 0 6 -4 10 -10 10 -5 0
-10 -4 -10 -10z"/>
<path d="M1660 560 c-12 -7 -12 -12 -3 -21 10 -10 25 -9 68 1 31 7 58 17 61
22 7 11 -108 10 -126 -2z"/>
<path d="M1845 520 c-15 -7 -9 -9 25 -9 33 -1 41 2 30 9 -18 12 -28 12 -55 0z"/>
<path d="M3088 512 c-39 -23 -35 -36 8 -29 43 7 48 11 41 32 -8 19 -15 19 -49
-3z"/>
<path d="M1731 439 c-19 -7 -21 -12 -11 -23 20 -25 69 -30 91 -10 31 28 24 44
-18 43 -21 0 -49 -5 -62 -10z"/>
<path d="M1565 365 c-27 -14 -58 -25 -67 -25 -18 0 -94 -67 -86 -75 3 -3 34 2
69 10 35 8 76 17 90 20 18 3 26 11 25 22 -1 14 12 19 68 28 71 10 95 28 54 39
-46 12 -104 5 -153 -19z"/>
<path d="M1630 310 c0 -5 5 -10 10 -10 6 0 10 5 10 10 0 6 -4 10 -10 10 -5 0
-10 -4 -10 -10z"/>
<path d="M1490 240 c0 -5 16 -10 35 -10 19 0 35 5 35 10 0 6 -16 10 -35 10
-19 0 -35 -4 -35 -10z"/>
<path d="M1609 233 c-8 -9 -27 -22 -44 -29 -29 -13 -28 -13 32 -14 49 0 64 4
72 18 10 16 12 16 25 0 7 -10 16 -18 20 -18 11 0 7 35 -6 48 -18 18 -83 15
-99 -5z"/>
<path d="M1356 221 c-8 -12 3 -41 15 -41 5 0 9 -4 9 -10 0 -5 -16 -10 -36 -10
-52 0 -38 -22 22 -37 27 -6 81 -12 119 -13 72 -1 71 -7 -5 -28 l-35 -10 45 -1
c56 -1 114 14 131 35 20 24 -5 34 -89 34 -86 0 -102 7 -131 55 -20 35 -35 43
-45 26z"/>
<path d="M1380 80 c0 -5 7 -10 15 -10 8 0 15 5 15 10 0 6 -7 10 -15 10 -8 0
-15 -4 -15 -10z"/>
<path d="M1382 23 c-6 -2 -10 -9 -6 -14 7 -12 154 -12 154 0 0 17 -114 28
-148 14z"/>
</g>
</svg>
