<?xml version="1.0" standalone="no"?>
<!DOCTYPE svg PUBLIC "-//W3C//DTD SVG 20010904//EN"
 "http://www.w3.org/TR/2001/REC-SVG-20010904/DTD/svg10.dtd">
<svg version="1.0" xmlns="http://www.w3.org/2000/svg"
 width="1280.000000pt" height="644.000000pt" viewBox="0 0 1280.000000 644.000000"
 preserveAspectRatio="xMidYMid meet">
<metadata>
Created by potrace 1.15, written by Peter Selinger 2001-2017
</metadata>
<g transform="translate(0.000000,644.000000) scale(0.100000,-0.100000)"
fill="#000000" stroke="none">
<path d="M8015 6430 c-283 -24 -621 -97 -955 -205 -107 -35 -240 -75 -295 -90
-55 -15 -212 -60 -350 -100 -247 -73 -634 -165 -693 -165 -17 0 -77 11 -134
24 -275 64 -378 62 -608 -14 -210 -69 -331 -79 -755 -64 -245 9 -589 -33 -786
-97 -90 -29 -405 -186 -519 -259 -261 -168 -383 -298 -559 -598 -191 -327
-341 -774 -372 -1112 -15 -169 -11 -419 10 -562 11 -70 22 -132 26 -138 13
-20 -52 -135 -134 -239 l-83 -103 -18 30 c-31 51 -81 52 -189 5 -110 -49 -219
-142 -346 -297 -39 -47 -41 -49 -67 -35 -14 8 -103 87 -197 176 -106 101 -182
165 -199 169 -45 10 -52 13 -52 24 0 5 20 10 44 10 60 0 159 32 231 75 78 47
102 70 130 125 13 25 36 53 53 62 16 10 35 32 43 49 11 28 10 39 -5 82 -10 27
-23 89 -29 138 -10 78 -9 93 6 124 25 53 21 100 -14 162 -37 64 -93 109 -150
118 -32 6 -45 15 -64 45 -13 21 -42 53 -64 71 l-39 34 25 42 c30 52 15 57 -40
12 -43 -35 -44 -33 -17 21 11 22 20 44 20 50 0 20 -30 10 -67 -23 -73 -63 -71
-63 -65 -12 7 66 -14 58 -68 -25 -25 -38 -49 -70 -54 -70 -5 0 -6 22 -2 49 5
36 3 51 -8 60 -13 11 -18 6 -30 -26 -26 -63 -29 -67 -110 -107 -221 -111 -318
-318 -260 -551 l16 -65 -31 -35 c-20 -23 -31 -46 -31 -66 0 -66 84 -180 145
-195 14 -3 41 -3 59 0 20 4 37 2 41 -4 3 -6 40 -33 81 -60 41 -28 74 -53 74
-55 0 -2 -19 -13 -43 -23 -58 -26 -71 -45 -101 -143 -34 -112 -49 -190 -82
-435 -30 -224 -32 -252 -16 -344 6 -36 12 -99 12 -141 0 -144 19 -290 45 -350
39 -88 37 -93 -46 -114 -145 -35 -241 -87 -312 -167 -74 -86 73 -176 370 -230
112 -20 162 -22 398 -23 287 0 375 8 548 51 162 40 257 100 257 162 0 39 -59
86 -157 124 -70 27 -89 39 -91 56 -2 13 -20 34 -42 48 -33 22 -56 27 -166 35
-200 16 -196 15 -189 47 3 16 -9 87 -29 172 -56 236 -57 211 19 265 37 26 65
54 64 63 0 10 -26 36 -59 59 -55 39 -59 45 -70 100 -6 32 -14 66 -16 76 -10
32 25 29 170 -17 79 -25 155 -46 169 -46 29 0 45 23 137 190 66 121 81 140
114 140 12 0 35 16 51 36 l31 36 52 -26 c28 -14 62 -26 75 -26 31 0 60 31 51
55 -6 15 -4 17 11 11 25 -9 190 101 285 190 39 37 72 65 74 63 2 -2 25 -98 51
-213 l48 -210 -42 -36 c-54 -47 -135 -96 -206 -124 -68 -28 -71 -31 -54 -52
11 -13 25 -15 84 -10 75 8 239 43 268 58 21 11 25 2 97 -209 91 -267 208 -444
363 -554 l68 -48 -29 -15 c-96 -49 -120 -111 -62 -159 19 -17 30 -35 30 -52 0
-38 43 -77 75 -69 22 6 25 3 25 -23 0 -38 26 -73 53 -73 12 0 39 14 59 30 l37
30 3 -27 c3 -25 7 -28 41 -27 47 2 66 19 102 94 16 33 33 60 37 60 5 0 7 -4 4
-8 -3 -5 12 -26 34 -47 24 -24 41 -50 45 -73 9 -50 31 -89 60 -108 22 -14 27
-14 61 2 28 13 42 30 60 70 13 29 41 70 63 91 53 50 65 84 47 127 -17 42 -74
66 -156 66 -60 0 -110 13 -110 28 0 5 35 12 78 15 76 6 194 30 424 86 l116 28
22 -39 c12 -21 27 -38 33 -38 7 0 44 32 82 70 38 39 72 70 76 70 3 0 12 -28
18 -62 7 -35 21 -97 31 -138 38 -152 42 -229 18 -372 -12 -72 -26 -131 -32
-133 -6 -2 -54 -11 -107 -20 -109 -19 -168 -47 -149 -70 7 -8 27 -19 44 -24
l31 -8 -45 -6 c-25 -3 -92 -11 -150 -17 -138 -15 -272 -46 -340 -79 -48 -23
-55 -31 -58 -58 -3 -28 2 -34 41 -57 53 -31 160 -60 305 -81 144 -22 576 -31
752 -16 305 25 510 86 510 150 0 8 -10 26 -22 39 l-23 25 85 -6 c47 -4 182 -9
300 -13 215 -6 215 -6 250 -34 49 -38 103 -64 190 -91 66 -21 93 -24 235 -23
143 0 169 3 240 26 44 14 88 29 98 33 15 6 17 0 17 -54 l0 -61 -97 0 c-259 0
-557 -50 -619 -103 -23 -20 -25 -26 -15 -44 21 -40 162 -78 381 -105 141 -17
660 -17 805 1 213 25 364 68 379 108 15 37 -55 73 -202 102 l-87 18 -12 39
c-15 50 -16 110 -3 135 9 16 22 19 91 19 73 0 80 -2 75 -18 -18 -56 141 -103
454 -134 163 -16 698 -16 865 0 217 21 379 54 433 88 30 20 28 50 -5 68 -30
15 -61 13 472 36 481 22 893 56 1093 90 296 52 248 102 -151 155 l-47 6 20 30
c33 46 34 85 6 189 -14 51 -24 96 -22 98 3 2 82 -2 178 -8 95 -7 217 -10 271
-7 98 6 99 6 122 -21 19 -23 25 -24 39 -13 14 12 16 9 16 -26 0 -22 -5 -65
-11 -94 -6 -30 -14 -92 -18 -139 -5 -47 -16 -126 -26 -176 l-19 -91 -108 -22
c-224 -44 -250 -105 -65 -150 247 -60 866 -68 1151 -15 96 18 183 50 194 71 7
12 35 15 174 14 254 -3 470 30 572 87 61 33 73 61 44 97 -40 51 -203 99 -383
113 l-90 7 3 55 c2 40 9 62 26 80 22 24 24 38 35 254 6 126 14 233 17 237 3 5
14 9 26 9 36 0 89 32 114 69 35 52 33 113 -5 152 -33 33 -67 37 -112 14 -23
-12 -30 -13 -34 -3 -2 7 -16 96 -31 198 -24 170 -26 201 -20 375 4 105 13 237
20 295 17 146 15 153 -63 163 -54 8 -62 11 -59 29 2 13 16 25 41 33 67 23 87
50 87 115 0 96 -53 137 -114 89 -15 -12 -30 -19 -33 -16 -3 3 -7 66 -10 139
-3 122 -3 130 10 96 42 -111 129 -202 249 -261 104 -51 139 -56 333 -57 166 0
169 0 150 19 -11 10 -52 28 -91 40 -79 23 -94 35 -250 206 -101 112 -157 148
-256 168 -61 13 -78 27 -60 52 4 6 42 39 84 73 75 61 94 89 86 129 -4 24 -49
28 -89 8 -31 -16 -32 -16 -24 1 18 43 28 92 22 108 -4 9 -19 21 -34 27 -25 9
-31 7 -54 -20 l-25 -31 0 51 c1 42 -3 54 -23 70 -31 25 -34 24 -75 -12 l-36
-31 -12 26 c-13 29 -52 44 -77 29 -9 -5 -25 -27 -36 -49 -20 -40 -24 -145 -9
-239 6 -39 6 -39 -13 -23 -35 32 -93 49 -216 63 -255 31 -394 77 -599 199
-163 96 -444 373 -570 561 -83 123 -193 347 -272 553 -120 312 -299 631 -525
932 -176 236 -316 359 -591 525 -280 168 -335 194 -500 236 -98 24 -353 33
-525 19z m2314 -2381 c54 -102 168 -254 229 -305 71 -58 287 -212 342 -242 30
-17 116 -57 190 -88 142 -60 256 -86 512 -115 l108 -12 10 -32 c12 -37 49 -73
107 -105 39 -22 53 -42 53 -84 0 -15 -5 -17 -27 -12 -110 23 -170 27 -238 17
-211 -31 -319 -162 -318 -386 1 -106 30 -171 117 -263 39 -41 105 -99 147
-128 l76 -54 26 -92 c50 -176 107 -590 91 -661 -6 -29 -106 -297 -183 -490
-17 -43 -31 -84 -31 -91 0 -8 16 -23 35 -35 42 -25 45 -51 16 -154 -11 -38
-17 -75 -14 -83 6 -16 8 -16 -77 -19 -41 -2 -75 3 -93 12 -26 13 -29 12 -55
-14 -15 -16 -35 -43 -44 -61 -9 -17 -23 -30 -30 -27 -7 2 -32 9 -54 15 -42 10
-42 10 -34 46 5 20 18 46 29 58 18 19 21 39 27 161 3 77 1 200 -4 273 -14 177
-39 234 -152 342 -43 42 -105 94 -137 116 -32 22 -65 54 -74 71 -16 32 -16 32
75 214 l91 181 4 113 c3 105 1 117 -24 174 -29 64 -95 135 -155 166 -69 36
-217 65 -329 65 -109 0 -165 -11 -257 -51 -39 -16 -44 -22 -34 -34 7 -8 24
-15 39 -15 52 0 55 -17 5 -25 -42 -6 -78 -18 -93 -31 -2 -2 4 -13 13 -23 18
-19 17 -20 -15 -29 -39 -9 -53 -42 -20 -42 31 0 26 -16 -10 -30 -16 -7 -42
-28 -56 -47 -24 -31 -28 -48 -34 -146 -8 -125 0 -161 46 -193 61 -43 76 -61
84 -97 8 -34 7 -39 -20 -58 -20 -14 -29 -29 -29 -48 0 -39 22 -54 86 -59 45
-4 58 -9 72 -30 9 -13 45 -38 80 -53 l64 -29 -26 -33 c-15 -17 -35 -50 -45
-72 -17 -37 -28 -45 -138 -98 -67 -32 -134 -57 -151 -57 -27 0 -32 5 -42 38
-15 50 -29 286 -29 512 -1 262 65 912 139 1375 61 381 89 802 66 1000 l-7 60
25 -29 c13 -16 47 -73 75 -127z m-6919 -632 c0 -11 -43 -123 -74 -192 -51
-115 -47 -155 19 -155 38 0 65 22 100 80 35 57 104 130 125 130 8 0 40 -10 70
-22 93 -36 171 -30 315 27 163 65 176 66 284 20 129 -54 154 -77 186 -179 57
-180 165 -318 382 -490 45 -35 75 -67 79 -83 15 -59 -21 -390 -81 -733 -36
-204 -13 -489 65 -830 17 -74 34 -151 37 -171 l5 -36 -133 -7 c-74 -4 -149 -9
-167 -13 -30 -5 -33 -2 -48 32 -18 45 -11 70 40 145 45 66 50 87 41 163 -4 34
-8 87 -9 117 -3 73 -38 172 -150 420 -51 113 -104 233 -117 268 -16 41 -31 64
-44 68 -31 9 -105 86 -105 109 0 23 55 115 69 115 5 0 9 22 9 49 1 31 19 102
52 199 55 162 59 198 40 317 -19 117 -83 198 -200 254 -49 23 -70 26 -187 29
-107 3 -146 0 -211 -16 -163 -42 -274 -102 -372 -203 -93 -95 -161 -232 -131
-262 8 -8 18 -4 39 16 39 38 105 68 114 54 15 -23 8 -49 -24 -88 -24 -30 -32
-51 -36 -93 -5 -66 7 -107 57 -184 29 -45 48 -63 80 -75 22 -9 41 -21 41 -25
0 -23 67 -105 111 -138 74 -54 148 -74 229 -62 36 5 85 21 109 34 24 13 45 24
46 24 1 0 10 -18 20 -40 18 -40 18 -40 -6 -67 -13 -14 -100 -77 -194 -139 -93
-63 -183 -125 -200 -138 -34 -27 -175 -86 -369 -152 l-129 -44 -34 27 c-99 80
-138 91 -158 46 -5 -13 -13 -23 -16 -23 -8 0 -61 123 -90 207 -18 53 -48 221
-70 388 -8 58 -10 166 -6 307 l6 217 36 48 c52 69 119 208 140 291 11 48 24
76 36 83 25 13 44 53 58 121 20 95 105 175 249 234 56 23 72 28 72 21z m3550
-1426 c325 -105 569 -161 697 -161 l65 0 -6 -42 c-15 -105 -25 -350 -16 -368
6 -11 10 -134 10 -304 l0 -286 -492 2 c-462 3 -493 4 -496 21 -2 9 8 31 22 48
23 27 26 39 26 113 0 47 -5 87 -11 93 -17 17 -38 157 -49 323 -5 81 -16 169
-26 200 -23 73 -19 111 16 173 16 29 41 96 56 150 16 59 31 96 38 93 6 -2 81
-27 166 -55z m1780 -19 c0 -49 -20 -195 -39 -292 -30 -146 -43 -312 -32 -405
6 -44 28 -165 51 -269 23 -103 39 -190 38 -192 -6 -6 -649 13 -655 20 -7 7 32
320 53 419 20 98 36 122 90 143 l46 18 -6 55 c-3 31 -8 103 -12 160 -7 115 -8
113 61 132 22 6 43 16 47 23 4 6 8 37 8 68 l0 57 58 17 c81 24 265 72 280 73
7 1 12 -11 12 -27z"/>
</g>
</svg>
