<?xml version="1.0" standalone="no"?>
<!DOCTYPE svg PUBLIC "-//W3C//DTD SVG 20010904//EN"
 "http://www.w3.org/TR/2001/REC-SVG-20010904/DTD/svg10.dtd">
<svg version="1.0" xmlns="http://www.w3.org/2000/svg"
 width="1280.000000pt" height="910.000000pt" viewBox="0 0 1280.000000 910.000000"
 preserveAspectRatio="xMidYMid meet">
<metadata>
Created by potrace 1.15, written by Peter Selinger 2001-2017
</metadata>
<g transform="translate(0.000000,910.000000) scale(0.100000,-0.100000)"
fill="#000000" stroke="none">
<path d="M5934 9089 c-131 -12 -195 -27 -262 -60 -73 -36 -127 -101 -192 -229
-111 -220 -98 -343 83 -805 94 -241 127 -378 127 -525 0 -162 -44 -321 -145
-525 -103 -207 -266 -415 -458 -583 -252 -222 -467 -335 -661 -349 -99 -7
-116 4 -116 73 0 25 -5 54 -10 65 -15 27 -49 25 -54 -3 -18 -100 -20 -103 -49
-101 -29 2 -39 -11 -52 -70 -8 -38 -48 -77 -80 -77 -53 0 -38 51 45 149 22 26
40 53 40 59 0 7 -22 28 -50 48 -28 20 -50 43 -51 52 -1 10 -2 28 -2 42 -2 33
-41 40 -57 11 -12 -23 -8 -34 36 -98 29 -43 30 -74 5 -130 -29 -63 -86 -72
-74 -11 6 28 4 30 -18 23 -49 -14 -54 -14 -65 -7 -17 11 -25 41 -18 69 6 22
11 25 40 20 37 -6 48 3 39 33 -16 51 -124 67 -172 26 l-27 -24 32 -36 c33 -38
46 -72 40 -103 -3 -13 -13 -18 -38 -18 -32 0 -35 -2 -35 -30 0 -36 19 -43 135
-44 76 -1 83 -3 69 -16 -19 -19 -193 -95 -217 -95 -11 0 -28 21 -46 56 -59
112 -155 180 -164 115 -5 -30 14 -42 46 -30 33 13 37 6 17 -25 -41 -62 -83
-44 -243 106 -183 173 -284 237 -432 277 -219 59 -593 43 -813 -36 -109 -38
-166 -75 -254 -163 -65 -65 -86 -80 -110 -80 -37 0 -48 13 -58 65 l-7 40 -20
-28 c-11 -15 -23 -27 -28 -27 -4 0 -27 16 -50 35 -77 64 -101 65 -475 19 -235
-29 -339 -49 -380 -73 -40 -22 -65 -74 -66 -136 0 -27 -3 -68 -7 -89 -7 -39
-8 -37 -31 57 -12 53 -27 97 -32 97 -5 0 -9 -21 -10 -47 -1 -27 -4 -59 -8 -73
-7 -24 -8 -24 -29 18 -13 23 -27 42 -32 42 -6 0 -10 -57 -10 -144 0 -165 -5
-176 -71 -176 -32 0 -39 -3 -39 -20 0 -20 45 -50 74 -50 29 0 65 23 68 44 2
15 10 21 31 21 40 1 56 23 74 101 15 65 17 67 25 39 36 -119 75 -157 160 -157
79 0 89 16 98 159 9 135 13 150 47 179 22 19 23 24 13 44 -17 32 -8 34 50 9
66 -28 99 -28 140 1 43 31 52 16 47 -82 -4 -91 -15 -108 -68 -108 -45 0 -54
-13 -64 -91 -7 -54 -51 -151 -90 -197 -15 -18 -45 -40 -66 -49 -39 -15 -43
-21 -55 -87 l-7 -38 -37 43 -38 44 -29 -27 c-52 -50 -89 -58 -255 -58 -212 -1
-344 -14 -369 -36 -26 -24 -11 -36 31 -24 56 16 60 14 47 -26 -13 -43 -2 -54
55 -54 74 0 119 -34 165 -123 13 -27 29 -47 36 -44 6 2 28 41 47 87 21 50 46
91 61 103 25 18 32 19 131 7 130 -16 143 -13 143 25 0 28 3 30 38 33 23 2 48
-3 63 -13 37 -24 31 -63 -20 -130 -38 -49 -43 -60 -36 -83 5 -15 19 -83 30
-152 23 -140 36 -187 58 -212 23 -27 36 -22 85 32 24 27 47 46 51 43 3 -3 6
-42 6 -85 0 -43 3 -78 8 -77 4 0 41 43 82 95 l75 94 6 -212 c6 -208 5 -213
-15 -230 -27 -22 -103 -48 -291 -97 -233 -61 -314 -94 -412 -167 -47 -35 -89
-64 -94 -64 -18 0 -19 22 -4 72 24 83 16 175 -19 223 -13 18 -14 16 -6 -20 16
-68 12 -92 -20 -125 -31 -31 -31 -32 -24 -113 9 -116 -6 -165 -134 -423 -138
-281 -164 -356 -170 -492 -5 -116 12 -305 34 -378 17 -56 55 -114 154 -233 76
-92 87 -117 119 -269 24 -112 22 -139 -12 -144 -20 -3 -22 -8 -19 -53 3 -41 0
-54 -17 -69 -26 -24 -27 -52 -1 -94 25 -40 37 -40 71 1 23 27 31 30 46 21 27
-16 27 -50 1 -86 -19 -27 -23 -45 -22 -101 1 -66 0 -67 -26 -67 -22 0 -29 -6
-37 -33 l-9 -32 -35 36 c-44 47 -68 59 -121 59 l-43 0 33 21 c61 40 67 63 67
269 0 164 3 193 23 254 23 70 30 186 12 186 -6 0 -47 -45 -93 -100 l-82 -100
-7 97 c-8 109 -42 271 -62 298 -10 15 -12 -6 -8 -118 l5 -137 -26 -9 c-31 -12
-41 -39 -32 -94 8 -46 50 -137 64 -137 5 0 14 13 20 30 11 33 14 35 42 20 27
-15 24 -39 -12 -94 -17 -26 -29 -49 -27 -52 3 -2 24 3 48 11 67 24 80 19 42
-15 -41 -38 -54 -37 -113 1 -27 17 -53 28 -59 24 -15 -9 -12 -82 5 -119 8 -17
27 -39 42 -48 l26 -16 -32 -7 c-20 -4 -36 -16 -44 -32 -16 -35 5 -45 77 -39
57 6 58 5 43 -12 -10 -10 -17 -33 -17 -50 0 -26 -5 -33 -28 -37 -42 -9 -77
-29 -77 -45 0 -24 44 -38 140 -45 63 -5 121 -18 193 -42 195 -66 432 -86 432
-37 0 28 -46 38 -210 43 l-165 6 55 24 c45 20 76 25 175 29 138 5 146 9 171
86 23 69 37 83 103 97 110 23 395 -3 408 -37 10 -25 -43 -162 -130 -339 l-89
-180 -53 185 c-75 264 -116 351 -156 329 -26 -13 -24 -46 5 -83 48 -64 98
-192 136 -354 31 -129 27 -188 -17 -285 -33 -73 -37 -91 -37 -164 l-1 -81 -27
19 c-46 33 -94 48 -180 58 -71 8 -86 13 -105 36 -14 16 -28 23 -35 19 -12 -8
-50 -50 -75 -83 -6 -9 -14 -13 -17 -10 -3 3 -10 57 -16 120 -5 62 -17 137 -26
166 -16 51 -45 93 -64 93 -17 0 -11 -49 10 -90 27 -52 45 -164 36 -222 -4 -29
-21 -67 -42 -97 -19 -28 -34 -52 -34 -55 0 -2 13 -6 28 -9 32 -7 50 -37 59
-104 7 -49 15 -47 33 10 14 46 42 64 61 40 10 -12 13 -44 11 -125 -3 -95 -1
-114 18 -153 12 -25 25 -45 29 -45 4 0 8 55 7 123 0 130 14 185 51 205 25 14
68 4 89 -20 29 -31 5 -111 -92 -308 -91 -184 -119 -250 -105 -250 13 0 54 66
142 232 112 210 153 277 157 256 2 -9 -11 -47 -29 -85 -42 -92 -60 -151 -48
-159 5 -3 -4 -21 -20 -40 -38 -43 -54 -74 -75 -143 -10 -33 -12 -59 -7 -64 20
-20 101 120 191 328 79 181 92 192 224 182 172 -14 202 -41 226 -202 15 -107
53 -231 85 -277 45 -66 50 -57 70 131 33 304 32 299 35 251 1 -25 7 -128 14
-230 12 -180 12 -183 19 -105 16 181 29 262 48 304 18 41 21 43 36 29 17 -18
31 -83 33 -163 l2 -50 13 71 c21 114 55 160 107 146 26 -7 32 -43 21 -135 -9
-75 -7 -111 4 -79 12 34 64 -3 163 -118 18 -21 20 -22 15 -5 -4 11 -21 58 -37
105 -34 97 -46 177 -30 207 18 32 49 35 82 7 53 -45 79 -177 56 -284 -8 -36
-12 -67 -10 -69 5 -6 44 62 55 99 6 19 13 91 16 159 l5 123 62 -6 c33 -3 133
-8 221 -11 197 -8 475 -31 561 -47 69 -12 83 -7 84 33 0 24 -37 67 -63 72 -21
3 -21 4 6 15 15 7 73 20 127 29 55 9 100 21 100 25 0 4 -33 9 -72 9 -115 2
-225 13 -203 21 11 3 54 14 95 23 83 19 121 41 55 31 -22 -3 -85 -8 -140 -11
-55 -3 -125 -8 -155 -11 l-55 -6 126 60 c175 82 263 143 296 206 22 42 10 71
-40 95 -40 19 -217 64 -217 55 0 -2 46 -27 103 -55 93 -47 116 -63 117 -80 0
-15 -83 -62 -132 -74 -124 -33 -369 -38 -399 -8 -16 16 34 95 90 141 29 23 72
48 97 54 55 15 57 28 4 28 -50 0 -110 24 -110 44 0 23 41 46 85 47 22 0 49 4
59 8 16 6 8 12 -37 30 -32 13 -57 28 -57 35 0 6 25 26 55 44 97 58 106 124 23
162 -84 38 -181 16 -348 -80 -133 -76 -162 -85 -204 -62 -25 14 -65 18 -211
20 -99 2 -178 2 -175 -1 3 -3 66 -12 140 -21 155 -19 203 -30 220 -51 11 -13
6 -22 -34 -58 -50 -46 -58 -72 -26 -82 30 -10 14 -25 -27 -25 -71 0 -140 58
-173 146 -15 39 -23 22 -11 -23 13 -47 14 -110 2 -118 -5 -3 -47 1 -93 9 -46
8 -148 18 -228 21 -157 7 -220 18 -220 39 0 19 62 44 170 67 137 29 170 39
170 49 0 19 -117 10 -194 -15 -112 -36 -192 -80 -253 -137 -59 -57 -66 -83
-33 -133 11 -16 20 -41 20 -54 0 -27 -49 -141 -61 -141 -10 0 -26 52 -40 133
-14 84 -1 167 46 287 81 209 159 351 241 439 69 75 122 101 232 111 108 10
162 24 196 51 34 27 24 41 -50 69 -69 25 -130 26 -171 0 -18 -11 -33 -21 -33
-22 0 -2 34 -3 75 -3 57 0 78 -4 92 -17 9 -10 13 -21 9 -25 -4 -5 -50 -8 -102
-8 -74 0 -97 3 -110 17 -16 15 -15 21 16 80 40 78 62 111 114 168 53 59 114
107 149 115 25 7 27 5 27 -22 0 -32 -26 -63 -53 -63 -24 0 -65 -41 -73 -72 -5
-22 -1 -30 22 -45 25 -16 47 -18 176 -16 81 2 148 -1 148 -5 0 -4 -16 -20 -35
-35 -44 -35 -44 -54 0 -73 74 -31 365 -59 365 -36 0 5 -9 17 -20 27 -11 10
-17 22 -14 26 7 12 244 12 244 0 0 -4 -21 -16 -47 -26 -27 -10 -52 -21 -57
-25 -9 -8 13 -5 324 57 l195 38 -150 7 c-170 9 -215 15 -215 29 0 15 43 28
205 64 l150 33 -192 3 c-125 3 -196 8 -203 15 -12 12 -10 14 104 116 29 25 37
39 32 54 -9 29 -58 54 -106 54 -52 0 -510 -133 -570 -166 -24 -13 -23 -13 27
-14 63 0 166 21 294 60 154 48 299 63 299 31 0 -4 -40 -20 -88 -34 -96 -29
-125 -50 -115 -85 5 -21 3 -22 -83 -23 -49 -1 -100 -4 -114 -8 -24 -7 -23 -9
15 -19 22 -6 66 -16 98 -23 32 -7 60 -16 62 -19 3 -4 -24 -10 -58 -12 -67 -6
-117 -24 -117 -43 0 -21 -36 -45 -66 -45 -36 0 -54 16 -54 47 0 40 -53 60
-235 88 -54 9 -101 17 -102 19 -2 2 17 7 42 10 57 9 69 29 57 97 -14 77 -5 82
137 75 132 -7 184 4 189 41 5 33 -15 63 -42 63 -13 0 -44 -9 -70 -21 -94 -41
-217 -45 -224 -6 -5 25 55 50 136 55 40 3 75 8 77 12 3 4 -18 17 -45 29 -28
12 -50 28 -50 35 0 8 17 25 38 38 61 37 110 87 122 123 20 60 215 226 342 291
50 25 112 32 124 13 10 -17 -13 -51 -62 -89 -24 -19 -44 -38 -44 -42 0 -5 16
-8 36 -8 48 0 85 40 109 119 10 34 22 61 27 61 15 0 49 -92 55 -145 6 -53 -2
-67 -42 -77 -34 -8 -157 10 -218 33 l-58 22 -22 -22 c-17 -17 -22 -36 -25 -94
-5 -92 13 -119 96 -144 80 -25 284 -25 308 -1 9 9 14 24 11 32 -8 20 -58 21
-176 4 -82 -11 -84 -11 -103 12 -19 23 -16 58 6 72 16 11 113 10 201 -3 42 -6
79 -8 82 -5 3 2 -6 76 -20 163 -14 87 -24 159 -22 161 7 8 245 42 290 42 65
-1 129 -30 149 -68 56 -108 18 -315 -164 -902 -97 -314 -114 -401 -90 -476 6
-21 32 -93 56 -160 24 -67 44 -126 44 -133 0 -7 -32 -11 -102 -11 -56 0 -99
-3 -95 -6 3 -3 40 -12 82 -19 87 -15 101 -25 126 -80 25 -57 42 -146 98 -525
58 -385 77 -488 102 -548 19 -43 48 -63 81 -54 38 10 39 35 8 186 -38 182 -39
248 -6 280 31 32 90 43 345 61 323 24 661 68 726 95 27 12 -339 12 -388 1 -21
-5 -44 -16 -50 -25 -23 -29 -175 -47 -533 -61 l-160 -7 -18 153 c-37 322 -39
524 -5 565 9 11 8 14 -5 14 -34 0 -40 47 -41 310 0 283 4 301 63 313 56 11 46
69 -18 102 -48 25 -53 46 -29 117 32 97 88 196 146 259 29 31 53 59 53 62 0 2
-13 7 -30 11 -16 3 -30 9 -30 14 0 13 69 91 92 103 16 8 23 8 29 -2 12 -20 11
-393 -2 -485 -6 -42 -17 -87 -26 -100 -22 -34 -14 -69 17 -69 19 0 26 -7 32
-35 26 -122 17 -636 -17 -980 -20 -193 -19 -254 1 -271 37 -30 189 -7 253 38
l36 25 -45 -6 c-25 -3 -64 -8 -87 -12 l-43 -7 6 174 c2 96 9 356 14 578 5 222
12 406 14 409 3 2 56 7 118 9 186 8 223 -18 235 -165 10 -124 -18 -167 -132
-201 -82 -24 -135 -67 -135 -110 0 -29 16 -51 37 -51 8 0 11 9 7 28 -7 33 13
54 70 72 52 17 160 17 180 1 41 -34 4 -71 -70 -71 -19 0 -34 -4 -34 -10 0 -5
4 -10 8 -10 5 0 27 -16 50 -36 52 -45 64 -85 63 -223 0 -101 -1 -107 -26 -128
-19 -17 -40 -23 -73 -24 -26 0 -69 -4 -97 -9 l-50 -7 40 -2 c65 -3 164 -27
185 -46 10 -9 21 -38 25 -67 4 -27 13 -52 20 -54 7 -3 41 7 76 22 68 28 179
45 179 26 0 -6 -13 -13 -30 -17 -107 -23 87 -40 360 -32 367 12 328 36 -135
81 -311 31 -322 33 -329 51 -12 33 -38 267 -39 363 -2 112 2 122 56 122 32 0
87 -48 87 -76 0 -10 -12 -30 -26 -45 l-26 -27 23 -15 c28 -18 135 -47 173 -47
23 0 25 3 23 38 -2 37 -2 37 41 40 44 3 166 -31 178 -49 3 -5 -21 -22 -53 -37
l-58 -27 68 -3 c75 -3 165 18 192 45 25 25 3 39 -116 79 -91 30 -97 33 -49 27
30 -5 96 -8 147 -8 73 0 96 4 109 17 9 9 13 21 9 28 -8 13 -75 12 -395 -6
-129 -7 -147 0 -134 50 10 42 64 75 186 116 131 43 172 62 211 98 34 32 34 48
2 56 -35 9 -45 1 -45 -35 l0 -31 -82 7 c-110 9 -180 -8 -344 -84 -126 -59
-176 -72 -189 -51 -16 26 48 62 206 115 112 38 142 53 134 66 -4 5 -26 9 -49
9 -34 0 -57 -9 -104 -40 -76 -51 -111 -53 -157 -7 -40 40 -63 114 -67 211 l-3
70 132 65 c172 87 213 123 178 161 -23 25 -98 33 -222 23 l-103 -9 0 41 c0 55
29 547 36 615 39 377 67 475 143 518 32 18 150 45 361 83 36 6 108 12 160 12
149 2 193 -33 204 -166 12 -139 -23 -186 -81 -112 -32 42 -71 65 -107 65 -34
0 -57 -26 -50 -55 9 -34 -22 -39 -169 -28 -130 11 -216 5 -241 -16 -51 -42 12
-54 327 -59 153 -2 277 -6 274 -8 -2 -2 -77 -17 -168 -34 -206 -38 -259 -50
-259 -59 0 -4 17 -7 38 -5 109 6 390 6 410 0 86 -28 -128 -74 -357 -77 -123
-2 -44 -17 94 -18 135 -2 230 -13 272 -33 19 -9 40 -37 68 -91 109 -214 265
-343 556 -462 343 -141 446 -225 530 -438 32 -79 94 -204 193 -389 85 -160
206 -461 206 -514 0 -23 -3 -24 -67 -24 -78 1 -392 25 -398 32 -2 2 58 26 133
53 l137 50 -80 3 c-110 5 -171 -10 -234 -58 -52 -39 -129 -69 -180 -71 -24 0
-24 -1 -6 -9 11 -5 126 -13 255 -19 365 -17 483 -47 544 -139 l28 -44 32 31
c24 23 46 32 96 40 36 6 281 13 555 15 270 2 504 8 520 13 l30 10 -30 7 c-16
4 -283 10 -592 13 l-561 5 -6 87 c-4 47 -9 110 -12 139 -5 49 -3 55 25 81 16
15 55 36 85 45 31 10 56 19 56 21 0 2 -35 1 -79 -2 -95 -7 -112 5 -132 94 -23
100 -16 223 19 354 45 165 50 221 23 307 -52 174 -251 377 -458 468 -31 14
-95 36 -142 48 -110 30 -160 51 -168 72 -8 22 11 31 81 39 106 10 144 25 187
70 22 23 51 48 64 55 14 7 22 17 19 22 -3 4 -87 8 -187 7 -139 -1 -171 -3
-137 -10 92 -19 129 -32 145 -49 16 -17 15 -20 -9 -35 -20 -14 -68 -20 -216
-28 -104 -6 -193 -7 -197 -3 -4 4 15 27 42 50 l49 43 -46 7 c-26 4 -58 16 -72
27 -79 62 -76 203 4 244 17 9 82 22 146 29 127 15 167 33 124 56 -18 10 -42
10 -113 0 -134 -18 -140 5 -33 130 128 149 136 171 75 207 -41 24 -36 31 16
25 44 -4 48 -3 89 40 76 80 166 289 212 493 60 267 -26 729 -165 889 -30 35
-41 56 -39 75 3 37 -9 51 -45 51 -55 0 -62 14 -22 44 40 31 38 46 -8 46 -52 0
-105 -19 -125 -45 -25 -31 -32 -31 -32 -1 0 47 -18 74 -62 94 -24 10 -90 48
-148 84 -163 100 -229 118 -246 66 -5 -17 0 -28 22 -46 30 -26 43 -17 24 18
-17 31 -2 39 21 11 22 -27 24 -53 8 -84 -17 -31 -30 -38 -61 -31 -20 4 -32 0
-45 -16 -22 -27 -65 -50 -93 -50 -27 0 -25 5 10 38 20 18 35 45 44 79 15 59
117 236 178 306 23 27 48 47 60 47 11 0 46 26 79 59 32 33 59 56 59 53 0 -4
-4 -23 -10 -41 -16 -58 -5 -63 141 -59 111 3 131 6 156 24 16 12 29 33 31 47
5 38 15 33 40 -18 24 -49 42 -58 42 -22 0 36 10 39 41 13 43 -37 143 -49 399
-50 240 -1 254 1 293 51 11 13 29 23 44 23 22 0 24 -3 18 -31 -5 -22 -3 -34 6
-40 16 -10 73 -12 82 -3 14 15 -30 68 -73 87 -41 19 -73 21 -355 28 -319 8
-409 16 -536 46 -110 26 -244 22 -346 -9 -46 -14 -83 -23 -83 -20 0 9 152 254
223 362 39 57 88 139 109 182 152 304 240 836 210 1270 -15 212 -28 285 -92
519 -81 293 -74 372 38 425 82 39 190 47 517 41 317 -7 477 -18 690 -48 158
-22 185 -23 185 -9 0 37 -217 152 -535 283 -331 138 -526 240 -655 345 -99 80
-158 92 -366 71z m-14 -234 c-19 -18 -90 -48 -90 -37 0 11 51 58 70 65 23 7
36 -11 20 -28z m148 -75 c32 -20 50 -45 39 -56 -3 -3 -22 -1 -42 6 -41 14 -69
0 -60 -30 3 -9 -2 -23 -10 -30 -13 -11 -37 -8 -140 17 -69 16 -125 29 -125 27
0 -2 28 -19 63 -38 76 -43 160 -66 247 -67 l65 -1 -42 -11 c-58 -16 -63 -25
-28 -53 l30 -24 -29 0 c-17 0 -67 5 -113 12 -45 7 -85 9 -88 6 -4 -3 10 -28
29 -56 20 -27 36 -53 36 -56 0 -10 -104 65 -155 110 l-40 35 35 -5 c19 -3 46
-8 60 -12 20 -5 15 3 -27 44 -54 52 -65 76 -61 127 2 23 -2 30 -17 33 -44 7
-51 13 -33 23 12 6 49 3 117 -11 119 -24 155 -26 148 -6 -15 39 84 50 141 16z
m538 -71 c22 -17 51 -36 67 -41 15 -6 27 -15 27 -20 0 -21 -242 16 -320 48
-19 8 100 42 151 43 27 1 47 -7 75 -30z m-903 -321 c26 -26 40 -33 72 -33 36
0 40 -3 43 -27 4 -36 16 -35 44 2 23 32 55 42 44 14 -3 -9 -6 -20 -6 -25 0 -6
-20 -31 -44 -57 -53 -58 -65 -79 -83 -156 -21 -90 -85 -188 -111 -172 -6 3
-15 28 -22 55 -12 49 -7 77 10 66 17 -10 48 14 59 46 13 39 8 48 -24 41 -28
-5 -65 21 -65 45 0 11 4 11 20 3 30 -16 40 -4 40 43 0 59 -23 90 -61 82 -26
-6 -29 -4 -29 20 0 27 48 85 70 85 6 0 26 -15 43 -32z m230 -221 c-4 -29 -1
-37 28 -61 l34 -27 -43 -37 c-46 -41 -46 -52 2 -52 48 0 76 -25 76 -66 0 -50
-21 -84 -88 -142 -54 -47 -59 -55 -59 -91 0 -27 -13 -63 -42 -116 -24 -42 -41
-79 -39 -81 2 -2 22 6 44 16 69 34 238 63 257 43 11 -11 -52 -50 -101 -62 -26
-7 -64 -17 -85 -22 -39 -10 -109 -66 -128 -101 -9 -16 -3 -15 43 8 60 30 219
84 249 84 30 0 39 -39 39 -170 0 -149 -7 -170 -56 -170 -26 0 -43 8 -65 29
-26 26 -29 36 -29 90 0 61 -15 91 -46 91 -47 0 -182 -104 -171 -132 17 -45
160 -108 243 -108 55 0 103 -25 104 -53 0 -15 -70 -37 -120 -37 -60 0 -59 -14
1 -24 50 -8 102 -55 97 -88 -4 -32 -29 -33 -114 -8 -74 22 -94 21 -94 -5 0
-20 28 -33 89 -41 63 -8 101 -35 101 -72 0 -76 -97 -424 -129 -463 -16 -19
-17 -19 -94 26 -94 56 -146 75 -199 75 -58 0 -39 -15 57 -45 98 -32 162 -73
171 -112 4 -15 2 -47 -5 -72 -25 -94 -154 -287 -214 -320 -21 -12 -34 -32 -51
-82 -21 -64 -83 -155 -112 -166 -8 -3 -30 8 -50 23 -146 117 -194 127 -77 16
82 -77 109 -114 98 -132 -15 -24 -62 -3 -220 98 -51 33 -103 57 -145 68 -39 9
-71 24 -81 36 -19 24 -41 22 -179 -18 -122 -35 -210 -47 -244 -34 -38 14 -42
7 -16 -29 11 -17 18 -35 15 -41 -7 -11 -186 -12 -275 -2 -54 7 -55 7 -53 38 2
28 -1 32 -26 37 -55 11 -195 -19 -273 -59 -70 -35 -102 -32 -154 16 -37 34
-49 39 -71 34 -46 -11 -179 -83 -204 -111 l-24 -26 23 7 c12 3 32 9 43 12 19
6 20 5 9 -15 -18 -34 -47 -40 -102 -19 -117 44 -250 29 -372 -43 -58 -35 -79
-42 -125 -43 l-56 -1 -6 -61 c-7 -76 -12 -84 -55 -82 -60 2 -120 -74 -94 -121
9 -17 6 -19 -28 -14 -33 4 -44 0 -82 -32 -25 -21 -59 -44 -77 -51 -42 -18 -93
-18 -93 0 0 18 75 93 207 206 59 51 114 99 122 106 12 11 12 16 1 28 -18 23
-43 20 -120 -14 -107 -47 -136 -36 -88 33 30 43 139 157 150 157 5 0 6 -16 2
-35 -3 -20 -2 -35 3 -35 15 0 138 131 156 167 22 41 21 56 -2 77 -11 10 -22
37 -26 59 -10 63 -44 164 -65 189 l-18 22 -27 -32 c-15 -18 -30 -32 -34 -32
-4 0 -14 15 -23 33 -28 59 -129 89 -136 41 -2 -12 -12 -24 -24 -27 -22 -6 -74
10 -64 20 11 12 -16 33 -44 33 -38 0 -51 -19 -43 -63 l6 -38 -28 11 c-36 14
-41 8 -27 -39 16 -52 16 -51 -20 -49 -38 3 -49 -20 -23 -46 31 -31 77 -18 169
48 33 23 63 13 97 -35 l23 -32 -25 6 c-60 17 -95 18 -113 4 -19 -14 -19 -15 5
-28 25 -13 312 -22 307 -9 -2 3 -36 35 -77 71 -82 71 -100 96 -56 79 72 -27
194 -151 182 -184 -6 -16 12 -26 49 -26 13 0 24 -5 24 -10 0 -28 -160 -90
-266 -105 -57 -7 -72 2 -54 35 23 43 3 42 -39 -1 -49 -50 -72 -85 -50 -76 8 3
22 8 32 12 22 9 23 -15 2 -55 -19 -36 -31 -37 -55 -7 -15 18 -28 22 -73 22
-64 0 -110 -26 -115 -66 -7 -45 -109 -129 -157 -129 -20 0 -19 18 5 117 34
144 62 185 90 133 14 -27 38 -25 62 5 16 21 28 25 73 25 l54 0 -2 43 c-2 46
-1 46 63 32 31 -7 33 -6 22 8 -8 9 -29 21 -47 27 -36 12 -67 6 -136 -23 l-36
-16 5 52 c5 58 -21 129 -60 163 -19 18 -20 18 -46 -14 -15 -18 -31 -32 -36
-32 -18 0 6 66 35 96 33 34 36 66 6 72 -18 4 -56 -32 -161 -149 -30 -33 -50
-49 -53 -41 -8 20 52 111 138 211 90 105 123 150 116 157 -2 3 -23 -3 -46 -12
-23 -9 -58 -14 -81 -12 -33 3 -39 1 -34 -12 15 -36 15 -49 0 -78 -19 -37 -82
-76 -149 -93 -42 -10 -51 -10 -64 4 -22 22 -9 51 19 44 30 -8 80 17 107 54 27
36 23 44 -13 28 -14 -7 -29 -9 -33 -6 -11 12 26 43 90 74 106 52 156 66 235
64 45 -1 107 7 160 20 170 41 315 36 492 -18 114 -34 211 -84 293 -150 91 -75
93 -83 6 -27 -102 66 -185 94 -284 94 -61 0 -91 5 -120 20 -45 23 -51 21 -34
-12 31 -59 133 -210 136 -201 2 6 -2 38 -10 72 -8 33 -11 61 -6 61 4 0 11 -9
14 -20 9 -27 31 -25 51 5 30 46 32 26 8 -67 -32 -122 -32 -163 1 -184 24 -16
43 -16 225 -4 110 7 230 10 267 7 69 -5 183 -41 183 -57 0 -5 -20 -16 -44 -25
-53 -20 -131 -17 -226 10 -50 14 -79 16 -125 11 -70 -9 -58 -21 31 -29 74 -6
104 -23 104 -58 0 -25 -6 -28 -97 -52 -135 -35 -159 -39 -183 -32 -52 16 8 51
105 61 l68 7 -64 23 c-35 13 -68 30 -74 39 -28 46 -29 47 -50 31 -17 -12 -20
-28 -23 -116 -3 -71 -8 -103 -17 -106 -7 -3 -36 -1 -64 4 -50 9 -51 9 -51 -15
0 -16 -17 -41 -52 -74 -28 -27 -48 -49 -45 -49 3 0 120 40 259 89 461 162 696
226 791 216 50 -6 51 -5 30 11 -79 58 41 84 392 85 168 1 225 4 190 10 -76 13
-138 33 -142 46 -10 30 70 49 382 93 149 20 245 44 245 61 0 11 -40 7 -165
-16 -38 -7 -71 -12 -73 -10 -5 5 241 197 317 247 41 27 86 51 100 54 47 10 51
13 51 41 0 59 152 165 261 181 l54 8 -57 26 c-32 15 -58 31 -58 36 0 5 15 25
33 44 44 46 150 254 186 364 16 49 45 125 63 169 49 113 63 190 62 330 -1 140
-20 230 -63 292 -16 23 -27 44 -24 47 12 12 81 6 92 -8 7 -8 9 -29 5 -54 -7
-47 8 -102 36 -127 19 -18 20 -17 20 9 0 50 30 101 95 162 42 38 65 68 65 82
0 36 -30 26 -81 -28 -27 -29 -53 -48 -61 -45 -17 7 -65 82 -72 115 -7 26 -2
36 26 59 17 12 18 10 12 -32 -6 -40 -4 -46 16 -57 19 -10 27 -9 48 7 37 27 41
48 9 39 -21 -5 -26 -2 -31 20 -10 38 20 129 55 169 17 19 33 35 34 35 2 0 1
-15 -2 -33z m118 -397 c23 0 6 -42 -23 -60 -59 -36 -120 -17 -91 29 12 19 72
42 91 35 8 -2 18 -4 23 -4z m48 -124 c11 -12 10 -16 -8 -25 -25 -14 -170 -11
-174 4 -3 14 104 45 138 40 16 -3 36 -12 44 -19z m-195 -372 c9 -24 7 -107 -3
-123 -7 -12 -17 -9 -55 13 -25 15 -46 34 -46 43 0 17 68 83 86 83 6 0 15 -7
18 -16z m-2819 -1216 c41 -62 45 -93 13 -102 -35 -9 -53 -7 -73 8 -18 13 -18
15 1 80 10 36 20 66 21 66 1 0 18 -24 38 -52z m-1614 5 c12 -32 -12 -107 -37
-117 -24 -9 -69 19 -110 69 -38 47 -40 64 -6 46 12 -6 36 -11 55 -11 26 0 36
5 40 20 8 30 45 26 58 -7z m266 -110 c3 -7 -27 -33 -66 -58 -39 -24 -71 -49
-71 -53 0 -5 25 -30 55 -56 65 -55 63 -61 -22 -96 -69 -28 -121 -59 -147 -89
-18 -20 -18 -21 -1 -21 40 0 186 92 268 169 64 60 42 101 -39 71 -32 -13 -42
-6 -24 15 17 21 229 125 253 125 17 0 18 -5 12 -37 -10 -56 -44 -120 -86 -164
-22 -23 -43 -58 -50 -82 -6 -23 -29 -75 -51 -115 -37 -66 -40 -78 -35 -123 5
-40 3 -51 -10 -56 -23 -9 -53 32 -53 73 0 18 -4 35 -9 38 -5 4 -30 -10 -56
-30 -26 -19 -49 -33 -51 -31 -3 3 10 34 27 70 18 37 30 69 27 72 -9 9 -141
-73 -197 -122 -27 -24 -52 -43 -55 -43 -9 0 32 87 70 147 20 32 68 88 106 126
88 86 88 103 -1 99 -65 -3 -83 4 -103 41 -9 18 -8 19 12 14 31 -8 78 13 142
64 81 64 144 85 155 52z m-920 -119 c14 -46 16 -163 4 -183 -31 -49 -65 98
-45 198 9 41 26 35 41 -15z m4257 -199 c160 -42 320 -169 302 -240 -13 -53
-71 -33 -173 60 -35 31 -63 54 -63 51 0 -2 23 -31 51 -63 65 -73 99 -143 99
-205 0 -51 -22 -76 -51 -57 -28 18 -32 8 -25 -62 6 -71 6 -71 -16 -65 -51 16
-53 15 -59 -59 -11 -115 -49 -185 -101 -185 -31 0 -32 -5 -18 -65 12 -51 5
-74 -20 -68 -15 4 -21 -1 -25 -23 -19 -83 -37 -134 -61 -170 -36 -53 -116
-145 -121 -140 -8 7 27 292 43 352 8 33 23 70 32 84 l17 25 3 -45 c2 -24 -1
-72 -7 -105 -20 -115 -10 -186 17 -117 19 47 31 141 42 324 11 200 19 228 63
228 l29 0 -7 55 c-5 44 -3 56 8 61 25 9 54 -13 61 -47 6 -33 29 -36 34 -3 7
54 -78 128 -139 121 -85 -11 -141 53 -119 134 6 23 9 44 6 47 -4 3 -20 -5 -37
-17 -39 -29 -81 -41 -102 -29 -21 11 -22 -8 -5 -82 11 -48 10 -54 -7 -66 -10
-8 -32 -14 -47 -14 -36 0 -75 -20 -110 -57 -33 -34 -43 -60 -68 -174 -22 -101
-64 -207 -111 -280 -29 -46 -35 -50 -60 -45 -24 4 -33 0 -53 -27 -62 -81 -126
-256 -126 -344 0 -24 -4 -43 -10 -43 -5 0 -28 29 -51 65 -23 36 -43 64 -45 63
-2 -2 3 -28 11 -58 8 -30 15 -85 15 -122 0 -37 4 -70 10 -73 5 -3 20 10 32 29
29 46 38 45 38 -1 0 -21 5 -45 10 -53 29 -46 96 76 145 265 28 109 52 173 109
290 40 83 90 195 111 250 41 111 70 171 93 198 60 68 34 -88 -48 -288 -49
-120 -62 -191 -35 -201 30 -12 50 27 80 148 53 216 97 343 121 352 29 11 37
-22 30 -125 l-7 -100 26 7 c23 6 25 3 25 -24 0 -43 -48 -174 -94 -256 -47 -84
-110 -149 -135 -141 -50 15 -55 -95 -8 -162 36 -52 48 -120 45 -243 l-3 -105
-33 91 c-39 105 -66 154 -86 154 -30 0 -28 -39 3 -87 26 -39 31 -56 31 -105 0
-32 -2 -58 -5 -58 -3 0 -12 17 -20 37 -19 44 -32 54 -62 46 -20 -4 -23 -1 -23
26 0 47 34 135 73 189 44 62 50 72 39 72 -19 0 -143 -103 -302 -250 -260 -240
-308 -270 -345 -214 -23 35 -34 21 -42 -56 -7 -71 -34 -110 -76 -110 -33 0
-47 -18 -47 -62 0 -36 -1 -37 -29 -32 -37 8 -69 -10 -161 -87 l-75 -63 41 49
c57 70 74 97 74 117 0 10 -6 18 -13 18 -25 0 -41 46 -47 133 l-5 87 -69 -80
c-39 -44 -75 -80 -81 -80 -8 0 -14 29 -18 78 -4 42 -14 99 -22 126 -20 67 -20
67 23 60 34 -5 38 -4 48 23 l10 28 32 -60 31 -60 1 63 c0 54 -4 66 -25 87 -35
36 -61 31 -113 -20 -25 -25 -49 -45 -53 -45 -23 0 -31 48 -27 148 5 120 -2
115 -27 -15 -15 -77 -16 -99 -5 -135 27 -94 21 -205 -17 -299 -32 -82 -60 -34
-73 124 -5 60 -11 111 -13 113 -2 3 -7 -32 -10 -76 -8 -96 -23 -154 -49 -176
-17 -16 -19 -16 -37 0 -10 9 -23 36 -29 59 -14 54 -23 187 -13 187 4 0 19 -35
33 -77 25 -74 26 -76 27 -38 2 84 21 158 52 207 28 44 32 59 37 142 5 101 -10
141 -23 58 -13 -88 -62 -179 -85 -156 -9 9 -21 90 -37 232 -6 60 9 86 58 97
15 4 40 15 54 27 22 17 25 25 19 55 -6 32 -5 34 17 31 20 -2 25 -10 27 -40 2
-21 -1 -53 -7 -73 -12 -43 -2 -45 27 -5 26 35 51 38 77 10 25 -27 45 -13 78
54 34 69 35 94 1 106 -14 6 -22 14 -19 20 11 17 49 11 87 -15 45 -31 62 -31
82 -3 22 31 21 70 -1 66 -59 -11 -15 219 76 399 17 34 31 66 31 69 0 4 -25
-20 -56 -54 -70 -77 -87 -88 -109 -65 -42 42 17 178 141 328 41 49 74 93 74
97 0 20 -27 2 -101 -68 -71 -66 -84 -74 -109 -69 -24 5 -35 -1 -79 -45 -52
-52 -108 -136 -97 -147 3 -3 42 33 87 81 45 48 83 85 86 83 12 -12 -266 -574
-299 -603 -17 -16 -18 -15 -18 19 0 47 16 87 35 87 8 0 15 7 15 15 0 20 -27
85 -35 85 -4 0 -21 -16 -39 -35 -19 -19 -42 -35 -53 -35 -30 0 -77 -57 -122
-147 -81 -163 -82 -92 -1 118 28 70 50 135 50 142 0 9 -14 1 -36 -19 -27 -26
-44 -34 -72 -34 -42 0 -72 -22 -122 -90 -88 -117 -161 -183 -183 -161 -32 32
129 255 343 474 157 162 287 266 311 251 15 -9 -15 -69 -79 -162 -35 -52 -61
-96 -59 -98 2 -3 40 39 83 92 160 198 195 228 308 261 28 8 79 30 113 48 52
27 69 32 108 28 35 -4 50 -1 65 12 11 10 20 22 20 27 0 11 -43 10 -74 -2 -43
-16 -29 7 17 29 49 24 75 26 112 9 30 -14 32 -31 4 -69 -26 -37 -15 -37 52 4
30 19 88 55 130 80 75 46 139 69 139 50 0 -5 -16 -25 -36 -44 -54 -50 -154
-168 -154 -180 0 -17 32 6 128 88 91 80 137 111 148 101 10 -11 -23 -61 -85
-131 -34 -37 -61 -70 -61 -73 0 -3 28 20 62 51 63 56 144 115 160 115 23 0 6
-42 -71 -177 l-22 -38 28 34 c102 124 160 181 186 181 19 0 -3 -70 -42 -135
-23 -37 -40 -69 -38 -71 1 -2 25 24 52 58 27 34 72 79 99 100 43 34 55 39 84
34 40 -6 75 10 112 49 22 24 70 55 85 55 16 0 1 -51 -26 -83 -17 -20 -26 -37
-21 -37 15 0 125 75 151 104 21 23 32 26 86 26 33 0 87 -7 119 -15z m-3724
-61 c0 -16 -87 -60 -98 -49 -11 10 56 65 78 65 11 0 20 -7 20 -16z m700 -60
c0 -25 -27 -69 -80 -133 -55 -66 -70 -75 -63 -37 7 37 -14 41 -58 11 -21 -15
-39 -30 -39 -34 0 -3 -19 -26 -41 -51 l-40 -45 27 55 c33 67 170 207 233 238
46 22 61 21 61 -4z m1233 -10 c3 -4 -1 -20 -9 -37 -16 -29 -16 -30 8 -24 12 2
47 15 75 28 l53 23 25 -24 c34 -31 32 -40 -8 -33 -25 4 -58 -5 -130 -36 -53
-23 -102 -41 -110 -41 -33 0 -123 -74 -262 -214 -243 -244 -426 -469 -515
-633 -44 -80 -67 -113 -81 -113 -8 0 -72 108 -85 145 -4 11 14 -4 40 -33 26
-28 52 -50 56 -47 5 3 18 33 29 68 25 76 83 175 190 330 44 63 91 137 104 163
22 43 32 51 77 67 66 23 124 81 210 206 64 93 90 118 90 87 0 -28 27 -17 97
39 60 48 117 84 134 85 3 0 8 -3 12 -6z m-2009 -96 c-21 -36 -88 -108 -100
-108 -29 0 -12 28 44 73 61 50 67 54 56 35z m266 -73 c0 -44 14 -44 42 0 13
19 26 35 31 35 18 0 10 -114 -13 -166 -21 -49 -34 -59 -50 -39 -26 32 -52 180
-33 198 15 15 23 5 23 -28z m1074 -96 c-16 -17 -67 -56 -114 -86 -215 -140
-270 -178 -270 -185 0 -12 6 -10 70 22 67 34 114 38 150 13 14 -10 50 -20 80
-23 l55 -5 -117 -121 c-65 -66 -118 -123 -118 -128 0 -4 9 -4 20 -1 24 8 25 2
4 -30 -13 -19 -24 -24 -53 -23 -35 1 -93 -22 -106 -42 -3 -5 -11 -10 -16 -10
-6 0 3 19 19 43 39 57 45 76 27 84 -30 11 -81 -23 -162 -107 -46 -47 -83 -83
-83 -80 0 3 9 30 19 60 30 84 14 91 -73 30 -65 -45 -64 -40 8 43 70 81 172
157 212 157 35 0 44 13 44 61 0 45 -26 37 -143 -41 -135 -90 -274 -215 -390
-348 -222 -258 -270 -295 -374 -290 l-58 3 50 27 c68 35 163 119 400 349 232
225 313 292 485 404 189 123 423 254 454 255 6 0 -3 -14 -20 -31z m-1389 -9
c7 -12 -52 -39 -102 -47 -59 -10 -37 27 27 45 47 14 68 14 75 2z m4416 -140
c21 -30 42 -71 46 -90 7 -29 13 -35 35 -35 14 -1 33 -7 43 -15 23 -19 123
-161 184 -262 71 -116 77 -121 91 -66 27 108 26 108 35 15 4 -48 11 -90 16
-93 5 -3 19 15 31 40 12 26 25 46 28 46 3 0 1 -31 -4 -70 -12 -83 -2 -111 49
-141 93 -55 55 -199 -93 -347 -67 -67 -100 -84 -114 -58 -5 9 -15 16 -22 16
-23 0 -191 -88 -211 -110 -25 -28 -13 -35 25 -15 30 16 32 15 28 -2 -6 -30
-51 -46 -99 -33 -22 6 -44 9 -47 6 -3 -4 2 -22 11 -41 16 -34 16 -35 -2 -26
-24 13 -51 55 -51 80 0 11 16 40 35 65 19 26 35 48 35 51 0 3 -23 -10 -51 -30
-73 -50 -94 -26 -43 49 33 48 27 44 -110 -67 -145 -117 -187 -136 -152 -69 26
51 38 115 27 145 -17 44 -45 35 -79 -25 -50 -88 -71 -102 -165 -109 -113 -9
-219 -50 -354 -137 -96 -62 -151 -92 -169 -92 -15 0 3 20 46 49 55 38 61 52
28 75 -35 25 -71 20 -102 -14 -27 -30 -46 -32 -46 -4 0 17 62 87 103 116 l30
22 -6 -26 c-8 -32 12 -51 50 -46 23 2 29 8 31 34 l3 31 45 -10 c24 -6 47 -8
50 -5 3 4 -2 21 -11 39 -16 31 -16 32 1 25 50 -19 72 -17 133 13 34 18 105 43
159 57 53 14 121 39 149 55 61 34 89 36 123 9 36 -28 40 -25 33 28 -5 46 -4
48 33 72 28 18 49 47 79 105 26 49 52 86 68 95 39 22 58 81 64 196 l6 101 -28
19 c-74 52 -110 92 -142 161 -46 100 -61 109 -171 95 -48 -5 -89 -8 -92 -6
-13 14 94 51 173 61 59 7 79 -9 102 -78 18 -54 36 -62 65 -26 26 32 29 20 12
-51 -8 -34 -12 -65 -9 -68 3 -3 31 12 63 35 32 23 69 41 84 41 14 0 35 7 46
16 18 15 18 15 -7 10 -36 -8 -65 16 -99 83 -43 86 -78 124 -106 117 -28 -7
-29 -3 -8 30 25 37 52 27 95 -36z m-2233 -132 c7 -7 12 -29 12 -50 0 -34 -2
-38 -17 -29 -22 12 -62 -8 -96 -49 -14 -16 -28 -30 -31 -30 -12 0 47 117 71
143 29 30 43 33 61 15z m1971 -69 c53 -18 31 -34 -43 -32 -64 2 -66 2 -55 -18
17 -32 3 -63 -56 -130 -58 -65 -69 -88 -63 -135 4 -37 45 -45 72 -15 15 17 16
25 8 51 -13 35 0 40 30 13 25 -22 23 -38 -11 -81 -34 -44 -42 -64 -32 -81 6
-9 14 -9 34 0 35 16 43 7 21 -25 -23 -35 -13 -41 41 -26 52 15 61 11 45 -20
-20 -37 -11 -37 99 -3 35 10 -71 -75 -155 -125 -119 -71 -180 -90 -233 -72
-26 8 -58 10 -91 6 -34 -5 -57 -3 -66 5 -23 19 -17 65 15 101 40 47 52 74 46
101 -5 19 2 30 39 61 41 33 46 42 46 77 0 54 18 86 100 176 39 42 70 82 70 89
0 7 -9 16 -20 19 -29 9 -25 42 8 59 32 18 107 20 151 5z m126 -219 c0 -10 -13
-17 -35 -20 l-35 -5 38 -29 c46 -35 48 -51 5 -42 -42 8 -118 53 -118 70 0 8
17 21 38 30 46 19 107 17 107 -4z m-1214 -135 c-38 -163 -72 -287 -83 -305
-21 -35 0 166 25 240 27 79 77 193 82 188 2 -2 -9 -57 -24 -123z m-1277 -21
c-11 -23 -29 -41 -50 -50 -29 -12 -64 -11 -64 3 0 16 28 49 73 84 48 38 52 40
55 21 2 -12 -5 -38 -14 -58z m-841 50 c3 -4 -9 -24 -27 -45 -18 -22 -53 -76
-77 -121 -47 -87 -63 -85 -33 5 25 76 50 122 80 146 27 21 46 26 57 15z m2571
-40 c11 -29 19 -180 12 -237 -7 -54 -38 -116 -63 -124 -27 -9 -45 149 -27 242
8 46 50 135 63 135 5 0 12 -7 15 -16z m-2011 -121 c-16 -64 -13 -68 50 -70 71
-2 103 -21 127 -77 29 -63 34 -156 16 -286 -9 -63 -21 -160 -26 -215 -12 -115
-50 -206 -141 -342 -81 -120 -135 -173 -175 -173 -45 0 -84 -16 -119 -50 -41
-39 -146 -90 -184 -90 -29 0 -32 2 -25 23 11 37 30 68 93 157 81 113 80 121
-13 93 -20 -6 -20 -6 1 60 4 13 0 17 -21 17 -30 0 -66 -48 -66 -88 0 -19 3
-21 19 -12 38 20 43 2 11 -30 -16 -16 -32 -20 -69 -19 -55 3 -71 -4 -71 -31 0
-10 -4 -22 -10 -25 -35 -21 18 139 80 245 48 82 57 90 106 90 35 0 47 5 67 30
14 16 28 43 32 60 4 16 10 30 15 30 4 0 18 -24 30 -54 27 -68 64 -105 88 -90
20 13 28 129 17 224 l-7 55 -33 -39 c-36 -43 -45 -37 -45 32 0 20 -9 88 -19
151 -11 63 -17 121 -14 129 6 13 27 13 83 0 12 -2 15 9 15 54 0 57 0 58 49 95
38 30 52 49 66 91 17 51 42 81 68 82 9 0 10 -8 5 -27z m-423 -190 c-37 -93
-70 -155 -87 -160 -14 -5 -20 53 -15 135 3 40 8 52 20 52 10 0 37 13 62 30 24
16 46 28 48 26 2 -2 -11 -39 -28 -83z m-1282 1 c36 -10 25 -21 -28 -28 -67 -9
-80 -15 -80 -37 0 -28 43 -34 108 -14 142 42 222 56 222 36 0 -5 -39 -25 -87
-46 -49 -20 -112 -50 -140 -66 -44 -24 -63 -29 -120 -28 -51 1 -86 -6 -138
-25 -141 -54 -335 -176 -335 -211 0 -16 -40 -46 -51 -39 -24 14 70 153 159
235 155 144 388 250 490 223z m696 -26 c14 -24 1 -33 -45 -32 -52 2 -59 11
-29 35 29 22 59 21 74 -3z m3186 -17 c0 -6 -22 -29 -50 -53 -88 -75 -61 -79
63 -8 103 59 130 62 152 20 14 -27 5 -44 -11 -19 -8 14 -50 3 -85 -22 -15 -11
-47 -26 -71 -35 -54 -19 -167 -33 -174 -22 -9 14 43 76 94 113 46 34 82 45 82
26z m-3330 -23 c0 -27 -56 -128 -70 -128 -13 0 -13 61 -1 93 20 52 71 77 71
35z m-170 -31 c0 -54 -36 -112 -115 -187 -76 -71 -115 -113 -115 -122 0 -3 10
-8 22 -10 35 -5 32 -24 -12 -72 -48 -52 -76 -65 -97 -43 -13 13 -13 23 -2 71
11 52 11 59 -8 84 -27 37 -54 38 -111 7 -29 -16 -60 -25 -77 -23 -28 3 -30 1
-38 -47 -4 -27 -10 -52 -13 -54 -2 -2 -15 6 -29 19 -37 35 -34 80 9 128 54 59
112 83 225 92 97 8 141 21 141 42 0 7 -12 8 -32 4 -18 -4 -55 -10 -82 -13 -62
-8 -55 9 18 43 65 30 138 32 184 4 40 -24 44 -25 41 -2 -3 37 2 53 32 87 43
48 59 46 59 -8z m458 -41 c4 -47 -2 -72 -37 -166 -23 -61 -44 -124 -48 -141
-3 -16 -10 -32 -16 -36 -23 -14 32 374 60 420 12 20 37 -26 41 -77z m137 31
c4 -12 1 -36 -5 -52 -9 -23 -13 -26 -20 -15 -17 27 -9 90 11 90 5 0 11 -10 14
-23z m2345 1 c0 -19 -43 -91 -55 -92 -19 -2 -16 50 5 77 22 28 50 36 50 15z
m-3490 -111 c0 -18 -83 -109 -266 -292 -183 -182 -199 -208 -191 -299 5 -48 3
-56 -5 -38 -16 32 -33 27 -69 -18 -18 -22 -36 -37 -40 -34 -10 6 -12 98 -3
132 4 12 12 22 19 22 32 0 79 97 89 184 3 21 15 50 28 63 35 38 179 143 205
149 12 3 25 14 28 24 8 24 62 65 127 95 60 28 78 31 78 12z m1487 -162 c-5
-125 -16 -177 -43 -210 -14 -18 -15 -12 -10 80 2 55 12 140 21 189 28 158 40
136 32 -59z m2099 133 c-7 -37 -53 -118 -66 -118 -23 0 5 91 42 138 19 23 31
13 24 -20z m1768 8 c-3 -28 -197 -226 -210 -213 -4 3 19 37 50 74 31 37 59 79
62 93 10 46 13 49 46 59 41 11 53 8 52 -13z m-4744 -24 c12 -9 25 -33 29 -52
6 -28 12 -35 32 -36 46 0 52 -11 47 -89 -6 -84 -28 -130 -76 -158 -32 -19 -33
-19 -54 -1 -19 18 -20 26 -15 129 4 61 9 120 13 133 13 45 -14 21 -34 -30 -34
-87 -42 -128 -42 -228 0 -98 -11 -139 -30 -110 -14 23 -23 113 -24 240 -1 132
13 172 74 202 44 22 52 22 80 0z m698 -97 c22 -66 35 -243 21 -298 -12 -50
-34 -71 -50 -46 -18 29 -30 120 -30 226 -1 151 28 209 59 118z m3392 -13 c0
-23 -56 -89 -66 -80 -8 8 7 46 32 86 16 25 34 21 34 -6z m-2270 -54 c0 -25 -3
-54 -6 -63 -17 -44 -33 57 -17 113 9 36 23 6 23 -50z m838 35 c3 -35 -21 -103
-37 -103 -14 0 -14 95 0 121 14 28 33 19 37 -18z m1002 8 c0 -18 -101 -119
-148 -150 -69 -44 -86 -42 -79 9 7 53 22 70 61 70 36 0 125 39 145 63 15 19
21 21 21 8z m-4075 -43 c-4 -18 -21 -62 -38 -98 -34 -68 -59 -85 -81 -54 -20
27 -41 11 -84 -63 -46 -78 -117 -155 -162 -173 -48 -20 -53 -7 -40 106 6 55
10 117 8 139 -3 35 -6 40 -25 38 -30 -4 -29 13 2 33 20 13 40 16 91 11 36 -2
68 -8 72 -12 4 -4 -13 -43 -36 -87 -24 -44 -42 -82 -39 -84 2 -3 60 49 128
114 139 132 175 162 196 162 11 0 13 -8 8 -32z m991 -62 c-4 -20 -11 -36 -16
-36 -12 0 -14 113 -2 124 12 13 25 -50 18 -88z m3232 82 c19 -19 -6 -38 -49
-38 -46 0 -57 13 -27 34 27 19 59 21 76 4z m522 -32 c0 -16 -87 -62 -98 -51
-10 10 55 65 78 65 11 0 20 -6 20 -14z m410 -55 c0 -29 -251 -233 -268 -217
-10 10 127 143 192 187 59 39 76 46 76 30z m-4981 -77 c29 -37 53 -106 49
-144 -4 -44 -26 -51 -34 -11 -8 38 -18 45 -44 31 -18 -9 -20 -8 -20 14 0 14 4
36 10 50 12 33 -2 41 -40 21 -41 -21 -38 -4 5 34 43 38 48 38 74 5z m547 8
c28 -22 44 -54 44 -85 0 -29 -24 -52 -45 -43 -20 7 -69 112 -61 131 7 20 36
19 62 -3z m-1206 -85 c0 -105 -53 -307 -81 -307 -4 0 -4 38 -1 85 l5 85 -32 0
c-26 0 -31 4 -31 24 0 23 19 43 84 89 21 14 24 23 19 47 -6 31 12 64 28 54 5
-3 9 -38 9 -77z m2875 32 c-22 -42 -159 -179 -180 -179 -8 0 -15 4 -15 9 0 19
121 160 163 191 46 34 57 28 32 -21z m405 28 c0 -29 -34 -67 -60 -67 -27 0
-26 37 2 67 28 30 58 30 58 0z m-695 -12 c44 -43 27 -85 -68 -169 -72 -63 -89
-70 -57 -26 37 51 7 33 -101 -61 -112 -99 -205 -166 -216 -156 -3 4 6 16 20
28 21 16 26 28 25 58 -3 84 137 254 262 319 75 38 103 40 135 7z m857 -139
c-60 -126 -225 -371 -291 -430 -25 -23 -25 -19 -7 48 8 28 19 67 23 86 7 28
14 36 36 38 47 6 147 142 147 202 0 12 -13 42 -30 66 -34 51 -32 54 15 18 42
-32 61 -27 104 27 18 22 35 38 38 35 3 -2 -13 -43 -35 -90z m-2074 -113 c8
-15 18 -19 40 -15 35 5 72 -29 72 -65 0 -30 -22 -30 -75 0 -58 32 -88 95 -80
166 9 82 19 84 26 5 4 -39 11 -80 17 -91z m-1020 114 c2 -9 -11 -47 -27 -86
-43 -97 -41 -117 8 -63 41 44 58 51 67 27 16 -40 -158 -317 -188 -299 -12 7
-10 82 3 105 8 16 17 19 40 14 32 -7 33 -5 18 45 -14 47 -13 168 1 205 14 36
50 77 64 72 6 -2 12 -11 14 -20z m456 -181 c1 -95 -13 -123 -33 -65 -12 35
-15 177 -4 205 14 37 36 -47 37 -140z m4431 134 c10 -16 -45 -60 -76 -60 -44
0 -36 28 14 50 49 23 54 23 62 10z m-3994 -192 c12 -98 8 -248 -6 -248 -16 -1
-24 67 -24 220 0 160 12 172 30 28z m-1113 69 c24 -29 -31 -152 -89 -201 -17
-14 -35 -23 -41 -20 -14 9 -3 119 16 166 25 59 87 88 114 55z m942 -71 c17
-61 18 -148 3 -153 -8 -3 -13 5 -13 21 0 13 -5 37 -10 51 -9 23 -14 26 -39 20
-38 -8 -45 6 -26 52 35 84 63 87 85 9z m2534 28 c19 -51 -3 -235 -55 -454 -35
-149 -64 -227 -91 -241 -25 -13 -61 9 -89 54 -29 46 -19 100 50 280 33 84 71
191 86 240 28 89 56 137 80 137 7 0 16 -7 19 -16z m-255 -166 c-23 -68 -67
-186 -96 -263 -30 -77 -57 -148 -60 -158 -7 -21 -35 -19 -99 8 -35 14 -36 17
-31 51 11 66 314 529 325 496 2 -6 -16 -66 -39 -134z m-2799 7 c27 -14 70 -60
70 -75 0 -4 -17 -2 -37 6 -66 23 -76 20 -68 -23 11 -56 11 -58 0 -62 -13 -6
-55 76 -55 106 0 24 32 63 50 63 6 0 24 -7 40 -15z m898 -40 c52 -22 41 -38
-23 -33 -55 5 -101 31 -89 50 7 11 64 2 112 -17z m3647 -86 c18 -34 20 -128 3
-164 -7 -16 -23 -28 -40 -32 -23 -4 -28 -11 -28 -33 0 -45 -10 -60 -40 -60
-19 0 -36 9 -49 26 -23 29 -18 52 12 56 18 2 22 10 22 36 0 38 17 52 63 52 47
0 39 15 -23 40 -64 26 -70 40 -17 40 53 0 66 11 57 49 -5 26 -4 30 10 25 8 -4
22 -19 30 -35z m-4734 -14 c4 -51 -1 -85 -11 -85 -6 0 -10 29 -10 67 0 66 16
80 21 18z m-123 -19 c5 -24 -16 -46 -44 -46 -36 0 -40 21 -10 47 31 26 49 26
54 -1z m1527 -13 c14 -5 8 -15 -36 -55 -29 -26 -57 -48 -61 -48 -4 0 -8 16 -8
35 0 58 49 90 105 68z m-1295 -114 c0 -64 -23 -135 -40 -124 -11 7 -14 208 -3
219 4 4 16 -2 25 -14 13 -16 18 -40 18 -81z m1128 49 c29 -29 5 -138 -29 -138
-41 0 -52 80 -18 124 23 29 30 31 47 14z m1315 -2 c9 -24 -27 -136 -44 -136
-5 0 -9 23 -9 50 0 67 37 127 53 86z m-1424 -131 c17 -20 31 -38 31 -41 0 -39
-109 -145 -184 -180 -129 -59 -298 -81 -366 -46 -37 18 -46 38 -36 78 6 23 10
24 79 23 79 -2 118 12 192 71 61 49 91 62 129 55 30 -6 36 -3 65 34 18 23 39
41 46 41 7 0 27 -16 44 -35z m3631 -47 c26 -43 25 -60 -4 -88 -22 -20 -35 -22
-100 -22 -43 1 -78 -3 -82 -9 -11 -19 16 -34 59 -34 38 0 42 -2 45 -27 4 -34
7 -34 51 -4 63 43 81 39 159 -29 35 -30 68 -55 74 -55 5 0 18 10 27 21 23 28
69 19 117 -23 36 -32 46 -82 22 -106 -19 -19 -35 -14 -77 23 -21 19 -42 35
-46 35 -4 0 -25 -13 -48 -29 -40 -29 -97 -50 -97 -37 0 3 14 19 31 34 28 25
30 30 18 54 -15 35 -65 58 -126 58 -66 1 -126 16 -199 50 -65 32 -154 103
-142 115 4 4 26 3 50 -3 23 -6 44 -9 47 -7 2 3 -1 16 -7 30 -11 23 -9 25 11
25 13 0 51 -9 85 -21 75 -25 92 -17 92 42 0 48 14 50 40 7z m-5100 -50 c0 -26
-4 -49 -9 -52 -14 -9 -23 47 -15 89 9 49 24 26 24 -37z m3214 -50 c-5 -7 -19
-29 -32 -48 -18 -27 -23 -44 -19 -72 5 -36 4 -38 -23 -38 -68 0 -59 52 20 123
53 48 67 57 54 35z m210 -135 c12 -26 31 -95 70 -260 l14 -63 -122 0 c-162 0
-165 2 -147 101 7 41 17 96 22 123 9 52 27 78 74 107 43 27 72 24 89 -8z
m-2172 -51 c5 -5 -16 -19 -52 -32 -69 -26 -140 -73 -140 -94 0 -16 -57 -72
-140 -138 -71 -57 -117 -118 -131 -174 -17 -64 -43 -81 -144 -89 -87 -8 -235
1 -235 14 0 3 36 29 79 56 44 27 78 51 77 52 -5 5 -322 -80 -348 -93 -14 -8
-30 -23 -33 -35 -6 -19 -12 -20 -47 -15 l-40 7 7 -39 c8 -50 -10 -66 -77 -66
-92 0 -109 55 -54 176 l24 53 -5 -75 c-4 -80 7 -119 28 -90 18 26 -1 290 -21
290 -5 0 -22 -24 -38 -53 -47 -83 -131 -113 -140 -50 -5 34 69 165 106 186 29
17 35 18 55 4 12 -8 35 -41 52 -73 26 -52 34 -59 60 -60 37 0 62 -13 99 -53
37 -39 73 -41 82 -5 7 26 1 111 -12 189 l-7 40 68 -64 c88 -82 150 -121 192
-121 31 0 33 3 49 56 13 46 21 57 45 66 28 10 29 12 29 74 0 78 -4 76 161 93
141 15 209 32 246 61 26 20 36 22 112 17 46 -4 88 -10 93 -15z m4342 -4 c30
-13 40 -39 37 -90 -3 -39 -1 -40 74 -53 82 -13 132 -70 154 -173 14 -65 15
-219 1 -227 -28 -17 -54 95 -36 153 9 27 -14 30 -38 6 -23 -23 -29 -57 -17
-100 25 -92 -5 -119 -41 -37 -18 41 -20 59 -14 136 7 98 0 117 -39 117 -39 0
-55 11 -74 49 -34 67 -62 207 -44 224 8 9 8 9 37 -5z m245 -90 c100 -77 101
-77 127 -67 35 13 36 12 32 -13 -4 -32 -63 -36 -118 -8 -43 22 -120 93 -120
110 0 20 38 9 79 -22z m-6136 -13 c-3 -33 -29 -65 -55 -65 -32 0 -27 46 9 78
31 28 49 24 46 -13z m4237 -190 c25 -30 8 -48 -45 -50 -35 -1 -74 -12 -129
-38 -100 -47 -116 -48 -116 -4 0 54 16 65 115 82 49 9 91 18 94 20 10 11 70 4
81 -10z m-518 -26 c94 -19 122 -54 77 -95 -30 -27 -241 -28 -282 -1 -32 20
-34 36 -9 67 30 37 119 49 214 29z m-698 -425 c9 -8 16 -26 16 -39 0 -23 -23
-55 -40 -55 -4 0 -11 7 -14 16 -13 33 -3 94 14 94 5 0 16 -7 24 -16z m-519
-174 c34 -13 29 -31 -39 -129 -72 -105 -142 -174 -192 -189 -47 -14 -234 -17
-234 -4 0 5 22 21 49 36 63 34 103 80 99 115 -3 23 -7 26 -40 23 -21 -2 -38 1
-38 7 0 25 163 106 273 136 64 17 88 18 122 5z m-1534 -83 c-21 -45 -47 -74
-58 -64 -9 9 24 91 50 124 21 27 22 27 25 6 2 -12 -6 -41 -17 -66z m5450 31
c2 -61 -3 -103 -12 -112 -5 -6 -9 20 -9 67 0 45 4 77 10 77 6 0 10 -15 11 -32z
m-3421 -150 c0 -44 -9 -70 -21 -62 -10 6 -12 84 -3 109 10 25 24 -2 24 -47z
m-2130 -102 c-29 -87 -26 -144 14 -236 65 -150 68 -219 11 -250 -28 -15 -98
-9 -141 11 -41 21 -37 55 20 177 25 54 46 104 46 110 0 23 -19 12 -59 -35 -51
-59 -52 -43 -5 72 47 117 81 184 108 213 29 33 31 11 6 -62z m398 -47 c81 -10
132 -31 132 -55 0 -31 -21 -52 -104 -108 -85 -57 -116 -90 -116 -124 0 -29
-38 -72 -65 -72 -22 0 -23 2 -18 58 3 39 -3 95 -21 182 -14 69 -26 128 -26
132 0 9 95 3 218 -13z m317 -16 c78 -18 95 -27 95 -53 0 -36 -24 -43 -92 -26
-72 19 -112 44 -116 75 -4 26 16 27 113 4z m761 -12 c-10 -11 -20 -41 -24 -68
-9 -62 -23 -64 -144 -21 -90 32 -97 33 -238 31 -142 -2 -186 5 -165 26 16 16
133 31 255 32 97 1 153 4 314 17 18 2 18 1 2 -17z m-278 -97 c19 -5 22 -12 18
-30 -7 -26 7 -36 69 -49 40 -9 21 -18 -82 -40 -46 -10 -83 -21 -83 -25 0 -4
19 -10 41 -13 23 -3 51 -14 62 -25 19 -20 19 -20 -8 -38 -22 -15 -48 -18 -139
-17 -132 1 -183 16 -210 62 -21 36 -16 86 12 121 14 18 39 24 152 39 74 10
137 19 140 19 3 1 15 -1 28 -4z m-509 -29 c26 -34 35 -79 21 -104 -15 -30 -73
-29 -94 1 -19 27 -21 99 -4 116 20 20 55 14 77 -13z m-139 -59 c0 -48 -28 -66
-103 -66 -50 0 -58 2 -55 17 4 22 104 83 135 83 20 0 23 -5 23 -34z m-844 -95
c69 -31 62 -98 -9 -87 -18 3 -54 8 -82 11 -110 15 -169 63 -105 88 36 13 156
6 196 -12z m1544 -115 c82 -15 150 -40 150 -54 0 -18 -33 -23 -210 -33 -197
-12 -344 -9 -360 7 -7 7 -5 25 6 59 l17 48 161 -7 c89 -3 195 -13 236 -20z
m-594 4 c11 0 29 -6 39 -14 18 -13 18 -14 -8 -40 -21 -21 -32 -25 -54 -20 -34
9 -103 51 -103 63 0 11 54 20 85 15 11 -2 29 -4 41 -4z m-385 -183 c6 -22 11
-65 12 -96 2 -55 -11 -156 -18 -149 -6 5 -45 276 -45 306 l1 27 19 -23 c11
-13 25 -42 31 -65z"/>
<path d="M5738 8272 c-34 -7 -14 -62 22 -62 17 0 44 36 35 49 -6 11 -36 18
-57 13z"/>
<path d="M5790 7009 c-54 -30 -120 -85 -120 -101 0 -12 77 29 137 74 48 35 66
58 46 58 -5 0 -33 -14 -63 -31z"/>
<path d="M5706 6794 c-42 -15 -76 -41 -76 -57 0 -27 157 29 168 61 5 16 -42
15 -92 -4z"/>
<path d="M5846 6731 c-8 -12 60 -24 95 -16 16 4 27 11 23 16 -7 12 -111 12
-118 0z"/>
<path d="M5586 6609 c-24 -14 -4 -29 39 -29 49 0 62 16 24 29 -38 13 -39 13
-63 0z"/>
<path d="M5770 6612 c-30 -4 -16 -10 90 -38 68 -18 126 -32 128 -30 1 2 -7 16
-20 31 -33 37 -100 50 -198 37z"/>
<path d="M5700 6511 c0 -6 11 -18 25 -27 28 -18 168 -74 173 -69 2 2 -2 13 -8
25 -20 37 -190 101 -190 71z"/>
<path d="M5539 6242 c31 -25 215 -122 231 -122 8 0 1 13 -16 31 -33 35 -153
96 -204 105 l-35 6 24 -20z"/>
<path d="M2610 6205 c-23 -28 -4 -63 42 -76 23 -6 57 -22 75 -36 18 -14 36
-24 38 -21 8 7 -36 82 -68 116 -33 34 -67 41 -87 17z"/>
<path d="M4984 6179 c-14 -24 28 -34 76 -19 l25 7 -28 12 c-36 14 -64 14 -73
0z"/>
<path d="M5400 6147 c0 -8 135 -90 215 -131 74 -37 102 -31 50 10 -54 43 -265
139 -265 121z"/>
<path d="M2245 6120 c-29 -11 -46 -35 -39 -53 8 -23 50 -29 89 -13 26 11 35
21 35 39 0 35 -38 47 -85 27z"/>
<path d="M2298 5988 c-31 -30 -40 -88 -13 -88 20 0 47 55 43 88 l-3 27 -27
-27z"/>
<path d="M4592 5921 c-21 -13 61 -23 121 -15 39 5 47 9 32 15 -27 10 -137 11
-153 0z"/>
<path d="M4080 5785 c0 -18 58 -48 135 -70 95 -26 135 -46 135 -67 0 -21 36
-38 80 -38 44 0 45 16 0 56 -22 20 -40 45 -40 54 0 21 -11 25 -100 40 -36 5
-88 16 -115 25 -64 19 -95 19 -95 0z"/>
<path d="M4717 5769 c-53 -13 -99 -38 -91 -51 11 -17 133 -4 187 20 27 12 46
26 42 32 -7 12 -85 12 -138 -1z"/>
<path d="M3776 5708 c17 -29 87 -107 100 -112 32 -12 21 17 -23 60 -52 49 -92
77 -77 52z"/>
<path d="M3686 5277 c-69 -70 -95 -107 -76 -107 14 0 110 95 134 133 35 52 6
40 -58 -26z"/>
<path d="M4012 5297 c-39 -55 -66 -116 -57 -126 17 -16 100 123 93 156 -3 13
-12 6 -36 -30z"/>
<path d="M4477 5333 c-14 -13 -6 -40 16 -61 18 -17 26 -19 35 -10 17 17 15 42
-6 61 -20 18 -34 21 -45 10z"/>
<path d="M3898 5313 c-8 -10 -41 -61 -73 -113 -76 -125 -121 -180 -148 -180
-29 0 -123 -100 -169 -180 -48 -82 -48 -90 -1 -87 35 2 38 -1 50 -33 21 -60
15 -147 -17 -259 -33 -113 -34 -121 -21 -121 19 0 137 290 154 378 l7 32 -29
-21 c-31 -23 -51 -19 -51 10 0 28 26 44 59 38 27 -6 29 -4 33 36 7 60 50 161
138 327 90 169 112 224 68 173z m-218 -349 c0 -22 -61 -134 -73 -134 -17 0 -2
108 18 130 22 24 55 26 55 4z"/>
<path d="M4131 5243 c-72 -87 -141 -269 -141 -370 0 -71 14 -77 24 -12 5 31
17 52 43 77 32 30 37 40 34 76 -1 32 8 61 49 139 27 55 50 105 50 113 0 26
-28 15 -59 -23z"/>
<path d="M4398 5231 c-20 -17 -51 -64 -71 -104 -19 -40 -45 -81 -56 -91 -21
-19 -21 -19 -21 21 0 28 9 54 31 87 24 35 29 50 20 59 -17 17 -62 -22 -94 -84
-30 -59 -61 -200 -72 -324 l-6 -80 29 46 c47 73 151 114 160 64 6 -29 20 -41
33 -28 11 11 -13 75 -47 121 -16 22 -16 22 15 22 42 0 102 56 130 121 l22 50
-22 18 c-21 17 -21 21 -10 66 16 64 3 75 -41 36z"/>
<path d="M3853 5055 c-31 -38 -127 -215 -119 -222 2 -2 25 10 50 28 29 21 50
29 56 23 5 -5 12 -62 16 -126 4 -65 11 -118 15 -118 5 0 9 3 9 8 0 4 7 63 15
132 15 129 20 267 9 294 -9 24 -19 20 -51 -19z"/>
<path d="M4714 4845 c-46 -31 -83 -181 -49 -192 22 -6 36 17 56 93 12 43 24
87 26 97 6 21 -6 22 -33 2z"/>
<path d="M3966 4600 c-38 -78 -73 -196 -62 -208 10 -10 25 18 64 117 62 160
60 222 -2 91z"/>
<path d="M4457 4633 c-4 -3 -7 -19 -7 -35 0 -34 -11 -57 -45 -94 -27 -29 -52
-96 -61 -166 -6 -40 -4 -48 9 -48 39 0 153 186 164 269 4 31 1 43 -16 60 -22
22 -33 26 -44 14z"/>
<path d="M3813 4522 c-42 -58 -58 -129 -23 -107 18 11 61 106 58 128 -3 19 -7
17 -35 -21z"/>
<path d="M3390 4418 c1 -49 2 -52 16 -33 17 23 15 76 -3 83 -9 3 -13 -11 -13
-50z"/>
<path d="M3960 4283 c-18 -40 -25 -226 -11 -295 10 -46 16 -58 32 -58 36 0
129 101 129 140 0 20 -18 9 -69 -42 l-51 -53 0 35 c0 19 5 82 11 140 11 103 4
160 -19 160 -5 0 -15 -12 -22 -27z"/>
<path d="M3606 4293 c-9 -10 -7 -93 3 -93 12 0 21 26 21 60 0 29 -12 45 -24
33z"/>
<path d="M3874 4285 c-22 -38 -57 -205 -43 -205 28 0 62 105 57 175 -3 43 -5
47 -14 30z"/>
<path d="M3350 4225 c0 -53 3 -66 12 -57 6 6 11 32 11 57 0 25 -5 51 -11 57
-9 9 -12 -4 -12 -57z"/>
<path d="M3475 4248 c-9 -23 -2 -83 10 -83 14 0 19 75 6 88 -7 7 -12 5 -16 -5z"/>
<path d="M3691 4189 c-1 -20 6 -98 15 -174 16 -143 13 -202 -12 -212 -19 -7
-44 15 -61 55 -7 17 -16 32 -20 32 -9 0 5 -172 14 -181 4 -4 35 10 67 32 33
22 66 37 74 34 13 -5 14 5 9 67 -8 91 -51 304 -71 349 l-14 34 -1 -36z"/>
<path d="M3556 4083 c-18 -36 -47 -135 -41 -141 9 -9 38 24 56 63 33 71 19
143 -15 78z"/>
<path d="M2304 4934 c-38 -18 -57 -51 -52 -90 4 -39 36 -43 76 -9 38 32 61 93
41 106 -19 12 -29 11 -65 -7z"/>
<path d="M2116 4774 c-31 -25 -56 -52 -56 -60 0 -22 16 -17 49 16 32 33 75 90
68 90 -3 0 -30 -20 -61 -46z"/>
<path d="M6026 4430 c-22 -55 -21 -113 2 -133 24 -22 35 -21 55 1 22 25 22 89
-1 132 -26 47 -37 47 -56 0z"/>
<path d="M5796 4408 c13 -44 35 -78 49 -78 23 0 18 35 -11 69 -30 37 -48 40
-38 9z"/>
<path d="M5107 4531 c6 -46 -9 -71 -59 -97 -34 -18 -36 -34 -5 -34 56 0 41
-30 -53 -101 -80 -61 -77 -64 40 -51 95 10 126 3 123 -27 -3 -19 -1 -20 20
-10 12 6 55 36 95 66 l74 55 -84 56 c-69 48 -87 66 -109 110 -36 74 -49 84
-42 33z m71 -135 c37 -19 76 -62 68 -75 -16 -25 -166 -44 -166 -21 0 6 7 22
16 36 11 16 15 36 11 59 -5 33 -5 34 19 25 13 -5 36 -16 52 -24z"/>
<path d="M2825 4243 c-3 -32 -7 -67 -8 -78 -2 -14 -11 -4 -32 35 -27 52 -29
53 -36 30 -11 -38 -10 -94 2 -128 9 -27 15 -31 35 -26 50 13 51 -80 0 -104
-33 -16 -33 -55 0 -60 53 -7 131 143 120 231 -6 53 -49 157 -65 157 -5 0 -12
-26 -16 -57z"/>
<path d="M2530 3981 c0 -62 14 -86 44 -75 22 9 32 -24 39 -131 10 -163 42
-235 105 -235 62 0 112 69 112 156 0 51 -18 124 -31 124 -5 0 -15 -25 -24 -55
-8 -30 -22 -80 -30 -110 -9 -30 -18 -55 -20 -55 -20 0 -57 174 -71 330 -8 94
-18 115 -35 77 -16 -34 -23 -34 -49 3 -12 17 -26 30 -31 30 -5 0 -9 -26 -9
-59z"/>
<path d="M2613 3368 c-27 -30 -76 -109 -70 -114 7 -8 107 104 107 120 0 22
-13 20 -37 -6z"/>
<path d="M2373 3236 c-75 -78 -113 -126 -98 -126 10 0 123 110 167 163 66 78
19 53 -69 -37z"/>
<path d="M1111 3918 c-37 -13 -19 -58 24 -58 24 0 68 37 60 49 -7 13 -60 18
-84 9z"/>
<path d="M2800 3363 c-22 -28 -24 -64 -3 -70 11 -4 53 64 53 87 0 19 -29 10
-50 -17z"/>
<path d="M12139 6446 c-79 -58 -96 -97 -59 -131 30 -27 25 -35 -24 -35 -25 0
-47 -4 -50 -9 -4 -5 7 -23 23 -39 66 -66 78 -211 24 -299 -64 -104 -65 -112
-50 -333 l8 -115 -29 34 c-28 33 -29 34 -35 11 -9 -33 47 -86 107 -101 25 -6
49 -15 51 -19 3 -5 -26 -18 -65 -31 -71 -22 -90 -39 -46 -39 38 0 168 27 206
42 l34 14 -28 20 c-79 55 -96 75 -96 113 0 21 8 62 17 92 l16 54 8 -40 c4 -22
8 -63 8 -92 1 -28 5 -54 10 -57 5 -4 22 33 37 81 l28 88 7 -83 c3 -45 9 -86
13 -89 7 -8 6 -10 34 51 18 38 26 46 33 35 5 -8 9 -24 9 -36 0 -29 60 -96 104
-117 40 -19 97 -21 114 -4 17 17 15 96 -4 178 -8 38 -14 84 -12 102 l3 33 31
-32 c18 -18 63 -82 100 -143 38 -60 72 -110 76 -110 10 0 9 149 -1 173 -3 10
-18 23 -31 30 -18 9 -31 30 -44 71 l-19 59 22 19 c15 11 39 18 67 18 53 0 63
14 33 46 -34 36 -68 31 -135 -21 -66 -52 -89 -55 -124 -19 -23 25 -29 26 -92
21 -122 -10 -167 19 -152 99 7 40 39 84 60 84 27 0 14 29 -46 103 -71 88 -108
158 -116 220 -10 68 0 95 39 105 36 9 39 26 5 30 -14 1 -42 -12 -69 -32z m85
-352 c18 -17 22 -99 6 -109 -20 -12 -58 79 -46 110 7 19 21 19 40 -1z m146
-294 c69 -13 114 -78 75 -110 -26 -22 -50 -8 -48 29 l1 33 -42 -41 c-23 -22
-47 -41 -53 -41 -6 0 -27 22 -47 49 -71 96 -151 115 -191 44 l-15 -28 2 30 c5
48 35 57 163 50 61 -4 130 -10 155 -15z m120 -196 c17 -44 9 -134 -11 -134 -6
0 -12 8 -15 18 -12 38 -22 47 -48 44 -31 -4 -32 6 -6 58 25 49 64 56 80 14z"/>
<path d="M3797 6312 c-24 -26 -21 -51 7 -58 34 -8 57 -2 70 19 26 41 -43 76
-77 39z"/>
<path d="M11703 6205 c-33 -14 -37 -21 -33 -62 1 -14 -10 -30 -29 -44 -40 -29
-39 -41 4 -73 19 -15 35 -31 35 -37 0 -5 -24 -9 -54 -9 -30 0 -57 -4 -60 -8
-3 -4 20 -23 50 -41 30 -17 54 -38 54 -46 0 -7 -22 -32 -50 -55 -27 -23 -50
-45 -50 -50 0 -4 15 -8 34 -8 88 0 216 -115 216 -194 0 -54 17 -27 30 47 7 42
17 78 22 81 4 3 17 -16 29 -43 18 -43 22 -46 31 -29 17 31 3 202 -22 268 -31
83 -50 103 -95 100 -39 -3 -75 19 -75 45 0 10 5 11 19 3 57 -30 70 18 20 74
-21 25 -30 43 -27 62 4 33 -7 37 -49 19z m91 -289 c59 -25 59 -74 0 -125 -58
-51 -70 -42 -81 60 -5 55 -4 59 18 68 13 5 25 10 27 10 1 1 18 -5 36 -13z"/>
<path d="M11879 6169 c-40 -40 -10 -163 35 -146 13 5 15 15 10 45 -4 29 -2 41
11 52 25 21 35 -4 28 -71 -10 -96 11 -134 51 -90 21 23 41 119 32 155 -4 15
-18 39 -31 52 -32 32 -105 34 -136 3z"/>
<path d="M363 5923 c-20 -48 -22 -167 -4 -210 32 -76 66 -12 66 123 0 62 -4
96 -14 107 -20 25 -30 21 -48 -20z"/>
<path d="M10968 5923 c-52 -56 -53 -70 -14 -114 41 -44 44 -71 20 -141 -32
-95 -64 -59 -83 94 -13 108 -23 130 -59 126 -24 -3 -27 -7 -27 -38 1 -19 4
-46 9 -60 6 -18 -8 -8 -47 35 l-54 60 -30 -65 c-34 -74 -44 -85 -93 -97 -45
-12 -68 -50 -54 -90 14 -42 52 -43 86 -2 l28 33 0 -51 c0 -59 25 -101 55 -89
16 6 17 15 12 73 -7 75 -7 75 57 -25 25 -40 54 -76 63 -79 11 -4 25 4 43 26
l28 32 6 -25 c11 -46 51 -51 386 -51 168 0 323 4 345 9 l40 8 -30 12 c-79 33
-68 77 15 60 28 -6 50 -7 50 -2 0 14 -103 120 -125 128 -44 17 -105 -40 -105
-97 0 -46 -33 -65 -123 -70 l-72 -5 56 51 c66 59 119 134 119 168 0 13 -6 36
-14 52 -16 30 -90 101 -106 101 -5 0 -12 -17 -16 -37 -4 -21 -20 -64 -36 -97
-16 -32 -27 -60 -25 -63 3 -2 15 1 27 7 15 8 26 8 32 2 16 -16 5 -45 -22 -59
-32 -16 -50 -41 -50 -70 0 -54 -78 -84 -115 -43 -27 30 -13 52 28 45 25 -5 36
-3 40 8 9 23 -15 48 -52 55 l-33 7 38 25 c33 21 40 31 42 64 2 22 1 50 -2 62
-14 56 -133 154 -186 154 -16 0 -37 -11 -52 -27z"/>
<path d="M180 5864 c-23 -60 47 -375 97 -434 23 -28 30 -30 88 -30 35 0 67 5
70 10 17 27 -86 120 -132 120 -29 0 -39 39 -47 179 -8 128 -22 181 -48 181
-11 0 -23 -11 -28 -26z"/>
<path d="M945 5731 c-9 -44 2 -73 27 -69 34 5 46 33 28 66 -22 39 -47 40 -55
3z"/>
<path d="M12741 5731 c-30 -23 -22 -51 13 -51 27 0 51 32 42 56 -7 19 -26 17
-55 -5z"/>
<path d="M7690 5704 c-279 -35 -373 -85 -519 -278 -91 -120 -147 -176 -183
-183 -26 -5 -28 -9 -28 -50 0 -24 -5 -54 -11 -66 -41 -77 -137 -157 -190 -157
-22 0 -26 -4 -22 -24 3 -14 -12 -63 -37 -122 -50 -116 -70 -214 -70 -334 0
-134 8 -142 82 -85 25 19 48 32 50 29 3 -2 -1 -25 -10 -49 -27 -83 6 -94 62
-20 46 60 50 50 43 -122 -8 -179 -14 -178 78 -14 l59 104 25 -96 c14 -52 29
-98 32 -101 3 -4 19 24 34 61 37 90 63 133 81 133 22 0 17 -57 -13 -138 -24
-66 -25 -75 -11 -89 14 -14 20 -11 61 26 l45 42 37 -37 c42 -41 39 -43 98 46
45 68 76 95 84 72 10 -28 86 -132 155 -212 l73 -85 7 80 c12 134 38 194 73
165 8 -7 15 -23 15 -36 0 -43 25 -55 96 -48 59 6 69 4 126 -25 35 -17 103 -65
151 -107 71 -61 88 -81 84 -98 -3 -12 -31 -79 -62 -151 -69 -157 -82 -232 -44
-258 13 -9 27 -13 31 -9 4 4 12 40 18 79 16 119 94 289 136 299 61 15 192
-114 356 -351 69 -100 91 -142 90 -176 -1 -37 -95 -239 -154 -330 -55 -87
-183 -215 -243 -244 -22 -10 -62 -24 -90 -30 -35 -8 -53 -18 -60 -33 -14 -31
-21 -28 -57 23 -19 26 -39 44 -48 43 -8 -2 -33 -29 -55 -61 -35 -51 -39 -65
-40 -117 0 -43 5 -64 17 -77 17 -16 20 -15 70 20 29 20 54 34 56 32 2 -2 -8
-19 -22 -38 -15 -19 -39 -69 -54 -111 -16 -42 -31 -73 -35 -70 -4 4 -7 28 -8
53 0 25 -4 55 -8 66 -6 16 -11 9 -26 -35 -10 -30 -22 -61 -28 -68 -16 -20 -45
-14 -79 18 l-33 30 32 25 c39 31 53 76 53 169 0 78 -8 77 -33 -4 -9 -31 -24
-65 -32 -75 -15 -19 -16 -15 -10 45 8 87 32 189 51 218 10 15 23 22 37 20 19
-3 22 2 25 42 2 24 -2 65 -8 90 -33 135 -37 140 -80 95 -13 -14 -28 -25 -34
-25 -6 0 -37 26 -70 58 -32 31 -56 49 -52 39 18 -54 18 -66 -6 -90 -27 -27
-125 -67 -163 -67 -32 0 -33 27 -4 64 16 20 29 26 60 26 53 0 59 20 23 72 -26
37 -29 49 -30 127 0 65 -3 85 -13 83 -22 -5 -41 19 -41 52 0 51 -21 82 -53 78
-21 -3 -29 2 -37 22 -12 34 -35 33 -57 -1 -14 -21 -18 -45 -16 -108 3 -89 -3
-129 -17 -120 -33 20 -48 -162 -17 -209 10 -14 30 -28 45 -31 42 -9 57 -20 60
-43 3 -23 -15 -35 -70 -46 -24 -5 -28 -11 -28 -39 0 -18 7 -42 15 -53 15 -18
16 -18 44 15 16 18 34 31 39 27 5 -3 13 -27 17 -53 6 -41 15 -55 58 -95 l50
-47 -27 -11 c-26 -9 -28 -14 -24 -57 4 -59 0 -60 -137 -43 -112 14 -148 30
-143 63 2 18 9 21 35 19 75 -7 99 54 44 113 -35 37 -51 83 -51 145 0 60 -17
107 -42 121 -18 10 -28 3 -82 -55 -33 -36 -66 -66 -73 -66 -19 0 -56 55 -117
172 -70 134 -72 162 -8 90 76 -85 101 -57 36 39 -49 72 -67 116 -59 148 6 25
5 25 -20 -6 -42 -52 -85 -41 -165 42 -25 26 -57 53 -72 61 -25 13 -28 13 -28
-1 0 -21 17 -53 46 -88 29 -35 30 -53 3 -67 -32 -18 -78 20 -169 141 -43 58
-97 125 -119 150 l-40 44 6 -33 c4 -25 0 -41 -16 -62 -11 -16 -21 -34 -21 -39
0 -6 33 -33 73 -60 77 -51 103 -81 109 -122 2 -20 10 -25 46 -30 59 -8 104
-52 107 -107 1 -25 15 -61 35 -93 32 -53 51 -119 33 -119 -17 0 -61 39 -68 60
-9 28 -25 25 -25 -5 0 -34 56 -94 108 -118 24 -10 92 -27 151 -38 60 -10 124
-25 143 -34 76 -31 124 -96 83 -111 -43 -17 -115 36 -115 86 0 16 -3 30 -6 30
-4 0 -71 -20 -150 -45 -103 -33 -148 -52 -159 -68 -14 -20 -14 -23 6 -39 12
-10 33 -18 48 -18 25 -1 25 -1 7 -15 -11 -8 -63 -31 -115 -51 -140 -53 -211
-86 -211 -96 0 -10 3 -9 185 23 181 32 289 47 298 42 4 -2 -6 -16 -23 -30 -35
-29 -39 -58 -10 -73 11 -6 62 -15 114 -19 105 -10 149 -26 154 -56 6 -30 42
-65 68 -65 54 0 57 -12 8 -39 -83 -45 -80 -106 6 -152 34 -19 130 -27 130 -11
0 4 -16 17 -35 30 -19 12 -35 26 -35 31 0 13 92 23 165 19 l60 -3 0 34 c0 20
6 37 15 42 17 8 276 39 330 39 67 -1 67 -3 27 -167 -37 -152 -162 -623 -192
-725 -19 -68 1 -62 -265 -78 -192 -12 -440 -37 -448 -45 -17 -17 44 -20 343
-17 l333 2 -44 -126 c-46 -131 -56 -204 -29 -204 25 0 17 -18 -15 -35 -16 -9
-30 -19 -30 -24 0 -19 166 -26 280 -12 l55 7 -72 17 c-40 9 -78 17 -85 17 -42
1 -41 8 112 541 82 288 157 541 166 561 26 58 55 80 100 76 l39 -3 -53 -35
c-30 -20 -51 -41 -49 -50 4 -23 142 -77 242 -94 129 -23 369 -31 497 -17 144
16 202 34 229 72 20 29 20 31 4 49 -39 43 -229 90 -364 90 -96 0 -104 12 -29
41 42 17 62 30 61 40 -4 20 78 49 156 56 49 5 74 1 140 -23 151 -54 116 7 -54
94 l-70 35 55 24 c115 48 134 69 85 91 -36 17 -204 37 -236 29 -39 -10 -40
-26 -7 -101 16 -37 28 -77 26 -89 -3 -21 -7 -22 -134 -22 l-131 0 1 29 c2 49
-16 52 -196 29 -89 -11 -164 -19 -166 -17 -7 5 136 209 164 236 49 46 116 69
218 75 86 5 423 -12 472 -23 16 -4 25 -20 37 -62 39 -144 36 -175 -26 -201
l-42 -18 45 -7 c59 -9 85 -27 121 -84 57 -90 168 -489 154 -553 -8 -35 -41
-54 -110 -64 -80 -12 -88 -24 -15 -25 85 0 134 -15 154 -44 13 -21 78 -326 93
-443 7 -53 -3 -58 -92 -44 -37 5 -73 7 -81 4 -26 -10 -10 -38 31 -52 79 -28
635 -25 663 3 3 4 0 11 -8 16 -30 19 -105 22 -204 11 -80 -10 -108 -10 -128 0
-50 22 -77 103 -168 503 -107 471 -128 584 -116 632 7 25 9 26 66 22 33 -2 57
-2 55 1 -3 2 -33 18 -67 35 -87 43 -99 63 -110 188 -4 57 -15 127 -24 157 -21
73 -14 78 83 63 110 -17 163 -15 199 7 17 10 66 65 108 121 76 101 92 138 38
88 -37 -34 -74 -58 -89 -58 -23 0 -14 38 17 73 16 19 34 46 40 61 12 33 13
103 1 110 -12 8 -65 -95 -95 -186 -17 -49 -26 -98 -26 -139 l0 -62 -52 7
c-102 12 -170 31 -180 50 -28 50 -17 319 18 436 27 92 79 131 308 231 l99 43
35 -44 c73 -93 187 -195 253 -228 159 -80 334 -64 527 49 34 21 115 93 202
181 158 159 185 175 251 147 80 -33 229 -278 237 -390 4 -55 3 -58 -26 -73
-35 -18 -64 -12 -132 28 -58 33 -82 33 -122 -3 -49 -44 -32 -52 129 -62 76 -5
147 -11 159 -14 29 -6 84 -63 150 -153 31 -42 68 -87 82 -99 43 -36 85 -26 63
15 -5 10 -24 95 -41 188 -17 93 -40 198 -50 234 -52 176 -52 181 -59 420 -7
272 -9 279 -103 373 -77 78 -148 110 -253 115 -94 4 -166 -18 -237 -72 -23
-18 -121 -128 -217 -244 -96 -117 -176 -210 -178 -208 -2 1 6 63 17 137 37
250 50 394 50 544 0 224 -28 330 -110 419 -34 36 -49 46 -75 46 -40 0 -96 40
-150 106 l-40 49 50 -41 c67 -54 97 -74 112 -74 24 0 13 28 -32 87 -40 53 -43
59 -27 71 24 19 233 8 442 -23 45 -7 46 -7 45 21 0 24 5 29 39 36 75 16 88 50
29 74 -46 20 -111 11 -150 -19 -26 -21 -37 -22 -218 -22 -276 1 -330 17 -515
154 -278 206 -663 365 -1013 417 -72 11 -161 14 -312 12 l-210 -3 -121 63
c-67 34 -141 69 -164 77 -45 16 -120 20 -120 8 0 -5 21 -17 47 -27 66 -27 135
-98 131 -134 -2 -22 -7 -27 -28 -24 -81 8 -160 6 -172 -6 -19 -19 2 -44 58
-67 75 -31 76 -32 59 -64 -21 -41 -82 -91 -110 -91 -30 0 -31 6 -5 45 25 37
25 57 2 79 -30 26 -177 76 -250 84 l-67 7 0 35 c0 31 -3 35 -28 38 -41 5 -56
-12 -50 -57 6 -43 -8 -75 -38 -92 -20 -10 -21 -9 -14 20 6 29 6 30 -22 22 -84
-24 -149 -76 -140 -111 4 -15 -4 -32 -29 -58 -34 -36 -46 -82 -21 -82 7 0 47
32 88 70 114 109 189 145 189 93 0 -9 -25 -40 -55 -68 -30 -29 -55 -55 -55
-58 0 -4 12 -4 28 -1 26 5 27 4 28 -45 1 -45 -1 -49 -17 -41 -29 16 -38 12
-80 -30 -22 -22 -49 -40 -61 -40 -31 0 -84 62 -97 114 -15 60 -14 90 4 132 42
101 244 264 326 264 20 0 80 -13 134 -30 119 -36 142 -37 244 -5 80 25 123 53
65 41 -69 -13 -224 -29 -230 -23 -4 4 16 27 45 53 76 69 68 72 -119 48z m800
-229 c52 -8 130 -15 173 -15 92 0 101 -10 64 -72 -47 -80 -110 -115 -113 -63
-1 11 -2 26 -3 32 -2 21 -79 54 -193 84 -106 28 -148 44 -148 56 0 7 92 -2
220 -22z m-752 -51 c43 -33 62 -73 73 -153 5 -36 14 -79 20 -94 22 -53 74 -58
84 -8 12 57 21 76 39 79 16 3 17 -1 11 -30 -22 -102 -235 -473 -235 -409 0 6
23 70 50 141 67 173 66 184 -11 133 -35 -23 -44 -25 -70 -16 l-29 11 6 -61 c5
-55 4 -64 -15 -81 -27 -24 -35 -16 -20 18 11 23 10 28 -8 41 -31 22 -46 130
-41 284 3 69 9 134 13 144 18 43 77 43 133 1z m1332 17 c-27 -16 -200 -71
-243 -77 -42 -7 -42 -7 -24 13 16 19 116 56 177 66 49 8 106 7 90 -2z m278
-66 c24 -9 41 -20 38 -22 -2 -2 -40 1 -83 7 -87 13 -140 5 -157 -23 -18 -30
11 -37 150 -37 213 0 313 -27 454 -121 80 -53 231 -179 273 -227 19 -20 19
-21 -12 -20 -17 1 -37 -5 -46 -12 -23 -19 -19 -48 8 -52 17 -2 23 -11 27 -38
4 -29 14 -40 55 -66 94 -60 117 -83 110 -115 -6 -28 -5 -29 34 -29 32 0 44 -5
57 -25 22 -34 9 -48 -39 -42 -49 7 -394 176 -422 207 -20 22 -20 22 0 33 11 7
49 24 85 38 l65 27 -45 6 c-25 3 -70 7 -100 9 l-55 2 82 28 c46 16 85 32 88
37 3 4 -45 20 -105 35 -61 15 -112 31 -115 35 -3 5 25 18 62 31 76 25 69 37
-22 38 -102 2 -305 49 -305 71 0 4 29 10 65 14 78 8 95 14 95 33 0 29 -71 45
-264 59 -197 14 -235 20 -298 47 -64 27 -46 55 52 83 62 18 213 12 268 -11z
m-798 -15 c3 0 -2 -5 -10 -10 -19 -12 -71 -13 -90 0 -23 14 28 29 65 19 16 -5
32 -9 35 -9z m-250 -35 c0 -2 -49 -52 -109 -112 -91 -90 -116 -122 -146 -184
-46 -97 -65 -203 -68 -370 -2 -142 5 -169 43 -169 26 0 49 -32 59 -83 4 -26 5
-47 2 -47 -4 0 -19 24 -34 53 l-27 52 5 -105 c6 -114 -2 -147 -29 -120 -21 21
-52 147 -71 288 -13 96 -23 130 -52 189 -31 60 -35 74 -24 87 20 24 36 20 66
-15 14 -17 28 -29 31 -26 3 3 1 29 -5 57 -16 74 -14 99 14 158 60 129 287 372
331 355 8 -3 14 -6 14 -8z m310 -147 c-48 -39 -200 -107 -200 -89 0 14 33 38
100 71 102 51 152 60 100 18z m709 -2 c-14 -29 1 -62 33 -72 18 -5 19 -8 5
-15 -17 -10 -67 5 -79 24 -19 30 6 87 38 87 11 0 11 -5 3 -24z m-2173 -124
c-3 -20 -16 -50 -28 -67 -24 -31 -23 -27 -28 -272 0 -22 -16 -14 -29 14 -42
92 -10 312 54 377 17 17 19 17 28 1 5 -10 7 -33 3 -53z m2108 -28 c30 -12 16
-24 -28 -24 -43 0 -63 10 -49 24 8 8 56 8 77 0z m-1864 -45 c0 -5 -11 -27 -25
-47 -26 -38 -32 -62 -16 -62 19 0 41 -32 41 -59 0 -16 -10 -37 -23 -49 -52
-49 -171 -72 -204 -39 -18 18 -10 52 11 44 23 -9 55 21 85 81 43 84 88 142
111 142 11 0 20 -5 20 -11z m138 -23 c4 -33 -33 -156 -55 -183 -13 -16 -14 -8
-10 72 3 50 10 103 16 118 15 37 45 33 49 -7z m1981 15 c20 -13 6 -39 -26 -52
-35 -13 -90 -5 -115 18 -18 16 -18 18 -2 30 20 15 122 17 143 4z m-2555 -23
c9 -12 16 -30 16 -40 0 -19 -55 -87 -63 -78 -3 3 3 30 13 60 10 30 16 57 14
59 -2 2 -22 -9 -44 -25 -23 -16 -50 -35 -61 -43 -31 -22 -22 -4 22 44 47 51
79 58 103 23z m1774 -68 c16 0 26 7 29 21 6 20 11 21 62 15 60 -7 225 -62 361
-121 82 -35 88 -36 178 -31 l92 5 -6 -23 c-5 -21 -1 -25 26 -31 18 -4 57 -5
89 -2 l56 6 -47 -15 c-27 -8 -48 -19 -48 -24 0 -5 12 -18 27 -29 14 -12 24
-24 21 -27 -3 -3 -34 2 -68 11 -34 9 -66 15 -71 13 -6 -2 8 -28 31 -57 22 -30
38 -56 37 -58 -5 -4 -144 48 -246 92 -120 51 -201 96 -201 110 0 26 -137 44
-198 27 -12 -4 -28 -18 -35 -32 -9 -18 -22 -26 -45 -28 -31 -3 -32 -2 -26 23
5 21 -1 32 -35 65 -23 22 -68 58 -101 80 -33 22 -60 42 -60 44 0 2 35 -5 78
-15 42 -10 88 -19 100 -19z m-517 -117 c6 -16 13 -72 16 -125 5 -87 4 -98 -12
-104 -21 -8 -31 6 -39 56 -7 42 -40 90 -63 90 -12 0 -14 -7 -9 -27 3 -16 9
-53 12 -83 5 -51 4 -54 -10 -36 -9 11 -16 27 -16 37 0 20 -22 30 -40 19 -24
-15 -40 1 -40 39 0 47 6 54 60 79 25 11 61 34 80 51 43 38 48 38 61 4z m-603
-89 c-2 -22 -7 -39 -13 -39 -12 0 -19 60 -10 83 10 28 27 -3 23 -44z m92 -29
c0 -56 -10 -91 -21 -73 -10 16 -12 122 -2 131 12 12 23 -16 23 -58z m-158 -33
c22 -64 33 -151 24 -187 -10 -40 -24 -21 -32 43 -8 70 -17 83 -55 75 -23 -4
-29 -2 -29 11 0 27 50 118 63 114 7 -3 20 -28 29 -56z m1573 12 c33 -8 123
-36 200 -61 115 -37 155 -46 225 -48 47 -1 87 -3 89 -4 13 -4 -42 -47 -86 -67
-29 -13 -53 -28 -53 -34 0 -24 79 -4 203 52 48 22 123 46 165 55 90 18 101 25
94 58 -6 33 15 33 102 1 149 -54 157 -95 14 -71 -38 6 -68 8 -68 5 0 -4 30
-17 66 -29 53 -19 77 -22 127 -17 48 5 68 3 85 -10 12 -8 22 -19 22 -24 0 -20
-46 -20 -196 1 -183 24 -301 22 -361 -7 -21 -11 -40 -28 -42 -38 -3 -18 3 -19
115 -13 l119 6 -95 -27 -95 -27 90 -13 c50 -7 104 -17 120 -21 56 -16 -72 -12
-169 5 -111 19 -290 65 -375 96 -72 26 -91 48 -42 48 46 0 38 13 -28 49 -77
41 -169 75 -272 101 -151 38 -159 41 -159 52 0 14 120 4 205 -18z m-475 -24
c0 -14 -101 -70 -128 -70 -37 0 -21 22 37 52 54 29 91 36 91 18z m-1455 -23
c4 -12 1 -36 -5 -52 -9 -23 -13 -26 -20 -15 -17 27 -9 90 11 90 5 0 11 -10 14
-23z m598 -52 c0 -25 -5 -51 -11 -57 -9 -9 -12 4 -12 57 0 53 3 66 12 57 6 -6
11 -32 11 -57z m1305 -11 c87 -44 96 -46 147 -40 l55 6 -35 -51 c-19 -28 -35
-55 -35 -60 0 -5 31 -9 69 -9 91 0 121 -21 121 -85 0 -39 4 -46 29 -59 34 -18
211 -34 211 -19 0 6 -18 18 -40 28 -23 10 -43 22 -46 27 -3 4 34 8 81 8 80 0
88 -2 110 -26 24 -26 27 -26 101 -19 54 5 74 4 70 -4 -7 -10 -48 -24 -152 -50
-49 -13 -94 -52 -94 -82 0 -20 3 -21 79 -14 47 4 81 3 85 -3 10 -17 -18 -42
-69 -61 l-50 -19 40 -6 c76 -12 145 -37 173 -62 l27 -25 -101 6 c-86 5 -104 3
-118 -10 -47 -48 -401 -44 -480 5 -24 14 -42 18 -69 13 -23 -3 -37 -2 -37 5 0
24 57 75 126 113 41 23 74 43 74 46 0 10 -115 135 -143 155 -16 12 -43 21 -61
20 -19 -1 -40 8 -56 22 -45 42 -135 59 -195 36 -23 -9 -26 -14 -20 -40 6 -28
5 -30 -22 -30 -39 0 -81 43 -64 64 16 19 89 40 214 62 54 10 92 21 85 25 -7 3
-52 9 -99 12 -103 6 -128 16 -122 51 3 16 -4 39 -18 62 -22 36 -22 37 -3 51
35 27 127 9 232 -43z m1297 -39 c47 -46 57 -75 28 -75 -42 -1 -46 -15 -20 -66
42 -82 44 -109 9 -144 -27 -27 -37 -30 -91 -30 -58 0 -61 1 -61 25 0 32 -56
87 -121 120 -27 14 -47 30 -44 35 7 11 71 30 103 30 15 0 22 -6 22 -20 0 -22
10 -24 58 -11 38 11 40 6 10 -26 -21 -22 -21 -23 -2 -44 24 -27 92 -62 104
-54 24 15 6 75 -21 75 -10 0 -19 3 -19 8 -4 98 -11 136 -29 165 -27 45 -27 57
4 57 17 0 41 -15 70 -45z m-272 -306 c31 -8 78 -53 66 -63 -8 -6 -189 56 -189
65 0 12 76 11 123 -2z m-113 -90 c25 -6 107 -19 183 -29 76 -10 141 -21 144
-24 16 -16 -19 -21 -140 -21 -144 0 -163 -5 -146 -36 5 -11 9 -24 7 -29 -4
-11 -148 48 -148 61 0 5 22 9 49 9 28 0 52 4 55 9 3 5 -11 23 -32 40 -41 33
-38 35 28 20z m920 -79 c29 -29 26 -74 -7 -100 -36 -28 -58 -22 -58 15 0 41
-11 55 -43 55 l-27 1 28 24 c34 30 80 32 107 5z m147 -37 c16 -33 23 -38 56
-41 44 -4 46 -12 12 -56 -51 -67 -19 -88 53 -36 57 41 53 24 -9 -39 -54 -55
-65 -59 -109 -36 -43 22 -176 38 -202 24 -19 -10 -20 -17 -13 -68 11 -82 11
-115 1 -121 -5 -3 -12 2 -16 10 -30 65 -40 75 -105 112 -90 51 -91 52 -77 83
21 45 88 67 202 66 91 -1 100 0 114 21 9 12 16 35 16 51 0 72 49 91 77 30z
m-717 -51 c0 -26 -148 -80 -176 -64 -21 12 -12 18 75 48 69 25 101 30 101 16z
m-90 -132 c112 -32 70 -52 -100 -47 -131 4 -170 10 -170 28 0 25 199 39 270
19z m-460 -25 c0 -28 -31 -49 -60 -40 -26 8 -25 29 3 48 34 24 57 21 57 -8z
m-341 -24 c11 -7 6 -13 -18 -26 -18 -9 -31 -18 -28 -21 2 -2 48 1 103 7 79 8
107 8 139 -3 22 -7 39 -17 38 -23 -2 -19 -77 -35 -167 -36 -101 0 -135 6 -181
32 -16 9 -72 29 -124 43 -51 14 -96 28 -99 31 -9 9 322 5 337 -4z m1222 -31
c76 -21 120 -103 70 -130 -25 -13 -102 -13 -135 0 -35 13 -33 -1 5 -25 39 -26
79 -93 79 -133 0 -45 -13 -40 -40 18 -27 57 -40 56 -40 -3 0 -67 -19 -119 -59
-159 -34 -33 -85 -58 -97 -46 -2 3 3 24 11 48 8 24 13 45 10 48 -2 3 -28 -11
-57 -31 -28 -20 -53 -35 -55 -33 -2 2 1 15 8 29 7 15 9 40 5 61 -13 67 -89 94
-169 61 -50 -21 -89 -19 -142 7 -44 21 -63 45 -27 34 88 -26 128 -18 192 39
73 64 127 74 101 19 -10 -22 -9 -31 4 -50 19 -29 46 -31 70 -4 36 40 54 24
111 -107 l34 -78 0 90 c0 99 -12 155 -37 181 -16 15 -15 18 9 38 15 11 45 33
67 48 23 15 41 32 41 37 0 5 -13 14 -30 21 -16 7 -30 16 -30 21 0 12 56 11
101 -1z m-1186 -127 c31 -5 35 -8 20 -14 -26 -10 -143 -11 -186 -2 l-34 7 30
7 c41 9 122 10 170 2z m-56 -129 c17 -4 28 -10 25 -15 -7 -12 -141 -12 -149 0
-10 17 66 26 124 15z m-2619 -269 c31 -45 80 -155 93 -207 10 -39 -12 -28 -63
33 -85 101 -131 204 -104 232 12 12 43 -13 74 -58z m2124 6 c8 -13 -60 -23
-105 -16 -22 4 -37 11 -33 16 7 12 131 12 138 0z m226 -118 c0 -94 -24 -324
-40 -384 -16 -58 -31 -65 -90 -40 -42 18 -61 20 -132 15 -122 -10 -358 24
-358 51 0 7 21 25 46 40 25 15 136 95 247 178 234 175 307 227 319 227 4 0 8
-39 8 -87z m-321 41 c51 -11 35 -24 -29 -24 -72 0 -82 22 -14 29 6 0 26 -2 43
-5z m-995 -166 c33 -47 13 -141 -68 -323 -39 -87 -45 -121 -21 -112 21 9 26
-5 14 -48 -9 -32 -8 -42 10 -65 11 -15 17 -30 14 -34 -10 -10 -151 -7 -158 4
-3 6 -2 10 4 10 23 0 32 70 25 203 -7 130 -6 135 14 146 11 6 30 11 42 11 32
0 76 53 84 98 3 22 0 62 -8 90 -7 29 -11 54 -8 56 8 8 40 -13 56 -36z m-824
-239 c64 -27 108 -74 94 -97 -6 -9 -19 -18 -28 -20 -18 -4 -113 23 -136 38
-13 9 -13 11 0 20 12 9 9 16 -22 41 -21 17 -38 36 -38 41 0 15 72 2 130 -23z
m1100 -54 c0 -16 -60 -88 -67 -81 -8 8 15 68 33 88 18 19 34 16 34 -7z m-570
-195 c22 -22 26 -45 9 -55 -12 -8 -120 55 -113 67 11 17 84 8 104 -12z m848
-196 c4 -30 -56 -80 -119 -98 -122 -37 -189 -30 -189 19 0 38 10 55 44 72 48
25 84 31 176 30 78 -2 85 -4 88 -23z m414 -234 c80 -12 148 -37 148 -56 0 -30
-80 -39 -335 -38 -138 0 -277 5 -311 11 -76 14 -141 40 -128 52 12 12 309 38
449 39 61 1 140 -3 177 -8z"/>
<path d="M7667 5384 c-6 -37 6 -74 23 -74 15 0 40 30 40 48 0 23 -28 62 -44
62 -8 0 -16 -16 -19 -36z"/>
<path d="M7726 5270 c-69 -21 -113 -98 -82 -145 25 -39 97 -27 137 21 13 16
12 17 -6 10 -11 -5 -30 -11 -42 -13 -34 -8 -30 34 7 77 28 33 39 61 23 59 -5
0 -21 -5 -37 -9z"/>
<path d="M9860 5028 c0 -17 86 -71 102 -65 19 6 -56 77 -81 77 -12 0 -21 -6
-21 -12z"/>
<path d="M9915 4760 c23 -26 170 -100 197 -100 37 0 -1 30 -96 77 -101 48
-130 55 -101 23z"/>
<path d="M9276 3962 c-16 -7 -11 -11 25 -25 82 -31 171 -49 211 -43 39 6 154
53 147 60 -9 8 -365 15 -383 8z"/>
<path d="M11027 3894 c-11 -11 -8 -94 3 -94 16 0 42 48 38 72 -3 22 -27 35
-41 22z"/>
<path d="M8776 2759 c-48 -11 -66 -25 -66 -50 0 -14 7 -19 28 -19 34 0 125 26
167 48 28 14 28 16 10 23 -26 10 -91 9 -139 -2z"/>
<path d="M7036 5608 c13 -44 35 -78 49 -78 23 0 18 35 -11 69 -30 37 -48 40
-38 9z"/>
<path d="M9298 5574 c-10 -3 -18 -9 -18 -14 0 -12 37 -19 193 -35 143 -14 189
-24 202 -44 13 -23 25 -10 25 28 0 63 -10 66 -209 68 -97 1 -184 -1 -193 -3z"/>
<path d="M10265 5559 c-38 -5 -101 -19 -140 -30 -64 -20 -68 -22 -45 -31 34
-13 499 -6 524 9 18 10 18 11 -7 28 -54 35 -174 43 -332 24z"/>
<path d="M9777 5494 c-14 -14 6 -24 49 -24 44 0 58 12 28 24 -21 8 -69 8 -77
0z"/>
<path d="M530 5440 c0 -28 43 -52 101 -58 65 -6 64 9 -3 48 -63 35 -98 39 -98
10z"/>
<path d="M11777 5438 c-7 -20 17 -59 62 -102 34 -33 41 -37 47 -23 3 10 3 33
0 51 -11 56 -95 112 -109 74z"/>
<path d="M10185 5411 c-62 -10 117 -20 219 -13 77 6 79 6 36 13 -54 9 -199 9
-255 0z"/>
<path d="M11088 5413 c-39 -10 -15 -23 42 -23 60 0 80 12 38 24 -25 6 -54 6
-80 -1z"/>
<path d="M6254 5345 c-3 -13 -2 -37 4 -52 l10 -28 11 30 c13 31 7 75 -9 75 -5
0 -12 -11 -16 -25z"/>
<path d="M11546 5349 c-35 -27 -34 -49 2 -49 32 0 52 16 52 41 0 26 -26 30
-54 8z"/>
<path d="M6685 5259 c11 -47 8 -79 -10 -99 -8 -9 -12 -20 -8 -23 3 -4 45 -7
92 -7 107 0 131 13 131 71 0 45 -11 49 -38 14 -11 -14 -28 -25 -38 -25 -9 0
-44 23 -77 52 l-59 51 7 -34z"/>
<path d="M6094 5266 c-15 -12 -17 -18 -8 -33 15 -25 46 -27 74 -5 47 38 -16
75 -66 38z"/>
<path d="M7332 5238 c-16 -16 -15 -47 2 -54 20 -8 66 25 66 47 0 14 -7 19 -28
19 -15 0 -33 -5 -40 -12z"/>
<path d="M11010 5188 c1 -49 2 -52 16 -33 17 23 15 76 -3 83 -9 3 -13 -11 -13
-50z"/>
<path d="M11853 5194 c-16 -26 -38 -59 -50 -73 l-21 -26 -11 27 c-12 31 -41
50 -60 39 -18 -11 -2 -38 49 -84 55 -50 91 -47 102 8 2 13 11 20 25 20 12 0
25 3 28 7 9 9 -14 116 -26 123 -5 4 -21 -15 -36 -41z"/>
<path d="M11485 5206 c-8 -29 1 -175 10 -185 3 -2 12 5 21 17 12 17 24 22 51
20 45 -3 63 20 63 84 0 26 -2 48 -5 48 -3 0 -17 -12 -31 -27 l-24 -28 -18 21
c-9 12 -27 34 -38 50 l-22 29 -7 -29z"/>
<path d="M10550 5187 c-45 -15 -52 -44 -13 -54 69 -17 203 -3 203 23 0 36
-118 56 -190 31z"/>
<path d="M10852 5173 c4 -24 63 -56 87 -48 29 9 16 31 -30 49 -50 20 -61 20
-57 -1z"/>
<path d="M166 5129 c-31 -36 -33 -68 -7 -100 16 -20 21 -22 36 -9 26 21 45 66
45 105 0 30 -3 35 -24 35 -15 0 -34 -12 -50 -31z"/>
<path d="M605 5128 c-4 -18 -2 -44 3 -58 9 -24 9 -24 21 12 9 27 9 42 1 58
-15 27 -18 26 -25 -12z"/>
<path d="M6332 5151 c-20 -12 9 -21 66 -21 56 0 86 14 50 23 -33 9 -101 8
-116 -2z"/>
<path d="M319 5103 c-32 -20 -63 -69 -55 -89 9 -24 43 -16 81 20 58 55 37 109
-26 69z"/>
<path d="M11096 5059 c-34 -27 -22 -42 34 -42 56 0 68 15 34 42 -15 11 -30 21
-34 21 -4 0 -19 -10 -34 -21z"/>
<path d="M6500 5029 c-22 -27 -33 -31 -87 -36 -34 -3 -60 -9 -57 -14 7 -11
167 -59 198 -59 18 0 30 8 41 30 21 40 19 63 -8 88 -32 30 -58 27 -87 -9z"/>
<path d="M90 4950 c0 -26 32 -42 77 -38 47 4 53 22 14 42 -44 23 -91 21 -91
-4z"/>
<path d="M333 4963 c-19 -7 -16 -31 6 -43 24 -12 101 -13 121 0 17 10 16 12
-27 34 -31 15 -75 20 -100 9z"/>
<path d="M10989 4952 c-20 -17 -21 -22 -10 -36 16 -19 64 -21 110 -5 51 18 36
36 -45 53 -23 5 -37 2 -55 -12z"/>
<path d="M11326 4937 c-25 -18 -12 -41 43 -76 65 -42 215 -111 241 -111 19 0
21 3 14 33 -10 45 -7 70 11 83 26 19 17 21 -51 12 -82 -11 -98 -6 -90 27 5 18
1 27 -13 35 -28 14 -134 13 -155 -3z"/>
<path d="M12510 4786 c0 -114 3 -147 13 -144 20 7 47 70 47 111 0 39 -34 154
-51 172 -5 5 -9 -49 -9 -139z"/>
<path d="M751 4908 c-8 -9 -46 -13 -114 -13 -156 -1 -336 -56 -357 -109 -9
-25 -12 -25 -68 -20 -58 6 -102 -5 -102 -27 0 -20 57 -30 212 -37 190 -9 196
-12 179 -91 -14 -66 -14 -208 0 -252 6 -19 13 -40 15 -48 8 -25 39 17 79 109
64 145 86 220 67 220 -9 0 -13 -8 -52 -93 -12 -26 -31 -52 -41 -58 -32 -17
-34 16 -5 72 38 74 35 110 -15 160 -38 38 -44 41 -80 35 -22 -4 -39 -2 -39 3
0 17 84 69 138 85 21 7 22 5 22 -42 0 -70 27 -102 86 -102 24 0 44 3 44 6 0 3
-11 15 -26 26 -41 33 -30 68 30 97 48 24 51 24 108 10 32 -9 58 -14 58 -11 0
10 -44 58 -68 74 -32 21 -53 23 -71 6z"/>
<path d="M6236 4891 c-8 -12 52 -22 91 -15 18 3 30 10 27 15 -7 12 -111 12
-118 0z"/>
<path d="M12640 4825 c0 -53 3 -66 12 -57 6 6 11 32 11 57 0 25 -5 51 -11 57
-9 9 -12 -4 -12 -57z"/>
<path d="M12770 4733 c0 -85 4 -133 9 -127 16 16 17 264 1 264 -6 0 -10 -52
-10 -137z"/>
<path d="M11030 4831 c-92 -29 -105 -42 -35 -33 33 4 94 7 135 7 l75 0 3 -40
c4 -51 23 -65 86 -65 l51 1 -40 34 c-22 18 -37 36 -35 38 3 2 15 10 28 16 32
17 28 27 -18 45 -54 21 -179 20 -250 -3z"/>
<path d="M11700 4805 c-13 -16 -10 -47 6 -52 15 -5 64 35 64 53 0 19 -54 19
-70 -1z"/>
<path d="M12212 4808 c-17 -17 -15 -32 7 -52 25 -22 84 -18 89 6 8 40 -67 75
-96 46z"/>
<path d="M12421 4643 c0 -15 13 -68 28 -118 16 -49 27 -94 24 -98 -3 -5 -22
-6 -42 -2 -73 12 -112 -57 -41 -72 38 -7 70 -46 70 -84 0 -43 15 -35 35 17 27
70 17 186 -24 291 -35 89 -51 111 -50 66z"/>
<path d="M12687 4557 c-9 -24 -8 -126 2 -152 17 -42 27 90 12 145 -6 22 -8 23
-14 7z"/>
<path d="M11693 4548 c3 -9 9 -32 12 -51 8 -42 -11 -57 -74 -57 -44 0 -92 -15
-103 -33 -11 -17 -10 -87 1 -87 5 0 23 11 39 25 38 31 74 45 120 45 l37 -1
-27 -20 c-16 -11 -28 -29 -28 -39 0 -52 32 -67 52 -25 14 32 33 32 80 -2 30
-20 41 -24 51 -14 17 17 -10 60 -61 94 -34 23 -42 34 -42 59 0 35 -24 91 -48
110 -13 11 -15 10 -9 -4z"/>
<path d="M11786 4548 c21 -35 89 -108 101 -108 24 0 14 23 -29 62 -49 45 -86
69 -72 46z"/>
<path d="M11101 4466 c-7 -8 -11 -32 -9 -53 3 -37 4 -38 42 -40 29 -1 47 -9
75 -36 60 -58 141 -88 141 -52 0 33 -188 195 -226 195 -6 0 -17 -6 -23 -14z"/>
<path d="M95 4455 c33 -97 58 -195 72 -286 10 -60 21 -109 24 -109 12 0 18
161 9 212 -6 29 -19 70 -30 93 -22 46 -86 122 -75 90z"/>
<path d="M10594 4425 c-9 -21 24 -67 44 -63 9 2 18 13 20 24 6 39 -51 73 -64
39z"/>
<path d="M11320 4422 c-19 -15 -21 -22 -12 -39 21 -38 104 -35 119 3 8 21 -30
54 -62 54 -13 0 -33 -8 -45 -18z"/>
<path d="M12160 4419 c-19 -12 -50 -34 -68 -50 -38 -33 -57 -36 -71 -11 -7 12
-9 -1 -8 -48 2 -62 1 -65 -20 -63 -30 3 -30 -18 1 -82 28 -59 59 -90 82 -81
14 6 16 17 10 86 l-7 80 27 10 c58 22 83 -4 95 -102 12 -95 24 -124 60 -139
53 -21 57 1 15 83 -47 93 -56 165 -31 248 10 32 15 66 12 74 -9 23 -55 20 -97
-5z"/>
<path d="M10930 4415 c0 -11 12 -15 44 -15 46 0 68 13 40 24 -32 12 -84 7 -84
-9z"/>
<path d="M10748 4343 c-42 -11 -12 -23 57 -23 79 0 100 13 38 24 -41 6 -68 6
-95 -1z"/>
<path d="M10972 4338 c-35 -35 21 -68 117 -68 70 0 82 11 44 38 -56 39 -137
54 -161 30z"/>
<path d="M12297 4293 c-13 -13 -7 -39 19 -77 31 -45 48 -37 34 15 -11 37 -42
74 -53 62z"/>
<path d="M12587 4207 c-125 -225 -163 -307 -142 -307 3 0 24 9 46 20 22 11 61
22 87 23 l47 2 5 41 c7 52 37 101 53 85 15 -15 -8 -111 -46 -188 -25 -49 -28
-64 -19 -76 13 -15 124 -47 163 -47 l22 0 -21 23 c-32 34 -52 91 -52 149 0 60
4 69 43 85 50 23 23 107 -60 184 -84 79 -86 79 -126 6z"/>
<path d="M11875 4195 c7 -34 38 -81 51 -78 22 5 12 35 -21 70 l-37 38 7 -30z"/>
<path d="M56 4017 c-11 -97 -7 -121 34 -202 27 -53 40 -92 40 -119 0 -42 14
-76 25 -64 20 20 16 308 -4 308 -4 0 -16 -18 -26 -40 -10 -23 -22 -37 -27 -32
-4 4 -11 50 -14 100 -4 51 -10 95 -14 97 -4 3 -10 -19 -14 -48z"/>
<path d="M11450 4019 c-56 -17 -58 -27 -7 -49 54 -24 173 -41 202 -29 13 5 15
8 5 8 -21 1 -83 20 -98 30 -7 4 -15 17 -16 27 -3 23 -35 27 -86 13z"/>
<path d="M11830 4002 c0 -12 30 -37 67 -56 43 -22 46 -21 29 12 -19 37 -96 72
-96 44z"/>
<path d="M6740 3937 c0 -30 62 -63 94 -51 22 9 3 32 -41 51 -41 17 -53 17 -53
0z"/>
<path d="M7279 3903 c-25 -72 -9 -237 21 -218 13 8 13 242 1 250 -5 3 -15 -12
-22 -32z"/>
<path d="M228 3886 c-3 -25 -3 -67 0 -92 7 -65 22 -35 22 46 0 81 -15 111 -22
46z"/>
<path d="M11804 3846 c-164 -31 -141 -65 56 -81 122 -9 171 -22 205 -54 38
-36 70 -43 134 -31 68 13 155 50 143 62 -5 5 -50 12 -101 15 -50 3 -91 9 -91
13 0 3 33 12 74 18 40 7 82 19 92 27 18 13 17 14 -11 26 -45 18 -411 22 -501
5z"/>
<path d="M6810 3733 c0 -50 -13 -59 -53 -34 -54 33 -53 26 5 -41 70 -81 115
-147 131 -194 11 -34 21 -43 67 -64 28 -12 80 -104 106 -185 21 -67 25 -95 22
-172 -5 -158 32 -117 57 62 23 159 38 175 49 51 5 -63 27 -99 47 -79 12 12 14
116 3 191 -7 49 -17 53 -107 50 l-58 -3 -3 50 c-2 50 -37 141 -71 180 -16 20
-16 19 -11 -7 3 -16 9 -40 12 -54 5 -20 3 -26 -7 -22 -24 7 -87 108 -128 203
-40 93 -61 117 -61 68z"/>
<path d="M12470 3711 c-110 -42 -197 -80 -185 -81 22 0 294 50 319 60 18 7 26
16 24 28 -5 28 -73 26 -158 -7z"/>
<path d="M7806 3663 c-8 -83 3 -215 15 -173 9 33 10 155 0 205 -7 38 -7 37
-15 -32z"/>
<path d="M7366 3668 c-51 -68 -69 -143 -46 -202 5 -14 17 -26 26 -26 27 0 70
37 89 76 21 45 9 64 -29 46 -35 -16 -39 -3 -21 69 9 34 14 63 12 66 -3 2 -17
-11 -31 -29z"/>
<path d="M7499 3633 c-5 -37 0 -73 11 -73 12 0 23 56 15 80 -9 28 -22 25 -26
-7z"/>
<path d="M11543 3643 c-17 -2 -37 -11 -43 -18 -20 -24 33 -37 155 -38 163 -3
227 16 153 43 -35 12 -211 21 -265 13z"/>
<path d="M8410 3555 c10 -38 23 -86 28 -105 l9 -35 11 27 c14 34 -7 110 -42
153 l-25 30 19 -70z"/>
<path d="M7710 3495 c0 -94 14 -175 39 -220 l16 -30 3 28 c5 39 -38 307 -49
307 -5 0 -9 -38 -9 -85z"/>
<path d="M12134 3569 c-14 -24 39 -37 81 -19 19 7 18 9 -8 19 -36 14 -64 14
-73 0z"/>
<path d="M12533 3493 c-16 -6 -17 -35 -1 -51 19 -19 53 -14 78 13 l23 24 -27
11 c-29 11 -53 12 -73 3z"/>
<path d="M8355 3435 c12 -86 65 -180 65 -115 0 31 -38 132 -56 150 -15 14 -16
11 -9 -35z"/>
<path d="M6320 3362 c0 -10 108 -117 155 -154 60 -47 65 -50 65 -41 0 15 -120
143 -164 175 -40 29 -56 34 -56 20z"/>
<path d="M12484 3292 c-28 -37 -65 -89 -84 -117 -52 -79 -120 -155 -137 -155
-25 0 -9 67 27 118 33 47 34 60 2 43 -28 -15 -42 6 -49 74 -9 85 -20 90 -218
90 -88 0 -190 -4 -227 -8 -64 -8 -110 -28 -96 -42 4 -4 109 -8 232 -9 202 -1
227 -3 243 -19 15 -15 18 -36 18 -146 0 -140 5 -155 56 -166 36 -8 30 -15 153
170 92 138 141 223 133 231 -2 2 -26 -26 -53 -64z"/>
<path d="M8300 3278 c-40 -43 -86 -136 -73 -149 5 -5 25 8 53 36 32 33 52 45
73 45 25 0 27 3 21 23 -8 28 -33 77 -39 77 -2 0 -18 -15 -35 -32z"/>
<path d="M7887 3223 c-10 -10 -8 -81 2 -87 12 -8 21 18 21 60 0 32 -8 42 -23
27z"/>
<path d="M12742 3208 c-7 -7 -12 -19 -12 -28 0 -18 27 -60 39 -60 13 0 20 52
10 77 -10 26 -19 29 -37 11z"/>
<path d="M8064 3129 c20 -63 19 -67 -18 -101 l-37 -34 36 -13 c25 -9 37 -20
41 -39 17 -78 67 -132 135 -147 50 -11 59 6 57 101 -3 80 -2 85 25 110 30 27
52 72 41 83 -8 8 -58 -52 -127 -148 -60 -86 -83 -101 -74 -50 3 19 8 42 12 51
4 11 -2 24 -19 39 -23 20 -26 28 -20 65 7 47 -5 78 -38 95 -19 10 -20 9 -14
-12z"/>
<path d="M12524 3118 c-48 -42 -114 -126 -114 -144 0 -22 45 -17 100 11 62 32
66 31 79 -5 5 -17 17 -33 25 -36 35 -14 179 88 162 114 -3 6 -40 8 -88 5 -98
-5 -113 2 -110 51 3 44 -7 45 -54 4z"/>
<path d="M6160 3097 c-23 -11 -19 -12 39 -15 58 -3 81 1 70 13 -12 11 -87 13
-109 2z"/>
<path d="M8486 3058 c-56 -57 -92 -105 -83 -114 6 -7 105 91 136 134 34 49 6
38 -53 -20z"/>
<path d="M11553 3099 c-71 -20 -25 -69 65 -69 98 0 159 35 117 66 -22 16 -132
17 -182 3z"/>
<path d="M10475 3003 c-77 -19 -109 -35 -113 -55 -4 -19 10 -24 103 -38 143
-20 448 -6 482 22 39 32 -51 42 -246 27 -87 -6 -167 -9 -177 -5 -17 7 -15 11
16 37 40 34 31 35 -65 12z"/>
<path d="M3073 2892 c-17 -21 -40 -56 -52 -78 -22 -40 -29 -90 -11 -79 13 8
103 185 97 191 -2 2 -17 -13 -34 -34z"/>
<path d="M11843 2889 c-77 -9 -137 -33 -131 -51 11 -33 58 -51 140 -55 l83 -3
-49 23 c-38 18 -45 25 -32 30 10 4 178 7 374 8 196 0 375 4 397 8 l40 8 -27
11 c-68 28 -610 43 -795 21z"/>
<path d="M3137 2788 c-76 -107 -92 -156 -33 -99 29 29 96 136 96 155 0 20 -25
-2 -63 -56z"/>
<path d="M9426 2835 c-9 -24 -7 -68 3 -84 8 -12 11 -8 17 15 9 36 8 64 -4 76
-6 6 -12 3 -16 -7z"/>
<path d="M6743 2803 c-38 -15 18 -38 64 -27 25 7 25 8 8 20 -19 14 -49 17 -72
7z"/>
<path d="M12175 2803 c-44 -2 -91 -6 -105 -9 -24 -5 -23 -7 14 -19 46 -16 55
-27 48 -62 l-5 -26 59 6 c51 5 346 96 362 112 5 5 -214 4 -373 -2z"/>
<path d="M6583 2745 c-28 -15 -57 -33 -63 -40 -11 -13 -5 -15 40 -15 44 0 56
4 81 30 29 29 31 50 5 50 -6 0 -35 -11 -63 -25z"/>
<path d="M9732 2714 c-34 -31 -60 -60 -56 -65 3 -5 13 -5 23 1 22 11 105 109
99 115 -3 3 -32 -20 -66 -51z"/>
<path d="M12533 2739 c-59 -11 -90 -29 -72 -40 17 -11 226 -11 254 0 16 6 12
10 -25 24 -61 21 -107 26 -157 16z"/>
<path d="M2434 2697 c-22 -19 -28 -34 -32 -80 -3 -34 0 -57 5 -57 12 0 73 111
73 133 0 27 -17 28 -46 4z"/>
<path d="M3222 2628 c-27 -27 -6 -68 35 -68 29 0 48 33 33 60 -12 22 -49 27
-68 8z"/>
<path d="M6397 2620 c-26 -21 -51 -76 -38 -85 11 -6 105 41 126 65 9 10 14 24
10 29 -11 18 -71 12 -98 -9z"/>
<path d="M10455 2633 c-49 -12 -35 -23 28 -23 70 0 90 13 36 24 -17 3 -34 5
-38 5 -3 -1 -15 -3 -26 -6z"/>
<path d="M9296 2588 c4 -7 18 -28 32 -45 25 -34 33 -90 18 -132 l-8 -23 72 7
72 7 -7 -46 c-7 -46 -7 -46 21 -46 35 0 164 48 164 61 0 5 -10 9 -22 9 -40 0
-86 37 -112 89 -31 60 -38 65 -91 62 -34 -1 -52 5 -95 35 -29 20 -49 30 -44
22z"/>
<path d="M10258 2583 c-9 -10 -18 -27 -20 -38 -6 -35 -60 -42 -380 -50 -170
-4 -308 -11 -308 -15 0 -12 95 -49 151 -60 113 -22 929 5 929 30 0 4 -25 11
-55 15 -90 11 -204 41 -224 59 -12 11 -17 25 -13 38 9 37 -52 53 -80 21z"/>
<path d="M9675 2580 c-4 -6 27 -10 85 -10 58 0 89 4 85 10 -3 6 -42 10 -85 10
-43 0 -82 -4 -85 -10z"/>
<path d="M11017 2544 c-14 -14 6 -24 49 -24 44 0 58 12 28 24 -21 8 -69 8 -77
0z"/>
<path d="M8380 2503 c-30 -16 -56 -33 -58 -40 -2 -7 25 -21 70 -34 98 -30 169
-62 192 -87 24 -28 113 -48 152 -35 l29 10 -60 30 c-80 41 -113 75 -117 121
-4 45 -31 62 -104 62 -36 0 -66 -8 -104 -27z"/>
<path d="M2724 2499 c-80 -10 -141 -27 -150 -41 -5 -8 48 -9 204 -4 209 7 254
2 192 -24 -16 -7 -35 -19 -42 -28 -11 -13 -5 -14 62 -10 79 6 163 33 157 51
-18 55 -224 82 -423 56z"/>
<path d="M12635 2448 c-16 -6 -43 -20 -59 -31 l-30 -21 33 -8 c41 -11 37 -25
-23 -65 -55 -38 -89 -41 -131 -13 -36 24 -85 27 -85 5 0 -9 9 -15 23 -15 25 0
47 -17 47 -36 0 -20 -81 -35 -226 -41 -153 -6 -186 1 -177 37 4 14 0 20 -11
20 -22 0 -69 -25 -86 -45 -27 -32 11 -40 254 -55 249 -15 464 9 519 58 12 10
16 27 15 55 -3 40 -2 41 36 49 70 15 85 46 42 87 -29 27 -96 36 -141 19z"/>
<path d="M10931 2426 c-87 -23 -48 -50 50 -35 50 8 79 23 79 40 0 12 -76 9
-129 -5z"/>
<path d="M12090 2330 c-13 -9 -13 -11 0 -20 19 -12 60 -13 80 0 11 7 9 11 -13
19 -35 13 -48 14 -67 1z"/>
<path d="M9633 2289 c-83 -19 -83 -65 1 -54 55 7 164 31 191 41 55 22 -106 32
-192 13z"/>
<path d="M7610 2157 c-51 -14 -107 -46 -135 -76 -17 -20 -17 -21 0 -28 23 -8
297 13 348 28 46 13 44 27 -10 57 -50 28 -142 36 -203 19z m154 -46 c12 -18
-53 -28 -102 -14 -18 4 -20 8 -10 14 17 12 105 11 112 0z"/>
<path d="M12105 2020 c-127 -9 -181 -27 -195 -66 -14 -37 -7 -40 30 -14 49 35
115 50 219 50 101 -1 104 -9 11 -29 -31 -6 -71 -21 -89 -32 -54 -33 -26 -49
106 -60 98 -8 256 -44 304 -69 33 -18 184 -50 237 -50 66 0 60 15 -9 23 -71 9
-110 34 -136 89 -17 34 -36 55 -68 74 -25 14 -43 30 -40 34 3 5 31 16 63 26
51 15 54 18 32 25 -32 9 -320 8 -465 -1z"/>
<path d="M10720 2005 c-97 -21 -184 -52 -289 -103 -76 -37 -111 -62 -185 -132
-126 -120 -125 -120 -304 -120 -112 0 -153 -3 -168 -14 -18 -14 -18 -15 10
-26 18 -6 60 -8 115 -4 74 6 89 4 104 -10 9 -10 17 -24 17 -32 0 -18 28 -18
73 1 48 20 120 19 188 -2 60 -18 195 -23 273 -10 45 8 49 7 37 -7 -28 -34 -89
-41 -341 -41 -265 1 -367 12 -529 60 -128 38 -181 34 -206 -15 -13 -25 -13
-30 5 -53 38 -48 126 -64 420 -77 163 -6 228 -13 269 -27 30 -10 56 -23 58
-30 6 -19 -43 -39 -157 -63 -197 -41 -256 -98 -176 -168 51 -44 150 -74 305
-92 129 -15 155 -5 187 66 14 32 30 54 39 54 9 0 39 -12 67 -26 45 -23 61 -26
113 -21 93 9 285 73 285 96 0 4 -35 19 -77 32 l-78 24 64 3 c79 4 141 -9 240
-49 82 -34 97 -35 281 -23 101 6 420 -21 420 -36 0 -9 -218 -115 -280 -136
-40 -14 -83 -19 -160 -19 -122 0 -165 16 -248 90 l-49 44 -59 -18 c-32 -10
-142 -34 -244 -52 -102 -18 -189 -36 -193 -39 -4 -4 72 -10 170 -13 208 -8
301 -18 477 -54 188 -38 254 -28 443 63 207 99 233 204 51 204 -70 0 -128 17
-128 36 0 34 37 76 87 100 38 19 78 28 151 34 109 10 195 29 269 61 49 21 93
55 93 72 0 29 -313 308 -329 292 -6 -7 51 -63 182 -178 88 -78 96 -102 46
-137 -16 -12 -55 -29 -85 -36 -133 -35 -444 -34 -579 1 -99 26 -172 103 -113
119 73 19 297 -7 471 -54 59 -17 112 -30 117 -30 6 0 10 13 10 29 0 18 8 34
21 42 18 13 13 14 -49 14 l-70 0 -94 91 c-63 61 -105 94 -126 99 -61 13 -34
46 75 91 l58 24 -55 -1 c-84 0 -123 -17 -137 -59 -7 -19 -12 -54 -12 -77 -1
-52 -23 -78 -80 -92 -23 -6 -60 -16 -82 -22 -47 -12 -89 -49 -89 -77 0 -33 39
-71 123 -120 100 -58 147 -101 147 -134 0 -37 -20 -48 -97 -55 -73 -6 -171 1
-890 63 -40 3 -73 2 -73 -3 0 -4 34 -23 75 -42 77 -34 91 -58 26 -46 -77 14
-171 93 -171 144 0 28 45 55 135 82 111 33 217 105 375 256 96 91 150 163 150
199 0 28 -62 81 -110 94 -48 13 -132 11 -210 -5z m224 -65 c15 -5 26 -17 26
-28 0 -10 -34 -51 -76 -92 -78 -76 -104 -114 -104 -148 0 -11 -8 -29 -17 -40
-16 -18 -36 -23 -154 -32 -79 -6 -146 -7 -160 -2 l-24 9 30 15 c48 25 90 30
135 18 23 -6 44 -9 47 -6 13 12 -65 75 -101 82 -52 9 -196 -21 -270 -57 -64
-31 -86 -36 -86 -17 0 24 50 94 89 126 96 77 293 160 431 181 73 11 194 7 234
-9z m-644 -678 c0 -4 -37 -30 -82 -58 l-82 -49 80 -7 c116 -10 157 -30 141
-72 -4 -11 -28 -9 -129 11 -154 30 -193 40 -241 60 -79 34 -21 67 174 101 135
24 139 24 139 14z m324 -88 c30 -12 16 -24 -28 -24 -43 0 -63 10 -49 24 8 8
56 8 77 0z"/>
<path d="M4664 1979 c-46 -8 -144 -43 -144 -52 0 -2 35 1 78 6 127 14 283 3
401 -28 133 -35 200 -32 263 11 l43 29 -145 7 c-80 3 -192 14 -250 22 -115 17
-168 18 -246 5z"/>
<path d="M5380 1980 c0 -6 32 -10 76 -10 47 0 73 4 69 10 -3 6 -37 10 -76 10
-39 0 -69 -4 -69 -10z"/>
<path d="M5625 1950 c-3 -5 17 -24 44 -42 28 -18 51 -39 51 -46 0 -7 -21 -25
-46 -40 -73 -43 -80 -49 -69 -61 6 -6 57 -17 114 -26 138 -21 234 -43 257 -59
68 -50 -177 -97 -507 -97 -97 0 -205 5 -240 11 -72 13 -129 43 -129 68 0 9 19
34 42 54 72 61 63 63 -283 61 -176 -2 -307 -7 -317 -12 -14 -9 -11 -10 14 -11
56 0 133 -29 151 -57 l17 -26 106 7 c123 7 150 1 215 -49 95 -72 250 -138 380
-161 129 -23 146 -17 72 25 -41 24 -41 25 -17 31 14 4 75 10 135 14 236 16
405 68 405 126 0 29 -46 61 -126 86 -127 41 -144 51 -138 84 5 22 -1 36 -30
68 -37 41 -91 68 -101 52z"/>
<path d="M4373 1897 c-35 -13 -73 -42 -73 -56 0 -21 28 -33 52 -20 33 17 78
61 78 76 0 16 -14 16 -57 0z"/>
<path d="M322 1778 c-8 -8 -7 -18 6 -40 9 -15 20 -28 24 -28 4 0 11 -1 14 -2
4 -2 10 7 15 20 6 17 4 27 -11 42 -23 23 -32 24 -48 8z"/>
<path d="M11702 1764 c-15 -27 5 -73 35 -80 30 -8 73 10 73 30 0 11 -10 15
-37 13 -30 -2 -38 2 -41 18 -6 31 -19 39 -30 19z"/>
<path d="M2270 1751 c-155 -30 -320 -72 -315 -80 2 -4 33 -9 67 -10 84 -3 141
-16 153 -37 27 -45 42 -56 63 -50 29 10 38 43 16 67 -9 10 -23 19 -31 19 -31
0 -9 19 45 36 46 15 86 19 214 19 l158 -1 -58 25 c-75 33 -183 37 -312 12z"/>
<path d="M8125 1600 c-16 -4 83 -8 220 -8 138 0 237 4 220 8 -16 4 -115 8
-220 8 -104 0 -203 -4 -220 -8z"/>
<path d="M7300 1561 c-28 -5 -31 -8 -17 -14 23 -9 183 -8 217 2 56 16 -120 26
-200 12z"/>
<path d="M11020 1560 c-13 -9 -13 -11 0 -20 19 -12 60 -13 80 0 11 7 9 11 -13
19 -35 13 -48 14 -67 1z"/>
<path d="M4995 1511 c-8 -14 57 -24 96 -16 23 5 28 10 18 16 -19 12 -106 11
-114 0z"/>
<path d="M585 1451 c-22 -4 -75 -15 -118 -25 -43 -9 -154 -20 -247 -25 -186
-9 -220 -20 -220 -66 0 -31 33 -65 63 -65 20 -1 19 -4 -16 -34 -20 -18 -37
-36 -37 -40 0 -3 19 -6 41 -6 34 0 47 6 73 34 45 47 85 57 240 60 75 1 138 5
141 8 3 2 -34 13 -82 23 -140 29 -139 35 9 32 l138 -2 29 -32 c28 -31 34 -33
95 -33 36 0 66 2 66 6 0 3 -25 17 -56 31 -76 34 -58 43 92 43 95 0 124 3 134
15 20 24 4 43 -50 59 -61 18 -238 28 -295 17z"/>
<path d="M5801 1445 c-79 -8 -155 -17 -170 -21 -23 -7 -20 -8 24 -15 91 -13
479 17 539 41 32 13 -228 10 -393 -5z"/>
<path d="M12628 1433 c-39 -10 -15 -23 42 -23 60 0 80 12 38 24 -25 6 -54 6
-80 -1z"/>
<path d="M5370 1390 c-82 -10 -93 -40 -14 -40 56 0 186 21 179 29 -10 9 -117
16 -165 11z"/>
<path d="M8336 1341 c-7 -11 17 -21 54 -21 16 0 35 3 44 6 29 11 5 24 -44 24
-27 0 -51 -4 -54 -9z"/>
<path d="M8846 1341 c-8 -12 60 -21 111 -14 29 4 40 9 31 14 -17 11 -135 11
-142 0z"/>
<path d="M7954 1290 c-80 -35 -67 -60 31 -60 107 0 166 28 135 65 -18 21 -114
18 -166 -5z"/>
<path d="M9222 1303 c-6 -2 -10 -9 -6 -14 7 -12 94 -12 94 0 0 18 -56 27 -88
14z"/>
<path d="M820 1251 c-16 -31 4 -63 37 -59 55 7 55 69 0 76 -18 2 -29 -3 -37
-17z"/>
<path d="M8218 1264 c-40 -12 -14 -24 49 -24 48 0 64 3 56 11 -12 12 -79 20
-105 13z"/>
<path d="M8540 1260 c-33 -21 31 -39 75 -20 19 7 18 9 -8 19 -34 13 -48 14
-67 1z"/>
<path d="M9635 1250 c-9 -29 12 -60 40 -60 29 0 32 19 9 55 -20 30 -40 32 -49
5z"/>
<path d="M4037 1214 c-14 -14 6 -24 48 -24 45 0 67 13 39 24 -21 8 -79 8 -87
0z"/>
<path d="M4483 1132 c-9 -6 -4 -13 16 -25 57 -33 44 -79 -26 -92 -69 -13 -85
-46 -31 -64 72 -25 278 -26 318 -1 24 15 -1 43 -51 58 -71 21 -74 25 -71 72 3
28 -1 46 -10 51 -16 11 -129 11 -145 1z"/>
<path d="M8950 1130 c-218 -23 -305 -58 -112 -46 172 12 386 36 397 47 11 11
-173 10 -285 -1z"/>
<path d="M3991 1102 c-23 -9 -41 -21 -40 -27 7 -18 96 -11 118 9 41 37 -3 47
-78 18z"/>
<path d="M7175 1093 c-65 -6 -145 -24 -145 -32 0 -16 87 -20 210 -11 183 14
250 21 255 30 9 14 -205 23 -320 13z"/>
<path d="M10445 1051 c-16 -32 -25 -67 -25 -95 0 -35 -5 -48 -22 -60 -32 -23
-146 -44 -299 -56 -136 -10 -232 -31 -245 -52 -9 -15 151 -4 334 23 144 21
211 19 234 -8 7 -9 27 -22 45 -30 36 -15 129 -18 137 -4 3 5 -24 44 -59 87
l-65 78 6 76 c8 97 -5 110 -41 41z"/>
<path d="M9067 1003 c-34 -9 -5 -23 48 -23 54 0 79 12 49 24 -17 7 -69 6 -97
-1z"/>
<path d="M11903 1004 c11 -11 251 -54 337 -60 131 -10 56 34 -94 55 -83 12
-253 15 -243 5z"/>
<path d="M7205 978 c-62 -22 -69 -48 -12 -48 36 0 99 29 105 48 5 15 -50 15
-93 0z"/>
<path d="M5908 963 c-42 -11 -12 -23 57 -23 77 0 100 13 44 24 -34 7 -74 6
-101 -1z"/>
<path d="M344 933 c12 -46 35 -75 58 -71 12 2 23 8 25 14 6 19 -42 79 -66 82
-21 3 -23 1 -17 -25z"/>
<path d="M10855 951 c-41 -7 -105 -39 -105 -53 0 -4 17 -8 38 -8 41 0 115 -34
177 -80 75 -56 135 -59 460 -19 409 50 568 101 468 149 -46 21 -189 25 -263 6
-62 -16 -104 -41 -95 -56 24 -39 -238 -87 -332 -61 -54 15 -61 27 -32 57 l22
24 -37 15 c-67 28 -212 41 -301 26z"/>
<path d="M4983 922 c-63 -6 -32 -22 43 -22 41 0 73 4 70 9 -7 10 -67 17 -113
13z"/>
<path d="M5288 923 c-85 -7 -51 -23 47 -23 57 0 95 4 95 10 0 6 -12 10 -27 10
-16 0 -37 2 -48 4 -11 1 -41 1 -67 -1z"/>
<path d="M9530 915 c-10 -13 -10 -19 5 -35 24 -26 38 -25 72 5 24 21 26 26 13
35 -23 15 -76 12 -90 -5z"/>
<path d="M5582 878 c-19 -19 -15 -58 6 -58 19 0 62 34 62 49 0 21 -50 27 -68
9z"/>
<path d="M135 860 c-4 -6 7 -34 23 -63 35 -61 63 -148 86 -267 9 -47 22 -110
28 -140 l11 -55 13 109 c13 117 26 144 50 111 24 -33 36 -94 44 -228 4 -70 9
-129 12 -132 3 -3 10 21 17 52 27 127 42 158 54 113 8 -30 27 -24 27 9 0 45
-63 159 -137 246 -37 44 -88 107 -112 140 -51 69 -91 115 -102 115 -4 0 -11
-5 -14 -10z"/>
<path d="M4003 833 c-29 -11 -10 -23 37 -23 52 0 67 13 28 24 -26 7 -48 7 -65
-1z"/>
<path d="M9525 786 c-18 -13 -18 -14 4 -21 13 -4 39 -4 59 0 l37 8 -30 13
c-39 17 -47 17 -70 0z"/>
<path d="M8960 743 c-273 -25 -366 -36 -374 -43 -15 -14 709 24 761 40 27 8
-309 11 -387 3z"/>
<path d="M5845 701 c-15 -6 -7 -9 32 -12 77 -6 169 1 152 12 -17 11 -157 11
-184 0z"/>
<path d="M7825 694 c-41 -23 -66 -45 -59 -55 8 -14 81 -10 120 6 28 11 35 19
32 37 -4 29 -50 35 -93 12z"/>
<path d="M4915 661 l-30 -7 25 -7 c35 -10 152 -8 168 2 30 18 -93 28 -163 12z"/>
<path d="M5536 662 c-10 -17 24 -51 62 -62 46 -12 132 -13 132 -1 0 10 -107
55 -157 65 -17 4 -34 3 -37 -2z"/>
<path d="M9420 661 c-19 -6 -24 -13 -22 -33 2 -18 -5 -32 -20 -43 -22 -17 -22
-17 27 -11 28 4 131 11 229 16 98 5 181 12 183 14 6 5 -53 22 -147 42 -83 17
-217 26 -250 15z"/>
<path d="M9927 663 c-9 -2 -15 -9 -12 -14 8 -12 145 -12 145 0 0 16 -88 26
-133 14z"/>
<path d="M7220 650 c-14 -9 4 -24 52 -45 36 -14 250 -56 256 -50 34 33 -261
124 -308 95z"/>
<path d="M10635 644 c-583 -58 -878 -134 -521 -134 112 0 207 16 223 37 11 14
49 15 305 12 l293 -4 2 25 c0 14 1 30 2 37 1 6 12 13 26 15 14 2 27 8 28 13 3
15 -199 15 -358 -1z"/>
<path d="M12065 640 c-141 -36 -164 -56 -55 -47 68 6 151 34 164 56 10 16 -26
13 -109 -9z"/>
<path d="M10 593 c0 -20 51 -128 74 -157 42 -52 19 47 -29 130 -27 46 -45 56
-45 27z"/>
<path d="M7782 575 c-41 -7 -76 -16 -80 -19 -3 -3 30 -6 74 -6 98 0 129 -14
129 -57 0 -18 5 -37 12 -44 20 -20 230 -27 663 -20 l425 6 -250 8 c-435 13
-695 35 -695 57 0 31 351 55 900 61 131 2 117 3 -135 14 -382 18 -948 17
-1043 0z"/>
<path d="M5797 574 c-14 -14 6 -24 49 -24 44 0 58 12 28 24 -21 8 -69 8 -77 0z"/>
<path d="M6035 570 c-4 -6 42 -10 130 -10 88 0 134 4 130 10 -4 6 -58 10 -130
10 -72 0 -126 -4 -130 -10z"/>
<path d="M11716 571 c-4 -5 11 -12 33 -16 45 -7 113 3 105 16 -7 12 -131 12
-138 0z"/>
<path d="M9543 533 c-31 -12 -8 -23 47 -23 57 0 78 11 44 24 -18 7 -73 7 -91
-1z"/>
<path d="M11310 531 c-35 -11 84 -18 170 -11 49 4 59 7 40 12 -31 10 -177 8
-210 -1z"/>
<path d="M7390 500 c0 -17 50 -31 136 -37 85 -6 144 2 128 17 -25 24 -264 42
-264 20z"/>
<path d="M3145 486 c-19 -13 -18 -15 15 -21 19 -3 46 -2 60 3 l25 10 -28 11
c-37 14 -49 14 -72 -3z"/>
<path d="M5520 491 c-33 -6 -34 -7 -10 -14 35 -9 182 -9 198 2 27 17 -112 26
-188 12z"/>
<path d="M10872 493 c-18 -2 -30 -9 -27 -14 8 -11 195 -12 195 0 0 18 -81 24
-168 14z"/>
<path d="M6735 441 c-104 -37 -175 -88 -175 -125 0 -13 11 -28 27 -38 l28 -16
-25 -6 c-14 -2 -57 -7 -97 -10 -166 -11 -174 -81 -15 -122 86 -21 183 -4 234
43 18 16 17 17 -3 39 -13 13 -23 41 -26 68 -8 65 27 98 127 120 41 9 93 22
115 28 l40 11 -30 13 c-43 19 -141 16 -200 -5z m-172 -247 c62 -11 41 -24 -38
-24 -41 0 -75 4 -75 9 0 18 53 24 113 15z"/>
<path d="M3775 440 c8 -13 365 -13 385 0 10 6 -53 10 -188 10 -133 0 -201 -3
-197 -10z"/>
<path d="M4699 439 c90 -5 241 -5 335 0 156 7 142 8 -164 8 -300 0 -318 -1
-171 -8z"/>
<path d="M10397 430 c-27 -10 -55 -24 -63 -30 -18 -16 -18 -44 1 -60 13 -11
22 -10 50 3 19 9 35 21 35 26 0 15 83 51 117 51 44 0 69 10 51 21 -24 16 -141
9 -191 -11z"/>
<path d="M2197 434 c-10 -11 -9 -112 2 -118 5 -3 12 1 15 10 13 35 0 124 -17
108z"/>
<path d="M7085 400 c-13 -6 19 -9 90 -9 74 -1 105 2 95 9 -18 12 -157 12 -185
0z"/>
<path d="M9725 400 c-12 -5 64 -9 190 -9 139 -1 205 3 195 9 -18 12 -357 12
-385 0z"/>
<path d="M1185 338 c15 -68 125 -254 125 -210 0 6 -11 46 -25 90 -28 88 -62
145 -89 150 -16 3 -17 -1 -11 -30z"/>
<path d="M7765 361 l-50 -6 80 -7 c103 -9 207 -41 248 -77 60 -52 130 -76 182
-63 l28 8 -39 30 c-59 46 -123 80 -184 98 -63 19 -193 27 -265 17z"/>
<path d="M8465 360 c-17 -4 51 -8 155 -8 124 0 170 3 140 9 -56 10 -255 9
-295 -1z"/>
<path d="M9463 338 c-13 -6 -23 -14 -23 -18 0 -12 66 -67 100 -85 27 -14 31
-14 36 -1 9 23 -15 84 -39 101 -25 17 -43 18 -74 3z"/>
<path d="M6200 54 c-92 -7 -220 -26 -225 -34 -20 -32 507 -22 539 10 5 5 7 12
4 16 -7 7 -244 13 -318 8z"/>
</g>
</svg>
