<?xml version="1.0" standalone="no"?>
<!DOCTYPE svg PUBLIC "-//W3C//DTD SVG 20010904//EN"
 "http://www.w3.org/TR/2001/REC-SVG-20010904/DTD/svg10.dtd">
<svg version="1.0" xmlns="http://www.w3.org/2000/svg"
 width="1280.000000pt" height="640.000000pt" viewBox="0 0 1280.000000 640.000000"
 preserveAspectRatio="xMidYMid meet">
<metadata>
Created by potrace 1.15, written by Peter Selinger 2001-2017
</metadata>
<g transform="translate(0.000000,640.000000) scale(0.100000,-0.100000)"
fill="#000000" stroke="none">
<path d="M11101 5923 c-6 -21 -11 -50 -11 -66 0 -39 -36 -196 -60 -260 -11
-29 -37 -73 -57 -97 -35 -41 -119 -90 -155 -90 -34 0 -27 -19 15 -39 85 -41
156 -143 206 -295 33 -98 61 -243 61 -312 0 -84 18 -52 25 43 15 228 39 314
120 434 45 67 91 104 159 133 48 20 46 36 -4 36 -46 0 -104 26 -137 62 -52 55
-94 192 -108 348 -7 83 -22 140 -35 140 -5 0 -14 -17 -19 -37z"/>
<path d="M7945 5277 c-4 -33 -16 -68 -28 -83 -16 -21 -18 -30 -9 -45 10 -15 6
-22 -27 -48 -43 -35 -57 -37 -85 -16 -27 20 -39 19 -31 -4 3 -10 6 -48 6 -82
1 -52 -6 -82 -36 -154 -61 -150 -212 -407 -312 -533 -28 -35 -33 -48 -28 -72
5 -24 0 -42 -25 -83 -61 -100 -205 -283 -299 -380 -82 -85 -93 -101 -83 -115
23 -32 25 -43 11 -70 -15 -28 -193 -212 -247 -256 -41 -32 -37 -48 18 -76 46
-23 47 -15 -20 -125 -48 -80 -83 -157 -121 -263 -33 -94 -42 -123 -113 -367
-26 -88 -64 -196 -86 -240 -39 -81 -143 -218 -219 -290 -22 -21 -41 -43 -41
-48 0 -35 178 60 247 133 59 61 78 106 103 240 25 132 64 270 110 385 34 86
79 175 89 175 3 0 5 -114 3 -252 -2 -185 -7 -269 -18 -313 -29 -115 -96 -203
-271 -357 -24 -21 -43 -47 -43 -58 0 -11 13 -45 29 -77 16 -32 39 -92 50 -133
11 -41 38 -142 60 -225 69 -253 99 -377 112 -460 11 -69 17 -83 46 -110 18
-16 37 -45 43 -64 l9 -34 -112 6 c-76 3 -130 12 -167 26 -81 29 -172 51 -217
51 -22 0 -82 -9 -134 -19 -52 -11 -157 -26 -234 -35 -77 -9 -218 -25 -312 -36
-214 -25 -300 -26 -333 -4 -14 9 -60 51 -103 93 -69 68 -80 83 -97 141 -11 36
-60 187 -109 335 -54 164 -95 307 -104 365 -29 179 -56 520 -40 520 16 -1 235
-58 240 -64 5 -5 6 -77 1 -151 -3 -38 -2 -40 24 -38 42 3 83 26 86 48 1 11 -6
37 -17 59 -15 29 -18 43 -10 58 6 11 8 26 5 34 -3 8 6 20 24 29 51 26 156 163
216 280 31 61 58 112 60 114 2 2 44 7 94 11 122 11 165 33 275 144 79 79 98
105 143 196 44 91 71 169 96 283 4 18 13 27 26 27 24 0 25 11 4 52 -11 22 -15
53 -14 112 3 110 3 113 -20 136 -12 12 -18 25 -15 31 10 15 46 0 88 -38 49
-44 70 -40 77 12 4 33 9 41 30 43 55 8 60 38 14 98 -18 23 -21 33 -12 42 20
20 -11 45 -46 38 -23 -5 -42 2 -90 33 -34 22 -78 47 -98 57 -21 10 -38 23 -38
30 0 32 -46 65 -105 77 -47 9 -61 16 -64 32 -7 42 -62 48 -87 10 -13 -20 -25
-25 -57 -25 -34 0 -47 7 -93 50 -54 51 -78 59 -117 39 -55 -28 -71 -83 -41
-140 14 -28 14 -33 -3 -62 -11 -18 -41 -47 -68 -65 -28 -17 -51 -36 -53 -42
-5 -14 48 -80 64 -80 7 0 27 21 44 46 18 25 34 44 36 42 2 -2 -8 -40 -22 -83
-19 -62 -26 -111 -30 -214 -6 -138 -19 -191 -50 -191 -8 0 -19 -12 -24 -26
-14 -36 -13 -42 10 -49 23 -7 22 -16 -19 -140 -29 -85 -92 -202 -135 -248
l-26 -28 -43 23 c-52 28 -185 135 -198 159 -7 13 0 39 25 96 38 87 86 229 86
254 0 31 12 49 33 49 19 0 20 4 13 103 -3 57 -3 106 0 110 13 12 44 -14 64
-53 11 -22 25 -40 31 -40 6 0 18 18 27 40 11 25 26 43 43 49 49 17 44 94 -10
168 -27 37 -28 42 -13 57 15 15 15 18 -5 38 -21 21 -23 21 -42 4 -19 -17 -22
-17 -80 11 -52 24 -60 32 -60 56 -1 16 -6 37 -12 49 -13 24 -67 48 -111 48
-38 0 -52 8 -61 33 -8 23 -30 22 -52 -3 -18 -20 -51 -26 -71 -12 -7 4 -19 24
-27 44 -36 87 -96 111 -148 59 -33 -33 -37 -70 -14 -115 8 -15 15 -30 15 -31
0 -2 -18 -18 -41 -35 l-40 -33 -29 28 c-16 15 -32 42 -36 59 -8 38 -36 70 -75
87 -21 8 -29 18 -27 32 3 21 -5 27 -114 88 l-56 31 -6 71 c-3 40 -6 88 -7 107
-1 71 -11 102 -45 140 -20 22 -33 44 -29 50 8 13 42 13 50 0 11 -18 45 -11 54
12 6 16 3 31 -8 48 -9 13 -21 39 -28 58 -10 31 -9 35 8 39 24 7 24 20 -1 61
-11 17 -23 50 -26 71 -5 33 -1 46 26 86 l32 47 -38 -4 -39 -3 2 38 c3 42 -3
44 -47 20 -34 -20 -30 -21 -67 34 -14 20 -8 24 -57 -42 -14 -20 -15 -20 -45 3
-38 27 -41 27 -41 0 0 -41 -14 -51 -60 -44 l-42 7 20 -26 c12 -15 23 -49 27
-83 8 -70 -9 -117 -147 -422 l-88 -194 0 -96 c0 -91 2 -99 38 -170 21 -41 44
-85 52 -98 14 -22 13 -25 -17 -50 -17 -15 -38 -44 -47 -64 -10 -25 -30 -47
-62 -67 l-48 -29 -28 23 c-15 13 -36 26 -47 30 -16 5 -18 13 -14 43 5 34 2 39
-22 50 -35 16 -30 46 8 50 25 3 28 7 25 35 -2 26 -9 33 -35 41 -32 9 -41 23
-57 99 -6 24 -4 27 20 27 26 0 26 1 22 49 -3 28 -12 61 -22 75 -14 22 -24 26
-66 26 l-50 0 0 35 c0 45 -15 51 -71 26 -24 -12 -63 -21 -86 -21 -48 0 -54 10
-52 86 1 27 -4 62 -10 78 -10 25 -9 32 11 53 l22 24 -29 23 c-27 22 -28 24
-12 46 13 19 14 27 5 38 -10 11 -8 17 7 28 16 12 22 12 43 -2 27 -18 52 -12
52 12 0 9 -13 36 -30 61 -16 24 -30 48 -30 52 0 4 -9 16 -19 25 -23 21 -18 44
12 48 34 5 31 27 -7 63 -36 34 -47 65 -23 65 21 0 35 14 42 43 7 25 5 27 -23
27 -26 0 -31 4 -37 33 -8 37 -38 72 -77 93 -16 8 -28 23 -28 34 0 29 -32 42
-58 24 -12 -8 -19 -21 -16 -28 3 -8 -15 -28 -45 -49 -32 -23 -54 -48 -62 -71
-8 -22 -20 -36 -33 -38 -18 -3 -21 -10 -21 -58 0 -46 -7 -68 -44 -135 -48 -87
-121 -192 -190 -269 l-43 -49 36 -31 36 -31 -30 -46 c-46 -70 -70 -148 -70
-229 0 -76 -21 -131 -120 -320 -53 -102 -260 -379 -297 -398 -41 -22 -134 -52
-160 -52 -18 0 -23 -5 -21 -17 1 -10 -10 -30 -25 -45 -15 -15 -27 -35 -27 -46
0 -22 -66 -62 -104 -62 -37 0 -32 -18 7 -22 l32 -4 -35 -17 c-28 -13 -31 -16
-13 -17 12 0 34 5 50 10 l28 10 -29 -22 -28 -21 22 -17 22 -17 -40 -84 c-56
-115 -83 -195 -132 -389 -75 -299 -118 -396 -216 -495 -62 -62 -144 -105 -202
-105 l-25 0 23 -25 c12 -13 45 -32 72 -41 62 -20 90 -10 155 55 55 55 101 148
113 228 8 62 91 265 162 398 l43 80 8 -95 c5 -52 9 -156 10 -230 2 -121 0
-140 -20 -183 -35 -76 -118 -172 -204 -238 -43 -32 -85 -69 -93 -81 -24 -34
-19 -93 15 -193 60 -180 114 -518 106 -672 -3 -54 -6 -107 -8 -117 -3 -14 3
-21 21 -26 31 -7 51 -48 55 -107 2 -24 6 -47 9 -50 16 -17 0 -23 -58 -23 -86
0 -207 -17 -285 -40 -50 -15 -68 -16 -88 -7 -18 8 -39 8 -82 -1 -31 -7 -70
-12 -86 -12 -16 0 -52 -13 -80 -29 -79 -45 -147 -61 -254 -61 -85 0 -100 -3
-132 -24 -19 -13 -61 -29 -93 -35 -33 -6 -81 -25 -114 -46 -91 -56 -106 -70
-98 -90 6 -16 27 -17 309 -14 166 2 1173 0 2237 -4 1218 -6 2683 -5 3955 2
1111 6 2982 13 4158 17 1175 4 2137 10 2137 15 0 4 -10 11 -22 14 -13 4 -35
18 -49 31 -16 16 -50 29 -94 39 -44 9 -80 24 -104 43 -29 23 -50 30 -106 35
-38 4 -115 21 -169 37 -60 18 -121 30 -155 30 -31 0 -87 6 -126 15 -38 8 -113
23 -165 32 -95 18 -95 18 -96 48 -1 21 7 37 25 52 36 30 23 39 -90 68 -163 41
-236 71 -397 161 -86 48 -182 101 -212 117 l-55 30 -60 -40 c-33 -22 -118 -75
-190 -117 -199 -120 -182 -106 -159 -123 16 -11 20 -29 22 -98 l4 -83 -114 -5
c-62 -2 -175 -10 -251 -17 -108 -11 -150 -11 -195 -2 -83 17 -340 1 -407 -26
-94 -37 -276 -54 -306 -30 -9 7 -31 33 -49 58 -18 25 -57 70 -86 100 -42 44
-61 75 -92 155 -22 55 -61 145 -87 200 -176 373 -245 615 -245 856 l0 86 118
7 c64 3 132 9 150 12 39 8 41 -4 7 -44 -18 -21 -21 -32 -13 -40 8 -8 7 -13 -5
-18 -9 -3 -17 -10 -17 -14 0 -11 40 -25 63 -21 11 1 17 -4 17 -17 0 -11 7 -25
15 -32 12 -10 15 -7 20 14 3 14 8 38 12 53 6 26 7 26 10 6 3 -12 0 -38 -6 -57
-5 -20 -5 -36 -1 -36 14 0 23 67 16 123 -14 112 -10 128 47 176 91 78 145 139
172 191 35 69 58 90 100 90 51 0 177 43 230 79 25 17 49 31 53 32 11 1 111
133 154 203 62 99 98 214 113 358 5 53 10 67 25 71 11 3 21 -1 24 -10 5 -12 9
-13 21 -3 11 9 15 9 15 1 0 -7 5 -9 11 -5 18 11 4 118 -20 158 -12 18 -18 41
-15 50 8 20 9 20 44 -6 29 -21 30 -21 51 -2 12 10 29 18 39 16 43 -7 46 77 5
135 -13 18 -13 26 -3 42 18 29 -2 49 -35 34 -20 -10 -34 -4 -104 43 -63 41
-83 60 -88 82 -12 54 -59 83 -185 111 -134 31 -130 29 -124 60 8 38 -18 77
-62 91 -30 10 -39 9 -70 -11 -34 -21 -73 -84 -74 -119 0 -8 -10 -20 -22 -25
-16 -7 -24 -20 -26 -42 -4 -38 -27 -62 -44 -45 -7 7 -19 12 -27 12 -12 0 -12
-3 -3 -12 21 -21 13 -31 -23 -25 -19 3 -37 2 -40 -3 -6 -9 18 -20 46 -20 10 0
19 -4 19 -10 0 -10 -19 -14 -55 -12 -19 2 -19 1 2 -17 16 -13 19 -21 11 -29
-13 -13 33 -28 57 -18 20 7 19 -4 -2 -21 -13 -10 -15 -16 -5 -19 19 -8 14 -58
-8 -87 -24 -30 -25 -41 -6 -70 8 -12 19 -49 25 -82 8 -53 7 -62 -9 -75 -25
-21 -33 -55 -19 -77 9 -15 6 -34 -14 -94 -50 -149 -157 -359 -206 -403 -19
-18 -21 -17 -58 5 -69 42 -151 110 -202 169 -97 112 -231 352 -231 415 0 33
-2 35 -35 35 -40 0 -41 2 -20 34 8 12 18 49 21 82 5 48 2 70 -14 106 -18 41
-67 98 -84 98 -4 0 -19 5 -34 10 l-27 11 37 38 c23 24 37 46 34 57 -2 11 -29
33 -66 53 -66 34 -95 74 -91 124 6 69 -2 98 -36 136 -29 32 -35 44 -29 66 7
27 6 27 -42 25 -112 -6 -134 10 -134 95 0 30 -5 66 -12 80 -10 23 -8 29 18 58
67 72 67 77 -12 138 -60 46 -71 72 -26 63 30 -6 82 10 82 26 0 5 -6 10 -13 10
-42 0 -66 93 -27 105 25 8 26 37 1 59 -27 25 -24 119 7 167 12 20 22 39 22 43
0 3 -18 3 -39 0 -33 -5 -45 -2 -75 22 -21 17 -36 38 -36 50 0 12 -6 27 -14 33
-8 7 -17 35 -21 64 -11 80 -22 89 -30 24z m-240 -976 c-19 -46 -35 -88 -35
-95 0 -7 11 -36 25 -64 31 -64 31 -63 1 -91 -14 -13 -32 -38 -40 -56 -11 -23
-26 -35 -55 -43 -39 -12 -71 -43 -115 -112 -14 -23 -31 -36 -49 -38 l-27 -3
32 68 c18 37 45 91 61 118 16 28 52 95 80 150 48 95 101 190 135 245 30 47 22
3 -13 -79z m-4577 -168 c-3 -59 -16 -74 -47 -54 -10 6 -11 21 -6 60 6 46 9 51
31 51 24 0 25 -2 22 -57z m47 -9 c3 -26 9 -53 12 -60 3 -9 -2 -14 -16 -14 -19
0 -21 6 -21 60 0 71 15 79 25 14z m-947 -21 c-7 -16 -59 -122 -116 -236 -97
-196 -106 -210 -149 -238 -26 -16 -51 -29 -56 -29 -8 0 45 79 125 185 21 28
73 116 116 197 42 81 80 148 85 148 4 0 1 -12 -5 -27z m29 -110 c15 -12 14
-18 -10 -65 -15 -30 -27 -65 -27 -80 0 -22 -6 -27 -35 -32 -27 -5 -40 -16 -60
-50 -14 -23 -25 -50 -25 -60 0 -14 -39 -39 -48 -31 -2 2 38 88 89 192 71 144
94 182 97 163 2 -14 11 -31 19 -37z m6026 45 c23 -17 27 -61 6 -66 -9 -1 -26
6 -39 16 -19 16 -21 22 -11 40 13 25 21 27 44 10z m-4050 -52 c37 -27 34 -32
-15 -28 -53 5 -63 14 -48 41 11 22 15 22 63 -13z m4111 -12 c6 -24 2 -43 -8
-33 -11 10 -17 59 -8 59 5 0 13 -12 16 -26z m-3992 -41 c18 -16 25 -53 10 -53
-16 0 -54 48 -47 59 9 15 15 14 37 -6z m588 -312 c0 -18 -94 -94 -143 -116
-65 -29 -107 -39 -107 -25 0 17 73 92 119 122 32 20 58 28 88 28 24 0 43 -4
43 -9z m960 -31 c0 -10 -153 -121 -159 -115 -10 10 68 90 103 106 47 21 56 23
56 9z m-980 -50 c-70 -62 -160 -110 -222 -117 -42 -4 -51 -3 -41 7 6 7 33 16
60 21 60 11 142 53 191 95 20 18 42 33 47 33 6 0 -10 -18 -35 -39z m5060 -25
c0 -31 -198 -170 -216 -152 -6 6 28 73 53 104 37 46 163 83 163 48z m-4087
-22 c-9 -16 -32 -45 -50 -66 -35 -39 -36 -57 -3 -57 10 0 22 -4 25 -10 3 -5
15 -10 26 -10 21 0 37 30 46 88 6 35 17 42 27 16 12 -31 6 -65 -24 -131 -36
-78 -36 -83 -9 -83 25 0 21 -15 -29 -115 -68 -137 -184 -278 -272 -332 -39
-24 -138 -55 -150 -48 -10 6 46 159 61 164 6 2 19 17 30 35 l19 31 0 -32 c0
-23 4 -31 16 -29 25 4 36 33 32 82 -2 24 0 44 4 44 7 0 24 -50 31 -90 2 -14 5
-5 6 20 0 25 -5 54 -12 65 -7 11 -14 51 -15 89 -1 45 -7 75 -16 84 -12 13 -12
20 0 55 8 23 25 52 37 66 32 35 219 191 229 191 5 0 1 -12 -9 -27z m-108 -38
c-60 -54 -95 -74 -59 -34 20 23 105 89 114 88 3 0 -22 -24 -55 -54z m-922
-100 c-57 -114 -120 -210 -136 -207 -5 1 -30 45 -56 99 -58 119 -56 137 16
147 54 8 132 41 190 80 56 39 54 16 -14 -119z m5124 28 c-13 -21 -34 -47 -46
-57 -33 -30 -25 -40 14 -17 41 24 42 20 14 -25 -16 -27 -17 -33 -5 -28 9 4 16
1 16 -6 0 -14 -50 -134 -86 -207 -39 -78 -152 -213 -214 -255 -54 -37 -146
-75 -157 -65 -2 3 13 47 35 99 22 51 54 138 72 192 30 90 34 98 46 81 19 -26
17 -56 -6 -122 -11 -31 -17 -59 -14 -62 4 -3 8 -1 11 4 2 6 8 17 13 25 8 13
11 12 24 -5 11 -16 17 -17 29 -7 10 9 17 10 22 2 11 -18 22 -2 29 44 5 34 2
54 -13 83 -10 21 -22 61 -25 88 -5 42 -4 46 5 28 20 -38 29 -26 29 35 l0 59
73 46 c39 25 90 64 112 87 46 47 57 39 22 -17z m-5053 -31 c-14 -64 -69 -222
-96 -276 l-30 -59 -24 29 c-41 50 -40 67 9 141 24 38 58 96 75 130 30 58 47
76 65 66 4 -2 4 -16 1 -31z m4961 29 c-32 -29 -101 -71 -117 -71 -33 0 -19 15
45 47 62 32 90 41 72 24z m182 -28 c-3 -10 -5 -4 -5 12 0 17 2 24 5 18 2 -7 2
-21 0 -30z m-5415 -141 c55 -118 43 -125 -15 -8 -50 103 -53 111 -36 100 6 -4
29 -45 51 -92z m3978 13 c35 -115 154 -290 294 -434 l81 -83 -43 5 c-91 11
-203 117 -267 252 -23 50 -95 282 -95 308 0 21 17 -7 30 -48z m-3974 -153
c-13 -13 -16 -13 -20 -1 -2 8 -16 50 -30 94 -14 44 -26 85 -25 90 0 6 20 -30
45 -79 41 -80 44 -90 30 -104z m1298 47 c-67 -236 -219 -429 -378 -482 -43
-15 -166 -24 -166 -13 0 2 9 24 20 48 19 43 23 46 74 56 169 34 315 188 442
467 38 84 43 44 8 -76z m4012 -39 c-27 -120 -70 -210 -152 -319 -87 -116 -219
-190 -341 -191 l-31 0 21 55 c21 52 26 57 75 75 102 39 148 69 221 145 85 90
132 160 186 278 22 47 41 82 43 78 2 -5 -8 -59 -22 -121z m-1220 -13 c53 -93
175 -221 267 -282 57 -38 67 -57 33 -63 -39 -8 -278 264 -342 390 -39 77 -11
48 42 -45z m-3998 -25 c33 -50 38 -62 23 -62 -7 0 -71 95 -71 106 0 15 20 -3
48 -44z m842 2 c0 -18 -36 -90 -49 -98 -10 -6 2 53 19 98 10 28 30 27 30 0z
m-865 -44 c35 -58 36 -62 21 -85 -9 -14 -20 -25 -24 -25 -4 0 -22 29 -40 65
-26 52 -30 70 -22 85 6 11 15 20 20 20 5 0 25 -27 45 -60z m150 -99 c35 -32
88 -73 119 -90 54 -32 65 -51 26 -51 -32 0 -220 161 -220 189 0 19 11 12 75
-48z m-45 -27 c25 -25 71 -66 103 -91 31 -24 55 -48 52 -53 -12 -19 -75 -21
-112 -1 -43 22 -133 109 -133 129 0 15 29 62 39 62 4 0 27 -21 51 -46z m-2570
-657 c0 -41 -9 -71 -40 -136 -48 -98 -52 -126 -15 -91 l25 23 0 -22 c0 -19 4
-22 24 -17 21 5 23 3 20 -22 -2 -19 -22 -45 -68 -87 -36 -33 -66 -63 -66 -67
0 -12 42 -9 96 7 60 18 155 91 189 145 14 22 32 40 41 40 8 0 14 6 12 13 -3
19 11 67 21 67 5 0 4 -20 -1 -45 -13 -59 -6 -80 22 -65 38 20 20 -5 -50 -70
-85 -80 -89 -99 -31 -186 24 -35 56 -108 80 -179 22 -66 48 -140 57 -165 24
-67 93 -353 106 -440 9 -64 15 -80 44 -110 19 -20 34 -41 34 -47 0 -20 -78
-44 -121 -37 -33 6 -48 16 -82 59 -105 131 -140 189 -179 293 -22 59 -44 112
-49 118 -5 6 -36 85 -68 175 -32 90 -82 222 -110 293 -71 179 -70 223 20 505
30 97 33 101 60 101 28 0 29 -1 29 -53z m-344 -109 c21 -68 26 -247 10 -343
l-8 -51 76 -89 c103 -120 156 -212 206 -358 62 -181 73 -239 53 -296 -11 -33
-12 -46 -4 -49 26 -9 75 -58 87 -89 25 -58 22 -60 -73 -66 -49 -3 -150 -11
-226 -17 -131 -11 -141 -10 -209 11 -39 12 -97 25 -130 28 -58 7 -61 9 -144
92 -47 46 -96 100 -108 119 -35 53 -57 224 -63 490 -6 248 5 388 36 430 10 15
92 63 202 120 102 52 200 107 219 122 42 33 51 27 76 -54z m5515 -110 c-13
-68 -1 -78 90 -78 37 0 70 -3 72 -8 3 -4 -2 -25 -10 -47 -8 -22 -17 -57 -20
-77 -5 -34 -3 -37 19 -34 62 8 75 46 43 123 -8 20 -13 39 -9 42 7 8 217 6 238
-2 13 -5 12 -13 -9 -56 -14 -27 -25 -56 -25 -64 0 -22 19 -31 26 -13 8 20 24
21 24 1 0 -13 4 -13 23 -3 12 7 23 13 25 14 1 0 -4 16 -12 35 -32 80 -32 79
19 79 46 0 47 -1 42 -27 -3 -16 -10 -43 -15 -61 -10 -31 -9 -33 21 -46 28 -12
34 -12 45 2 13 17 8 71 -10 106 -6 10 -6 22 -1 26 11 12 117 25 111 14 -3 -5
-13 -27 -23 -49 -10 -22 -25 -48 -34 -59 -15 -18 -15 -18 7 -12 16 6 22 3 22
-8 0 -9 9 -16 20 -16 11 0 20 7 20 15 0 8 5 15 11 15 6 0 9 -9 6 -20 -3 -11
-1 -20 4 -20 14 0 11 64 -6 103 -8 20 -15 39 -15 42 0 7 76 6 123 -1 22 -4 37
-12 37 -20 0 -8 -4 -14 -10 -14 -5 0 -10 5 -10 10 0 33 -56 -25 -88 -91 -1 -4
6 -9 18 -12 29 -8 25 -26 -20 -81 -38 -46 -40 -51 -34 -100 4 -37 -4 -101 -30
-231 -48 -241 -98 -388 -157 -464 -25 -32 -24 -49 6 -77 15 -14 25 -34 25 -51
0 -26 -4 -29 -53 -41 -29 -6 -83 -12 -119 -12 -78 0 -81 3 -156 114 -36 55
-56 102 -95 230 -27 89 -68 206 -92 261 -39 91 -94 228 -132 330 -35 93 -4
287 66 420 l26 50 3 -42 c2 -23 -1 -66 -7 -95z m-3311 105 c14 -9 37 -27 51
-40 25 -23 25 -25 13 -71 -7 -26 -20 -65 -28 -87 -21 -56 -18 -78 4 -30 l19
40 0 -37 c1 -40 19 -52 28 -18 3 11 9 20 14 20 5 0 9 -9 9 -20 0 -22 1 -23 24
-14 19 7 20 35 4 80 -9 25 -9 39 0 56 6 13 12 31 14 41 3 18 93 75 103 65 6
-6 -18 -182 -36 -263 -30 -137 -44 -182 -70 -224 -43 -67 -49 -100 -49 -270 0
-183 -28 -379 -65 -452 l-24 -46 35 -29 c21 -18 37 -41 40 -60 6 -32 6 -32
-46 -39 l-51 -7 -37 43 c-20 24 -58 67 -84 95 -26 28 -63 80 -81 115 -30 57
-89 228 -131 379 -9 30 -31 107 -50 170 -49 162 -72 279 -92 482 l-6 67 48 30
c27 17 55 31 63 31 19 0 121 -70 122 -84 3 -40 -5 -106 -17 -135 -8 -18 -14
-43 -14 -55 1 -21 1 -21 15 -2 15 19 15 19 15 -2 0 -13 6 -22 15 -22 8 0 15 7
15 15 0 19 16 19 24 0 5 -13 8 -13 25 2 19 16 19 17 1 65 -10 26 -14 51 -9 54
5 3 9 19 9 35 0 32 39 73 109 116 43 27 40 27 71 6z m3007 -40 c46 -108 56
-195 37 -317 -8 -56 -12 -110 -10 -121 3 -11 33 -51 65 -90 42 -48 83 -115
135 -220 108 -216 119 -254 113 -393 -4 -107 -3 -113 17 -124 61 -31 101 -97
52 -84 -50 12 -312 26 -386 20 -43 -4 -102 -4 -133 0 -55 7 -56 8 -122 89 -75
91 -142 223 -180 352 -49 171 -100 517 -93 639 l3 58 60 23 c99 37 327 150
370 183 22 17 43 32 46 32 4 0 16 -21 26 -47z m-4796 -50 c-10 -17 -10 -16
-11 3 0 23 13 41 18 25 2 -6 -1 -18 -7 -28z m2766 0 c-3 -10 -5 -4 -5 12 0 17
2 24 5 18 2 -7 2 -21 0 -30z m-2804 12 c-3 -9 -8 -14 -10 -11 -3 3 -2 9 2 15
9 16 15 13 8 -4z m1146 -97 c11 -35 31 -123 45 -196 16 -92 30 -141 43 -155
25 -29 93 -137 128 -207 62 -122 169 -460 151 -478 -3 -2 -22 6 -42 19 -40 27
-69 78 -177 314 -38 82 -73 155 -77 160 -5 6 -39 71 -75 145 -75 151 -78 169
-51 320 9 47 16 97 16 113 0 46 17 30 39 -35z m1155 -42 c42 -91 82 -218 96
-299 9 -53 21 -90 39 -115 15 -20 36 -57 48 -82 23 -51 111 -370 138 -502 4
-19 17 -34 44 -47 23 -12 43 -32 51 -51 7 -17 11 -32 9 -34 -3 -3 -620 -37
-656 -36 -31 0 -93 166 -93 247 0 105 90 478 160 668 23 61 46 125 51 143 18
58 68 162 78 162 6 0 21 -24 35 -54z m-1601 12 c-3 -18 -20 -60 -38 -93 -29
-53 -34 -73 -39 -165 -4 -58 -14 -136 -21 -175 -19 -94 -107 -357 -120 -357
-26 2 -149 631 -132 675 3 8 42 27 86 42 45 15 120 44 168 65 49 21 91 39 95
39 4 1 5 -14 1 -31z m5583 -4 c10 -14 37 -92 61 -172 53 -179 77 -231 135
-302 143 -174 245 -430 236 -590 -3 -53 -2 -55 24 -58 28 -3 68 -44 68 -68 0
-17 13 -17 -145 1 -119 13 -160 20 -280 46 -63 13 -169 10 -324 -10 -79 -10
-152 -16 -162 -14 -28 8 -77 89 -85 140 -4 27 -2 60 5 82 6 20 40 131 76 246
69 226 134 412 162 460 9 17 44 62 76 100 32 39 73 91 90 118 16 26 34 47 38
47 5 0 16 -12 25 -26z m-5355 -26 c0 -2 4 -68 8 -148 5 -81 13 -156 20 -168 6
-12 37 -50 68 -85 77 -86 131 -187 274 -513 38 -87 44 -95 83 -113 26 -11 51
-32 64 -53 36 -57 32 -62 -50 -55 -158 14 -257 29 -344 53 -99 26 -168 30
-276 13 -82 -13 -74 -18 -147 104 -29 47 -41 79 -41 105 0 62 35 188 106 382
37 102 76 217 87 255 10 39 28 87 39 108 28 56 104 136 109 115z m7844 -768
c7 -12 -40 -80 -56 -80 -5 0 -9 27 -9 60 l0 61 29 -16 c17 -8 33 -20 36 -25z
m-109 -68 c-8 -8 -56 39 -56 54 0 8 12 20 28 28 l27 14 3 -45 c2 -25 1 -48 -2
-51z m178 42 c24 -9 19 -20 -18 -43 -60 -37 -88 -21 -44 26 22 24 35 27 62 17z
m-238 -21 c20 -27 17 -33 -15 -33 -35 0 -56 21 -39 38 17 17 39 15 54 -5z
m144 -148 c57 -47 60 -52 58 -90 -2 -30 -7 -39 -18 -36 -8 2 -73 6 -145 10
-123 6 -130 7 -127 26 2 11 9 26 15 34 24 29 132 111 144 108 7 -1 39 -24 73
-52z m228 -37 c-2 -25 -8 -33 -23 -33 -20 0 -31 25 -21 51 3 8 15 14 26 14 18
0 21 -5 18 -32z"/>
<path d="M7458 1860 c-14 -27 -21 -50 -16 -50 4 0 6 -11 2 -25 -6 -25 9 -35
21 -15 4 6 11 7 17 4 13 -8 27 14 29 46 l1 25 8 -25 8 -25 1 24 c1 19 -33 91
-44 91 -1 0 -14 -22 -27 -50z"/>
<path d="M7710 1864 c-24 -55 -26 -76 -5 -48 15 18 15 18 10 -7 -6 -23 -3 -25
29 -26 20 -1 39 3 42 9 7 11 -35 118 -47 118 -4 0 -17 -21 -29 -46z"/>
</g>
</svg>
