<?xml version="1.0" standalone="no"?>
<!DOCTYPE svg PUBLIC "-//W3C//DTD SVG 20010904//EN"
 "http://www.w3.org/TR/2001/REC-SVG-20010904/DTD/svg10.dtd">
<svg version="1.0" xmlns="http://www.w3.org/2000/svg"
 width="1280.000000pt" height="943.000000pt" viewBox="0 0 1280.000000 943.000000"
 preserveAspectRatio="xMidYMid meet">
<metadata>
Created by potrace 1.15, written by Peter Selinger 2001-2017
</metadata>
<g transform="translate(0.000000,943.000000) scale(0.100000,-0.100000)"
fill="#000000" stroke="none">
<path d="M7200 9401 c-11 -17 -24 -48 -27 -68 -9 -61 -76 -178 -183 -323 -96
-129 -173 -264 -185 -322 -8 -40 -64 -65 -169 -76 -48 -5 -90 -13 -94 -16 -3
-4 8 -18 26 -32 43 -34 69 -120 53 -175 -16 -53 -50 -63 -172 -49 -155 17
-303 65 -345 111 -24 26 -20 65 8 94 44 43 70 170 87 420 9 126 8 157 -2 144
-70 -82 -186 -250 -213 -305 -19 -41 -43 -78 -53 -83 -62 -34 -193 -17 -199
25 -2 17 7 26 45 43 128 58 151 79 160 148 12 92 -92 133 -174 67 -21 -17 -59
-65 -85 -108 -69 -114 -94 -143 -134 -156 -43 -14 -54 -40 -54 -120 0 -79 -10
-84 -138 -71 -53 6 -155 13 -227 16 -205 9 -234 13 -262 41 -21 21 -24 31 -18
63 13 78 -36 128 -187 193 -160 69 -340 101 -354 63 -9 -23 13 -43 89 -82 82
-41 117 -73 117 -107 0 -87 -158 -71 -410 43 -147 65 -222 88 -264 77 -56 -14
-13 -67 116 -141 136 -79 145 -95 51 -95 -75 0 -155 25 -207 65 -59 45 -72 51
-139 65 -48 10 -82 9 -195 -5 -75 -10 -146 -21 -157 -25 -13 -5 67 -36 274
-105 161 -53 291 -98 289 -100 -6 -6 -279 -35 -330 -35 -63 0 -76 7 -74 40 3
69 -178 81 -429 28 -127 -27 -173 -32 -300 -33 -182 -2 -172 -1 -185 -24 -15
-28 -2 -50 34 -59 l31 -9 -35 -21 c-19 -12 -79 -38 -135 -58 -55 -20 -103 -39
-108 -43 -4 -4 32 -29 80 -56 112 -61 145 -84 138 -96 -4 -5 -45 -9 -93 -10
-124 -1 -261 -14 -273 -26 -31 -31 60 -95 167 -118 216 -46 703 34 808 132
l29 26 -23 19 c-14 11 -40 18 -69 19 -69 1 -134 13 -138 25 -2 6 19 42 46 79
28 38 48 71 46 73 -2 3 -53 -25 -113 -61 -133 -81 -187 -106 -229 -107 -29 0
-33 3 -33 28 0 45 50 114 106 143 72 39 150 52 321 53 141 1 154 -1 173 -20
20 -19 20 -24 8 -92 -11 -64 -10 -74 4 -89 20 -20 88 -32 186 -32 87 -1 195
-24 240 -51 37 -23 72 -75 72 -107 0 -13 -9 -32 -20 -43 -24 -24 -56 -25 -226
-8 -146 14 -167 7 -179 -64 -8 -46 -51 -98 -82 -98 -10 0 -74 -7 -143 -15 -69
-8 -235 -24 -370 -35 -343 -28 -390 -40 -390 -103 0 -55 -42 -84 -190 -132
-95 -30 -134 -51 -125 -66 4 -5 29 -21 56 -34 56 -29 63 -54 27 -101 -12 -16
-121 -130 -242 -254 -440 -449 -875 -924 -947 -1034 -42 -64 -57 -108 -69
-202 -10 -77 -31 -111 -79 -124 -91 -24 -191 -140 -291 -338 -41 -81 -60 -142
-44 -142 5 0 40 33 79 74 63 66 77 76 139 95 39 12 95 21 132 21 78 0 159 17
175 36 20 24 -3 59 -48 72 -40 12 -63 42 -63 81 0 87 335 401 428 401 35 0 46
25 34 81 -13 67 -1 109 43 148 62 54 144 64 258 32 41 -12 67 -16 67 -9 0 6
-26 39 -59 73 -100 107 -129 202 -75 244 22 18 41 21 115 21 105 0 115 3 134
44 9 18 46 70 83 115 104 127 106 130 101 135 -3 3 -28 -2 -57 -10 -67 -20
-102 -13 -102 20 0 35 49 79 115 104 96 37 115 29 130 -50 4 -20 15 -44 24
-52 15 -14 20 -14 46 0 54 28 136 95 148 121 10 23 8 28 -31 62 -23 20 -42 43
-42 52 0 17 95 110 131 130 24 12 24 3 3 -66 -21 -65 -13 -105 20 -105 25 0
56 28 56 51 0 25 51 66 122 98 80 36 108 72 108 142 0 35 7 56 28 85 53 72
154 134 221 134 35 0 43 -4 56 -30 46 -89 115 -74 290 60 45 35 78 36 83 3 5
-38 36 -36 140 5 131 53 155 58 177 36 30 -31 7 -172 -62 -374 -49 -145 -114
-240 -164 -240 -11 0 -39 10 -62 22 -92 49 -409 16 -449 -45 -13 -20 14 -49
65 -71 75 -34 61 -39 -243 -86 -282 -44 -404 -77 -398 -108 5 -25 56 -34 154
-28 107 7 198 29 236 56 15 11 39 20 53 20 64 0 236 -118 222 -153 -3 -9 -24
-25 -46 -37 -57 -29 -74 -66 -66 -146 10 -87 2 -112 -38 -122 -27 -7 -32 -13
-31 -38 0 -16 4 -37 8 -46 13 -29 -22 -38 -97 -27 -36 6 -85 9 -108 7 -41 -3
-44 -5 -44 -32 -1 -27 -25 -56 -58 -69 -23 -10 13 -24 80 -31 103 -11 126 -31
80 -74 -37 -34 -91 -52 -209 -66 -125 -16 -158 -33 -169 -87 -9 -42 -51 -79
-90 -79 -42 0 -84 -44 -92 -97 -17 -104 -140 -112 -202 -13 -14 22 -30 40 -35
40 -6 0 -48 -36 -95 -79 -68 -64 -94 -82 -138 -95 -45 -13 -71 -31 -146 -101
-182 -170 -487 -378 -587 -399 -27 -6 -38 -2 -68 25 -20 17 -38 30 -41 28 -2
-2 3 -36 11 -76 13 -63 13 -75 0 -107 -18 -43 -62 -65 -140 -72 -61 -6 -76 2
-85 47 l-7 34 -91 -88 c-174 -169 -391 -451 -443 -574 -65 -156 -108 -390 -81
-441 17 -33 54 -28 86 11 15 17 34 36 41 40 22 12 89 -10 227 -75 147 -69 159
-68 132 12 -22 66 -14 99 26 107 36 7 54 32 68 93 16 73 68 100 192 100 73 0
87 9 113 72 18 41 23 93 12 126 -5 16 -20 25 -52 33 -44 11 -44 12 -27 31 10
11 50 36 88 55 133 67 324 220 650 524 242 225 271 250 360 321 243 191 400
259 648 277 129 10 166 25 177 72 13 53 247 203 584 374 463 233 654 288 1051
301 137 5 174 3 188 -8 16 -12 17 -17 6 -41 -23 -51 -17 -52 332 -50 175 1
319 -2 319 -6 0 -5 -46 -23 -102 -41 -193 -61 -238 -96 -257 -201 -7 -40 -24
-84 -47 -121 -47 -77 -53 -101 -63 -243 -17 -229 21 -645 73 -809 12 -40 36
-93 53 -117 57 -83 66 -109 65 -183 -2 -81 12 -119 83 -221 27 -38 81 -137
120 -220 84 -173 145 -260 216 -305 65 -42 96 -84 110 -149 14 -67 76 -146
143 -180 66 -34 81 -23 81 56 0 50 -7 73 -42 144 -23 46 -58 100 -78 119 -33
32 -41 35 -97 35 -53 1 -63 4 -84 28 -31 36 -30 58 2 97 31 36 43 88 33 145
-26 150 176 258 630 335 95 16 177 28 181 25 4 -3 11 -17 14 -32 21 -87 195
-604 236 -699 84 -196 159 -304 210 -304 11 0 29 14 42 30 13 19 31 30 45 30
29 0 106 -71 183 -169 30 -38 58 -70 63 -70 4 -1 7 39 7 89 0 105 19 165 55
174 28 7 58 54 84 128 32 93 38 99 96 92 40 -5 59 -2 89 14 30 16 44 19 64 11
38 -15 45 -21 133 -136 71 -92 165 -183 190 -183 13 0 11 24 -6 56 -22 42 -18
72 10 98 49 45 29 82 -119 229 -125 125 -160 183 -160 272 -1 46 5 71 24 105
23 41 29 45 70 50 57 7 70 15 70 45 0 29 -43 65 -77 65 -37 0 -78 25 -113 70
-34 43 -86 168 -96 233 -9 50 7 49 87 -5 75 -51 113 -101 105 -139 -11 -55 57
-78 299 -104 168 -18 215 -34 215 -71 0 -28 -31 -44 -84 -44 -41 0 -86 -34
-86 -64 0 -33 24 -61 83 -94 97 -55 163 -150 193 -279 29 -124 3 -234 -79
-331 l-37 -44 2 -219 c3 -183 1 -221 -12 -233 -11 -11 -60 -18 -180 -26 -282
-19 -293 -25 -303 -164 -7 -94 -25 -141 -63 -158 -53 -24 -112 28 -134 116
-16 67 -51 127 -113 192 -114 123 -224 165 -203 78 4 -16 19 -30 40 -39 53
-22 61 -39 60 -129 -1 -89 -17 -134 -58 -161 -45 -30 -97 10 -133 102 -56 146
-165 329 -202 341 -11 4 -13 -6 -7 -49 3 -30 9 -104 12 -166 7 -120 -2 -165
-37 -184 -45 -24 -82 30 -124 181 -32 112 -73 196 -132 269 -53 65 -79 113
-88 164 -4 20 -11 37 -15 37 -5 0 -25 -23 -45 -51 -48 -67 -87 -83 -180 -74
-78 7 -111 -1 -157 -40 -35 -29 -92 -33 -157 -10 -23 8 -41 10 -41 4 0 -5 24
-35 54 -68 69 -75 107 -140 118 -205 10 -55 31 -86 58 -86 27 0 55 -39 108
-150 32 -67 70 -128 106 -169 76 -87 75 -104 -9 -142 -85 -38 -192 -53 -330
-45 -154 9 -286 38 -368 81 -78 40 -99 43 -127 15 -30 -30 -63 -40 -129 -40
-82 0 -195 31 -287 80 -86 45 -54 40 -409 69 -222 19 -735 103 -1415 232 -840
160 -1225 228 -1525 269 -223 30 -342 69 -521 171 -165 95 -291 192 -473 365
l-113 108 6 -64 c21 -193 95 -324 198 -350 63 -16 84 -29 161 -98 89 -79 161
-113 407 -192 224 -71 484 -172 615 -237 141 -71 224 -129 306 -215 53 -55 83
-79 95 -76 11 2 30 25 44 53 23 47 28 50 66 53 25 2 62 -5 95 -19 253 -101
458 -138 600 -108 37 8 64 22 95 51 82 75 111 32 123 -184 6 -109 12 -154 28
-188 24 -53 54 -83 80 -78 16 3 18 16 21 123 3 137 12 155 71 155 73 0 319
-47 368 -71 75 -36 134 -104 187 -216 26 -54 50 -104 55 -112 15 -29 30 -22
36 16 12 70 35 130 60 153 45 42 146 43 188 1 29 -29 14 -69 -36 -96 -43 -23
-46 -33 -14 -39 12 -2 49 -9 82 -15 67 -12 101 -33 125 -77 24 -42 51 -41 117
5 88 60 94 60 151 2 51 -52 69 -60 90 -39 18 18 14 52 -13 114 -40 91 -28 154
30 154 16 0 25 -7 29 -25 10 -38 45 -54 142 -65 108 -12 153 -24 219 -57 54
-26 115 -79 115 -100 0 -17 -33 -33 -69 -33 -46 0 -38 -14 27 -45 37 -18 83
-55 130 -103 75 -77 102 -86 102 -37 0 38 17 65 41 65 33 0 76 -55 99 -128 12
-37 31 -76 41 -87 19 -19 19 -19 46 3 120 96 197 113 291 66 89 -44 143 -125
108 -163 -16 -17 -14 -18 28 -17 59 1 195 -68 276 -141 57 -52 61 -59 56 -89
-4 -19 -2 -35 4 -39 24 -15 81 7 118 45 60 62 136 79 185 40 77 -60 85 -280
13 -339 -9 -8 -16 -18 -16 -24 0 -16 133 -1 245 28 55 14 139 28 186 31 84 7
87 6 102 -17 14 -20 14 -35 5 -102 -10 -68 -9 -79 6 -96 25 -28 84 -39 283
-56 236 -19 284 -37 346 -128 19 -29 53 -35 89 -16 17 9 24 7 44 -15 31 -33
71 -43 245 -61 200 -20 260 -38 308 -89 35 -37 68 -33 170 20 106 56 126 54
185 -14 91 -103 109 -113 120 -67 10 40 44 41 176 1 176 -53 270 -69 588 -96
160 -14 198 -32 172 -80 -15 -28 3 -34 60 -20 58 14 87 3 96 -38 3 -15 7 -31
9 -37 1 -6 14 15 27 46 35 77 106 125 207 139 67 9 111 -2 154 -39 44 -38 70
-51 106 -51 83 0 92 154 20 373 -27 83 -28 90 -14 123 8 20 38 63 66 97 118
141 107 192 -72 344 -85 72 -153 155 -146 177 8 25 39 13 100 -39 126 -106
299 -334 416 -547 87 -157 141 -209 141 -135 0 35 -17 71 -68 141 -45 62 -53
123 -20 160 19 22 33 29 66 30 55 1 78 -20 61 -57 -17 -38 -4 -79 24 -75 31 4
87 91 146 230 98 228 101 273 27 367 -56 72 -94 142 -101 189 -15 93 -79 177
-217 285 -46 35 -78 67 -78 77 0 13 15 23 53 36 110 36 150 67 141 112 -8 38
19 63 97 92 69 26 119 76 119 119 0 37 32 77 68 84 34 7 166 94 202 132 l25
28 -65 -7 c-36 -4 -105 -15 -155 -25 -49 -10 -91 -18 -93 -16 -1 1 47 31 108
66 121 69 190 122 190 146 0 25 -66 9 -183 -43 -180 -81 -267 -104 -267 -70 0
15 21 26 51 26 10 0 26 11 35 25 15 23 15 32 -1 124 -17 94 -17 102 -1 126 9
14 26 25 37 25 66 0 621 254 583 267 -6 2 -82 -19 -168 -47 -196 -64 -270 -80
-366 -79 -124 0 -174 29 -154 86 14 42 87 61 274 73 226 15 370 42 370 71 0
25 -119 23 -385 -5 -66 -7 -121 -12 -123 -10 -2 1 58 44 132 94 75 51 156 111
181 134 92 86 36 87 -115 2 -126 -71 -161 -81 -273 -77 -43 1 -89 52 -85 93 3
32 4 33 46 31 l42 -2 0 44 c0 39 5 47 43 80 23 20 85 57 137 82 288 136 382
191 547 320 151 118 232 176 309 221 82 49 133 97 118 112 -20 20 -130 -30
-303 -139 -163 -103 -308 -185 -471 -267 -173 -87 -243 -114 -291 -114 -50 0
-57 22 -24 72 34 52 126 109 235 148 107 39 160 79 160 121 0 22 -8 34 -32 49
-40 24 -78 26 -78 5 0 -9 7 -30 16 -46 19 -38 14 -44 -25 -31 -42 15 -151 -2
-291 -45 -219 -68 -270 -82 -320 -89 -29 -4 -50 -3 -50 3 0 5 25 31 55 57 36
31 58 58 62 77 12 64 107 86 922 219 140 23 278 51 305 62 55 21 96 53 96 75
0 25 31 75 77 125 25 26 42 48 38 48 -4 0 -71 -31 -149 -69 -206 -100 -435
-173 -680 -216 -151 -26 -197 -16 -140 30 24 19 27 26 16 36 -17 19 -230 -10
-425 -56 -81 -19 -154 -35 -162 -35 -25 0 -17 24 31 88 25 34 44 68 41 76 -3
8 -28 15 -61 19 -63 6 -116 34 -136 72 -20 37 -7 40 44 12 30 -17 46 -21 46
-13 0 21 -110 136 -130 136 -10 0 -32 -16 -49 -35 -17 -19 -33 -35 -36 -35 -3
0 -5 19 -5 43 0 93 131 251 424 511 208 185 321 305 353 376 33 75 104 166
288 370 87 96 162 185 168 197 18 41 3 53 -65 53 -90 0 -122 -12 -175 -67
-105 -106 -687 -357 -861 -371 -60 -5 -65 -3 -90 23 -28 30 -8 30 -248 9 -68
-6 -114 4 -114 25 0 16 61 85 123 139 88 76 219 162 274 178 61 18 84 34 163
110 78 75 184 134 240 134 21 0 50 4 65 10 23 9 25 14 20 42 -5 26 1 45 30 92
19 32 34 60 32 62 -13 13 -201 -64 -462 -191 -433 -210 -659 -306 -724 -308
-24 -1 -45 3 -47 8 -2 6 15 23 37 39 56 40 51 49 -53 87 -52 18 -58 23 -58 49
0 49 96 154 536 590 230 228 408 407 394 398 -14 -8 -131 -83 -260 -165 -374
-237 -509 -313 -658 -369 -100 -38 -212 -30 -212 15 0 31 78 127 236 291 312
324 422 449 458 518 38 73 -38 23 -263 -176 -332 -293 -406 -341 -543 -349
-92 -5 -164 11 -182 40 -9 16 -5 24 27 52 22 19 34 36 28 40 -6 3 -39 9 -73
13 -45 5 -64 11 -66 22 -1 9 16 40 38 70 44 59 47 83 12 88 -34 5 -36 22 -7
98 56 148 182 363 361 615 100 141 153 234 140 247 -16 15 -64 -17 -93 -63
-53 -84 -69 -96 -127 -94 -86 3 -153 -43 -321 -221 -100 -106 -153 -152 -169
-147 -13 5 -10 54 5 112 13 48 77 115 111 115 13 0 34 7 46 16 19 13 22 24 22
82 0 75 16 118 78 209 55 81 75 124 65 134 -20 20 -120 -65 -353 -301 -159
-160 -259 -254 -285 -266 -52 -24 -96 -22 -181 7 -74 25 -204 32 -291 15 -24
-5 -43 -6 -43 -3 0 13 51 121 257 542 278 569 320 673 234 578 -45 -50 -111
-149 -351 -523 -231 -361 -223 -350 -236 -350 -16 0 -24 104 -14 184 6 47 20
90 44 137 46 87 73 187 88 321 9 84 9 112 0 134 -13 26 -13 26 -34 8 -25 -23
-48 -74 -48 -109 0 -58 -62 -149 -214 -315 -50 -54 -90 -107 -93 -123 -4 -21
-18 -34 -52 -51 -73 -37 -146 -57 -191 -54 -49 4 -53 20 -8 31 48 13 57 24 51
61 -7 46 20 103 101 210 97 128 126 172 126 190 0 44 -68 -3 -243 -168 -152
-143 -225 -196 -273 -196 -77 0 -163 -167 -124 -241 9 -15 7 -19 -7 -19 -30 1
-101 37 -112 58 -43 80 42 166 286 292 57 30 102 55 100 56 -1 2 -54 -7 -117
-20 -186 -38 -205 -39 -225 -20 -20 21 -17 52 25 229 30 126 29 144 -11 165
-44 24 -89 -40 -169 -239 -49 -125 -110 -231 -148 -261 -53 -43 -194 -7 -246
63 -20 27 -20 29 -4 55 53 83 70 161 83 372 3 52 13 158 21 235 17 154 16 286
-2 292 -7 2 -22 -10 -34 -26z m-2472 -677 c43 -30 20 -104 -32 -104 -56 0 -80
66 -36 102 27 22 39 22 68 2z m7 -295 c38 -11 80 -33 98 -50 31 -28 31 -30 13
-44 -26 -19 -38 -19 -154 6 -106 23 -137 36 -167 69 -20 22 -20 22 0 37 25 19
117 11 210 -18z m-540 -17 c11 -5 29 -20 39 -31 18 -20 18 -23 4 -37 -36 -36
-154 -33 -192 6 -16 16 -18 23 -8 44 19 42 97 51 157 18z m952 -19 c48 -22 93
-63 93 -84 0 -17 -48 -40 -102 -48 -68 -12 -144 2 -175 31 -32 30 -32 90 0
122 22 22 28 23 78 14 30 -5 78 -21 106 -35z m260 -49 c15 -24 15 -29 2 -53
-29 -51 -109 -33 -109 24 0 56 76 76 107 29z m-1712 -10 c206 -21 198 -17 193
-111 -3 -74 -2 -78 22 -90 57 -28 75 -85 45 -142 -17 -34 -40 -45 -65 -31 -26
14 -40 42 -40 78 0 61 -83 143 -184 181 -31 11 -97 26 -148 32 -51 6 -101 15
-110 20 -37 20 -14 55 45 69 49 12 80 11 242 -6z m3445 -9 c0 -14 -11 -48 -25
-76 -31 -61 -58 -64 -63 -7 -2 29 3 43 28 72 38 42 60 46 60 11z m-2682 -30
c29 -13 34 -18 22 -25 -8 -5 -36 -10 -62 -10 -77 0 -103 19 -50 38 38 14 48
14 90 -3z m117 -162 l150 -37 -55 -13 c-97 -22 -204 -34 -247 -27 -62 9 -108
68 -77 99 23 23 65 19 229 -22z m3435 1 c0 -65 -97 -137 -108 -81 -10 50 39
117 84 117 21 0 24 -5 24 -36z m1850 -286 c0 -32 -44 -124 -63 -131 -22 -8
-27 1 -27 46 0 31 7 46 34 73 40 40 56 43 56 12z m-5797 -100 c40 -54 -10
-108 -87 -94 -61 12 -72 55 -25 104 29 32 85 27 112 -10z m186 -4 c27 -34 27
-83 1 -134 -33 -66 -68 -72 -89 -17 -16 42 -13 87 9 135 23 50 48 55 79 16z
m323 -39 c142 -57 163 -78 153 -149 -4 -28 -8 -77 -9 -108 -1 -53 1 -60 37
-96 34 -34 37 -43 28 -60 -15 -28 -135 -94 -163 -90 -23 3 -23 4 -23 160 0
143 -2 159 -21 185 -28 37 -41 35 -67 -11 -27 -48 -46 -61 -80 -52 -50 12 -71
93 -45 178 11 39 49 88 67 88 5 0 60 -20 123 -45z m399 -5 c10 -6 19 -21 19
-34 0 -38 -77 -181 -115 -215 -67 -58 -119 -50 -113 18 2 28 9 38 33 50 17 8
37 17 45 21 12 6 14 23 12 76 -3 56 0 70 14 81 21 16 78 17 105 3z m-1016 -95
c32 -8 67 -15 77 -15 49 0 76 -162 40 -243 -16 -35 -27 -48 -49 -53 -94 -20
-119 -38 -109 -78 6 -23 20 -31 91 -52 45 -14 46 -65 4 -144 -58 -109 -118
-157 -256 -205 -24 -8 -13 -34 27 -62 75 -53 63 -71 -83 -127 -133 -51 -214
-70 -243 -57 -13 6 -24 17 -24 24 0 23 45 100 105 181 68 92 122 203 130 265
11 84 23 117 50 129 37 17 51 60 64 197 7 66 19 145 26 175 15 58 46 94 74 86
9 -3 43 -12 76 -21z m3064 -460 c35 -34 -56 -99 -131 -93 -59 4 -71 28 -34 67
46 48 129 61 165 26z m-229 -191 c0 -9 -16 -32 -35 -51 -28 -28 -41 -34 -67
-31 -26 2 -34 8 -36 26 -4 26 46 79 81 84 29 5 57 -9 57 -28z m964 -400 c39
-15 4 -69 -52 -80 -56 -11 -105 39 -70 74 12 12 95 16 122 6z m-264 -43 c36
-25 70 -80 70 -111 0 -35 -24 -56 -82 -71 -60 -16 -93 -3 -114 48 -21 48 -11
98 27 135 31 32 52 32 99 -1z m413 -477 c8 -17 35 -53 59 -81 24 -28 97 -115
164 -194 153 -182 223 -249 261 -249 41 0 86 -32 138 -97 98 -123 161 -305
121 -346 -9 -9 -24 -14 -34 -10 -54 19 -223 174 -365 337 -107 123 -157 190
-191 259 -36 72 -67 95 -175 134 -172 63 -205 88 -242 191 -7 18 -28 45 -48
59 l-36 25 30 -6 c137 -27 175 -17 243 61 l47 55 6 -54 c3 -29 13 -67 22 -84z
m-2126 -195 l48 -51 52 7 c64 8 101 -11 212 -110 96 -84 107 -84 116 0 3 36
11 68 16 71 6 3 38 -13 72 -35 71 -48 100 -58 131 -43 16 7 31 6 55 -4 115
-48 368 -331 387 -431 4 -20 3 -48 -2 -62 -13 -37 -52 -38 -156 -3 -104 35
-172 73 -195 110 -10 15 -22 30 -28 34 -19 14 -178 8 -244 -8 -83 -21 -117
-38 -162 -80 -46 -44 -88 -51 -178 -29 -77 19 -108 12 -115 -28 -17 -93 -21
-102 -49 -111 -40 -14 -76 8 -109 69 -32 60 -69 91 -117 100 -51 10 -84 29
-147 86 -66 59 -88 69 -141 62 -36 -5 -42 -2 -62 25 -45 64 -36 150 25 220 48
57 89 73 161 66 59 -6 59 -6 88 30 78 97 80 99 140 91 61 -7 94 7 113 50 17
36 35 31 89 -26z m5981 15 c2 -25 -3 -37 -24 -53 -15 -11 -33 -21 -42 -21 -43
0 -101 -29 -151 -76 -31 -28 -74 -63 -95 -78 -38 -25 -76 -34 -76 -17 0 22
187 175 309 252 56 36 75 34 79 -7z m-9924 -395 c6 -5 -8 -31 -35 -65 -53 -69
-95 -102 -109 -88 -16 16 -15 111 1 130 32 38 113 51 143 23z m3342 -207 c66
-44 391 -290 472 -359 56 -48 66 -72 30 -74 -64 -3 -108 16 -218 99 -125 93
-360 330 -360 363 0 16 16 10 76 -29z m2161 -397 c52 -55 56 -88 13 -110 -69
-36 -137 -3 -147 71 -8 58 9 84 54 84 30 0 44 -8 80 -45z m301 -36 c5 -45 -73
-119 -126 -119 -11 0 -25 7 -32 15 -23 28 10 78 72 109 63 31 82 30 86 -5z
m238 -162 c52 -27 90 -63 119 -113 25 -43 15 -64 -30 -64 -73 0 -247 73 -282
118 -21 26 -16 68 10 80 34 18 127 7 183 -21z m698 -844 c62 -123 126 -415
172 -778 12 -92 18 -244 21 -518 l5 -388 -148 7 c-181 8 -230 -1 -246 -47 -22
-65 -145 -67 -204 -4 -29 32 -83 40 -165 26 -73 -14 -109 -8 -109 15 0 56 228
394 365 542 37 40 61 58 77 58 40 -2 79 98 118 299 29 157 41 290 49 555 10
300 17 327 65 233z m2920 16 c14 -11 26 -29 26 -39 0 -48 -118 -83 -151 -44
-17 21 7 62 53 86 41 22 40 22 72 -3z m-80 -910 c14 -7 23 -16 20 -20 -8 -13
-132 -11 -140 2 -16 27 71 40 120 18z m-2385 -318 c48 -93 99 -355 82 -418
-13 -46 -43 -78 -66 -69 -41 15 -75 187 -75 374 0 152 20 190 59 113z m244
-359 c34 -37 63 -142 39 -142 -15 0 -60 54 -72 85 -11 30 -6 75 9 75 4 0 15
-8 24 -18z m-3897 -77 c37 -25 74 -45 81 -45 7 0 19 13 27 29 9 16 22 31 30
34 50 19 238 -88 306 -175 58 -73 73 -148 30 -148 -64 0 -580 303 -580 341 0
20 41 6 106 -36z m5582 -27 c19 -19 15 -87 -5 -95 -22 -8 -73 49 -73 82 0 22
5 25 33 25 18 0 38 -5 45 -12z m-4894 -244 c19 -18 21 -75 4 -92 -7 -7 -17 -8
-29 -2 -25 14 -60 75 -53 94 8 21 58 21 78 0z m443 -186 c37 -41 45 -65 27
-82 -34 -35 -84 -3 -84 53 0 57 21 68 57 29z m229 -153 c24 -57 13 -170 -16
-170 -21 0 -60 82 -60 125 0 40 23 80 46 80 8 0 22 -16 30 -35z m4561 -61
c121 -58 278 -225 299 -317 17 -80 -49 -44 -183 99 -134 144 -141 149 -222
145 -140 -6 -173 18 -106 78 51 45 112 43 212 -5z m-589 -560 c27 -19 32 -91
7 -101 -33 -12 -97 76 -74 103 15 18 39 18 67 -2z"/>
<path d="M5610 5515 c-28 -34 11 -177 51 -190 35 -11 52 14 47 70 -4 52 -24
87 -64 118 -19 14 -24 15 -34 2z"/>
<path d="M5124 8885 c-9 -36 1 -54 41 -70 37 -16 152 -20 174 -6 28 18 -114
101 -173 101 -30 0 -37 -4 -42 -25z"/>
<path d="M2904 8835 c-18 -19 -23 -31 -19 -48 14 -46 68 -62 98 -29 24 26 21
68 -5 86 -31 22 -45 20 -74 -9z"/>
<path d="M7982 8724 c-17 -12 -22 -24 -20 -47 4 -42 35 -47 77 -12 37 31 40
60 9 69 -34 9 -41 8 -66 -10z"/>
<path d="M2045 7760 c-7 -11 126 -100 150 -100 44 0 28 75 -20 96 -39 16 -121
19 -130 4z"/>
<path d="M1901 7398 c-32 -17 -46 -41 -37 -63 5 -14 15 -17 51 -12 51 5 133
53 118 68 -16 16 -106 21 -132 7z"/>
<path d="M2183 6660 c-47 -19 -14 -70 75 -118 83 -44 142 -41 142 9 0 60 -150
136 -217 109z"/>
<path d="M1876 6484 c-25 -24 -20 -71 9 -90 29 -19 60 -11 81 20 36 56 -43
117 -90 70z"/>
<path d="M3950 6211 c-48 -47 -53 -111 -9 -111 25 0 77 52 85 86 15 58 -29 73
-76 25z"/>
<path d="M1227 5508 c-59 -71 -117 -157 -117 -175 0 -31 95 19 135 71 26 34
55 106 55 137 0 33 -27 21 -73 -33z"/>
<path d="M186 4914 c-34 -33 -6 -104 40 -104 25 0 57 37 57 65 0 49 -63 74
-97 39z"/>
<path d="M12191 4219 c-58 -26 -71 -37 -64 -55 11 -30 83 -14 131 29 50 46 11
62 -67 26z"/>
<path d="M115 3690 c-13 -43 64 -111 128 -114 28 -1 32 3 35 26 2 20 -7 37
-37 67 -34 34 -48 41 -80 41 -31 0 -41 -4 -46 -20z"/>
<path d="M7353 3575 c-6 -18 22 -99 40 -113 23 -18 45 -20 63 -8 24 18 13 54
-32 99 -40 40 -61 46 -71 22z"/>
<path d="M7424 3234 c-7 -36 1 -132 11 -142 11 -12 19 11 23 68 7 97 -19 154
-34 74z"/>
<path d="M12435 3263 c-57 -15 -125 -46 -125 -59 0 -38 139 -22 188 22 23 20
25 25 12 34 -16 10 -41 11 -75 3z"/>
<path d="M12470 2780 c-91 -37 -257 -140 -300 -185 -23 -25 -23 -25 -2 -25 29
0 156 67 273 145 122 81 134 109 29 65z"/>
<path d="M2570 2358 c-66 -45 -63 -78 6 -78 50 0 84 56 52 88 -16 16 -20 15
-58 -10z"/>
<path d="M3855 2210 c-36 -14 -58 -48 -63 -99 -5 -58 12 -117 39 -131 23 -13
53 14 80 73 43 95 12 182 -56 157z"/>
<path d="M5213 1958 c-32 -34 -53 -79 -53 -115 0 -24 8 -38 33 -56 43 -33 77
-50 85 -43 6 6 -27 202 -38 224 -4 9 -12 6 -27 -10z"/>
<path d="M11650 1446 c0 -31 260 -113 389 -123 125 -9 101 13 -79 73 -167 57
-310 80 -310 50z"/>
<path d="M12598 1354 c-50 -15 9 -35 96 -33 134 3 135 31 1 35 -44 2 -88 1
-97 -2z"/>
</g>
</svg>
