<svg xmlns="http://www.w3.org/2000/svg" height="800" width="1200" viewBox="-94.1964 -178.5405 816.3688 1071.243"><defs><filter id="a"><feGaussianBlur stdDeviation="2.796"/></filter></defs><path d="M241.364 59.524c-1.063.059-1.119.378-.938 1.25.281 1.356.788 3.623 3.25 6.688 1.146 1.425 1.801 6.139.375 10.438-.807 2.432-3.203 4.66-4.594 7.125-1.576 2.792-2.156 5.85-3.156 8.813-1.222 3.623-5.259 3.755-7.188 6.875-2.849 4.608-2.42 7.594-5.28 11.125-3.045 3.754-6.047 5.664-7.532 5.844-.18.02-1.755 1.53-2.094 1.53 0 1.484-3.625 4.23-3.625 7.782-1.365 0-2.252 17.218-2.563 19.156-.562 3.506-4.203 8.266-9.188 12.438-4.13 3.458-9.264 6.288-13.688 9.688-8.617 6.62-14.479 13.97-13.844 14.75.565.697 4.868.092 8.938-1.781 3.591-1.652 6.777-4.596 9.563-3.72 1.87.59-4.453 14.92-4.53 15.72-.288 2.917-1.167 5.855-1.282 8.406-.205 4.548.657 7.93 1.938 8 3.001.162 6.268-11.478 12.281-20.844 6.015-9.366 14.778-16.472 20-21.188 5.063-4.571 9.345-10.203 9.938-14.22.09-.611 1.002-3.546 1.22-7.687.228-4.408-.16-10.197 2.093-16.031 1.846-4.778 8.165-9.791 11.156-12.906 3.975-4.14 7.044-8.286 7.25-7.375 2.077 9.16 2.351 20.974 4.781 31.656 1.82 8.002 5.371 17.909 4.47 25.813-.21 1.824-.862 1.643-1.595 3.469-2.216 5.533-6.323 11.453-10.594 18.53-5.669 9.397-11.927 20.324-17.594 30.189-2.146 3.736-5.21 5.783-7.844 8.28-3.978 3.772-7.442 7.284-8.75 8.97-2.144 2.763-3.187 5.725-2.469 6.313.314.258 1.527.018 2.875-1.031 1.048-.816 2.07-2.351 3.563-3.031 1.775-.81-.556 10.88.906 22.156 1.44 11.118 6.26 21.163 8.781 23.125.748.58 5.565 7.288 6.406 11.125.155.71-.516 1.456-.53 1.813-.497 10.567-26.184-18.075-33.657-33.438-3.527-7.252-7.99-22.123-7.75-29.813.231-7.435 3.084-14.826 6.031-17.844.678-.695 1.346-1.574 1.813-2.25.675-.978-.256-1.646-.719-1.625-2.006.092-7.38 9.406-7.53 9.406 0 4.455-8.433 7.053-10.376 9.813-.857 1.217-4.812 3.44-8.625 6.094-2.288 1.59-4.14 4.019-6.28 4.563-.703.179-1.472-.728-2.126-.781-.49-.041-1.466-1.173-1.813-1.5-.326-.308-1.81-5.667-1.813-5.75-.084-2.177-5.76-20.921-11.188-38.188-4.719-15.017-9.039-29.051-10.625-28.594-.71.204.144 3.3.125 14.5 0 .06-13.113 26.763-14.094 29.78-.205.63-1.858 13.155-4.125 26.595-1.27 7.54-.698 16.493-1.75 23.25-.85 5.454-1.552 10.766-2.563 11.469-1.99 1.383-.296 4.34-.219 4.406 1.104.955 5.948-7.777 7.938-15.156 1.873-6.951 3.438-14.896 3.438-18.75.023 0 4.408-22.781 6.22-22.781 0-5.303 9.222-23.98 11.874-20.688 1.17 1.453 2.52 4.38 2.844 8.906.27 3.75-.337 8.652-.75 14.219-1.04 14.025-2.888 27.532-4.406 41.313-1.716 15.573-5.835 59.63-5.969 60.28-.785 3.832-2.078 20.5-3.813 37.345a3594.521 3594.521 0 00-3.938 40.813c-.056 7.349-12.188-6.041-12.906-6.188-3.524-.72-33.376-28.7-38.125-27.688-.778.165-.216 2.082.906 3.844 2.292 3.602 24.908 22.31 36.406 32.156 5.366 4.594 6.301 3.467 6.5 7.813.14 3.063-11.207 8.972-16.78 14.063-2.34 2.137-4.114 3.618-2.876 5.5.38.578 2.53-.36 2.438.53-1.347 12.935 1.478 18.74 3.094 21.907 1.582 3.102 2.95 6.602 5.5 9.938 6.22 8.137 17.92 16.467 27.75 19.406 2.414.722 10.053 4.738 20.344 5.094 7.753.269 15.827-1.093 18.781-1.031 4.066.085.63 2.728-1.03 7-1.71 4.398-1.829 9.52-1.814 14.406.002.802 1.276 9.582.906 9.719-.129.048-.267.079-.406.125-3.147 1.038-6.266.604-9.125 1.406-4.462 1.249-8.52 3.906-12.813 7.406-3.958 3.228-6.438 8.517-8.438 12.563-1.534 3.104-3.067 5.307-3.094 6.25-.017.578 2.231-.343 4.156-1.813 1.601-1.223 2.106-2.61 3.22-3.094 3.158-1.373 5.842-.338 6.062 1.813.205 2.008-1.709 4.052-3.563 5.875-7.07 6.955-17.59-1.415-23.094-7-1.73-1.755-1.897-3.16-2.688-3.5-1.232-.53-2.486.41-3.375 2.313-.569 1.219-.688 2.943-1.5 4.563-1.332 2.654-3.378 3.613-7.656 7.219-3.41 2.876-13.394 2.533-11.75-.438.234-.425 1.663-.548 2.25-1.094 1.002-.933.528-1.45.25-2.063-.572-1.252-2.264-2.093-2.344-2.094-2.408-.032-4.337-.566-5.75.406-1.88 1.293-2.352 3.727-2.813 6.156-.46 2.429-.917 4.86-.406 6.813.706 2.703 2.773 4.713 3.844 4.78.206.015 1.513.436 4.406.657l436.938.219c2.167-.87 4.196-.456 5.813-1.344 4.841-2.66 6.324-7.172 7.47-14.22.624-3.844-1.12-8.688-1.814-10.093-.897-1.816-1.954-3.098-3.313-4.688-4.079-4.77-10.895-8.16-17.75-7.938-6.255.202-11.363 3.626-12.03 8.03-.268 1.747.602 4.417.843 5.564.145.699.783 3.563 2.47 5.625 1.446 1.773 4.371 2.443 7.062 1.875 2.374-.502 4.55-2.033 5.781-3.438 1.904-2.173.66-6.368.22-7.938-.428-1.515-.98.337-1.064 1.813-.033.59-.584 1.544-.969 1.813-2.46 1.71-6.684 2.399-6.78-2.313-.177-8.407 23.457-2.514 15 10.719-1.724 2.694-5.423 3.272-8.064 3.25-6.993-.062-14.455-2.021-20.875-4.75-7.82-3.326-17.81-9.007-27.156-13.594-8.512-4.178-16.897-6.12-20.625-9.813-1.91-1.892-1.765-4.66-1.313-6.031.334-1.015.72-2.267 1.75-3.563 2.27-2.85 5.84-6.461 5.875-11.938.028-4.47-1.902-10.131-4.375-12.125-1.827-1.473-5.405-1.922-7.75-3.22-.918-.507-1.22-1.353-1.78-2.124-.739-1.011-.966-2.486-1.626-3.75-1.019-1.947-1.84-3.884-3.719-5.22-2.537-1.801-5.88-1.204-10.188-3.968-1.8-1.156-.438-5.07-5.25-7.125-1.48-.631-2.649.305-4.469-.813-.363-.223-.52-2.887-2.375-4.97-1.637-1.837-4.98-3.042-5.344-3.905-.793-1.88.317-6.22-.03-10.25-.122-1.398-2.195-8.031-1.157-11.156.658-1.986 4.394-2.398 7.344-2.594 3.408-.228 8.107.427 13.063.719 11.426.672 24.83 3.063 30.438 3.469a65.92 65.92 0 012.5.219c16.611 1.962 37.03 18.965 40.906 17.875 2.29-.643-7.59-8.146-9-9-2.332-1.413-11.856-6.436-20.125-13.781-9.082-8.067-17.14-17.746-18-18.375-2.26-1.648-11.975-12.833-17.219-22.594-2.08-3.871-3.846-10.377-5.28-14.875-2.503-7.846-6.128-23.19-6.814-37.97-.438-9.426.981-18.177 1.375-22.062 2.78-27.485 17.6-67.402 29.563-89.72 3.26-6.082 7.487-12.176 10.781-17.968 2.122-3.732 3.571-7.992 5.563-11.25 2.168-3.55 5.736-5.441 7.5-8.188 3.271-5.1 5.681-8.532 6.594-9.344 1.458-1.302-1.047-1.263-2.344-.594-1.668.86-3.706 2.146-3.875 2.688-.583 1.863-9.783 9.896-18 21.75-1.007 1.453-2.704 1.264-3.969 2.625-1.18 1.269-1.24 3.035-2.219 4.719-.92 1.58-2.769 3.07-3.969 4.28-3.49 3.52-8.754 6.166-12.219 9.595-3.04 3.01-6.258 5.705-8.688 8.719-7.214 8.947-13.628 14.663-16.406 16.563-2.545 1.74-4.698 3.529-6.219 4.969-1.343 1.27-1.87 2.655-2.688 2.5-.722-.137-.753-2.43-.75-3.594.008-3.772.303-8.757-.75-9.97-1.004-1.151-3.304-.78-4.25-2.812-1.552-3.327-.119-12.042.844-19.906.733-6.003.824-11.642 1.781-13.563.286-.574.835-3.468.781-7.156-.047-3.255-.735-7.123.031-10.563.264-1.19.703-1.707.781-3.5.132-2.991.22-5.767.063-7.72-.259-3.233-.624-3.824-1.656-2.374-.91 1.28-4.093 16.129-5.844 30.78-1.683 14.069-2.923 27.645-2.938 27.97-.324 6.6-3.51 7.073-4.625 7.25-.99.156-1.49 1.069-2.219 1.469-4.452 2.438-3.852 8.533-2.406 15.438.58 2.775 2.617 6.323 3.688 7.53 2.354 2.659 3.671 1.614.938 9.72-.128.379-.966 2.233-2.563 4.438-2.336 3.222-6.285 7.415-10.063 12.813-2.54 3.63-4.785 8.353-7.438 12.219-8.92 12.999-17.778 24.753-18.188 24.875-.165.049-7.373 11.5-12.063 17.906-2.374 3.239-3.445 2.014-4 3.844-.248.818.35 3.318.688 4.938.216-.04.411-.061.406.094-.108 2.864 2.506 10.314 2.094 10.563-.05.03 8.133 19.785 11.375 24.406.627.895 1.03 1.386 1.656 2.375.826 1.31 1.934 3.626 3.656 5.438 3.29 3.457 7.618 6.478 8.094 7.125.815 1.113 4.721 7.123 7.063 9.156.36.313 1.342 1.136 1.72 1.406.273.195 3.145 1.342 3.343 2.53.065.397.8 1.939-.25 1.939 0-.428-3.405-2.098-4.688-3.375-.63-.627-2.11-1.727-2.5-2.188-1.902-2.24-4.654-6.455-6.375-8.813-3.945-5.4-10.247-7.23-12.906-14.656-.474-1.322-1.183-1.938-1.938-3.063-1.28-1.902-3.758-5.902-5.469-9.938-1.607-3.791-2.48-7.642-2.969-8.844-.605-1.492-2.79-10.822-3.125-13.281.39.6.691.22.875.469.28.377.143-.355-.063-1.344a3.781 3.781 0 00-.844.28c-.037.028-.013.235.031.564-.22-.35-.479-.982-.78-2.25-5.007-20.892-6.127-36.804-4.595-58.844.305-4.403-.589-8.464-.063-13.063 1.642-14.335 4.016-28.418 8.563-42.47 6.566-20.29 16.546-40.307 25.375-58.937 4.951-10.448 8.76-18.81 10.938-19.688.392-.16 4.25-2.495 7.406-5.313 1.77-1.581 2.837-4.03 3.47-5.031 1.305-2.072 2.115-4.244 2.124-4.375.282-4.14-36.155 27.789-37.28 30.25-.517 1.128-8.8-.171-14.689-.531-15.62-.955-28.646-7.714-30.656-25.594-1.003-8.921 1.306-18.173 2.438-20.438.833-1.664.818-3.192 2-5.094 3.021-4.86 8.055-10.455 11.906-14.313 4.167-4.176 8.46-7.331 7.281-9.5-2.05-3.77-15.117 12.15-18.719 16.563-2.638 3.229-6.999 7.697-11.656 11.219-8.302 6.279-17.33 11.216-17.656 12.5-.155.609-5.183 3.408-10.469 6.906-7.982 5.283-17.634 11.44-17.938 11.719-.553.506-1.937.248-2.5-.031-1.11-.551-1.328-1.713-1.813-2.97-1.239-3.206-1.343-7.6-1.375-8.374-.66-15.536-5.537-33.863-9-51.438-1.497-7.596-3.254-15.063-3.438-22.094-.064-2.468-2.563-7.311-2.5-11.188.051-3.212 2.242-5.744 2.094-5.75-3.88-.16-5.958-.366-7.022-.307zm57.906 83.937c2.88-.227-10.586 12.613-10.656 12.625-.436.07-9.813 8.49-9.813 9.313-1.19 0-8.666 9.435-9.28 10.875-.265.617-1.953 1.892-3.126.938-.954-.777-1.039-3.583-1.156-6.188-.143-3.142.782-6.922 2.75-7.156.428-.052 4.864-2.461 9.156-5.031 3.577-2.143 21.9-15.358 22.125-15.376zm-40.093 30.625a.143.143 0 01.094.03c.328.249 2.995 4.086 2.375 7.657-.64 3.685-4.003 7.714-6.594 9.53-.894.626-8.412 9.469-10.5 11.25-.298.256-.588.098-.625.032-.443-.784.628-4.06 2.844-8.22 1.884-3.536 2.922-6.056 4.75-8.5 1.716-2.293 2.563-5.041 4.188-6.593 2.445-2.334 3.003-5.151 3.468-5.186zm96.781 10.063c.572.006.887.12.875.406-.078 1.878-9.442 8.447-18.438 16.25-10.52 9.125-21.01 19.59-22.406 21-.32.325-5.939 5.076-12.28 10.563-7.469 6.458-16.063 13.646-18.376 15.938-2.18 2.159-3.742 4.175-4.28 3-.098-.21-.939-1.901-.907-4.031.021-1.457.85-3.02 1.094-4.906.442-3.391 1.808-7.076 1.781-10.438-.039-4.782-2.5-7.72-2.5-9.156 0-2.986 2.427-5.777 4-6.625 9.131-4.921 15.243-10.468 22.844-14.781 6.776-3.847 13.776-8.227 21.72-11.22 5.09-1.917 10.607-2.853 16.593-4.062 4.51-.912 8.56-1.958 10.28-1.938zM149.49 216.555a.471.471 0 01.25.094c1.854 1.3 2.523 9.71 5.125 17.094 1.363 3.866 3.347 7.5 4.22 10.844.58 2.229.121 3.632.124 4.969.005 2.736-4.76 16.25-4.938 16.25 0 5.61-7.468 29.634-11.844 26.938-2.692-1.657 2.697-45.648 3.875-48.25.78-1.721.78-27.99 3.188-27.94zm29.813 18.812c.327.01.574.282.813.938.073.204-.553.53-1.063 1.156-.746.913-1.595 2.334-2.438 3.78-1.367 2.347-3.32 4.707-4.688 7.064-1.702 2.936-2.763 5.184-3.219 5.125-.083-.011-1.3.646-2.406-.438-1.483-1.454-1.218-3.143-1.313-4.438-.097-1.294.352-3.197 1.844-4.906 2.313-2.651 5.658-4.317 8.594-5.938 2.054-1.132 3.154-2.365 3.876-2.343zm267.937 1.219c.332-.055.531.154.531.75-.06 0-8.25 10.076-8.25 10.344-.232 0-8.813 9.145-8.813 9.875-1.014 0-10.817 12.514-11.375 13.438-.338.559-.549 2.166-2.375 2.5-.534.098-1.28.286-1.656-.125-.628-.686-.738-2.245-.844-2.844-.396-2.233.866-4.118 1.281-5.25 1.13-3.094 8.781-7.752 8.781-8.781.803 0 6.72-4.907 6.72-5.688.56 0 9.812-8.45 9.812-8.781.836 0 4.748-5.198 6.188-5.438zm-185.312 4.719c.867.023 2.91 3.042 5.781 6 1.573 1.62 3.862 2.832 4.97 4.688 1.843 3.09 1.535 6.992-2.407 10.469-2.38 2.097-6.609 3.714-9.875 6.875-4.223 4.086-8.549 9.53-12.563 13.594-5.162 5.224-9.639 8.583-10.75 8.219-.648-.213-.188-3.828.25-6.5.677-4.143 3.438-11.46 5.281-14.97 2.818-5.364 6.781-10.637 10.125-15.28 5.06-7.028 8.463-12.751 9.031-13.063a.285.285 0 01.157-.032zm-101.032 14.469c.866-.196 1.23 1.36 1.375 1.656.338.684 1.06 1.008.906 2.53-.489 4.87-4.08 9.264-6.219 10.876-.328.247-1.492-.868-.906-1.906.33-.586 2.864-11.803 4.438-12.97.146-.107.282-.16.406-.186zm242.97 25.562c.163-.102 2.073.454.624 5.125-.193.624.277 2.233-.719 3.656-.958 1.366-2.758 2.39-4.438 4.125-1.905 1.965-3.748 4.685-5.563 7.094-5.348 7.093-10.769 14.688-13.156 14.688 0-1.141 6.12-10.344 6.72-10.344 0-1.157 10.756-16.063 10.843-16.063.001-.428 5.42-8.115 5.688-8.281zm-108.907 7.938c.241-.026.406.068.406.344 1.497 0 .536.53 2.031.53 0 2.088 2.977 25.876 3.656 25.876 0 7.627 4.125 13.309 4.125 21.219-.726 0-1.204 4.125-2.594 4.125 0 2.98-13.438 5.79-13.438 6.75-1.647 0-15.5 6.067-15.5 6.219-1.269 0-12.406 4.873-12.406 5.156-3.03 0-6.05 3.125-9.813 3.125 0 1.068-5.506.5-6.719.5 0-1.677-.5-2.076-.5-4.156-1.1 0-4.135-34.156-1.03-34.156 0-2.44 1.396-8.781 3.593-8.781 0-1.647 10.313-4.453 10.313-5.688.963 0 8.281-4.713 8.281-5.188 1.091 0 9.813-5.627 9.813-6.22 2.887 0 6.038-4.624 8.813-4.624 0-.747 7.585-3.656 8.781-3.656 0-.178 1.464-1.295 2.188-1.375zm-75.5 18.656c.711-.303-3.518 5.076-3.938 5.03-.136-.014-6.55 6.645-7.469 7.22-1.18.74-5.079 3.6-5.719 4.625-.547.876-1.946 1.932-2.813 2.969-.93 1.11-1.326 2.173-2.094 1.844-.495-.212-.695-1.364-1-2.594-.527-2.127.172-2.274-.313-3.5-.709-1.792-2.956-4.227-6.969-4.781-.777-.107-2.03-.707-2.313-1.156-3.544-5.68 3.848-5.508 6.72-6.72 2.168-.913 5.011-.513 8.03-.5 3.212.015 14.294-.911 17.878-2.437zm62.531 6.375c-1.279.036-3.062.78-4.938 2.25-1.96 1.536-3.609 2.667-3.688 5.344-.038 1.307.11 4.223 1.156 5.344 1.57 1.683 4.43 2.068 6.781-.22 2.427-2.36 3.716-4.688 3.5-7.593-.13-1.743-.562-4.836-2.28-5.094a3.104 3.104 0 00-.53-.031zm-103.406 3.78c1 .106 2.616 1.66 1 4.157-.553.854-2.137.896-2.75 1.625-.629.747-1.713 3.36-1.906 5.594-.198 2.304.518 4.237 1.125 5 1.047 1.319 2.5 3.076 3.906 3.906 1.24.73 2.52.546 2.406 1.625-.067.636-.38 2.237-1.313 1.563-.676-.488-1.576-2.27-2.438-3.094-.67-.642-1.326-.473-1.78-.063-.817.736 1.801 2.259 1.437 4.563-.366 2.304-3.707 5.394-4.469 6-.602.478-1.329.509-1.75.938-.9.913-.77 2.176-.406 2.594.501.577 1.98.95 2.156 1.813.278 1.379-.637 3.3-1.688 4.938-1.393 2.168-3.84 3.555-5.75 5.375-2.252 2.145-3.62 4.159-5.344 3.719-1.377-.352-2.449-2.35-2.875-4.22-1.089-4.78-.688-11.61 1.063-18.155 1.824-6.828 5.521-12.588 6.47-13.906 2.094-2.913 6.26-7.866 9.405-11.031 1.538-1.548 2.516-3.043 3.501-2.94zm90.5 2.814c-2.099.319-7.66 3.872-8.344 4.438-1.016.842-2.58 1.007-2.813 2.063-.158.724.193 1.675.281 2.625.1 1.075-.036 2.156.22 2.75.201.47 3.59-.953 6.5-2.625 2.41-1.385 4.432-3.01 4.468-3.125.607-1.927.528-4.241.47-5.75-.014-.348-.298-.45-.782-.376zm-130.063 5.25c.883-.196 3.735 14.188 3.906 14.188 0 5.32 9.26 28.5 13.438 28.5 0 9.552-14.969 10.87-14.969 16.563-6.663 0 4.625 13.984 4.625 8.25 2.59 0 15-7.667 15-5.656-.847 0-1.22 1.53-2.063 1.53 0 1.193-11.406 3.669-11.406 5.72-3.613 0-9.296 8.28-15.469 8.28 0-6.165 6.098-75.593 6.688-75.593 0-1.222.086-1.746.25-1.782zm113.125 4.25c-1.085.104-2.418 1.173-3.375 2.344-1.338 1.637-1.685 5.29.281 8.406.62.984 1.52 1.065 2.188 1.156 1.112.15 1.982-.318 2.906-1.281.54-.561 1.146-.863 1.406-2.22.56-2.922.782-7.684-2.969-8.374a1.504 1.504 0 00-.437-.031zm67.438 5.218c1.004-.063 2.185.157 3.594.656 1.495.53 1.707.513 2.781 2.125.601.9.925 2.393.47 3.594-.485 1.278-1.756 2.27-1.345 3.469.66 1.917 2.796 3.28 3.875 4.844 1.013 1.467 2.568 1.588 2.813 2.656.696 3.05-1.807 5.782-4.53 6.5-3.504.923-8.184-.672-8.22-2.406-.069-3.385-15.754 3.639-16.438 4.03-1.192.685-10.313 4.739-10.313 5.657-.473 0-1.162.316-1.469.656-.155.17-1.049 1.166.188 1.469 1.396.34 3.617.252 6.063.219 2.771-.037 5.808-.082 8.22-1.156 1.64-.73 2.7-2.146 3.593-3.438.658-.954 1.503-1.543 1.47-2.906-.05-1.953 2.613-2.775 5-2.781 2.538-.004 3.171 1.479 4.812 3.813.688.977.557 3.418-.188 4.906-.51 1.018-1.546 1.15-1.875 1.844-1.064 2.24.67 3.857 1.97 5.563.78 1.024 1.431 2.394 1.155 3.063-.35.85-.72 1.852-1.563 2.313-1.31.72-3.785 1.188-5.563.53-3.136-1.156-5.055-4.782-5.813-6.5-.194-.44-1.919-.127-4.406-.155-6.929-.077-21.395.084-27.969-.406-1.536-.114-3.15.638-4.813 1.406a75.423 75.423 0 00-6.25 3.25c-3.256 1.89-6.774 3.379-9.188 4.188-.724.242-.382 1.906-.625 3.53-.354 2.374-1.797 5.647-2.844 4.845-.393-.3-1.679-5-3.28-8.938-.963-2.361-2.939-4.085-2.376-5.406.48-1.127 1.961-1.002 3-.22.624.472.593 1.397 1.47 1.782 1.842.809 5.186-.33 7.843-1.625 1.207-.59 2.502-.811 3.063-1.594.482-.674.618-1.232-.063-1.5-2.3-.904-10.316-.364-15.063-.344-1.896.009-2.89-3.703-2.906-4.531-.023-1.135 2.371-.43 5.781.03 7.512 1.015 17.816 1.417 24.97.22 1.391-.232 6.57-3.46 12.78-6.75 1.163-.615 13.858-6.958 21.25-10.625 2.673-1.328 4.58-2.16 4.781-2.875.29-1.036.055-3.571.656-5.97 1.064-4.242 2.488-6.841 5.502-7.032zm-36.406 7.469c-4.234.003-2.234 4.385-1.03 4.406 1.381.024 2.183-.097 2.562-1.344.403-1.325-.158-2.942-.625-3a7.458 7.458 0 00-.907-.062zm-8.438 1.03c-1.593.114-1.948 1.025-2.156 1.814-.228.865-.048 2.46.563 3.188.69.823 1.9.71 2.781.438.753-.235 1.73-.61 1.72-2.656-.005-.623-.01-2.414-.876-2.594-.849-.178-1.5-.226-2.032-.19zm-14.375 6.095c-.447.018-.908.193-1.344.563-.656.555-.376 1.502-.406 2.156-.098 2.137.147 3.197 2.22 3 .886-.085 1.798-.373 1.874-2.281.022-.561.087-1.773-.469-2.5-.432-.565-1.13-.967-1.875-.938zm-5.094 4.219c-.633-.012-1.598.679-1.219 3.03.238 1.487 2.943.73 2.688-1.687-.01-.088-.564-1.06-1.219-1.313-.072-.027-.16-.028-.25-.03zm-1.375 38.562c.473-.057 1.872 1.59 3.406 4 1.931 3.033 3.005 7.982 5.156 11.844 1.573 2.826 3.222 6.35 4.656 7.844.148.154 2.673 3.467 4.25 4.28.336.173.514-1.478 2.344-1.218 2.141.306 2.376.824 2.594 1.438.414 1.17-.899 2.738-.906 4.219-.009 1.71.55 3.744-.719 3.469-.425-.092-4.216-2.578-6.25-6.625-1.612-3.207-3.633-5.971-5-8.563-2.373-4.498-3.693-8.371-5.125-11.281-1.264-2.566-2.717-4.336-3.406-5.813-1.164-2.494-1.368-3.55-1-3.594zm-78.5 4.688c.624-.174.202 4.305.063 7.563-.1 2.313-.509 4.51-.688 7.344-.404 6.418.387 13.508 1.813 19.219.924 3.7 2.556 7.848 2.094 8.156-.933.623-1.5-.56-2.875-3.344-1.418-2.875-3.63-7.496-4.156-16.72-.188-3.313-.345-10.505 1.188-15.624 1.41-4.715 2.186-6.491 2.561-6.594zm144.407 15.094c.331-.032.797.162 1.313.594 1.044.873 2.465 3.265 3.875 5.406 3.157 4.795 4.69 8.646 7.375 13.875 2.432 4.736 4.373 9.277 6.47 13.844 1.021 2.23 2.698 4.437 3.312 6.719 1.243 4.629-2.589 3.109-4.78.03-.73-1.024-.819-2.496-1.126-3.03-.875-1.518-1.242-3.395-2.063-5.22-2.182-4.847-4.668-10.23-6.438-14.405-2.207-5.21-4.36-9.063-5-10-3.7-5.413-3.93-7.718-2.938-7.813zm-6.25.5c.705-.01 3.165 4.354 5.313 8.719 3.14 6.38 7.125 14.133 7.938 15.75 2.682 5.338 4.808 10.619 6.156 13.875 2.18 5.266 5.242 8.1 1.125 9.313-.689.203-2.834-4.232-4.78-8.906-3.249-7.79-6.767-17.381-7.095-18-1.249-2.357-10.864-17.924-8.78-20.688a.15.15 0 01.123-.063zm-11.25.843c.365-.083.805.223 1.125 1.188.563 1.697-.896 1.199-.25 3.938 1.231 5.227 4 14.275 4.063 14.563.23 1.04.92 4.004 1.25 7.5.25 2.635.08 5.53.531 8.406.635 4.039 2.35 8.39 2.656 10.813.306 2.422-.813 2.9-2.03 1.344-1.139-1.453-2.189-6.284-3.157-12.313-.73-4.548-.974-10.32-1.906-15.688-.824-4.734-2.235-9.238-2.688-12.72-.398-3.067-.27-5.19-.25-5.843.02-.624.291-1.105.656-1.188zm26.593.157c.757-.121 2.3.85 3.781 2.188 1.737 1.568 2.521 3.732 3.5 5.156.291.422 4.318 10.89 8.156 18.906 2.625 5.485 5.373 9.119 5.25 9.563-.97 3.49-3.838 2.229-5.03-.031-.434-.816-.773-2.313-1.439-3.72-2.194-4.633-5.02-11.85-7.938-18.28-2.079-4.583-4.925-8.164-6.094-10.781-.759-1.697-.823-2.595-.469-2.906.075-.066.175-.078.283-.095zm6.75.28c.06-.012.142-.002.25 0 .727.02 2.497-.08 3.813.845.758.535 2.561 2.895 4.531 6.188 2.233 3.732 4.725 8.64 7.063 13.188 3.762 7.32 6.811 13.81 3.97 13.78-.053 0-2.39-.02-3.876-2.405-1.12-1.797-1.407-4.374-2.438-6.438-2.98-5.958-10.917-14.33-12.5-21.813-.562-2.653-1.232-3.254-.813-3.344zm-38.062.095c2.552.265 1.822 4.965 1.97 6.438.405 4.066 1.377 10.049 1.874 12.813.954 5.314 1.43 9.44 2.156 12.313 1.233 4.883 3.452 7.618 1.875 12.688-.229.732-4.479-2.791-8.563-5.75-4.996-3.62-7.458-5.2-8.28-7.938-.576-1.91-.015-9.123-.376-16.031-.295-5.63-1.695-11.176-.844-12.594 1.321-2.197 7.517-1.656 9.625-1.906.201-.026.392-.051.563-.033zm10.687.187c.36-.334 4.46 9.3 8.781 19.28 3.198 7.392 7.388 15.403 10.125 21.626 2.492 5.665 3.68 9.896 3.813 10.406.257.976.08 3.703 1.47 5.938 2.27 3.657 3.735 6.469 1.624 6.469 0-.53-6.688-3.146-6.688-4.125-.434 0-7.114-5.184-7.25-5.188-.31-.01-1.808-3.076-2.969-8.375-1.162-5.3-1.97-12.851-3.563-19.844-2.557-11.23-5.829-22.264-5.375-26.125a.112.112 0 01.032-.062zm37.875 1.53c2.46-.171 4.492 3.487 6.72 7.376.087.154 1.313 1.867 2.218 4.094.798 1.965 1.208 4.339 2.281 6.438 1.098 2.148 5.098 6.572 4.625 8.688-.534 2.393-2.37 1.402-3.813-1.125-1.854-3.248-3.314-8.627-3.406-8.313-.183.623-6.215-9.166-6.219-9.313-.036-1.29-.922-1.793-1.438-2.75-1.063-1.975-1.86-3.18-1.719-4.031.065-.387-.095-1.004.751-1.063zm-62.28 1.064c.33-.074.763.264.937 1.094.242 1.15-.062 3.412.25 5.53.428 2.916.307 6.409.563 9.282.158 1.77-.12 3.568-.25 5.063-.262 3.014-.787 4.818-1.938 2.719-.318-.582-.083-2.27-.5-3.438-.669-1.871-.396-3.697-.344-5.563.065-2.398.04-4.826.125-7.125.085-2.293.247-4.646.75-7 .067-.32.208-.517.406-.562zm70.468 1.03c3.702-.024 15.923 3.975 16.5 5.032.014.027-2.587 1.045-4.938 2.344-2.282 1.26-3.224 2.6-4.375 2.78-1.939.308-4.549-1.642-5.906-4.03-.9-1.584-.724-3.531-1.375-4.5-.335-.498-.849-1.62.094-1.625zm-75.375 1.345c.346-.146.797 3.078.813 3.28.207 2.603.07 4.407.031 7.189-.012.819-.688 1.607-.375 2.656.07.236.366 5.174-1 1.75-.56-1.404-.073-4.128-.125-4.781-.184-2.264-.554-4.195-.406-6.031.102-1.256.585-2.461.906-3.781.043-.18.106-.261.156-.282zm-47.844 10.406c4.88.13 11.208 1.476 13.125 1.938 4.966 1.196 9.272 3.344 11.844 3.938 1.252.289 2.802 1.539 5.47 2.594 3.652 1.445 8.642 2.949 10.905 4.844 2.428 2.032 1.74 4.139-.875 3.469-.578-.147-8.268-2.581-16.938-5.281-3.59-1.12-7.779-2.2-11.375-3.281-3.967-1.193-8.697-1.166-12.063-2.406-8.928-3.293-6.91-5.497-2.094-5.781.622-.04 1.304-.053 2.001-.034zm141.156.875c.42.018.761.216.938.688 2.023 5.412-5.4 11.08-6.28 10.094-1.793-2.005-3.855-3.631-2.564-5.813.943-1.592 2.743-2.871 3.313-3.063 1.27-.427 3.336-1.957 4.593-1.906zm-162.187.156c.34.007.662.035 1 .094 1.125.198 3.284.449 3.625 1.5.16.496.932 1.77.031 2.375-.343.23-2.81.109-4.219.28-3.468.427-6.992.975-8.156 1.25-2.252.533-4.047 1.47-5.375 1.907-.85.279-1.56.223-1.875.125-.678-.21-.79-.758-.344-.875 4.92-1.283 10.221-6.76 15.313-6.656zm198.594 2.407c2.271-.088 4.05.152 4.625.906.83 1.084.357 2.895.72 4.75 1.177 6.059 1.246 14.832.687 19.156-.059.456-.682 1.478-1.78 1.969-1.718.766-4.368.998-6.314 1.78a55.872 55.872 0 00-8.656 4.376c-3.336 2.045-6.463 5.075-7.03 4.75-1.275-.73-.408-2.9-.376-4.563.1-5.205.787-11.208 1.406-15.688.236-1.717 2.208-12.687 3.625-14 2.117-1.964 5.398-2.485 8.625-2.97 1.554-.23 3.104-.414 4.468-.466zm-261.782 7.312c2.65-.16 10.471 3.127 12.75 4.53 3.271 2.017 6.06 4.867 8.844 7.282 2.604 2.259 5.846 5.539 9.094 8.125 2.42 1.927 5.94 3.515 7.594 4.53 1.246.768.98 1.192.875 1.314-.363.414-5.823-2.242-14.5-7.406-5.928-3.527-11.63-7.281-12.563-7.844-3.558-2.145-7.532-3.005-9.969-4.563-1.619-1.033-2.618-2.002-2.78-2.281-.612-1.047-.466-2.168-1.157-2.156-1.754.033-3.039-.118-3.688-.063h-.03c-.074.013-3.43.437-5.75 1.688-2.284 1.229-3.792 2.979-3.75 3.25.15.997 1.442 1.57 2.343 2.344 1.604 1.377 3.334 2.717 4.688 3.563 3.49 2.18 7.652 4.73 11.438 7.313 9.174 6.257 17.065 12.91 17.906 13.5 6.68 4.692 14.194 8.375 14.031 10.563-.067.899-19.774 1.026-21.844 1-5.93-.077-10.697-1.575-20.469-6.344-4.628-2.258-10.692-6.434-13.906-12.188-3.299-5.906-2.269-12.4 1.156-17.75.982-1.536 1.563-2.83 2.844-3.906.821-.69 1.953-1.557 3.406-1.97 1.248-.353 3.821-.402 4.813-.687l2.563-.75c.336-.127.95-.14 1.688-.281 1.288-.25 2.871-.722 4.373-.813zm72.72 3.53c.396-.065.895.185 1.374.22 2.485.182 2.055.682 2.125 2.313.065 1.504-.39 1.795-1.313 1.906-.908.109-1.875.354-2.03 0-.545-1.225-1.323-3.471-.5-4.25a.63.63 0 01.343-.188zm-9.688.033c.273-.006.57.113.813.563.393.727.253 1.916.313 3.125.046.93.673 1.545 0 2.25-.666.698-2.536.467-5.594 1.156-.745.168-.392.44-1.156.53-1.975.23-4.912-.583-6.094-2.062-.736-.92-.537-2.233-.219-3.406.258-.947 1.521.835 3.156 2.25 2.17 1.878 3.3 3.268 4.813 1.156.704-.982 1.834-1.211 2.063-1.813.014-.035.032-3.643 1.22-3.625.162.002.41-.12.685-.124zm20.687 1c.458-.125 1.191.453 2.063.813.774.32 1.713.213 2.188.875.74 1.036.57 2.689-.563 3.406-.673.425-1.194-.291-1.938-.47-.655-.155-1.539.276-1.875-.28-.425-.701-.148-1.844-.28-2.5-.105-.51-.054-1.5.218-1.75a.42.42 0 01.187-.094zm11.344 3.03c.058-.024.116-.011.188 0 1.531.255 1.306-.108 3.031.907.886.52.73 1.69.438 2.688-.238.814.873 1.094-2.375 1.094-1.583-.001-2.153-4.307-1.282-4.688zm13.062 4.25c.296-.01.558.056.72.345.244.44-.1 1.28-.189 2.125-.183 1.717-1.99 2.484-2.75 1-.61-1.193-.346-2.311-.25-2.875.098-.58.754-.475 1.531-.5.303-.01.642-.084.938-.094zm112.063 1.72c.612.02 1.794 2.322 2.844 4.094.508.859 2.102 3.023 1.813 3.719-.082.195.408.807-.188.594-.263-.093-.744.254-.969.156-.975-.42-1.415-1.347-2.156-2.25-.584-.713-1.533-1.524-1.688-3.281-.198-2.235-.024-3.046.344-3.032zm-103.719.687c.778-.045 1.367.316 1.594.938.147.404-.11 1.047-.094 1.5.015.41.357 1.16.281 1.375-.157.439-.832.084-1.125.094-1.573.055-1.595-.257-1.688-.938-.284-2.072-.106-2.67.188-2.781a2.93 2.93 0 01.844-.188zm-63.219 1.625c.915.039 1.662.682 2 1.063.41.464 1.054 1.393.938 2.156-.079.524-.7.41-1 .906-.535.885-.862 2.296-1.156 2.78-.176.292-.509-.261-1-.218-.94.082-2.35.873-2.75.563-.31-.24-.803-.8-1.469-1.406-1.999-1.822-5.604-4.32-5.063-4.625.75-.422 1.985.807 3.563 1.344.573.195 1.917.324 3.125-.156.771-.31 1.116-1.852 1.844-2.188.335-.155.663-.232.968-.22zm94.5 1.156c.39-.053.938-.01 1.531.156 1.487.413 3.125 1.69 3.281 1.75.656.243 3.146 1.514 5.031 3.563 1.31 1.422 2.062 3.139 2.688 4.75.428 1.104.986 2.188.906 3-.086.855-.073 2.468-1.25 2.719-1.832.392-4.939-1.914-7.188-5.406-2.684-4.166-4.128-9.322-4.813-9.625-1.013-.448-.835-.82-.186-.907zm-20.593.594c.626-.052 1.215.144 1.47.563.288.479.082 1.634-.345 3.313-.174.684-2.125-.623-2.563-1-.537-.463-.59-1.306-.188-1.97.347-.57 1-.854 1.626-.906zm87.437.406c.875.027 1.82.429 1.938 1.063.442 2.408 1.806 3.555 2.22 4.313.628 1.156.28 1.795-.439 2.219-.49.29-1.26.357-1.594.875-.643.992-4.828-6.621-3.406-8.094.268-.278.756-.391 1.281-.376zm-117.28.907c2.106-.271 3.181 2.965 5.218 7.344 1.35 2.899 3.64 6.225 5.063 9.656 1.093 2.636 1.763 5.313 3.063 7.625 1.44 2.563.98 5.505 1.72 7.406.82 2.115 2.656 4.113 3.062 4.125.063.002 4.41.166 10.125 2.469 7.652 3.085 16.733 7.29 18.156 9.063.623.776-.543 2.004-2.094 2.75-2.827 1.358-3.039 1.764-3.563 2.03-.604.31-3.765-2.13-14.78-7.312-3.352-1.576-7.2-2.993-11.126-4.344-1.654-.568-9.785-3.867-18.28-5.75-7.676-1.701-15.833-1.921-18.47-2.25-.608-.076-.677-.683-.656-.72.701-1.257 2.78-1.616 5.063-2.093 2.843-.594 6.146-1.122 9.25-.875 3.955.315 7.075 1.42 7.22 1.438 2.925.347 14.506 6.21 14.5 2.78-.006-2.091-1.095-4.147-1.97-6.187-.138-.318-3.134-5.683-5.906-11.688-3.348-7.247-6.485-15.352-5.596-15.467zm179.061.187c.361-.101.917.54 1.531 1.344.675.88 2 2.137 2.375 3.219.703 2.027-1.014 2.695-2.28 2.438-.868-.176-1.647-1.334-1.72-1.875-.507-3.67-.37-4.997.094-5.126zm-141.5 1.28c.808-.01 1.88.356 2.406.47.96.206.993 1.642.97 2.28-.074 1.926.437 2.019-.657 1.907-3.838-.395-2.33.55-3.563-2.844-.513-1.415.037-1.802.844-1.812zm-27.03.689c.555-.09 1.474.41 2.03.594 5.271 1.727 10.378 16.84 11.938 21.78 1.545 4.894 3.376 10.402 2.344 10.157-.423-.1-2.053.142-4.28-2.875-2.162-2.925-4.39-9.418-4.939-12.063-.34-1.634-2.64-8.41-4.625-12.344-1.448-2.871-2.758-3.114-2.906-4.25-.09-.683.103-.946.437-1zm100.03.469c.103.01 3.313 3.44 4.156 5.813.327.928.828 1.582-.03 2.469-2.68 2.766-6.089-2-6.689-4.47-.047-.188.217-1.901.906-2.937.473-.708 1.343-.907 1.657-.875zm-116.437.406c1.804-.131 2.346.557 2.97 1.594.627 1.047 1.524 2.422 1.062 4.03-.285.99-1.795.34-2.844.157-.184-.033-1.993-.424-2.906-1.844-.479-.742-.8-2.365-.156-3.313.437-.645.237-.365 1.031-.5.311-.052.585-.106.843-.124zm109.125 3.53c.81.028 1.27.659 1.938 1.439.424.496.536 1.628 1.031 2.438.34.556 1.14.76 1.22 1.344.567 4.154-1.2 4.903-2.657 4.28-.78-.332-1.097-1.36-1.75-2.25-1.249-1.694-2.504-3.55-1.969-3.812.76-.373.216-1.992.72-2.72.346-.502-.067-.313.5-.53.368-.142.696-.198.967-.188zm-78.188 1.376c.867-.012 5.804 6.229 8 15.906.135.597.907 3.53 2.063 6.406 1.581 3.94 3.542 8.03 2.313 8.375-1.653.464-1.847-1.388-2.813-3-2.487-4.151-4.748-9.102-6.563-13.5-1.495-3.627-4.214-10.92-3.125-14.094a.135.135 0 01.125-.093zm143.688.344a.655.655 0 01.438.188c1.004 1.04 2.015 2.669 1.063 3.875-1.015 1.283-4.1 2.165-5.719 3.469-3.99 3.216-6.33 4.796-10.719 7.875-1.59 1.114-3.159.465-3.656.25-.186-.08-.413-.583.156-.97 1.086-.733 3.552-1.621 4.125-2.5.597-.913-1.414-1.248-2.25-.905-3.054 1.252-10.186 6.102-15.78 6.844-.022.003-5.42 1.415-10.657 4.063-6.63 3.35-13.448 8.127-13.656 8.25-3.342 1.952-6.564 3.212-8.28 4.188-.826.469-1.054 1.09-2.032.594-1.22-.617-2.846-2.2-2.469-2.75.918-1.34 6.495-.557 11.563-3.531 1.488-.874 3.153-3.443 5.125-4.438 2.578-1.3 5.805-1.34 8.563-3.094 4.126-2.626 8.318-5.303 12.25-7.281 1.3-.654 4.887-2.961 9.344-4.031 1.054-.253 1.932.245 3.094.375 1.236.139 2.755-.104 3.906-.625 3.688-1.67 6.662-4.027 9.47-5.844 2.56-1.661 4.964-4.053 6.121-4.002zm-134.625 1.625c.734-.01 3.118.458 5.875 1.469 3.612 1.324 7.745 3.663 11.156 5.406 3.52 1.798 6.272 2.979 5.188 3.469-.259.117-.927.036-1.594-.031-.069-.007-4.569-1.64-9.313-3.72-3.537-1.551-6.599-3.515-8.844-4.843-1.588-.94-3.083-1.474-2.688-1.72a.528.528 0 01.22-.03zm34.062.25c.78-.006 1.621.812 2 2.969.307 1.748.493 4.824-.188 5.53-.408.427-1.49-.658-2.03-1.562-.32-.531-1.494-5.031-1.25-5.656.292-.755.861-1.276 1.468-1.281zm28.22.562c1.112.084 1.945 1.717 2.25 2.78.06.213.562 2.288.968 3.814 1.14 4.307-5.025-.354-5.438-1.375-.506-1.252-.232-3.144.563-4.188.601-.79 1.15-1.07 1.656-1.031zm-102.095 1.407c1.101-.084 2.443.199 3.75.78 5.65 2.52 5.56 4.189 3.313 4.75-.553.139-3.945-.104-6.438-.28-1.398-.098-2.506.097-2.688-.281-.77-1.591-.494-2.717-.219-3.5.326-.926 1.182-1.386 2.282-1.47zm39.97 1.843c1.334.078 8.215 3.197 9.093 3.563 4.55 1.895 10.532 5.73 11.375 6.313 2.437 1.68 7.68 4.28 12.094 5.75 2.394.798 7.278 1.142 5.844 1.28-.02.004.204 1.793-1.438 2.157-1.739.388-4.277.178-5.125.125-.053-.004-5.409-1.483-10.375-3.5-4.813-1.956-9.16-4.494-9.78-4.781-2.743-1.265-8.969-3.572-11.282-7.375-.678-1.114-1.446-2.951-.594-3.5.036-.024.098-.037.187-.032zm101.062 1.75c.166-.002.35.035.531.094.496.16 1.295.695 1.094 1.344-.173.554-1.23.5-1.875 1.03-.263.217-1.336 1.112-2.469 1.439-.717.205-.719-.121-1.063-.5-.235-.26-1.002-.401-.75-1.063.27-.71 1.861-1.493 3.344-2 .282-.098.688-.338 1.188-.344zm47.312.782c.832-.048 1.434.22 1.531.344.145.184-1.59 2.64-3.688 5.438-.986 1.315-2.607 2.193-3.875 3.344-1.286 1.167-7.308 4.672-7.688 5.469-.183.38-1.235-.158-1.469-.656-.22-.47.145-1.282.25-1.531.73-1.724 3.395-3.974 5.281-5.344 1.038-.755 2.193-2.15 3.531-2.75 1.612-.724 3.056-2.974 4.438-3.781a3.74 3.74 0 011.69-.533zm-104.719.125c.636.018 1.512.468 2.344.969.388.234 4.75 2.796 4.22 3.594-.61.917-2.543 1.445-4.189 1.656-1.2.154-2.242.344-2.563-.72-1.312-4.34-.87-5.53.188-5.5zm115.875 1.875c2.456-.076 4.966.326 7.156 1.219 1.492.608 6.013 2.665 5.313 5.313-.137.516-.987 2.005-2.188 2.563-2.14.994-4.962 1.164-3.625 2.75.611.727 2.661.559 4.625.938 4.021.776 9.186 1.89 11.375 3.938 4.067 3.805 3.018 9.52-.156 11.906-2.173 1.63-5.866.99-8.875 1.188-1.695.11-3.67 1.614-5.063 1.563-1.084-.04-1.628-1.407-2.594-2.72-1.558-2.114-3.01-4.895-3.438-5.593-.855-1.39-1.26-3.004-2.125-3.25-.873-.25-1.203 1.177-1.78 2.375-.579 1.199-1.43 2.144-1.657 2.03-4.698-2.316-3.058-12.397-1.688-13.187.42-.241.203-1.88.125-3.344-.07-1.293.051-2.436-.656-2.344-.197.025-2.396 1.222-4.594 2.969-3.665 2.912-8.003 7.105-8.875 7.438-1.947.74-2.2-.8-2.53-1.125-.847-.835 1.706-2.618 3.155-3.656 1.076-.771 2.075-2.354 3.563-3.563 1.384-1.124 2.8-2.572 5.97-4.813 2.31-1.635 5.404-2.498 8.562-2.595zm-67.843.562c.41-.052.784.104 1.031.063 1.293-.22 1.101.844 1.906 1.063.156.042.481.422.375.563-.178.235-.978.285-1.438.688-.574.5-.984 1.299-2 .75-.976-.524-1.475-2.258-.28-3a.936.936 0 01.406-.127zm-132.969 1.03c.283-.005.57.002.906.032 1.517.136 5.808.187 8.281 2.063 4.151 3.15 8.082 6.485 1.531 6-2.72-.202-5.742-1.274-8.656-1.906-2.267-.491-4.615-.427-5.844-1.375-1.436-1.107-.99-2.2.22-3.25.766-.67 1.575-1.522 3.562-1.563zm127.594 2.158c.285.004.53.006.625.03.825.225.812.859.844 1.282.066.888-1.14 2.402-2.406 3-.866.407-1.875.164-2.125-.156-.968-1.233.31-3.268.688-3.875.13-.21 1.515-.292 2.374-.281zm-7.5 3.656c.978-.004 1.121 1.678 1.094 2.688-.016.542-.265.373-.78.75-.175.125-.35.25-.5.344-1.802 1.084-2.233-.15-2.376-2.688-.05-.866.902-1.087 2.562-1.094zm-73.657.062c.831-.032 2.681.873 4.406 1.5 1.634.593 3.172.789 3.625.938 2.712.887 5.536 2.55 8.438 3.78 3.5 1.486 6.963 2.589 8.594 4.376.595.652-.76 1.476-1.5 2.813-.409.74-1.722.266-2.563 0-.265-.084-2.885-.816-6.063-2.156-1.552-.653-6.37-2.92-10.03-5.063-.987-.577-4.988-2.42-5.095-3.125-.197-1.297-.748-2.583-.094-3 .074-.047.163-.058.282-.063zm51.594.938c1.164-.006 2.541.414 3 .53 2.047.525 1.088 1.076-.063 1.907-1.388 1.003-3.56 1.698-4.094 2.25-.439.456-1.504.502-2.03.78-1.585.837-2.933 1.523-4.657 1.282-.24-.033-2.5-.806-3.938-1.563-1.436-.757-1.824-1.693.281-2.031.333-.053 3.033-.61 6.22-1.406 2.168-.542 3.29-1.514 4.78-1.72a4.51 4.51 0 01.501-.03zm13.813 2.625c.358.016.668.168.875.219.027.007.65.159.844.75.192.59-.027 1.628 0 2.28.028.686.31 1.407-.719 1.407-.323 0-.645.03-.969 0-.032-.003-.687.063-1.125-.47-.564-.682-.854-2.154.031-3.593.3-.488.703-.61 1.063-.593zm-160.563 3.094c.621.01 1.293.037 1.875 0 1.785-.115 1.5 1.947-.094 3.53-.997.99-3.537 1.919-5.063 2.47-2.697.977-2.606-1.25-1.406-2.938.545-.766 1.673-1.122 2.25-1.531.46-.327.331-1.17.781-1.344.47-.18 1.035-.197 1.657-.187zm153.656.25c.307-.02.537.068.72.28.62.727 1.031.578 1.124.907.234.839-1.34 2.027-2.094 2.594-2.562 1.927-2.02 1.95-5.406 1.438-2.319-.353-3.908-1.224-3.78-1.906.174-.938 2.792-.853 4.905-1.594 2.103-.738 3.61-1.662 4.531-1.72zm56.657 1.218c3.28.138 10.702 5.083 19.875 11.313 6.535 4.439 15.862 8.927 22.531 13.25 7.592 4.922 18.016 10.489 26.25 14.938 4.318 2.333 8.978 4.302 6.656 4.063-.427-.044-3.055-.934-4.938-1.72-3.035-1.264-6.262-3.7-9.78-5.75-4.982-2.9-10.308-5.582-14.345-8.03-4.064-2.464-8.797-4.78-13.03-7.438-8.189-5.138-15.47-9.661-18.939-11.188-2.957-1.303-5.878-2.87-7.656-4.125-2.773-1.957-3.829-3.42-6.53-3.156-2.76.267-5.738 3.234-10.626 6.719-4.258 3.033-9.249 4.816-13.438 6.625-1.73.746-3.133 3.198-5.094 3.063-.938-.064-1.772-.318-2.438-.813-.51-.38 5.49-3.14 12.188-6.625 4.294-2.235 8.77-4.98 12.344-6.906 3.311-1.785 5.355-3.675 5.813-3.97.292-.187.688-.27 1.157-.25zm-181.813 1.125a22.24 22.24 0 011.656 0c5.703.188 15.843 2.084 21.25 3.25 10.741 2.318 22.144 5.936 30.031 10.094 1.423.75 8.103 2.539 9.906 5 1.234 1.685-3.279 3.905-5.156 4.438-.706.2-2.295-.84-3.375-1.25-4.449-1.69-10.919-5.421-14.219-6.531-2.018-.68-10.898-4.072-20.063-6.031-11.783-2.52-25.075-2.788-24.938-3.531.74-4.006 1.47-5.293 4.908-5.44zm69.063 0c2.965-.028 7.17 2.085 10.406 3.875 2.438 1.35 4.515 2.309 4.094 3.125-1.225 2.37-3.97 3.42-6.53 2.906-1.605-.322-2.92-1.672-4.407-2.438-1.452-.75-2.988-.96-3.75-1.906-.607-.756.07-1.438 0-2.22-.11-1.22-.775-3.332.187-3.342zm32.281.282c1.921.063 4.241 3.8 3.844 4.469-.17.288-2.602-1.664-4.594-1.813-.936-.07-2.475 1.116-4.563 2.53-2.692 1.824-6.739 4.063-9.906 6.345-3.549 2.555-6.43 5.606-8.156 6-.319.072-.54-.545-.78-.625-.98-.322 17.082-11.37 17.718-12 1.495-1.486 3.941-3.588 5.656-4.688.25-.16.507-.227.781-.218zm-126.53 4.28c.261-.002.485.025.718.095.98.294.717.993.688 1.688-.044 1.047-.539 2.565-2.03 3.906-.897.806-2.626 1.42-3.5 2.156-1.142.959-1.405 1.944-2.345 2.406-.596.292-1.252.188-1.594.188 0-2.887.05-4.248 2.156-6.813 1.581-1.927 4.071-3.608 5.906-3.625zm22.28 5.407c1.834-.066 4.51.25 8.125.625 4.384.453 9.938.646 14.625 2.219 4.107 1.377 8.98 1.939 13.906 3.469 9.227 2.866 18.268 6.528 20.156 7.094 3.15.944-.55 1.87-1.969 3.063-1.825 1.53-2.925 2.433-5.094 2.03-.879-.162-4.983-2.071-10.375-4.155-9.94-3.841-18.68-6.241-29.375-7.594-2.916-.368-6.494.497-8.313.313-3.24-.328-3.908-1.408-4.125-2.031-1.31-3.765-.619-4.923 2.44-5.033zm-20.719 3.03c.918.01 2.437 3.143 2.25 4.032-.232 1.11-1.71 3.673-5.906 6.125-1.299.759-2.445 1.554-3.219 1.188-2.234-1.06-1.354-4.18.063-6.25.79-1.155 2.39-2.42 3.375-3.594.29-.346 2.233-1.511 3.437-1.5zm22.47 7.126c.894-.017 2.062.026 3.562.063.085.002 7.784.472 14.406 1.469 4.68.703 8.821 2.015 9.375 2.156 4.031 1.036 9.821 3.095 13.75 5.125 1.15.594 2.748.818 3.344 1.469 1.193 1.303.336 3.344-1.594 3.625-1.704.247-4.132-1.068-8.625-2.75-4.8-1.796-10.656-3.838-16.53-5.094-1.009-.216-4.884-1.323-8.939-1.75-5.215-.55-10.705-.434-10.75-.594-.872-3.066-.684-3.67 2-3.72zm102.843 1c.255.006.504.038.75.094 1.2.272 5.213 1.157 7.75 2.469.396.205 2.455 1.753 4.313 2.969 3.246 2.124 2.034 2.656.563 2.125-.619-.225-1.52-1.012-2.625-1.594-1.612-.852-3.51-1.561-4.5-2.094-1.378-.743-2.67-1.993-4.344-2.281-2.289-.395-4.648.652-6.219 1.5-.856.46-1.49.558-2.438 1.375-.765.659-2.575 2.083-2.438.906.021-.167.611-.72.688-1 .06-.222 1.25-.75 2.531-1.72 2.168-1.638 4.18-2.787 5.97-2.75zm39.406 0c2.818-.108 4.896 1.045 4.625 2.063-.107.398-.026.948-1.219 1.125-2.332.346-3.47 1.714-5.219 2.75a17.151 17.151 0 01-6.313 2.188c-.963.13-1.836.439-2.938.25-.676-.117-.662-1.34-.406-1.75.44-.712 1.406-.637 2.344-.875 2.206-.56 4.686-2.321 6.531-3.781.966-.765 1.531-1.93 2.595-1.97zm-77.219 1.657c.98 0 2.063.142 2.063 1.03-2.229 0-2.132 3.126-3.594 3.126 0 2.193-3.094 2.44-3.094 3.594-2.109 0-3.173 2.063-5.688 2.063 0 .92-2.563.779-2.563 2.063-1.894 0-1.754 2.125-3.656 2.125 0-.98-1.019-1.563 0-1.563 0-1.593 3.656-1.862 3.656-3.125.88 0 3.594-1.258 3.594-2.063.878 0 3.594-1.26 3.594-2.063h1.063c0-.924 4.625-3.041 4.625-5.187zm-86.094.312c.48-.007.955.089 1.375.344.471.286.38.949.594 1.406.47 1.006.874 2.063 1.094 3.28.25 1.384-.609 1.77-1.313 2.72-.48.65-.342 2.065-1.938 2.28-.75.103-1.937 1.56-3.03 1.25-.657-.183-1.246-1.867-1.75-2.437-.549-.617-1.412-1.164-1.282-2.656.3-3.441 2.69-4.651 3.906-5.406.721-.447 1.544-.77 2.344-.781zm-24.468 4.344h6.22c0 1.68 1.53 2.465 1.53 4.125 1.28 0 1.135 2.594 2.063 2.594 0 1.504-2.063-.317-2.063-1.563-.969 0-.937-1.531-2.563-1.531 0-1.055-2.063-.51-2.063-1.563-1.473 0-6.219-.033-6.219 1.563-1.513 0-1.707 1.03-3.625 1.03 0 1.094-2.563 1.289-2.563 2.564-1.072 0-1.822 2.625-3.625 2.625 0 1.753-2.094 2.024-2.094 3.094-1.184 0-.603 1.53-1.53 1.53 0-1.1.504-3.593 1.53-3.593 0-1.828 2.625-2.438 2.625-3.656 1.506 0 1.827-1.531 3.594-1.531 0-.64 2.063-.98 2.063-2.063 1.398 0 1.733-1.031 3.125-1.031 0-1.08 2.563-.352 2.563-1.563.44 0 1.032-.605 1.032-1.031zm47.875.156c1.151.054 3.278.92 6.47 1.063 3.221.144 6.225.04 9.343.656 2.72.536 5.425 1.097 7.094 2.188 1.438.942 1.353 3.353 2.188 4.219 2.04 2.116 2.048 2.704.47 2.28-.668-.18-1.27-.7-2.689-1.093-2.094-.58-4.997-2.332-8.313-3-3.718-.747-8.518-.963-11.625-1.656-3.328-.742-3.712-1.23-3.906-2.563-.248-1.681.071-2.136.968-2.094zm202.281 2.906c.8-.06 2.767 1.03 5.25 2.219 4.278 2.049 10.07 5.04 13.813 7.656.982.688 2.12 1.467 3.125 1.906.733.32 1.294.54 1.188.906-.09.306-.75 1.035-1.78 1.03-1.099-.003-2.405-1.028-5.22-2.468-3.003-1.533-6.212-3.462-7.094-4.063-1.077-.73-3.515-2.283-5.469-3.531-.95-.606-1.604-1.238-2.28-1.5-.769-.298-1.51-.212-2.282-.688-.774-.475-.895-1.347.75-1.467zm-80.25.844c.536.017 1.046.209 1.313.563.435.579-2.64 2.997-3.125 3.28-.572.335-1.635.474-2.594.876-1.52.638-2.996 1.508-3.563 1.563-3.093.3.188-1.023 1.938-2.406 1.62-1.28 2.77-1.52 4.594-3.375.343-.352.9-.518 1.437-.501zm-141.688 1.813c1.344.023 1.634 1.988 1.625 5.813-.003.88-.06 2.38-1.188 2.656-1.238.304-2.796-.58-3.438-.97-3.47-2.102.435-7.545 3.001-7.5zm24.97 2.5c5.118.169 15.23 3.964 16.53 4.28 2.511.616 4.65.838 4.406 1.75-1.058 3.978-5.984 1.64-9.03.876-3.897-.977-8.314-1.38-10.689-2.188-6.06-2.062-4.72-4.836-1.218-4.718zm229.593 52.187c-1.854 0-3.614.502-5.28 1.5-1.67.998-2.912 2.33-3.72 3.969-.808 1.637-1.234 3.64-1.313 6.063h1.5c.263-2.068.805-3.504 1.625-4.313.82-.808 1.81-1.188 3-1.188.634 0 1.71.16 3.22.5 2.618.627 4.76.938 6.374.938 2.512 0 5.562-.591 9.188-1.781-3.849 2.52-6.464 4.488-7.844 5.906-1.38 1.418-2.355 2.979-2.938 4.688-.584 1.709-.926 4.42-1.03 8.156a34.058 34.058 0 00-3.657-.22c-2.648 0-4.823.74-6.53 2.25-1.709 1.51-2.705 3.553-2.97 6.095l1.531.5c.606-1.237 1.203-2.043 1.813-2.438 1.136-.764 2.456-1.156 3.938-1.156 2.377 0 4.15.932 5.313 2.813.74 1.166 1.13 3.06 1.156 5.656a31.236 31.236 0 00-1.344-.031c-2.48 0-4.478.698-5.969 2.125-1.49 1.427-2.25 3.249-2.25 5.469 0 .238.034.624.063 1.125l1.406.03c.237-1.396.717-2.423 1.406-3.03.688-.607 1.568-.906 2.656-.906 1.19 0 2.187.37 2.97 1.125.78.755 1.155 1.74 1.155 2.906 0 .979-.327 2.018-1 3.156-.673 1.138-2.214 2.943-4.625 5.406-2.414 2.463-3.994 4.345-4.719 5.656-.726 1.31-1.094 2.497-1.094 3.53 0 1.112.307 2.018.906 2.72.598.7 1.285 1.063 2.031 1.063.48 0 .914-.228 1.313-.625.4-.397.594-.846.594-1.375 0-.558-.29-1.31-.844-2.25-.556-.941-.813-1.648-.813-2.125 0-1.273.938-2.54 2.844-3.813 2.833-1.908 6.594-2.875 11.281-2.875 3.812 0 7.381.575 10.72 1.688 2.064.662 4.257 1.786 6.562 3.375 6.648-5.521 14.692-8.813 24.125-9.875V619.68c0-3.1-.34-5.3-1-6.625-.66-1.325-1.817-2.401-3.469-3.25-1.653-.848-4.238-1.432-7.78-1.75 4.147-3.158 6.984-5.892 8.53-8.188 1.546-2.296 2.313-4.506 2.313-6.656 0-2.627-.987-4.953-2.969-6.97-1.402-1.432-3.469-2.538-6.219-3.28-8.623 2.647-14.223 4.772-16.78 6.375-2.562 1.604-4.328 3.542-5.282 5.78-.955 2.24-1.406 6.074-1.406 11.532v11.719c0 4.425-.82 7.784-2.438 10.063-1.618 2.278-4.777 4.42-9.469 6.406 2.405-2.544 4.02-4.825 4.813-6.813.793-1.986 1.188-4.766 1.188-8.344v-16.313c0-4.373.948-7.896 2.844-10.531 1.895-2.636 5.68-5.342 11.406-8.125l-.75-1.75c-2.225.954-4.043 1.589-5.406 1.906-1.364.318-2.764.5-4.219.5-1.986 0-4.578-.425-7.78-1.22-3.205-.792-5.5-1.185-6.877-1.185zm-342.156.875c-1.404 1.989-2.56 3.237-3.5 3.78-.94.545-2.288.814-4.063.814-2.649 0-7.518-.57-14.563-1.75-7.046-1.181-11.938-1.781-14.719-1.781-4 0-7.563.759-10.688 2.28-3.126 1.524-5.656 3.689-7.563 6.47-1.43 2.093-2.6 5.02-3.5 8.78l1.531.876c.924-2.943 2.026-5.14 3.281-6.625 1.254-1.484 3.005-2.674 5.25-3.563 2.244-.89 4.275-1.294 6.125-1.188l5 .28c-3.282 2.308-5.825 4.405-7.625 6.314-2.833 3.05-4.982 6.254-6.438 9.594a26.014 26.014 0 00-2.188 10.5c0 3.633.661 6.886 2 9.75 1.338 2.864 3.063 5.297 5.156 7.313 2.093 2.016 4.39 3.574 6.906 4.688 4.345 1.908 9.018 2.875 14 2.875 5.112 0 9.604-1.035 13.5-3.063 3.895-2.026 7.098-4.748 9.563-8.22 1.536-2.145 2.865-5.011 4.031-8.562l-1.5-.72c-2.038 3.6-4.275 6.362-6.656 8.282-2.38 1.92-5.573 3.5-9.594 4.719V595.49c1.857.159 3.448.25 4.75.25 2.442 0 4.597-.42 6.47-1.281 1.87-.861 3.28-2.047 4.25-3.531.968-1.483 1.723-3.523 2.28-6.094zm109.468.594c-2.177 0-4.178.4-5.969 1.219-1.79.819-3.612 2.1-5.469 3.844l1.063 1.219c2.256-1.36 4.292-2.063 6.125-2.063 1.672 0 3.213.399 4.594 1.188 1.381.789 2.308 1.772 2.813 2.969.505 1.195.781 3.082.781 5.656v2.78l-10.375 6.782c-1.453.979-3.126 1.953-5 2.906v1.656c3.667.983 6.697 2.364 9.063 4.156 2.365 1.793 4.002 3.778 4.906 5.969.903 2.19 1.38 5.107 1.406 8.719-3.77.764-6.997 1.918-9.625 3.5-2.629 1.582-5.738 4.355-9.375 8.28l1.25 1.532c2.63-2.066 5.24-3.59 7.844-4.531 2.604-.941 5.92-1.515 9.906-1.75v16.188h14.781v-15.5c2.36.185 4.738.58 7.125 1.188 2.386.607 5.207 1.586 8.47 2.906l12.218-10.875v-25.313c0-3.605-.355-6.331-1.03-8.188-.677-1.855-2.055-3.848-4.189-5.97-2.135-2.12-5.999-4.941-11.594-8.468l-11 7.125v-7.125h-1.813v8.25l-4.78 3.188c-.055-2.58-.48-4.61-1.314-6.125-.837-1.515-2.242-2.8-4.219-3.813-1.974-1.013-4.179-1.5-6.593-1.5zm-87.812 1.812c-1.948.264-3.662.756-5.156 1.469-1.495.713-3.06 1.844-4.688 3.375-1.37-1.21-2.469-2.076-3.313-2.563-.844-.487-1.979-.918-3.375-1.313l-.406 1.03c1.706.98 2.83 2.064 3.406 3.282.577 1.218.875 3.467.875 6.75v36.156l-3.156 3.158 7.094 5.656 7-5.656-2.844-2.875v-22.188l6.781-5.531c1.498.956 2.531 1.925 3.094 2.906.374.717.563 2.017.563 3.875v16.656c0 6.13-.238 9.946-.688 11.406-.609 1.938-1.92 3.744-3.906 5.469-1.985 1.725-5.506 3.653-10.563 5.75l.531 1.5c6.234-2.201 11.372-4.82 15.406-7.844 3.077-2.281 5.202-4.714 6.344-7.313.716-1.592 1.063-4.113 1.063-7.563v-18.031c0-3.793-.389-6.484-1.188-8.063-.8-1.578-2.518-3.21-5.156-4.906l-12.28 9.78v-12.968c0-2.993.365-5.187 1.062-6.563.695-1.377 1.975-2.657 3.875-3.875zm353.781.625c2.834 1.248 4.947 2.646 6.313 4.25 1.364 1.604 2.031 3.523 2.031 5.75 0 2.705-.877 5.21-2.625 7.53-1.749 2.32-4.438 4.583-8.094 6.782v-10.343h-1.78v33.125c-3.266-1.008-6.746-1.5-10.407-1.5-2.15 0-4.443.16-6.938.53 4.62-2.702 7.673-4.737 9.188-6.155 1.514-1.417 2.53-2.873 3.063-4.344.531-1.471.813-3.68.813-6.594v-16.281c0-2.941.177-5.018.563-6.25a7.144 7.144 0 012.063-3.22c.993-.9 2.938-1.981 5.81-3.28zm-200.78.407l-2.032 8.563h1.625l5.47-8.563zm-41.282 3.03c4.174 2.095 7.347 4.002 9.5 5.75 2.153 1.75 3.56 3.397 4.22 4.907.66 1.51 1.003 3.408 1.03 5.688-2.014 1.34-3.784 2.24-5.28 2.75a14.64 14.64 0 01-4.75.78c-1.67 0-3.249-.27-4.72-.78-1.47-.51-3.202-1.41-5.188-2.75V593.71zm131.468 1.188l-11.094 13.719v1.75h3.75v22.75c0 1.854-.205 3.27-.656 4.25-.346.769-1.062 1.535-2.125 2.25v.78c3.767 1.092 7.147 3.19 10.125 6.25l8.75-7-1-1.155-2.53 1.906-4.439-3.25V606.96h7.97v-4.47h-7.97l.375-11zm-299.875.907l2.094.219v29.688c0 3.102-.202 5.149-.625 6.156-.425 1.007-1.598 2.32-3.53 3.938-6.093-4.69-9.157-10.735-9.157-18.156 0-4.347 1.123-8.58 3.375-12.688 1.668-3.048 4.294-6.11 7.843-9.157zm10.313 1.625c1.927.4 4.147.78 6.656 1.125v41c-2.3.287-4.026.438-5.188.438-2.194 0-4.498-.335-6.875-.97-1.374-.368-3.156-1.071-5.375-2.155 4.438-3.551 7.394-6.17 8.875-7.813.818-.955 1.337-1.807 1.563-2.563.225-.754.344-2.53.344-5.313zm151.094.906v57.969h-4.78v-54.813zm-67.625 5.906c-4.402 2.244-7.214 3.634-8.406 4.188-1.645.74-3.696 1.57-6.188 2.469v22.75c0 2.598-.165 4.28-.469 5.063-.304.782-.886 1.439-1.78 1.969v1.03c3.124.68 5.522 1.3 7.218 1.907 1.696.607 3.878 1.634 6.5 3.03l12.844-8.968-.875-1.188-6.219 4.25-9.219-3.656v-7.25l17.813-12.47zm112.937 0l-7.063 5.813 3 3.094v22.188c0 3.34.328 5.692.938 7.03.61 1.34 1.97 2.772 4.094 4.282l8.438-7-.938-1.22c-1.043.894-1.73 1.438-2.063 1.626a1.528 1.528 0 01-.78.188c-.404 0-.778-.342-1.157-1.031-.379-.688-.594-2.158-.594-4.438v-21.625l3.188-3.094zm23.063 0l-8.219 7.188.938 1.125c1.027-1.037 1.814-1.563 2.406-1.563.54 0 1.051.354 1.5 1.03.45.678.688 2.049.688 4.095v16.25c0 2.364-.202 3.977-.563 4.813-.36.837-1.107 1.646-2.28 2.469v.813a20.485 20.485 0 014.843 2c1.475.85 3.288 2.25 5.47 4.188l10.124-8.156-.906-1.313-4.094 3.219-4.5-3.25v-23.158l3.938-3.563 5 6.375 5.97-5.344-5.97-7.22-8.938 7.782c0-1.402-.284-2.486-.813-3.281-.82-1.268-2.347-2.78-4.594-4.5zm37.625 0c-2.384 2.469-5.128 3.719-8.25 3.719-.503 0-1.28-.053-2.313-.125l-.563 1.063 4.813 10.188c-3.196 3.716-5.446 6.963-6.75 9.75-.986 2.124-1.469 4.396-1.469 6.813 0 3.61 2.255 7.283 6.781 11l12.125-9.563c.078 2.255.444 4.02 1.125 5.28.68 1.262 2.018 2.69 4.031 4.282l8.47-7.313-.939-1.22c-.933.768-1.496 1.189-1.688 1.314-.312.148-.62.219-.906.219-.55 0-1.013-.33-1.406-1.031-.395-.702-.594-2.47-.594-5.281v-16.938c0-2.016.175-3.602.563-4.781.387-1.18 1.307-2.898 2.75-5.125l-1.438-.531c-.689.967-1.178 1.554-1.469 1.75-.292.195-.727.28-1.28.28-1.219 0-2.962-.345-5.25-1.03-2.29-.687-4.412-1.587-6.343-2.72zm61.718 0c-4.4 2.244-7.183 3.634-8.375 4.188-1.645.74-3.727 1.57-6.219 2.469v22.75c0 2.598-.134 4.28-.438 5.063-.304.782-.918 1.439-1.813 1.969v1.03c3.126.68 5.523 1.3 7.22 1.907 1.695.607 3.876 1.634 6.5 3.03l12.843-8.968-.844-1.188-6.25 4.25-9.219-3.656v-7.25l17.813-12.47zm118.5 0c-2.383 2.469-5.127 3.719-8.25 3.719-.504 0-1.28-.053-2.313-.125l-.563 1.063 4.813 10.188c-3.196 3.716-5.445 6.963-6.75 9.75-.986 2.124-1.469 4.396-1.469 6.813 0 3.61 2.254 7.283 6.781 11l12.094-9.563c.077 2.255.476 4.02 1.156 5.28.68 1.262 2.017 2.69 4.031 4.282l8.47-7.313-.939-1.22c-.933.768-1.496 1.189-1.688 1.314-.312.148-.62.219-.906.219-.55 0-1.013-.33-1.406-1.031-.393-.702-.594-2.47-.594-5.281v-16.938c0-2.016.175-3.602.563-4.781.387-1.18 1.306-2.898 2.75-5.125l-1.438-.531c-.689.967-1.179 1.554-1.469 1.75-.292.195-.726.28-1.28.28-1.219 0-2.962-.345-5.25-1.03-2.289-.687-4.41-1.587-6.343-2.72zm28.5 0l-8.313 6.969.97 1.313c.233-.211.394-.395.5-.5.704-.686 1.305-1.031 1.75-1.031.548 0 1.06.384 1.53 1.125.601.955.875 2.757.875 5.406v19c0 1.564-.103 2.764-.313 3.625-.212.86-.608 1.807-1.188 2.813-.212.372-.757 1.006-1.625 1.906-1.818 1.854-2.719 3.758-2.719 5.719 0 1.986.834 3.71 2.47 5.156 1.634 1.443 3.964 2.156 7 2.156 2.9 0 5.287-.648 7.187-1.97 1.24-.82 1.875-1.654 1.875-2.5 0-.476-.185-.865-.5-1.155-.317-.291-.724-.438-1.25-.438-.476 0-.877.14-1.219.406-.343.265-.776.825-1.25 1.688-.476.862-.938 1.422-1.438 1.688-1.03.558-2.356.844-3.938.844-2.189 0-3.95-.565-5.28-1.72-1.333-1.153-2-2.428-2-3.78 0-.797.19-1.521.562-2.156.502-.876 1.371-1.76 2.563-2.688.554-.451 2.226-1.521 5.031-3.22 6.43-3.84 11.083-6.941 13.97-9.312 2.883-2.371 4.992-4.894 6.343-7.531 1.35-2.64 2.031-5.286 2.031-7.938 0-4.932-2.088-9.553-6.219-13.875l-11.969 9.594v-.875c0-1.993-.359-3.545-1.03-4.688-.673-1.141-2.137-2.491-4.406-4.031zm-327.687 2.688v11.75c-1.433-1.447-2.789-2.618-4.063-3.5-1.272-.882-2.822-1.71-4.625-2.5zm-60.688 1.875l9.906 11.03-10.469 7.345V605.71zm235.344 0l9.906 11.03-10.469 7.345V605.71zm-64.937.562l13.625 4.156v10.156l-8.78-4.094zm180.218 0l13.594 4.156v10.156l-8.75-4.094zm49.157 1.594c2.875 3.414 4.313 6.896 4.313 10.469 0 2.647-.773 5.45-2.344 8.375-1.572 2.925-4.213 5.736-7.938 8.438v-22.47zm-304.375 1.156v12.344c-2.146-1.197-3.963-2-5.406-2.438a15.387 15.387 0 00-4.5-.656c-1.562 0-3.098.236-4.594.688-1.498.452-3.318 1.236-5.438 2.406v-12.063c2.013 1.17 3.716 1.944 5.094 2.344a16.23 16.23 0 004.531.625c1.722 0 3.311-.22 4.781-.656 1.47-.437 3.333-1.322 5.532-2.594zm230.812.656c2.275.977 3.804 2.019 4.625 3.125.82 1.107 1.25 2.588 1.25 4.406-2.17.75-4.128 1.125-5.875 1.125-1.748 0-3.706-.374-5.875-1.125v-3.812c1.031-.558 2.99-1.807 5.875-3.72zM338.02 617.43l9.656 4.5v9.78l-6.063 4.845c-3.885-2.78-5.813-6.336-5.813-10.625.002-2.436.735-5.27 2.22-8.5zm180.22 0l9.624 4.5v9.78l-6.03 4.845c-3.885-2.78-5.814-6.336-5.814-10.625 0-2.436.733-5.27 2.22-8.5zm-34.25 1.219c2.09.75 4.047 1.125 5.874 1.125 1.693 0 3.65-.374 5.875-1.125v7.094c-2.304-.715-4.312-1.063-6.03-1.063-1.776 0-3.683.348-5.72 1.063zm-234.845 1.187c1.694 0 3.261.23 4.72.719 1.456.488 3.2 1.434 5.187 2.78V636.9c-4.08-1.928-7.654-3.287-10.688-4.094a41.436 41.436 0 00-9.25-1.375v-8.094c2.04-1.348 3.811-2.293 5.281-2.781 1.47-.488 3.054-.72 4.75-.72zm240.375 6.438c1.693 0 3.783.423 6.22 1.28v5.407a40.961 40.961 0 00-8.532 3.375c-1.007-.637-2.08-1.183-3.219-1.688v-7.094c1.932-.858 3.758-1.28 5.531-1.28z" filter="url(#a)" opacity=".42"/><radialGradient gradientUnits="userSpaceOnUse" gradientTransform="matrix(1.5311 .0015 .0011 -1.0711 -382.33 352.014)" r="261.656" cy="41.248" cx="425.671" id="b"><stop stop-color="#a4724e" offset="0"/><stop stop-color="#906444" offset=".41"/><stop stop-color="#3f2b1d" offset="1"/></radialGradient><path d="M239.364 57.524c-1.063.059-1.119.378-.938 1.25.281 1.356.788 3.623 3.25 6.688 1.146 1.425 1.801 6.139.375 10.438-.807 2.432-3.203 4.66-4.594 7.125-1.576 2.792-2.156 5.85-3.156 8.813-1.222 3.623-5.259 3.755-7.188 6.875-2.849 4.608-2.42 7.594-5.28 11.125-3.045 3.754-6.047 5.664-7.532 5.844-.18.02-1.755 1.53-2.094 1.53 0 1.484-3.625 4.23-3.625 7.782-1.365 0-2.252 17.218-2.563 19.156-.562 3.506-4.203 8.266-9.188 12.438-4.13 3.458-9.264 6.288-13.688 9.688-8.617 6.62-14.479 13.97-13.844 14.75.565.697 4.868.092 8.938-1.781 3.591-1.652 6.777-4.596 9.563-3.72 1.87.59-4.453 14.92-4.53 15.72-.288 2.917-1.167 5.855-1.282 8.406-.205 4.548.657 7.93 1.938 8 3.001.162 6.268-11.478 12.281-20.844 6.015-9.366 14.778-16.472 20-21.188 5.063-4.571 9.345-10.203 9.938-14.22.09-.611 1.002-3.546 1.22-7.687.228-4.408-.16-10.197 2.093-16.031 1.846-4.778 8.165-9.791 11.156-12.906 3.975-4.14 7.044-8.286 7.25-7.375 2.077 9.16 2.351 20.974 4.781 31.656 1.82 8.002 5.371 17.909 4.47 25.813-.21 1.824-.862 1.643-1.595 3.469-2.216 5.533-6.323 11.453-10.594 18.53-5.669 9.397-11.927 20.324-17.594 30.189-2.146 3.736-5.21 5.783-7.844 8.28-3.978 3.772-7.442 7.284-8.75 8.97-2.144 2.763-3.187 5.725-2.469 6.313.314.258 1.527.018 2.875-1.031 1.048-.816 2.07-2.351 3.563-3.031 1.775-.81-.556 10.88.906 22.156 1.44 11.118 6.26 21.163 8.781 23.125.748.58 5.565 7.288 6.406 11.125.155.71-.516 1.456-.53 1.813-.497 10.567-26.184-18.075-33.657-33.438-3.527-7.252-7.99-22.123-7.75-29.813.231-7.435 3.084-14.826 6.031-17.844.678-.695 1.346-1.574 1.813-2.25.675-.978-.256-1.646-.719-1.625-2.006.092-7.38 9.406-7.53 9.406 0 4.455-8.433 7.053-10.376 9.813-.857 1.217-4.812 3.44-8.625 6.094-2.288 1.59-4.14 4.019-6.28 4.563-.703.179-1.472-.728-2.126-.781-.49-.041-1.466-1.173-1.813-1.5-.326-.308-1.81-5.667-1.813-5.75-.084-2.177-5.76-20.921-11.188-38.188-4.719-15.017-9.039-29.051-10.625-28.594-.71.204.144 3.3.125 14.5 0 .06-13.113 26.763-14.094 29.78-.205.63-1.858 13.155-4.125 26.595-1.27 7.54-.698 16.493-1.75 23.25-.85 5.454-1.552 10.766-2.563 11.469-1.99 1.383-.296 4.34-.219 4.406 1.104.955 5.948-7.777 7.938-15.156 1.873-6.951 3.438-14.896 3.438-18.75.023 0 4.408-22.781 6.22-22.781 0-5.303 9.222-23.98 11.874-20.688 1.17 1.453 2.52 4.38 2.844 8.906.27 3.75-.337 8.652-.75 14.219-1.04 14.025-2.888 27.532-4.406 41.313-1.716 15.573-5.835 59.63-5.969 60.28-.785 3.832-2.078 20.5-3.813 37.345a3594.521 3594.521 0 00-3.938 40.813c-.056 7.349-12.188-6.041-12.906-6.188-3.524-.72-33.376-28.7-38.125-27.688-.778.165-.216 2.082.906 3.844 2.292 3.602 24.908 22.31 36.406 32.156 5.366 4.594 6.301 3.467 6.5 7.813.14 3.063-11.207 8.972-16.78 14.063-2.34 2.137-4.114 3.618-2.876 5.5.38.578 2.53-.36 2.438.53-1.347 12.935 1.478 18.74 3.094 21.907 1.582 3.102 2.95 6.602 5.5 9.938 6.22 8.137 17.92 16.467 27.75 19.406 2.414.722 10.053 4.738 20.344 5.094 7.753.269 15.827-1.093 18.781-1.031 4.066.085.63 2.728-1.03 7-1.71 4.398-1.829 9.52-1.814 14.406.002.802 1.276 9.582.906 9.719-.129.048-.267.079-.406.125-3.147 1.038-6.266.604-9.125 1.406-4.462 1.249-8.52 3.906-12.813 7.406-3.958 3.228-6.438 8.517-8.438 12.563-1.534 3.104-3.067 5.307-3.094 6.25-.017.578 2.231-.343 4.156-1.813 1.601-1.223 2.106-2.61 3.22-3.094 3.158-1.373 5.842-.338 6.062 1.813.205 2.008-1.709 4.052-3.563 5.875-7.07 6.955-17.59-1.415-23.094-7-1.73-1.755-1.897-3.16-2.688-3.5-1.232-.53-2.486.41-3.375 2.313-.569 1.219-.688 2.943-1.5 4.563-1.332 2.654-3.378 3.613-7.656 7.219-3.41 2.876-13.394 2.533-11.75-.438.234-.425 1.663-.548 2.25-1.094 1.002-.933.528-1.45.25-2.063-.572-1.252-2.264-2.093-2.344-2.094-2.408-.032-4.337-.566-5.75.406-1.88 1.293-2.352 3.727-2.813 6.156-.46 2.429-.917 4.86-.406 6.813.706 2.703 2.773 4.713 3.844 4.78.206.015 1.513.436 4.406.657l436.938.219c2.167-.87 4.196-.456 5.813-1.344 4.841-2.66 6.324-7.172 7.47-14.22.624-3.844-1.12-8.688-1.814-10.093-.897-1.816-1.954-3.098-3.313-4.688-4.079-4.77-10.895-8.16-17.75-7.938-6.255.202-11.363 3.626-12.03 8.03-.268 1.747.602 4.417.843 5.564.145.699.783 3.563 2.47 5.625 1.446 1.773 4.371 2.443 7.062 1.875 2.374-.502 4.55-2.033 5.781-3.438 1.904-2.173.66-6.368.22-7.938-.428-1.515-.98.337-1.064 1.813-.033.59-.584 1.544-.969 1.813-2.46 1.71-6.684 2.399-6.78-2.313-.177-8.407 23.457-2.514 15 10.719-1.724 2.694-5.423 3.272-8.064 3.25-6.993-.062-14.455-2.021-20.875-4.75-7.82-3.326-17.81-9.007-27.156-13.594-8.512-4.178-16.897-6.12-20.625-9.813-1.91-1.892-1.765-4.66-1.313-6.031.334-1.015.72-2.267 1.75-3.563 2.27-2.85 5.84-6.461 5.875-11.938.028-4.47-1.902-10.131-4.375-12.125-1.827-1.473-5.405-1.922-7.75-3.22-.918-.507-1.22-1.353-1.78-2.124-.739-1.011-.966-2.486-1.626-3.75-1.019-1.947-1.84-3.884-3.719-5.22-2.537-1.801-5.88-1.204-10.188-3.968-1.8-1.156-.438-5.07-5.25-7.125-1.48-.631-2.649.305-4.469-.813-.363-.223-.52-2.887-2.375-4.97-1.637-1.837-4.98-3.042-5.344-3.905-.793-1.88.317-6.22-.03-10.25-.122-1.398-2.195-8.031-1.157-11.156.658-1.986 4.394-2.398 7.344-2.594 3.408-.228 8.107.427 13.063.719 11.426.672 24.83 3.063 30.438 3.469a65.92 65.92 0 012.5.219c16.611 1.962 37.03 18.965 40.906 17.875 2.29-.643-7.59-8.146-9-9-2.332-1.413-11.856-6.436-20.125-13.781-9.082-8.067-17.14-17.746-18-18.375-2.26-1.648-11.975-12.833-17.219-22.594-2.08-3.871-3.846-10.377-5.28-14.875-2.503-7.846-6.128-23.19-6.814-37.97-.438-9.426.981-18.177 1.375-22.062 2.78-27.485 17.6-67.402 29.563-89.72 3.26-6.082 7.487-12.176 10.781-17.968 2.122-3.732 3.571-7.992 5.563-11.25 2.168-3.55 5.736-5.441 7.5-8.188 3.271-5.1 5.681-8.532 6.594-9.344 1.458-1.302-1.047-1.263-2.344-.594-1.668.86-3.706 2.146-3.875 2.688-.583 1.863-9.783 9.896-18 21.75-1.007 1.453-2.704 1.264-3.969 2.625-1.18 1.269-1.24 3.035-2.219 4.719-.92 1.58-2.769 3.07-3.969 4.28-3.49 3.52-8.754 6.166-12.219 9.595-3.04 3.01-6.258 5.705-8.688 8.719-7.214 8.947-13.628 14.663-16.406 16.563-2.545 1.74-4.698 3.529-6.219 4.969-1.343 1.27-1.87 2.655-2.688 2.5-.722-.137-.753-2.43-.75-3.594.008-3.772.303-8.757-.75-9.97-1.004-1.151-3.304-.78-4.25-2.812-1.552-3.327-.119-12.042.844-19.906.733-6.003.824-11.642 1.781-13.563.286-.574.835-3.468.781-7.156-.047-3.255-.735-7.123.031-10.563.264-1.19.703-1.707.781-3.5.132-2.991.22-5.767.063-7.72-.259-3.233-.624-3.824-1.656-2.374-.91 1.28-4.093 16.129-5.844 30.78-1.683 14.069-2.923 27.645-2.938 27.97-.324 6.6-3.51 7.073-4.625 7.25-.99.156-1.49 1.069-2.219 1.469-4.452 2.438-3.852 8.533-2.406 15.438.58 2.775 2.617 6.323 3.688 7.53 2.354 2.659 3.671 1.614.938 9.72-.128.379-.966 2.233-2.563 4.438-2.336 3.222-6.285 7.415-10.063 12.813-2.54 3.63-4.785 8.353-7.438 12.219-8.92 12.999-17.778 24.753-18.188 24.875-.165.049-7.373 11.5-12.063 17.906-2.374 3.239-3.445 2.014-4 3.844-.248.818.35 3.318.688 4.938.216-.04.411-.06.406.094-.108 2.864 2.506 10.314 2.094 10.563-.05.03 8.133 19.785 11.375 24.406.627.895 1.03 1.386 1.656 2.375.826 1.31 1.934 3.626 3.656 5.438 3.29 3.457 7.618 6.478 8.094 7.125.815 1.113 4.721 7.123 7.063 9.156.36.313 1.342 1.136 1.72 1.406.273.195 3.145 1.342 3.343 2.53.065.397.8 1.939-.25 1.939 0-.428-3.405-2.098-4.688-3.375-.63-.627-2.11-1.727-2.5-2.188-1.902-2.24-4.654-6.455-6.375-8.813-3.945-5.4-10.247-7.23-12.906-14.656-.474-1.322-1.183-1.938-1.938-3.063-1.28-1.902-3.758-5.902-5.469-9.938-1.607-3.791-2.48-7.642-2.969-8.844-.605-1.492-2.79-10.822-3.125-13.281.39.6.691.22.875.469.28.377.143-.355-.063-1.344a3.781 3.781 0 00-.844.28c-.037.028-.013.235.031.564-.22-.35-.479-.982-.78-2.25-5.007-20.892-6.127-36.804-4.595-58.844.305-4.403-.589-8.464-.063-13.063 1.642-14.335 4.016-28.418 8.563-42.47 6.566-20.29 16.546-40.307 25.375-58.937 4.951-10.448 8.76-18.81 10.938-19.688.392-.16 4.25-2.495 7.406-5.313 1.77-1.581 2.837-4.03 3.47-5.031 1.305-2.072 2.115-4.244 2.124-4.375.282-4.14-36.155 27.789-37.28 30.25-.517 1.128-8.8-.171-14.689-.531-15.62-.955-28.646-7.714-30.656-25.594-1.003-8.921 1.306-18.173 2.438-20.438.833-1.664.818-3.192 2-5.094 3.021-4.86 8.055-10.455 11.906-14.313 4.167-4.176 8.46-7.331 7.281-9.5-2.05-3.77-15.117 12.15-18.719 16.563-2.638 3.229-6.999 7.697-11.656 11.219-8.302 6.279-17.33 11.216-17.656 12.5-.155.609-5.183 3.408-10.469 6.906-7.982 5.283-17.634 11.44-17.938 11.719-.553.506-1.937.248-2.5-.031-1.11-.551-1.328-1.713-1.813-2.97-1.239-3.206-1.343-7.6-1.375-8.374-.66-15.536-5.537-33.863-9-51.438-1.497-7.596-3.254-15.063-3.438-22.094-.064-2.468-2.563-7.311-2.5-11.188.051-3.212 2.242-5.744 2.094-5.75-3.88-.16-5.958-.366-7.022-.307zm57.906 83.937c2.88-.227-10.586 12.613-10.656 12.625-.436.07-9.813 8.49-9.813 9.313-1.19 0-8.666 9.435-9.28 10.875-.265.617-1.953 1.892-3.126.938-.954-.777-1.039-3.583-1.156-6.188-.143-3.142.782-6.922 2.75-7.156.428-.052 4.864-2.461 9.156-5.031 3.577-2.143 21.9-15.358 22.125-15.376zm-40.093 30.625a.143.143 0 01.094.03c.328.249 2.995 4.086 2.375 7.657-.64 3.685-4.003 7.714-6.594 9.53-.894.626-8.412 9.469-10.5 11.25-.298.256-.588.098-.625.032-.443-.784.628-4.06 2.844-8.22 1.884-3.536 2.922-6.056 4.75-8.5 1.716-2.293 2.563-5.041 4.188-6.593 2.445-2.334 3.003-5.151 3.468-5.186zm96.781 10.063c.572.006.887.12.875.406-.078 1.878-9.442 8.447-18.438 16.25-10.52 9.125-21.01 19.59-22.406 21-.32.325-5.939 5.076-12.28 10.563-7.469 6.458-16.063 13.646-18.376 15.938-2.18 2.159-3.742 4.175-4.28 3-.098-.21-.939-1.901-.907-4.031.021-1.457.85-3.02 1.094-4.906.442-3.391 1.808-7.076 1.781-10.438-.039-4.782-2.5-7.72-2.5-9.156 0-2.986 2.427-5.777 4-6.625 9.131-4.921 15.243-10.468 22.844-14.781 6.776-3.847 13.776-8.227 21.72-11.22 5.09-1.917 10.608-2.853 16.593-4.062 4.51-.912 8.56-1.958 10.28-1.938zM147.49 214.555a.471.471 0 01.25.094c1.854 1.3 2.523 9.71 5.125 17.094 1.363 3.866 3.347 7.5 4.22 10.844.58 2.229.121 3.632.124 4.969.005 2.736-4.76 16.25-4.938 16.25 0 5.61-7.468 29.634-11.844 26.938-2.692-1.657 2.697-45.648 3.875-48.25.78-1.721.78-27.99 3.188-27.94zm29.813 18.812c.327.01.574.282.813.938.073.204-.553.53-1.063 1.156-.746.913-1.595 2.334-2.438 3.78-1.367 2.347-3.32 4.707-4.688 7.064-1.702 2.936-2.763 5.184-3.219 5.125-.083-.011-1.3.646-2.406-.438-1.483-1.454-1.218-3.143-1.313-4.438-.097-1.294.352-3.197 1.844-4.906 2.313-2.651 5.658-4.317 8.594-5.938 2.054-1.132 3.154-2.365 3.876-2.343zm267.937 1.219c.332-.055.531.154.531.75-.06 0-8.25 10.076-8.25 10.344-.232 0-8.813 9.145-8.813 9.875-1.014 0-10.817 12.514-11.375 13.438-.338.559-.549 2.166-2.375 2.5-.534.098-1.28.286-1.656-.125-.628-.686-.738-2.245-.844-2.844-.396-2.233.866-4.118 1.281-5.25 1.13-3.094 8.781-7.752 8.781-8.781.803 0 6.72-4.907 6.72-5.688.56 0 9.812-8.45 9.812-8.781.836 0 4.748-5.198 6.188-5.438zm-185.312 4.719c.867.023 2.91 3.042 5.781 6 1.573 1.62 3.862 2.832 4.97 4.688 1.843 3.09 1.535 6.992-2.407 10.469-2.38 2.097-6.609 3.714-9.875 6.875-4.223 4.086-8.549 9.53-12.563 13.594-5.162 5.224-9.639 8.583-10.75 8.219-.648-.213-.188-3.828.25-6.5.677-4.143 3.438-11.46 5.281-14.97 2.818-5.364 6.781-10.637 10.125-15.28 5.06-7.028 8.463-12.751 9.031-13.063a.285.285 0 01.157-.032zm-101.032 14.469c.866-.196 1.23 1.36 1.375 1.656.338.684 1.06 1.008.906 2.53-.489 4.87-4.08 9.264-6.219 10.876-.328.247-1.492-.868-.906-1.906.33-.586 2.864-11.803 4.438-12.97.146-.107.282-.16.406-.186zm242.97 25.562c.163-.102 2.073.454.624 5.125-.193.624.277 2.233-.719 3.656-.958 1.366-2.758 2.39-4.438 4.125-1.905 1.965-3.748 4.685-5.563 7.094-5.348 7.093-10.769 14.688-13.156 14.688 0-1.141 6.12-10.344 6.72-10.344 0-1.157 10.756-16.063 10.843-16.063.001-.428 5.42-8.115 5.688-8.281zm-108.907 7.938c.241-.026.406.068.406.344 1.497 0 .536.53 2.031.53 0 2.088 2.977 25.876 3.656 25.876 0 7.627 4.125 13.309 4.125 21.219-.726 0-1.204 4.125-2.594 4.125 0 2.98-13.438 5.79-13.438 6.75-1.647 0-15.5 6.067-15.5 6.219-1.269 0-12.406 4.873-12.406 5.156-3.03 0-6.05 3.125-9.813 3.125 0 1.068-5.506.5-6.719.5 0-1.677-.5-2.076-.5-4.156-1.1 0-4.135-34.156-1.03-34.156 0-2.44 1.396-8.781 3.593-8.781 0-1.647 10.313-4.453 10.313-5.688.963 0 8.281-4.713 8.281-5.188 1.091 0 9.813-5.627 9.813-6.22 2.887 0 6.038-4.624 8.813-4.624 0-.747 7.585-3.656 8.781-3.656 0-.178 1.464-1.295 2.188-1.375zm-75.5 18.656c.711-.303-3.518 5.076-3.938 5.03-.136-.014-6.55 6.645-7.469 7.22-1.18.74-5.079 3.6-5.719 4.625-.547.876-1.946 1.932-2.813 2.969-.93 1.11-1.326 2.173-2.094 1.844-.495-.212-.695-1.364-1-2.594-.527-2.127.172-2.274-.313-3.5-.709-1.792-2.956-4.227-6.969-4.781-.777-.107-2.03-.707-2.313-1.156-3.544-5.68 3.848-5.508 6.72-6.72 2.168-.913 5.011-.513 8.03-.5 3.212.015 14.294-.911 17.878-2.437zm62.531 6.375c-1.279.036-3.062.78-4.938 2.25-1.96 1.536-3.609 2.667-3.688 5.344-.038 1.307.11 4.223 1.156 5.344 1.57 1.683 4.43 2.068 6.781-.22 2.427-2.36 3.716-4.688 3.5-7.593-.13-1.743-.562-4.836-2.28-5.094a3.104 3.104 0 00-.53-.031zm-103.406 3.78c1 .106 2.616 1.66 1 4.157-.553.854-2.137.896-2.75 1.625-.629.747-1.713 3.36-1.906 5.594-.198 2.304.518 4.237 1.125 5 1.047 1.319 2.5 3.076 3.906 3.906 1.24.73 2.52.546 2.406 1.625-.067.636-.38 2.237-1.313 1.563-.676-.488-1.576-2.27-2.438-3.094-.67-.642-1.326-.473-1.78-.063-.817.736 1.801 2.259 1.437 4.563-.366 2.304-3.707 5.394-4.469 6-.602.478-1.329.509-1.75.938-.9.913-.77 2.176-.406 2.594.501.577 1.98.95 2.156 1.813.278 1.379-.637 3.3-1.688 4.938-1.393 2.168-3.84 3.555-5.75 5.375-2.252 2.145-3.62 4.159-5.344 3.719-1.377-.352-2.449-2.35-2.875-4.22-1.089-4.78-.688-11.61 1.063-18.155 1.824-6.828 5.521-12.588 6.47-13.906 2.094-2.913 6.26-7.866 9.405-11.031 1.538-1.548 2.516-3.043 3.501-2.94zm90.5 2.814c-2.099.319-7.66 3.872-8.344 4.438-1.016.842-2.58 1.007-2.813 2.063-.158.724.193 1.675.281 2.625.1 1.075-.036 2.156.22 2.75.201.47 3.59-.953 6.5-2.625 2.41-1.385 4.432-3.01 4.468-3.125.607-1.927.528-4.241.47-5.75-.014-.348-.298-.45-.782-.376zm-130.063 5.25c.883-.196 3.735 14.188 3.906 14.188 0 5.32 9.26 28.5 13.438 28.5 0 9.552-14.969 10.87-14.969 16.563-6.663 0 4.625 13.984 4.625 8.25 2.59 0 15-7.667 15-5.656-.847 0-1.22 1.53-2.063 1.53 0 1.193-11.406 3.669-11.406 5.72-3.613 0-9.296 8.28-15.469 8.28 0-6.165 6.098-75.593 6.688-75.593 0-1.222.086-1.746.25-1.782zm113.125 4.25c-1.085.104-2.418 1.173-3.375 2.344-1.338 1.637-1.685 5.29.281 8.406.62.984 1.52 1.065 2.188 1.156 1.112.15 1.982-.318 2.906-1.281.54-.561 1.146-.863 1.406-2.22.56-2.922.782-7.684-2.969-8.374a1.504 1.504 0 00-.437-.031zm67.438 5.218c1.004-.063 2.185.157 3.594.656 1.495.53 1.707.513 2.781 2.125.601.9.925 2.393.47 3.594-.485 1.278-1.756 2.27-1.345 3.469.66 1.917 2.796 3.28 3.875 4.844 1.013 1.467 2.568 1.588 2.813 2.656.696 3.05-1.807 5.782-4.53 6.5-3.504.923-8.184-.672-8.22-2.406-.069-3.385-15.754 3.639-16.438 4.03-1.192.685-10.313 4.739-10.313 5.657-.473 0-1.162.316-1.469.656-.155.17-1.049 1.166.188 1.469 1.396.34 3.617.252 6.063.219 2.771-.037 5.808-.082 8.22-1.156 1.64-.73 2.7-2.146 3.593-3.438.658-.954 1.503-1.543 1.47-2.906-.05-1.953 2.613-2.775 5-2.781 2.538-.004 3.171 1.479 4.812 3.813.688.977.557 3.418-.188 4.906-.51 1.018-1.546 1.15-1.875 1.844-1.064 2.24.67 3.857 1.97 5.563.78 1.024 1.431 2.394 1.155 3.063-.35.85-.72 1.852-1.563 2.313-1.31.72-3.785 1.188-5.563.53-3.136-1.156-5.055-4.782-5.813-6.5-.194-.44-1.919-.127-4.406-.155-6.929-.077-21.395.084-27.969-.406-1.536-.114-3.15.638-4.813 1.406a75.423 75.423 0 00-6.25 3.25c-3.256 1.89-6.774 3.379-9.188 4.188-.724.242-.382 1.906-.625 3.53-.354 2.374-1.797 5.647-2.844 4.845-.393-.3-1.679-5-3.28-8.938-.963-2.361-2.939-4.085-2.376-5.406.48-1.127 1.961-1.002 3-.22.624.472.593 1.397 1.47 1.782 1.842.809 5.186-.33 7.843-1.625 1.207-.59 2.502-.811 3.063-1.594.482-.674.618-1.232-.063-1.5-2.3-.904-10.316-.364-15.063-.344-1.896.009-2.89-3.703-2.906-4.531-.023-1.135 2.371-.43 5.781.03 7.512 1.015 17.816 1.417 24.97.22 1.391-.232 6.57-3.46 12.78-6.75 1.163-.615 13.858-6.958 21.25-10.625 2.673-1.328 4.58-2.16 4.781-2.875.29-1.036.055-3.571.656-5.97 1.064-4.242 2.488-6.841 5.502-7.032zm-36.406 7.469c-4.234.003-2.234 4.385-1.03 4.406 1.381.024 2.183-.097 2.562-1.344.403-1.325-.158-2.942-.625-3a7.458 7.458 0 00-.907-.062zm-8.438 1.03c-1.593.114-1.948 1.025-2.156 1.814-.228.865-.048 2.46.563 3.188.69.823 1.9.71 2.781.438.753-.235 1.73-.61 1.72-2.656-.005-.623-.01-2.414-.876-2.594-.849-.178-1.5-.226-2.032-.19zm-14.375 6.095c-.447.018-.908.193-1.344.563-.656.555-.376 1.502-.406 2.156-.098 2.137.147 3.197 2.22 3 .886-.085 1.798-.373 1.874-2.281.022-.561.087-1.773-.469-2.5-.432-.565-1.13-.967-1.875-.938zm-5.094 4.219c-.633-.012-1.598.679-1.219 3.03.238 1.487 2.943.73 2.688-1.687-.01-.087-.564-1.06-1.219-1.313-.072-.027-.16-.028-.25-.03zm-1.375 38.562c.473-.057 1.872 1.59 3.406 4 1.931 3.033 3.005 7.982 5.156 11.844 1.573 2.826 3.222 6.35 4.656 7.844.148.154 2.673 3.467 4.25 4.28.336.173.514-1.478 2.344-1.218 2.141.306 2.376.824 2.594 1.438.414 1.17-.899 2.738-.906 4.219-.009 1.71.55 3.744-.719 3.469-.425-.092-4.216-2.578-6.25-6.625-1.612-3.207-3.633-5.971-5-8.563-2.373-4.498-3.693-8.371-5.125-11.281-1.264-2.566-2.717-4.336-3.406-5.813-1.164-2.494-1.368-3.55-1-3.594zm-78.5 4.688c.624-.174.202 4.305.063 7.563-.1 2.313-.509 4.51-.688 7.344-.404 6.418.387 13.508 1.813 19.219.924 3.7 2.556 7.848 2.094 8.156-.933.623-1.5-.56-2.875-3.344-1.418-2.875-3.63-7.496-4.156-16.72-.188-3.313-.345-10.505 1.188-15.624 1.41-4.715 2.186-6.491 2.561-6.594zm144.407 15.094c.331-.032.797.162 1.313.594 1.044.873 2.465 3.265 3.875 5.406 3.157 4.795 4.69 8.646 7.375 13.875 2.432 4.736 4.373 9.277 6.47 13.844 1.021 2.23 2.698 4.437 3.312 6.719 1.243 4.629-2.589 3.109-4.78.03-.73-1.024-.819-2.496-1.126-3.03-.875-1.518-1.242-3.395-2.063-5.22-2.182-4.847-4.668-10.23-6.438-14.405-2.207-5.21-4.36-9.063-5-10-3.7-5.413-3.93-7.718-2.938-7.813zm-6.25.5c.705-.01 3.165 4.354 5.313 8.719 3.14 6.38 7.125 14.133 7.938 15.75 2.682 5.338 4.808 10.619 6.156 13.875 2.18 5.266 5.242 8.1 1.125 9.313-.689.203-2.834-4.232-4.78-8.906-3.249-7.79-6.767-17.381-7.095-18-1.249-2.357-10.864-17.924-8.78-20.688a.15.15 0 01.123-.063zm-11.25.843c.365-.083.805.223 1.125 1.188.563 1.697-.896 1.199-.25 3.938 1.231 5.227 4 14.275 4.063 14.563.23 1.04.92 4.004 1.25 7.5.25 2.635.08 5.53.531 8.406.635 4.039 2.35 8.39 2.656 10.813.306 2.422-.813 2.9-2.03 1.344-1.139-1.453-2.189-6.284-3.157-12.313-.73-4.548-.974-10.32-1.906-15.688-.824-4.734-2.235-9.238-2.688-12.72-.398-3.067-.27-5.19-.25-5.843.02-.624.291-1.105.656-1.188zm26.593.157c.757-.121 2.3.85 3.781 2.188 1.737 1.568 2.521 3.732 3.5 5.156.291.422 4.32 10.89 8.156 18.906 2.625 5.485 5.373 9.119 5.25 9.563-.97 3.49-3.838 2.229-5.03-.031-.434-.816-.773-2.313-1.439-3.72-2.194-4.633-5.02-11.85-7.938-18.28-2.079-4.583-4.925-8.164-6.094-10.781-.759-1.697-.823-2.595-.469-2.906.075-.066.175-.078.283-.095zm6.75.28c.06-.012.142-.002.25 0 .727.02 2.497-.08 3.813.845.758.535 2.561 2.895 4.531 6.188 2.233 3.732 4.725 8.64 7.063 13.188 3.762 7.32 6.811 13.81 3.97 13.78-.053 0-2.39-.02-3.876-2.405-1.12-1.797-1.407-4.374-2.438-6.438-2.98-5.958-10.917-14.33-12.5-21.813-.562-2.653-1.232-3.254-.813-3.344zm-38.062.095c2.552.265 1.822 4.965 1.97 6.438.405 4.066 1.377 10.049 1.874 12.813.954 5.314 1.43 9.44 2.156 12.313 1.233 4.883 3.452 7.618 1.875 12.688-.229.732-4.479-2.791-8.563-5.75-4.996-3.62-7.458-5.2-8.28-7.938-.576-1.91-.015-9.123-.376-16.031-.295-5.63-1.695-11.176-.844-12.594 1.321-2.197 7.517-1.656 9.625-1.906.201-.026.392-.051.563-.033zm10.687.187c.36-.334 4.46 9.3 8.781 19.28 3.198 7.392 7.388 15.403 10.125 21.626 2.492 5.665 3.68 9.896 3.813 10.406.257.976.08 3.703 1.47 5.938 2.27 3.657 3.735 6.469 1.624 6.469 0-.53-6.688-3.146-6.688-4.125-.434 0-7.114-5.184-7.25-5.188-.31-.01-1.808-3.076-2.969-8.375-1.162-5.3-1.97-12.851-3.563-19.844-2.557-11.23-5.829-22.264-5.375-26.125a.112.112 0 01.032-.062zm37.875 1.53c2.46-.171 4.492 3.487 6.72 7.376.087.154 1.313 1.867 2.218 4.094.798 1.965 1.208 4.339 2.281 6.438 1.098 2.148 5.098 6.572 4.625 8.688-.534 2.393-2.37 1.402-3.813-1.125-1.854-3.248-3.314-8.627-3.406-8.313-.183.623-6.215-9.166-6.219-9.313-.036-1.29-.922-1.793-1.438-2.75-1.063-1.975-1.86-3.18-1.719-4.031.065-.387-.095-1.004.751-1.063zm-62.28 1.064c.33-.074.763.264.937 1.094.242 1.15-.062 3.412.25 5.53.428 2.916.307 6.409.563 9.282.158 1.77-.12 3.568-.25 5.063-.262 3.014-.787 4.818-1.938 2.719-.318-.582-.083-2.27-.5-3.438-.669-1.871-.396-3.697-.344-5.563.065-2.398.04-4.826.125-7.125.085-2.293.247-4.646.75-7 .067-.32.208-.517.406-.562zm70.468 1.03c3.702-.024 15.923 3.975 16.5 5.032.014.027-2.587 1.045-4.938 2.344-2.282 1.26-3.224 2.6-4.375 2.78-1.939.308-4.549-1.642-5.906-4.03-.9-1.584-.724-3.531-1.375-4.5-.335-.498-.849-1.62.094-1.625zm-75.375 1.345c.346-.146.797 3.078.813 3.28.207 2.603.07 4.407.031 7.189-.012.819-.688 1.607-.375 2.656.07.236.366 5.174-1 1.75-.56-1.404-.073-4.128-.125-4.781-.184-2.264-.554-4.195-.406-6.031.102-1.256.585-2.461.906-3.781.043-.18.106-.261.156-.282zm-47.844 10.406c4.88.13 11.208 1.476 13.125 1.938 4.966 1.196 9.272 3.344 11.844 3.938 1.252.289 2.802 1.539 5.47 2.594 3.652 1.445 8.642 2.949 10.905 4.844 2.428 2.032 1.74 4.139-.875 3.469-.578-.147-8.268-2.581-16.938-5.281-3.59-1.12-7.779-2.2-11.375-3.281-3.967-1.193-8.697-1.166-12.063-2.406-8.928-3.293-6.91-5.497-2.094-5.781.622-.04 1.304-.053 2.001-.034zm141.156.875c.42.018.761.216.938.688 2.023 5.412-5.4 11.08-6.28 10.094-1.793-2.005-3.855-3.631-2.564-5.813.943-1.592 2.743-2.871 3.313-3.063 1.27-.427 3.336-1.957 4.593-1.906zm-162.187.156c.34.007.662.035 1 .094 1.125.198 3.284.449 3.625 1.5.16.496.932 1.77.031 2.375-.343.23-2.81.109-4.219.28-3.468.427-6.992.975-8.156 1.25-2.252.533-4.047 1.47-5.375 1.907-.85.279-1.56.223-1.875.125-.678-.21-.79-.758-.344-.875 4.92-1.283 10.221-6.76 15.313-6.656zm198.594 2.407c2.271-.088 4.05.152 4.625.906.83 1.084.357 2.895.72 4.75 1.177 6.059 1.246 14.832.687 19.156-.059.456-.682 1.478-1.78 1.969-1.718.766-4.368.998-6.314 1.78a55.872 55.872 0 00-8.656 4.376c-3.336 2.045-6.463 5.075-7.03 4.75-1.275-.73-.408-2.9-.376-4.563.1-5.205.787-11.208 1.406-15.688.236-1.717 2.208-12.687 3.625-14 2.117-1.964 5.398-2.485 8.625-2.97 1.554-.23 3.104-.414 4.468-.466zm-261.782 7.312c2.65-.16 10.471 3.127 12.75 4.53 3.271 2.017 6.06 4.867 8.844 7.282 2.604 2.259 5.846 5.539 9.094 8.125 2.42 1.927 5.94 3.515 7.594 4.53 1.246.768.98 1.192.875 1.314-.363.414-5.823-2.242-14.5-7.406-5.928-3.527-11.63-7.281-12.563-7.844-3.558-2.145-7.532-3.005-9.969-4.563-1.619-1.033-2.618-2.002-2.78-2.281-.612-1.047-.466-2.168-1.157-2.156-1.754.033-3.039-.118-3.688-.063h-.03c-.074.013-3.43.437-5.75 1.688-2.284 1.229-3.792 2.979-3.75 3.25.15.997 1.442 1.57 2.343 2.344 1.604 1.377 3.334 2.717 4.688 3.563 3.49 2.18 7.652 4.73 11.438 7.313 9.174 6.257 17.065 12.91 17.906 13.5 6.68 4.692 14.194 8.375 14.031 10.563-.067.899-19.774 1.026-21.844 1-5.93-.077-10.697-1.575-20.469-6.344-4.628-2.258-10.692-6.434-13.906-12.188-3.299-5.906-2.269-12.4 1.156-17.75.982-1.536 1.563-2.83 2.844-3.906.821-.69 1.953-1.557 3.406-1.97 1.248-.353 3.821-.402 4.813-.687l2.563-.75c.336-.127.95-.14 1.688-.281 1.288-.25 2.871-.722 4.373-.813zm72.72 3.53c.396-.065.895.185 1.374.22 2.485.182 2.055.682 2.125 2.313.065 1.504-.39 1.795-1.313 1.906-.908.109-1.875.354-2.03 0-.545-1.225-1.323-3.471-.5-4.25a.63.63 0 01.343-.188zm-9.688.033c.273-.006.57.113.813.563.393.727.253 1.916.313 3.125.046.93.673 1.545 0 2.25-.666.698-2.536.467-5.594 1.156-.745.168-.392.44-1.156.53-1.975.23-4.912-.583-6.094-2.062-.736-.92-.537-2.233-.219-3.406.258-.947 1.521.835 3.156 2.25 2.17 1.878 3.3 3.268 4.813 1.156.704-.982 1.834-1.211 2.063-1.813.014-.035.032-3.643 1.22-3.625.162.002.41-.12.685-.124zm20.687 1c.458-.125 1.191.453 2.063.813.774.32 1.713.213 2.188.875.74 1.036.57 2.689-.563 3.406-.673.425-1.194-.291-1.938-.47-.655-.155-1.539.276-1.875-.28-.425-.701-.148-1.844-.28-2.5-.105-.51-.054-1.5.218-1.75a.42.42 0 01.187-.094zm11.344 3.03c.058-.024.116-.011.188 0 1.531.255 1.306-.108 3.031.907.886.52.73 1.69.438 2.688-.238.814.873 1.094-2.375 1.094-1.583-.001-2.153-4.307-1.282-4.688zm13.062 4.25c.296-.01.558.056.72.345.244.44-.1 1.28-.189 2.125-.183 1.717-1.99 2.484-2.75 1-.61-1.193-.346-2.311-.25-2.875.098-.58.754-.475 1.531-.5.303-.01.642-.084.938-.094zm112.063 1.72c.612.02 1.794 2.322 2.844 4.094.508.859 2.102 3.023 1.813 3.719-.082.195.408.807-.188.594-.263-.093-.744.254-.969.156-.975-.42-1.415-1.347-2.156-2.25-.584-.713-1.533-1.524-1.688-3.281-.198-2.235-.024-3.046.344-3.032zm-103.719.687c.778-.045 1.367.316 1.594.938.147.404-.11 1.047-.094 1.5.015.41.357 1.16.281 1.375-.157.439-.832.084-1.125.094-1.573.055-1.595-.257-1.688-.938-.284-2.072-.106-2.67.188-2.781a2.93 2.93 0 01.844-.188zm-63.219 1.625c.915.039 1.662.682 2 1.063.41.464 1.054 1.393.938 2.156-.079.524-.7.41-1 .906-.535.885-.862 2.296-1.156 2.78-.176.292-.509-.261-1-.218-.94.082-2.35.873-2.75.563-.31-.24-.803-.8-1.469-1.406-1.999-1.822-5.604-4.32-5.063-4.625.75-.422 1.985.807 3.563 1.344.573.195 1.917.324 3.125-.156.771-.31 1.116-1.852 1.844-2.188.335-.155.663-.232.968-.22zm94.5 1.156c.39-.053.938-.01 1.531.156 1.487.413 3.125 1.69 3.281 1.75.656.243 3.146 1.514 5.031 3.563 1.31 1.422 2.062 3.139 2.688 4.75.428 1.104.986 2.188.906 3-.086.855-.073 2.468-1.25 2.719-1.832.392-4.939-1.914-7.188-5.406-2.684-4.166-4.128-9.322-4.813-9.625-1.013-.448-.835-.82-.186-.907zm-20.593.594c.626-.052 1.215.144 1.47.563.288.479.082 1.634-.345 3.313-.174.684-2.125-.623-2.563-1-.537-.463-.59-1.306-.188-1.97.347-.57 1-.854 1.626-.906zm87.437.406c.875.027 1.82.429 1.938 1.063.442 2.408 1.806 3.555 2.22 4.313.628 1.156.28 1.795-.439 2.219-.49.29-1.26.357-1.594.875-.643.992-4.828-6.621-3.406-8.094.268-.278.756-.391 1.281-.376zm-117.28.907c2.106-.271 3.181 2.965 5.218 7.344 1.35 2.899 3.64 6.225 5.063 9.656 1.093 2.636 1.763 5.313 3.063 7.625 1.44 2.563.98 5.505 1.72 7.406.82 2.115 2.656 4.113 3.062 4.125.063.002 4.41.166 10.125 2.469 7.652 3.085 16.733 7.29 18.156 9.063.623.776-.543 2.004-2.094 2.75-2.827 1.358-3.039 1.764-3.563 2.03-.604.31-3.765-2.13-14.78-7.312-3.352-1.576-7.2-2.993-11.126-4.344-1.654-.568-9.785-3.867-18.28-5.75-7.676-1.701-15.833-1.921-18.47-2.25-.608-.076-.677-.683-.656-.72.701-1.257 2.78-1.616 5.063-2.093 2.843-.594 6.146-1.122 9.25-.875 3.955.315 7.075 1.42 7.22 1.438 2.925.347 14.506 6.21 14.5 2.78-.006-2.091-1.095-4.147-1.97-6.187-.138-.318-3.134-5.683-5.906-11.688-3.348-7.247-6.485-15.352-5.596-15.467zm179.061.187c.361-.101.917.54 1.531 1.344.675.88 2 2.137 2.375 3.219.703 2.027-1.014 2.695-2.28 2.438-.868-.176-1.647-1.334-1.72-1.875-.507-3.67-.37-4.997.094-5.126zm-141.5 1.28c.808-.01 1.88.356 2.406.47.96.206.993 1.642.97 2.28-.074 1.926.437 2.019-.657 1.907-3.838-.395-2.33.55-3.563-2.844-.513-1.415.037-1.802.844-1.812zm-27.03.689c.555-.09 1.474.41 2.03.594 5.271 1.727 10.378 16.84 11.938 21.78 1.545 4.894 3.376 10.402 2.344 10.157-.423-.1-2.053.142-4.28-2.875-2.162-2.925-4.39-9.418-4.939-12.063-.34-1.634-2.64-8.41-4.625-12.344-1.448-2.871-2.758-3.114-2.906-4.25-.09-.683.103-.946.437-1zm100.03.469c.103.01 3.313 3.44 4.156 5.813.327.928.828 1.582-.03 2.469-2.68 2.766-6.089-2-6.689-4.47-.047-.188.217-1.901.906-2.937.473-.708 1.343-.907 1.657-.875zm-116.437.406c1.804-.131 2.346.557 2.97 1.594.627 1.047 1.524 2.422 1.062 4.03-.285.99-1.795.34-2.844.157-.184-.033-1.993-.424-2.906-1.844-.479-.742-.8-2.365-.156-3.313.437-.645.237-.365 1.031-.5.311-.052.585-.106.843-.124zm109.125 3.53c.81.028 1.27.659 1.938 1.439.424.496.536 1.628 1.031 2.438.34.556 1.14.76 1.22 1.344.567 4.154-1.2 4.903-2.657 4.28-.78-.332-1.097-1.36-1.75-2.25-1.249-1.694-2.504-3.55-1.969-3.812.76-.373.216-1.992.72-2.72.346-.502-.067-.313.5-.53.368-.142.696-.198.967-.188zm-78.188 1.376c.867-.012 5.804 6.229 8 15.906.135.597.907 3.53 2.063 6.406 1.581 3.94 3.542 8.03 2.313 8.375-1.653.464-1.847-1.388-2.813-3-2.487-4.151-4.748-9.102-6.563-13.5-1.495-3.627-4.214-10.92-3.125-14.094a.135.135 0 01.125-.093zm143.688.344a.655.655 0 01.438.188c1.004 1.04 2.015 2.668 1.063 3.875-1.015 1.283-4.1 2.165-5.719 3.469-3.99 3.216-6.33 4.796-10.719 7.875-1.59 1.114-3.159.465-3.656.25-.186-.08-.413-.583.156-.97 1.086-.733 3.552-1.621 4.125-2.5.597-.913-1.414-1.248-2.25-.905-3.054 1.252-10.186 6.102-15.78 6.844-.022.003-5.42 1.415-10.657 4.063-6.63 3.35-13.448 8.127-13.656 8.25-3.342 1.952-6.564 3.212-8.28 4.188-.826.469-1.054 1.09-2.032.594-1.22-.617-2.846-2.2-2.469-2.75.918-1.34 6.495-.557 11.563-3.531 1.488-.874 3.153-3.443 5.125-4.438 2.578-1.3 5.805-1.34 8.563-3.094 4.126-2.626 8.318-5.303 12.25-7.281 1.3-.654 4.887-2.961 9.344-4.031 1.054-.253 1.932.245 3.094.375 1.236.139 2.755-.104 3.906-.625 3.688-1.67 6.662-4.027 9.47-5.844 2.56-1.662 4.964-4.053 6.121-4.002zm-134.625 1.625c.734-.01 3.118.459 5.875 1.469 3.612 1.324 7.745 3.663 11.156 5.406 3.52 1.798 6.272 2.979 5.188 3.469-.259.117-.927.036-1.594-.031-.069-.007-4.569-1.64-9.313-3.72-3.537-1.551-6.599-3.515-8.844-4.843-1.588-.94-3.083-1.473-2.688-1.72a.57.57 0 01.22-.03zm34.062.25c.78-.006 1.621.812 2 2.969.307 1.748.493 4.824-.188 5.53-.408.427-1.49-.658-2.03-1.562-.32-.531-1.494-5.031-1.25-5.656.292-.755.861-1.276 1.468-1.281zm28.22.562c1.112.084 1.945 1.717 2.25 2.78.06.213.562 2.288.968 3.814 1.14 4.307-5.024-.354-5.438-1.375-.506-1.252-.232-3.144.563-4.188.601-.79 1.15-1.07 1.656-1.031zm-102.095 1.407c1.101-.084 2.443.199 3.75.78 5.65 2.52 5.56 4.189 3.313 4.75-.553.139-3.945-.104-6.438-.28-1.398-.098-2.506.097-2.688-.281-.77-1.591-.494-2.717-.219-3.5.326-.926 1.182-1.386 2.282-1.47zm39.97 1.843c1.334.078 8.215 3.197 9.093 3.563 4.55 1.895 10.532 5.73 11.375 6.313 2.437 1.68 7.68 4.28 12.094 5.75 2.394.798 7.278 1.142 5.844 1.28-.02.004.204 1.793-1.438 2.157-1.739.388-4.277.178-5.125.125-.053-.004-5.409-1.483-10.375-3.5-4.813-1.956-9.16-4.494-9.78-4.781-2.743-1.265-8.969-3.572-11.282-7.375-.678-1.114-1.446-2.951-.594-3.5.036-.024.098-.037.187-.032zm101.062 1.75c.166-.002.35.035.531.094.496.16 1.295.695 1.094 1.344-.173.554-1.23.5-1.875 1.03-.263.217-1.336 1.112-2.469 1.439-.717.205-.719-.121-1.063-.5-.235-.26-1.002-.401-.75-1.063.27-.71 1.861-1.493 3.344-2 .282-.098.688-.338 1.188-.344zm47.312.782c.832-.048 1.434.22 1.531.344.145.184-1.59 2.64-3.688 5.438-.986 1.315-2.607 2.193-3.875 3.344-1.286 1.167-7.308 4.672-7.688 5.469-.183.38-1.235-.158-1.469-.656-.22-.47.145-1.282.25-1.531.73-1.724 3.395-3.974 5.281-5.344 1.038-.755 2.193-2.15 3.531-2.75 1.612-.724 3.056-2.974 4.438-3.781a3.74 3.74 0 011.69-.533zm-104.719.125c.636.018 1.512.468 2.344.969.388.234 4.75 2.796 4.22 3.594-.61.917-2.543 1.445-4.189 1.656-1.2.154-2.242.344-2.563-.72-1.312-4.34-.87-5.53.188-5.5zm115.875 1.875c2.456-.076 4.966.326 7.156 1.219 1.492.608 6.013 2.665 5.313 5.313-.137.516-.987 2.005-2.188 2.563-2.14.994-4.962 1.164-3.625 2.75.611.727 2.661.559 4.625.938 4.021.776 9.186 1.89 11.375 3.938 4.067 3.805 3.018 9.52-.156 11.906-2.173 1.63-5.866.99-8.875 1.188-1.695.11-3.67 1.614-5.063 1.563-1.084-.04-1.628-1.407-2.594-2.72-1.558-2.114-3.01-4.895-3.438-5.593-.855-1.39-1.26-3.004-2.125-3.25-.873-.25-1.203 1.177-1.78 2.375-.579 1.199-1.43 2.144-1.657 2.03-4.698-2.316-3.058-12.397-1.688-13.187.42-.241.203-1.88.125-3.344-.07-1.293.051-2.436-.656-2.344-.197.025-2.396 1.222-4.594 2.969-3.665 2.912-8.003 7.105-8.875 7.438-1.947.74-2.2-.8-2.53-1.125-.847-.835 1.706-2.618 3.155-3.656 1.076-.771 2.075-2.354 3.563-3.563 1.384-1.124 2.8-2.572 5.97-4.813 2.31-1.635 5.404-2.498 8.562-2.595zm-67.843.562c.41-.052.784.104 1.031.063 1.293-.22 1.101.844 1.906 1.063.156.042.481.422.375.563-.178.235-.978.285-1.438.688-.574.5-.984 1.299-2 .75-.976-.524-1.475-2.258-.28-3a.936.936 0 01.406-.127zm-132.969 1.03c.283-.005.57.002.906.032 1.517.136 5.808.187 8.281 2.063 4.151 3.15 8.082 6.485 1.531 6-2.72-.202-5.742-1.274-8.656-1.906-2.267-.491-4.615-.427-5.844-1.375-1.436-1.107-.99-2.2.22-3.25.766-.67 1.575-1.522 3.562-1.563zm127.594 2.158c.285.004.53.006.625.03.825.225.812.859.844 1.282.066.888-1.14 2.402-2.406 3-.866.407-1.875.164-2.125-.156-.968-1.233.31-3.268.688-3.875.13-.21 1.515-.292 2.374-.281zm-7.5 3.656c.978-.004 1.121 1.678 1.094 2.688-.016.542-.265.373-.78.75-.175.125-.35.25-.5.344-1.802 1.084-2.233-.15-2.376-2.688-.05-.866.902-1.087 2.562-1.094zm-73.657.062c.831-.032 2.681.873 4.406 1.5 1.634.593 3.172.789 3.625.938 2.712.887 5.536 2.55 8.438 3.78 3.5 1.486 6.963 2.589 8.594 4.376.595.652-.76 1.476-1.5 2.813-.409.74-1.722.266-2.563 0-.265-.084-2.885-.816-6.063-2.156-1.552-.653-6.37-2.92-10.03-5.063-.987-.577-4.988-2.42-5.095-3.125-.197-1.297-.748-2.583-.094-3 .074-.047.163-.058.282-.063zm51.594.938c1.164-.006 2.541.414 3 .53 2.047.525 1.088 1.076-.063 1.907-1.388 1.003-3.56 1.698-4.094 2.25-.439.456-1.504.502-2.03.78-1.585.837-2.933 1.523-4.657 1.282-.24-.033-2.5-.806-3.938-1.563-1.436-.757-1.824-1.693.281-2.031.333-.053 3.033-.61 6.22-1.406 2.168-.542 3.29-1.514 4.78-1.72a4.51 4.51 0 01.501-.03zm13.813 2.625c.358.016.668.168.875.219.027.007.65.159.844.75.192.59-.027 1.628 0 2.28.028.686.31 1.407-.719 1.407-.323 0-.645.03-.969 0-.032-.003-.687.063-1.125-.47-.564-.682-.854-2.154.031-3.593.3-.488.703-.61 1.063-.593zm-160.563 3.094c.621.01 1.293.037 1.875 0 1.785-.115 1.5 1.947-.094 3.53-.997.99-3.537 1.919-5.063 2.47-2.697.977-2.606-1.25-1.406-2.938.545-.766 1.673-1.122 2.25-1.531.46-.327.331-1.17.781-1.344.47-.18 1.035-.197 1.657-.187zm153.656.25c.307-.02.537.068.72.28.62.727 1.031.578 1.124.907.234.839-1.34 2.027-2.094 2.594-2.562 1.927-2.02 1.95-5.406 1.438-2.319-.353-3.908-1.224-3.78-1.906.174-.938 2.792-.853 4.905-1.594 2.103-.738 3.61-1.662 4.531-1.72zm56.657 1.218c3.28.138 10.702 5.083 19.875 11.313 6.535 4.439 15.862 8.927 22.531 13.25 7.592 4.922 18.016 10.489 26.25 14.938 4.318 2.333 8.978 4.302 6.656 4.063-.427-.044-3.055-.934-4.938-1.72-3.035-1.264-6.262-3.7-9.78-5.75-4.982-2.9-10.308-5.582-14.345-8.03-4.064-2.464-8.797-4.78-13.03-7.438-8.189-5.138-15.47-9.661-18.939-11.188-2.957-1.303-5.878-2.87-7.656-4.125-2.773-1.957-3.829-3.42-6.53-3.156-2.76.267-5.738 3.234-10.626 6.719-4.258 3.033-9.249 4.816-13.438 6.625-1.73.746-3.133 3.198-5.094 3.063-.938-.064-1.772-.318-2.438-.813-.51-.38 5.49-3.14 12.188-6.625 4.294-2.235 8.77-4.98 12.344-6.906 3.311-1.785 5.355-3.675 5.813-3.97.292-.187.688-.27 1.157-.25zm-181.813 1.125a22.24 22.24 0 011.656 0c5.703.188 15.843 2.084 21.25 3.25 10.741 2.318 22.144 5.936 30.031 10.094 1.423.75 8.103 2.539 9.906 5 1.234 1.685-3.279 3.905-5.156 4.438-.706.2-2.295-.84-3.375-1.25-4.449-1.69-10.919-5.421-14.219-6.531-2.018-.68-10.898-4.072-20.063-6.031-11.783-2.52-25.075-2.788-24.938-3.531.74-4.006 1.47-5.293 4.908-5.44zm69.063 0c2.965-.028 7.17 2.085 10.406 3.875 2.438 1.35 4.515 2.309 4.094 3.125-1.225 2.37-3.97 3.42-6.53 2.906-1.605-.322-2.92-1.672-4.407-2.438-1.452-.75-2.988-.96-3.75-1.906-.607-.756.07-1.438 0-2.22-.11-1.22-.775-3.332.187-3.342zm32.281.282c1.921.063 4.241 3.8 3.844 4.469-.17.288-2.602-1.664-4.594-1.813-.936-.07-2.475 1.116-4.563 2.53-2.692 1.824-6.739 4.063-9.906 6.345-3.549 2.555-6.43 5.606-8.156 6-.319.072-.54-.545-.78-.625-.98-.322 17.082-11.37 17.718-12 1.495-1.486 3.941-3.588 5.656-4.688.25-.16.507-.227.781-.218zm-126.53 4.28c.261-.002.485.025.718.095.98.294.717.993.688 1.688-.044 1.047-.539 2.565-2.03 3.906-.897.806-2.626 1.42-3.5 2.156-1.142.959-1.405 1.944-2.345 2.406-.596.292-1.252.188-1.594.188 0-2.887.05-4.248 2.156-6.813 1.581-1.927 4.071-3.608 5.906-3.625zm22.28 5.407c1.834-.066 4.51.25 8.125.625 4.384.453 9.938.646 14.625 2.219 4.107 1.377 8.98 1.939 13.906 3.469 9.227 2.866 18.268 6.528 20.156 7.094 3.15.944-.55 1.87-1.969 3.063-1.825 1.53-2.925 2.433-5.094 2.03-.879-.162-4.983-2.071-10.375-4.155-9.94-3.841-18.68-6.241-29.375-7.594-2.916-.368-6.494.497-8.313.313-3.24-.328-3.908-1.408-4.125-2.031-1.31-3.765-.619-4.923 2.44-5.033zm-20.719 3.03c.918.01 2.437 3.143 2.25 4.032-.232 1.11-1.71 3.673-5.906 6.125-1.299.759-2.445 1.554-3.219 1.188-2.234-1.06-1.354-4.18.063-6.25.79-1.155 2.39-2.42 3.375-3.594.29-.346 2.233-1.511 3.437-1.5zm22.47 7.126c.894-.017 2.062.026 3.562.063.085.002 7.784.472 14.406 1.469 4.68.703 8.821 2.015 9.375 2.156 4.031 1.036 9.821 3.095 13.75 5.125 1.15.594 2.748.818 3.344 1.469 1.193 1.303.336 3.344-1.594 3.625-1.704.247-4.132-1.068-8.625-2.75-4.8-1.796-10.656-3.838-16.53-5.094-1.009-.216-4.884-1.323-8.939-1.75-5.215-.55-10.705-.434-10.75-.594-.872-3.066-.684-3.67 2-3.72zm102.843 1c.255.006.504.038.75.094 1.2.272 5.213 1.157 7.75 2.469.396.205 2.455 1.753 4.313 2.969 3.246 2.124 2.034 2.656.563 2.125-.619-.225-1.52-1.012-2.625-1.594-1.612-.852-3.51-1.561-4.5-2.094-1.378-.743-2.67-1.993-4.344-2.281-2.289-.395-4.648.652-6.219 1.5-.856.46-1.49.558-2.438 1.375-.765.659-2.575 2.083-2.438.906.021-.167.611-.72.688-1 .06-.222 1.25-.75 2.531-1.72 2.168-1.638 4.18-2.787 5.97-2.75zm39.406 0c2.818-.108 4.896 1.045 4.625 2.063-.107.398-.026.948-1.219 1.125-2.332.346-3.47 1.714-5.219 2.75a17.151 17.151 0 01-6.313 2.188c-.963.13-1.836.439-2.938.25-.676-.117-.662-1.34-.406-1.75.44-.712 1.406-.637 2.344-.875 2.206-.56 4.686-2.321 6.531-3.781.966-.765 1.531-1.93 2.595-1.97zm-77.219 1.657c.98 0 2.063.142 2.063 1.03-2.229 0-2.132 3.126-3.594 3.126 0 2.193-3.094 2.44-3.094 3.594-2.109 0-3.173 2.063-5.688 2.063 0 .92-2.563.779-2.563 2.063-1.894 0-1.754 2.125-3.656 2.125 0-.98-1.019-1.563 0-1.563 0-1.593 3.656-1.862 3.656-3.125.88 0 3.594-1.258 3.594-2.063.878 0 3.594-1.26 3.594-2.063h1.063c0-.924 4.625-3.041 4.625-5.187zm-86.094.312c.48-.007.955.089 1.375.344.471.286.38.949.594 1.406.47 1.006.874 2.063 1.094 3.28.25 1.384-.609 1.77-1.313 2.72-.48.65-.342 2.065-1.938 2.28-.75.103-1.937 1.56-3.03 1.25-.657-.183-1.246-1.867-1.75-2.437-.549-.617-1.412-1.164-1.282-2.656.3-3.441 2.69-4.651 3.906-5.406.721-.447 1.544-.77 2.344-.781zm-24.468 4.344h6.22c0 1.68 1.53 2.465 1.53 4.125 1.28 0 1.135 2.594 2.063 2.594 0 1.504-2.063-.317-2.063-1.563-.969 0-.937-1.531-2.563-1.531 0-1.055-2.063-.51-2.063-1.563-1.473 0-6.219-.033-6.219 1.563-1.513 0-1.707 1.03-3.625 1.03 0 1.094-2.563 1.289-2.563 2.564-1.072 0-1.822 2.625-3.625 2.625 0 1.753-2.094 2.024-2.094 3.094-1.184 0-.603 1.53-1.53 1.53 0-1.1.504-3.593 1.53-3.593 0-1.828 2.625-2.438 2.625-3.656 1.506 0 1.827-1.531 3.594-1.531 0-.64 2.063-.98 2.063-2.063 1.398 0 1.733-1.031 3.125-1.031 0-1.08 2.563-.352 2.563-1.563.44 0 1.032-.605 1.032-1.031zm47.875.156c1.151.054 3.278.92 6.47 1.063 3.221.144 6.225.04 9.343.656 2.72.536 5.425 1.097 7.094 2.188 1.438.942 1.353 3.353 2.188 4.219 2.04 2.116 2.048 2.704.47 2.28-.668-.18-1.27-.7-2.689-1.093-2.094-.58-4.997-2.332-8.313-3-3.718-.747-8.518-.963-11.625-1.656-3.328-.742-3.712-1.23-3.906-2.563-.248-1.681.071-2.136.968-2.094zm202.281 2.906c.8-.06 2.767 1.03 5.25 2.219 4.278 2.049 10.07 5.04 13.813 7.656.982.688 2.12 1.467 3.125 1.906.733.32 1.294.54 1.188.906-.09.306-.75 1.035-1.78 1.03-1.099-.003-2.405-1.028-5.22-2.468-3.003-1.533-6.212-3.462-7.094-4.063-1.077-.73-3.515-2.283-5.469-3.531-.95-.606-1.604-1.238-2.28-1.5-.769-.298-1.51-.212-2.282-.688-.774-.475-.895-1.347.75-1.467zm-80.25.844c.536.017 1.046.209 1.313.563.435.579-2.64 2.997-3.125 3.28-.572.335-1.635.474-2.594.876-1.52.638-2.996 1.508-3.563 1.563-3.093.3.188-1.023 1.938-2.406 1.62-1.28 2.77-1.52 4.594-3.375.344-.352.9-.518 1.437-.501zm-141.688 1.813c1.344.023 1.634 1.988 1.625 5.813-.003.88-.06 2.38-1.188 2.656-1.238.304-2.796-.58-3.438-.97-3.47-2.102.435-7.545 3.001-7.5zm24.97 2.5c5.118.169 15.23 3.964 16.53 4.28 2.511.616 4.65.838 4.406 1.75-1.058 3.978-5.984 1.64-9.03.876-3.897-.977-8.314-1.38-10.689-2.188-6.06-2.062-4.72-4.836-1.218-4.718zm229.593 52.187c-1.854 0-3.614.502-5.28 1.5-1.67.998-2.912 2.33-3.72 3.969-.808 1.637-1.234 3.64-1.313 6.063h1.5c.263-2.068.805-3.504 1.625-4.313.82-.808 1.81-1.188 3-1.188.634 0 1.71.16 3.22.5 2.618.627 4.76.938 6.374.938 2.512 0 5.562-.591 9.188-1.781-3.849 2.52-6.464 4.488-7.844 5.906-1.38 1.418-2.355 2.979-2.938 4.688-.584 1.709-.926 4.42-1.03 8.156a34.058 34.058 0 00-3.657-.22c-2.648 0-4.823.74-6.53 2.25-1.709 1.51-2.705 3.553-2.97 6.095l1.531.5c.606-1.237 1.203-2.043 1.813-2.438 1.136-.764 2.456-1.156 3.938-1.156 2.377 0 4.15.932 5.313 2.813.74 1.166 1.13 3.06 1.156 5.656a31.236 31.236 0 00-1.344-.031c-2.48 0-4.478.698-5.969 2.125-1.49 1.427-2.25 3.249-2.25 5.469 0 .238.034.624.063 1.125l1.406.03c.237-1.396.717-2.423 1.406-3.03.688-.607 1.568-.906 2.656-.906 1.19 0 2.187.37 2.97 1.125.78.755 1.155 1.74 1.155 2.906 0 .979-.327 2.018-1 3.156-.673 1.138-2.214 2.943-4.625 5.406-2.414 2.463-3.994 4.345-4.719 5.656-.726 1.31-1.094 2.497-1.094 3.53 0 1.112.307 2.018.906 2.72.598.7 1.285 1.063 2.031 1.063.48 0 .914-.228 1.313-.625.4-.397.594-.846.594-1.375 0-.558-.29-1.31-.844-2.25-.556-.941-.813-1.648-.813-2.125 0-1.273.938-2.54 2.844-3.813 2.833-1.908 6.594-2.875 11.281-2.875 3.812 0 7.381.575 10.72 1.688 2.064.662 4.257 1.786 6.562 3.375 6.648-5.521 14.692-8.813 24.125-9.875V617.68c0-3.1-.34-5.3-1-6.625-.66-1.325-1.817-2.401-3.469-3.25-1.653-.848-4.238-1.432-7.78-1.75 4.147-3.158 6.984-5.892 8.53-8.188 1.546-2.296 2.313-4.506 2.313-6.656 0-2.627-.987-4.953-2.969-6.97-1.402-1.432-3.469-2.538-6.219-3.28-8.623 2.647-14.223 4.772-16.78 6.375-2.562 1.604-4.328 3.542-5.282 5.78-.955 2.24-1.406 6.074-1.406 11.532v11.719c0 4.425-.82 7.784-2.438 10.063-1.618 2.278-4.777 4.42-9.469 6.406 2.405-2.544 4.02-4.825 4.813-6.813.793-1.986 1.188-4.766 1.188-8.344v-16.313c0-4.373.948-7.896 2.844-10.531 1.895-2.636 5.68-5.342 11.406-8.125l-.75-1.75c-2.225.954-4.043 1.589-5.406 1.906-1.364.318-2.764.5-4.219.5-1.986 0-4.578-.425-7.78-1.22-3.205-.792-5.5-1.185-6.877-1.185zm-342.156.875c-1.404 1.989-2.56 3.237-3.5 3.78-.94.545-2.288.814-4.063.814-2.649 0-7.518-.57-14.563-1.75-7.046-1.181-11.938-1.781-14.719-1.781-4 0-7.563.759-10.688 2.28-3.126 1.524-5.656 3.689-7.563 6.47-1.43 2.093-2.6 5.02-3.5 8.78l1.531.876c.924-2.943 2.026-5.14 3.281-6.625 1.254-1.484 3.005-2.674 5.25-3.563 2.244-.89 4.275-1.294 6.125-1.188l5 .28c-3.282 2.308-5.825 4.405-7.625 6.314-2.833 3.05-4.982 6.254-6.438 9.594a26.014 26.014 0 00-2.188 10.5c0 3.633.661 6.886 2 9.75 1.338 2.864 3.063 5.297 5.156 7.313 2.093 2.016 4.39 3.574 6.906 4.688 4.345 1.908 9.018 2.875 14 2.875 5.112 0 9.604-1.035 13.5-3.063 3.895-2.026 7.098-4.748 9.563-8.22 1.536-2.145 2.865-5.011 4.031-8.562l-1.5-.72c-2.038 3.6-4.275 6.362-6.656 8.282-2.38 1.92-5.573 3.5-9.594 4.719V593.49c1.857.159 3.448.25 4.75.25 2.442 0 4.597-.42 6.47-1.281 1.87-.861 3.28-2.047 4.25-3.531.968-1.483 1.723-3.523 2.28-6.094zm109.468.594c-2.177 0-4.178.4-5.969 1.219-1.79.819-3.612 2.1-5.469 3.844l1.063 1.219c2.256-1.36 4.292-2.063 6.125-2.063 1.672 0 3.213.399 4.594 1.188 1.381.789 2.308 1.772 2.813 2.969.505 1.195.781 3.082.781 5.656v2.78l-10.375 6.782c-1.453.979-3.126 1.953-5 2.906v1.656c3.667.983 6.697 2.364 9.063 4.156 2.365 1.793 4.002 3.778 4.906 5.969.903 2.19 1.38 5.107 1.406 8.719-3.77.764-6.997 1.918-9.625 3.5-2.629 1.582-5.738 4.355-9.375 8.28l1.25 1.532c2.63-2.066 5.24-3.59 7.844-4.531 2.604-.941 5.92-1.515 9.906-1.75v16.188h14.781v-15.5c2.36.185 4.738.58 7.125 1.188 2.386.607 5.207 1.586 8.47 2.906l12.218-10.875v-25.313c0-3.605-.355-6.331-1.03-8.188-.677-1.855-2.055-3.848-4.189-5.97-2.135-2.12-5.999-4.941-11.594-8.468l-11 7.125v-7.125h-1.813v8.25l-4.78 3.188c-.055-2.58-.48-4.61-1.314-6.125-.837-1.515-2.242-2.8-4.219-3.813-1.974-1.013-4.179-1.5-6.593-1.5zm-87.812 1.812c-1.948.264-3.662.756-5.156 1.469-1.495.713-3.06 1.844-4.688 3.375-1.37-1.21-2.469-2.076-3.313-2.563-.844-.487-1.979-.918-3.375-1.313l-.406 1.03c1.706.98 2.83 2.064 3.406 3.282.577 1.218.875 3.467.875 6.75v36.156l-3.156 3.158 7.094 5.656 7-5.656-2.844-2.875v-22.188l6.781-5.531c1.498.956 2.531 1.925 3.094 2.906.374.717.563 2.017.563 3.875v16.656c0 6.13-.238 9.946-.688 11.406-.609 1.938-1.92 3.744-3.906 5.469-1.985 1.725-5.506 3.653-10.563 5.75l.531 1.5c6.234-2.201 11.372-4.82 15.406-7.844 3.077-2.281 5.202-4.714 6.344-7.313.716-1.592 1.063-4.113 1.063-7.563v-18.031c0-3.793-.389-6.484-1.188-8.063-.8-1.578-2.518-3.21-5.156-4.906l-12.28 9.78v-12.968c0-2.993.365-5.187 1.062-6.563.695-1.377 1.975-2.657 3.875-3.875zm353.781.625c2.834 1.248 4.947 2.646 6.313 4.25 1.364 1.604 2.031 3.523 2.031 5.75 0 2.705-.877 5.21-2.625 7.53-1.749 2.32-4.438 4.583-8.094 6.782v-10.343h-1.78v33.125c-3.266-1.008-6.746-1.5-10.407-1.5-2.15 0-4.443.16-6.938.53 4.62-2.702 7.673-4.737 9.188-6.155 1.514-1.417 2.53-2.873 3.063-4.344.531-1.471.813-3.68.813-6.594v-16.281c0-2.941.177-5.018.563-6.25a7.144 7.144 0 012.063-3.22c.993-.9 2.938-1.981 5.81-3.28zm-200.78.407l-2.032 8.563h1.625l5.47-8.563zm-41.282 3.03c4.174 2.095 7.347 4.002 9.5 5.75 2.153 1.75 3.56 3.397 4.22 4.907.66 1.51 1.003 3.408 1.03 5.688-2.014 1.34-3.784 2.24-5.28 2.75a14.64 14.64 0 01-4.75.78c-1.67 0-3.249-.27-4.72-.78-1.47-.51-3.202-1.41-5.188-2.75V591.71zm131.468 1.188l-11.094 13.719v1.75h3.75v22.75c0 1.854-.205 3.27-.656 4.25-.346.769-1.062 1.535-2.125 2.25v.78c3.767 1.092 7.147 3.19 10.125 6.25l8.75-7-1-1.155-2.53 1.906-4.439-3.25V604.96h7.97v-4.47h-7.97l.375-11zm-299.875.907l2.094.219v29.688c0 3.102-.202 5.149-.625 6.156-.425 1.007-1.598 2.32-3.53 3.938-6.093-4.69-9.157-10.735-9.157-18.156 0-4.347 1.123-8.58 3.375-12.688 1.668-3.048 4.294-6.11 7.843-9.157zm10.313 1.625c1.927.4 4.147.78 6.656 1.125v41c-2.3.287-4.026.438-5.188.438-2.194 0-4.498-.335-6.875-.97-1.374-.368-3.156-1.071-5.375-2.155 4.438-3.551 7.394-6.17 8.875-7.813.818-.955 1.337-1.807 1.563-2.563.225-.754.344-2.53.344-5.313zm151.094.906v57.969h-4.78v-54.813zm-67.625 5.906c-4.402 2.244-7.214 3.634-8.406 4.188-1.645.74-3.696 1.57-6.188 2.469v22.75c0 2.598-.165 4.28-.469 5.063-.304.782-.886 1.439-1.78 1.969v1.03c3.124.68 5.522 1.3 7.218 1.907 1.696.607 3.878 1.634 6.5 3.03l12.844-8.968-.875-1.188-6.219 4.25-9.219-3.656v-7.25l17.813-12.47zm112.937 0l-7.063 5.813 3 3.094v22.188c0 3.34.328 5.692.938 7.03.61 1.34 1.97 2.772 4.094 4.282l8.438-7-.938-1.22c-1.043.894-1.73 1.438-2.063 1.626a1.528 1.528 0 01-.78.188c-.404 0-.778-.342-1.157-1.031-.379-.688-.594-2.158-.594-4.438v-21.625l3.188-3.094zm23.063 0l-8.219 7.188.938 1.125c1.027-1.037 1.814-1.563 2.406-1.563.54 0 1.051.354 1.5 1.03.45.678.688 2.049.688 4.095v16.25c0 2.364-.202 3.977-.563 4.813-.36.837-1.107 1.646-2.28 2.469v.813a20.485 20.485 0 014.843 2c1.475.85 3.288 2.25 5.47 4.188l10.124-8.156-.906-1.313-4.094 3.219-4.5-3.25v-23.158l3.938-3.563 5 6.375 5.97-5.344-5.97-7.22-8.938 7.782c0-1.402-.284-2.486-.813-3.281-.82-1.268-2.347-2.78-4.594-4.5zm37.625 0c-2.384 2.469-5.128 3.719-8.25 3.719-.503 0-1.28-.053-2.313-.125l-.563 1.063 4.813 10.188c-3.196 3.716-5.446 6.963-6.75 9.75-.986 2.124-1.469 4.396-1.469 6.813 0 3.61 2.255 7.283 6.781 11l12.125-9.563c.078 2.255.444 4.02 1.125 5.28.68 1.262 2.018 2.69 4.031 4.282l8.47-7.313-.939-1.22c-.933.768-1.496 1.189-1.688 1.314-.312.148-.62.219-.906.219-.55 0-1.013-.33-1.406-1.031-.395-.702-.594-2.47-.594-5.281v-16.938c0-2.016.175-3.602.563-4.781.387-1.18 1.307-2.898 2.75-5.125l-1.438-.531c-.689.967-1.178 1.554-1.469 1.75-.292.195-.727.28-1.28.28-1.219 0-2.962-.345-5.25-1.03-2.29-.687-4.412-1.587-6.343-2.72zm61.718 0c-4.4 2.244-7.183 3.634-8.375 4.188-1.645.74-3.727 1.57-6.219 2.469v22.75c0 2.598-.134 4.28-.438 5.063-.304.782-.918 1.439-1.813 1.969v1.03c3.126.68 5.523 1.3 7.22 1.907 1.695.607 3.876 1.634 6.5 3.03l12.843-8.968-.844-1.188-6.25 4.25-9.219-3.656v-7.25l17.813-12.47zm118.5 0c-2.383 2.469-5.127 3.719-8.25 3.719-.504 0-1.28-.053-2.313-.125l-.563 1.063 4.813 10.188c-3.196 3.716-5.445 6.963-6.75 9.75-.986 2.124-1.469 4.396-1.469 6.813 0 3.61 2.254 7.283 6.781 11l12.094-9.563c.077 2.255.476 4.02 1.156 5.28.68 1.262 2.017 2.69 4.031 4.282l8.47-7.313-.939-1.22c-.933.768-1.496 1.189-1.688 1.314-.312.148-.62.219-.906.219-.55 0-1.013-.33-1.406-1.031-.393-.702-.594-2.47-.594-5.281v-16.938c0-2.016.175-3.602.563-4.781.387-1.18 1.306-2.898 2.75-5.125l-1.438-.531c-.689.967-1.179 1.554-1.469 1.75-.292.195-.726.28-1.28.28-1.219 0-2.962-.345-5.25-1.03-2.289-.687-4.41-1.587-6.343-2.72zm28.5 0l-8.313 6.969.97 1.313c.233-.211.394-.395.5-.5.704-.686 1.305-1.031 1.75-1.031.548 0 1.06.384 1.53 1.125.601.955.875 2.757.875 5.406v19c0 1.564-.103 2.764-.313 3.625-.212.86-.608 1.807-1.188 2.813-.212.372-.757 1.006-1.625 1.906-1.818 1.854-2.719 3.758-2.719 5.719 0 1.986.834 3.71 2.47 5.156 1.634 1.443 3.964 2.156 7 2.156 2.9 0 5.287-.648 7.187-1.97 1.24-.82 1.875-1.654 1.875-2.5 0-.476-.185-.865-.5-1.155-.317-.291-.724-.438-1.25-.438-.476 0-.877.14-1.219.406-.343.265-.776.825-1.25 1.688-.476.862-.938 1.422-1.438 1.688-1.03.558-2.356.844-3.938.844-2.189 0-3.95-.565-5.28-1.72-1.333-1.153-2-2.428-2-3.78 0-.797.19-1.521.562-2.156.502-.876 1.371-1.76 2.563-2.688.554-.451 2.226-1.521 5.031-3.22 6.43-3.84 11.083-6.941 13.97-9.312 2.883-2.371 4.992-4.894 6.343-7.531 1.35-2.64 2.031-5.286 2.031-7.938 0-4.932-2.088-9.553-6.219-13.875l-11.969 9.594v-.875c0-1.993-.359-3.545-1.03-4.688-.673-1.141-2.137-2.491-4.406-4.031zm-327.687 2.688v11.75c-1.433-1.447-2.789-2.618-4.063-3.5-1.272-.882-2.822-1.71-4.625-2.5zm-60.688 1.875l9.906 11.03-10.469 7.345V603.71zm235.344 0l9.906 11.03-10.469 7.345V603.71zm-64.937.562l13.625 4.156v10.156l-8.78-4.094zm180.218 0l13.594 4.156v10.156l-8.75-4.094zm49.157 1.594c2.875 3.414 4.313 6.896 4.313 10.469 0 2.647-.773 5.45-2.344 8.375-1.572 2.925-4.213 5.736-7.938 8.438v-22.47zm-304.375 1.156v12.344c-2.146-1.197-3.963-2-5.406-2.438a15.387 15.387 0 00-4.5-.656c-1.562 0-3.098.236-4.594.688-1.498.452-3.318 1.236-5.438 2.406v-12.063c2.013 1.17 3.716 1.944 5.094 2.344a16.23 16.23 0 004.531.625c1.722 0 3.311-.22 4.781-.656 1.47-.437 3.333-1.322 5.532-2.594zm230.812.656c2.275.977 3.804 2.019 4.625 3.125.82 1.107 1.25 2.588 1.25 4.406-2.17.75-4.128 1.125-5.875 1.125-1.748 0-3.706-.374-5.875-1.125v-3.812c1.031-.558 2.99-1.807 5.875-3.72zM336.02 615.43l9.656 4.5v9.78l-6.063 4.845c-3.885-2.78-5.813-6.336-5.813-10.625.002-2.436.735-5.27 2.22-8.5zm180.22 0l9.624 4.5v9.78l-6.03 4.845c-3.885-2.78-5.814-6.336-5.814-10.625 0-2.436.733-5.27 2.22-8.5zm-34.25 1.219c2.09.75 4.047 1.125 5.874 1.125 1.693 0 3.65-.374 5.875-1.125v7.094c-2.304-.715-4.312-1.063-6.03-1.063-1.776 0-3.683.348-5.72 1.063zm-234.845 1.187c1.694 0 3.261.23 4.72.719 1.456.488 3.2 1.434 5.187 2.78V634.9c-4.08-1.928-7.654-3.287-10.688-4.094a41.436 41.436 0 00-9.25-1.375v-8.094c2.04-1.348 3.811-2.293 5.281-2.781 1.47-.488 3.054-.72 4.75-.72zm240.375 6.438c1.693 0 3.783.423 6.22 1.28v5.407a40.961 40.961 0 00-8.532 3.375c-1.007-.637-2.08-1.183-3.219-1.688v-7.094c1.932-.858 3.758-1.28 5.531-1.28z" fill="url(#b)"/></svg>